<svg width="24" height="28" viewBox="0 0 24 28" fill="none" xmlns="http://www.w3.org/2000/svg">
<path d="M8.22003 12.2C8.39006 12.0023 8.62853 11.8763 8.88762 11.8471C9.12296 11.8781 9.33673 12.0002 9.48292 12.1872C9.52145 12.2277 9.56758 12.2602 9.61867 12.2829C9.66976 12.3055 9.72481 12.3179 9.78068 12.3193C9.83655 12.3207 9.89215 12.311 9.94429 12.2909C9.99644 12.2708 10.0441 12.2406 10.0846 12.2021C10.1251 12.1636 10.1576 12.1175 10.1802 12.0664C10.2029 12.0153 10.2153 11.9602 10.2167 11.9044C10.218 11.8485 10.2084 11.7929 10.1883 11.7407C10.1682 11.6886 10.138 11.6409 10.0995 11.6004C9.95152 11.4242 9.76934 11.2798 9.56396 11.176C9.35858 11.0722 9.13428 11.0112 8.90463 10.9966C8.66289 11.005 8.42533 11.062 8.20614 11.1643C7.98696 11.2666 7.79066 11.412 7.62898 11.5919C7.58401 11.6294 7.54728 11.6758 7.52109 11.7282C7.49489 11.7806 7.47979 11.8378 7.47674 11.8963C7.47369 11.9548 7.48275 12.0132 7.50335 12.068C7.52396 12.1229 7.55566 12.1728 7.59647 12.2148C7.63729 12.2568 7.68634 12.2899 7.74054 12.3121C7.79475 12.3342 7.85295 12.3449 7.91149 12.3435C7.97003 12.3421 8.02765 12.3287 8.08074 12.304C8.13384 12.2793 8.18125 12.2439 8.22003 12.2ZM14.0327 12.3191C14.1137 12.2174 14.2148 12.1337 14.3297 12.0729C14.4446 12.0122 14.5707 11.9758 14.7003 11.9661C14.9357 11.9971 15.1494 12.1193 15.2956 12.3063C15.3734 12.3881 15.4805 12.4356 15.5934 12.4383C15.7062 12.4411 15.8155 12.399 15.8973 12.3212C15.9791 12.2434 16.0266 12.1363 16.0294 12.0234C16.0322 11.9106 15.99 11.8013 15.9122 11.7195C15.7642 11.5433 15.582 11.3989 15.3767 11.2951C15.1713 11.1913 14.947 11.1303 14.7173 11.1157C14.4758 11.123 14.2383 11.1792 14.0191 11.2807C13.7998 11.3823 13.6034 11.5272 13.4417 11.7067C13.3605 11.7851 13.3137 11.8925 13.3118 12.0054C13.3098 12.1182 13.3527 12.2272 13.4311 12.3084C13.5094 12.3896 13.6169 12.4364 13.7297 12.4383C13.8425 12.4403 13.9515 12.3974 14.0327 12.3191Z" fill="#2A7DB7"/>
<path d="M21.7546 20.024C22.3277 19.9498 22.8958 19.8404 23.4555 19.6966C23.5273 19.6806 23.5938 19.6463 23.6484 19.597C23.703 19.5477 23.7438 19.485 23.767 19.4152C23.7901 19.3453 23.7947 19.2707 23.7804 19.1985C23.766 19.1264 23.7332 19.0592 23.6851 19.0035C22.1883 17.2431 21.0275 13.6628 20.6405 10.9839C20.7614 10.6617 20.8133 10.3177 20.7928 9.97412C20.7723 9.63058 20.6798 9.29518 20.5215 8.98963C20.4705 3.0196 16.0567 0.29396 11.9534 0.29396C9.76331 0.270622 7.64234 1.05993 6.00035 2.50934C4.23995 4.09539 3.30448 6.33628 3.27896 8.98963C3.1178 9.29717 3.02315 9.63518 3.00118 9.9817C2.9792 10.3282 3.03038 10.6755 3.1514 11.0009C2.74744 13.684 1.5866 17.2686 0.102598 19.0035C0.0555128 19.0583 0.023184 19.1243 0.00866574 19.1951C-0.00585251 19.2659 -0.00208099 19.3392 0.0196241 19.4082C0.0413291 19.4771 0.0802513 19.5394 0.132714 19.5891C0.185177 19.6388 0.249449 19.6743 0.319459 19.6923C1.1014 19.8942 1.89967 20.0265 2.70492 20.0878C1.48455 21.3337 0.425763 23.6809 0.425763 25.4795C0.42523 25.5681 0.452402 25.6547 0.503482 25.7271C0.554562 25.7996 0.626995 25.8542 0.710658 25.8835C3.35058 26.7552 6.09449 27.2728 8.87056 27.4228H8.96836C9.36381 27.4483 9.76351 27.4695 10.1675 27.4823L10.2057 27.5078H10.2398C10.665 27.5078 11.0902 27.5291 11.5154 27.5291C12.2553 27.5291 13.0037 27.5035 13.7563 27.4653H13.7946C13.8144 27.4668 13.8343 27.4668 13.8541 27.4653L14.8831 27.376H14.9426C17.8959 27.151 20.8223 26.6557 23.6851 25.8962C23.7779 25.8713 23.8595 25.8157 23.9166 25.7385C23.9737 25.6613 24.003 25.567 23.9998 25.471C24.0168 23.6468 22.9069 21.3081 21.7546 20.024ZM15.0447 17.7916C16.0162 17.283 16.851 16.548 17.4786 15.6488C18.1062 14.7496 18.5081 13.7125 18.6505 12.6252C19.1329 12.5481 19.5831 12.3341 19.9474 12.0087C20.4109 14.3516 21.3336 17.1963 22.622 19.0035C19.7816 19.6158 17.2898 19.2076 15.0447 17.7916ZM15.219 22.554L16.8349 24.2294L14.7088 26.5341L14.2325 26.5681V18.3486L16.7838 20.6661L15.2616 21.9417C15.2168 21.9791 15.1802 22.0253 15.1541 22.0774C15.128 22.1296 15.1128 22.1865 15.1096 22.2447C15.1065 22.303 15.1153 22.3612 15.1356 22.4159C15.1558 22.4706 15.1871 22.5205 15.2275 22.5625L15.219 22.554ZM9.11293 26.5851L6.94858 24.2379L8.56865 22.5583C8.60904 22.5162 8.64035 22.4663 8.66063 22.4116C8.68092 22.357 8.68973 22.2987 8.68654 22.2405C8.68335 22.1823 8.66822 22.1253 8.64209 22.0732C8.61596 22.0211 8.57938 21.9749 8.53464 21.9375L7.01236 20.6618L9.70398 18.2041L9.77627 18.2296V26.6063L9.11293 26.5851ZM4.04861 10.9499C3.9255 10.7345 3.85309 10.4939 3.83688 10.2463C3.82067 9.99876 3.86109 9.75076 3.95506 9.52115H5.05637V11.7323C4.84524 11.6744 4.64758 11.5756 4.47467 11.4413C4.30175 11.3071 4.15698 11.1401 4.04861 10.9499ZM5.9068 11.7493V9.52115H8.4581C10.4056 9.52115 10.8903 8.8238 11.8598 7.44184L11.9066 7.37806C12.9441 8.75576 13.8541 9.50414 16.3246 9.50414H17.8596V11.7323C17.8596 12.5171 17.705 13.2943 17.4047 14.0194C17.1044 14.7444 16.6641 15.4033 16.1092 15.9582C15.5542 16.5132 14.8954 16.9534 14.1703 17.2538C13.4452 17.5541 12.668 17.7087 11.8832 17.7087C11.0984 17.7087 10.3212 17.5541 9.59614 17.2538C8.87105 16.9534 8.21221 16.5132 7.65725 15.9582C7.10229 15.4033 6.66207 14.7444 6.36173 14.0194C6.06138 13.2943 5.9068 12.5171 5.9068 11.7323V11.7493ZM19.8326 9.52115C19.9225 9.74742 19.9604 9.99101 19.9435 10.2339C19.9266 10.4768 19.8553 10.7128 19.7348 10.9244C19.6256 11.1199 19.4789 11.2919 19.303 11.4305C19.1272 11.5692 18.9256 11.6717 18.7101 11.7323V9.52115H19.8326ZM10.631 18.4549C11.5428 18.6314 12.4816 18.614 13.3864 18.4039V20.3259C13.3864 21.0573 12.6635 21.3932 11.9959 21.3932C11.4814 21.3974 10.631 21.1721 10.631 20.3301V18.4549ZM11.9534 1.14439C13.9093 1.11566 15.8052 1.81943 17.2686 3.1174C18.7526 4.46958 19.5605 6.38306 19.6668 8.67072H16.3076C13.9646 8.67072 13.3651 7.97337 12.2298 6.40006C12.1893 6.34653 12.1373 6.30271 12.0778 6.27181C12.0182 6.24092 11.9524 6.22372 11.8853 6.22147C11.8179 6.22179 11.7515 6.23814 11.6916 6.2692C11.6317 6.30025 11.58 6.34511 11.5409 6.40006L11.1497 6.95285C10.2312 8.27102 9.95486 8.65371 8.44959 8.65371H4.12089C4.32925 3.50434 8.27526 1.14439 11.9534 1.14439ZM3.82749 12.0087C4.18491 12.3321 4.62766 12.5461 5.10314 12.6252C5.24383 13.7164 5.64589 14.7574 6.27515 15.6598C6.90441 16.5622 7.74226 17.2994 8.71748 17.8086C6.4936 19.2118 4.00608 19.6158 1.16564 19.0035C2.44554 17.2048 3.40228 14.3644 3.82749 12.0087ZM4.1379 20.0878C5.08541 20.0441 6.0225 19.871 6.92307 19.5733L6.07263 20.3514C6.02668 20.3913 5.98982 20.4406 5.96457 20.496C5.93931 20.5514 5.92624 20.6116 5.92624 20.6724C5.92624 20.7333 5.93931 20.7935 5.96457 20.8489C5.98982 20.9043 6.02668 20.9536 6.07263 20.9935L7.61617 22.2691L6.05563 23.936C5.98148 24.0148 5.9402 24.119 5.9402 24.2273C5.9402 24.3355 5.98148 24.4397 6.05563 24.5185L7.86705 26.4873C5.62801 26.2988 3.41721 25.8594 1.2762 25.1776C1.42502 23.0856 3.03659 20.445 4.14215 20.109L4.1379 20.0878ZM10.631 26.6574V21.8652C11.0406 22.1191 11.5139 22.2518 11.9959 22.2479C12.4865 22.2517 12.9683 22.1176 13.3864 21.8609V26.6148C12.4537 26.6432 11.5352 26.6574 10.631 26.6574ZM15.9674 26.4448L17.7321 24.5313C17.8062 24.4524 17.8475 24.3483 17.8475 24.24C17.8475 24.1318 17.8062 24.0276 17.7321 23.9487L16.1588 22.2946L17.7023 21.019C17.7483 20.9791 17.7851 20.9298 17.8104 20.8744C17.8356 20.819 17.8487 20.7588 17.8487 20.698C17.8487 20.6371 17.8356 20.5769 17.8104 20.5215C17.7851 20.4662 17.7483 20.4168 17.7023 20.3769L16.8519 19.5988C17.9348 19.9602 19.0694 20.1426 20.2111 20.1388H20.6065C21.5973 20.8659 23.0047 23.2386 23.1578 25.1776C20.7951 25.7787 18.3899 26.198 15.9632 26.432L15.9674 26.4448Z" fill="#2A7DB7"/>
<path d="M11.9493 15.9374C12.4693 15.9218 12.9655 15.7161 13.344 15.3591C13.3864 15.3229 13.4213 15.2786 13.4466 15.2288C13.4719 15.179 13.4872 15.1247 13.4915 15.0691C13.4959 15.0134 13.4892 14.9574 13.4719 14.9043C13.4546 14.8512 13.427 14.802 13.3908 14.7596C13.3545 14.7172 13.3102 14.6823 13.2604 14.657C13.2106 14.6316 13.1563 14.6164 13.1007 14.612C13.045 14.6077 12.989 14.6144 12.9359 14.6317C12.8828 14.6489 12.8336 14.6765 12.7912 14.7128C12.2172 15.2061 11.6771 15.2018 11.0478 14.7128C11.004 14.6782 10.9538 14.6526 10.9 14.6373C10.8463 14.6221 10.79 14.6177 10.7346 14.6242C10.6225 14.6373 10.5203 14.6945 10.4504 14.783C10.3805 14.8715 10.3486 14.9842 10.3617 15.0962C10.3749 15.2083 10.432 15.3105 10.5205 15.3804C10.9196 15.7231 11.4235 15.9196 11.9493 15.9374Z" fill="#2A7DB7"/>
</svg>
