<svg width="24" height="25" viewBox="0 0 24 25" fill="none" xmlns="http://www.w3.org/2000/svg">
<path fill-rule="evenodd" clip-rule="evenodd" d="M9.66069 3.57645C9.66069 3.97664 9.58187 4.37292 9.42872 4.74264C9.27557 5.11237 9.0511 5.44831 8.76813 5.73129C8.48515 6.01427 8.14921 6.23874 7.77948 6.39189C7.40975 6.54503 7.01348 6.62386 6.61329 6.62386C6.2131 6.62386 5.81683 6.54503 5.4471 6.39189C5.07737 6.23874 4.74143 6.01427 4.45845 5.73129C4.17547 5.44831 3.951 5.11237 3.79786 4.74264C3.64471 4.37292 3.56589 3.97664 3.56589 3.57645C3.56589 2.76823 3.88695 1.99311 4.45845 1.42162C5.02995 0.850117 5.80507 0.529053 6.61329 0.529053C7.42151 0.529053 8.19663 0.850117 8.76813 1.42162C9.33963 1.99311 9.66069 2.76823 9.66069 3.57645ZM8.30629 3.57645C8.30629 4.02547 8.12792 4.45609 7.81042 4.77359C7.49292 5.09109 7.0623 5.26945 6.61329 5.26945C6.16428 5.26945 5.73366 5.09109 5.41616 4.77359C5.09866 4.45609 4.92029 4.02547 4.92029 3.57645C4.92029 3.12744 5.09866 2.69682 5.41616 2.37932C5.73366 2.06182 6.16428 1.88345 6.61329 1.88345C7.0623 1.88345 7.49292 2.06182 7.81042 2.37932C8.12792 2.69682 8.30629 3.12744 8.30629 3.57645Z" fill="#2A7DB7"/>
<path d="M17.7646 1.26445L22.6452 6.14503L21.6876 7.10259L20.812 6.22697V10.0098H18.7804V8.31681C18.7804 8.04741 18.6734 7.78903 18.4829 7.59853C18.2924 7.40803 18.034 7.30101 17.7646 7.30101C17.4952 7.30101 17.2368 7.40803 17.0463 7.59853C16.8558 7.78903 16.7488 8.04741 16.7488 8.31681V10.0098H14.7172V6.22697L13.8416 7.10259L12.884 6.14503L17.7646 1.26445Z" fill="#2A7DB7"/>
<path fill-rule="evenodd" clip-rule="evenodd" d="M7.82431 7.30116H8.08097V7.31064C8.33153 7.32961 8.64237 7.38243 8.97149 7.51719C10.8832 8.30274 11.3681 10.2815 11.616 11.296L11.618 11.3027C11.7534 11.8526 11.7561 11.8682 11.8333 12.2183C11.9071 12.5515 12.05 13.2023 12.4543 14.9766C12.5266 15.2931 12.5219 15.6224 12.4406 15.9367C12.3594 16.2511 12.204 16.5414 11.9875 16.7834C11.7709 17.0253 11.4995 17.2118 11.1961 17.3273C10.8926 17.4428 10.5659 17.4838 10.2433 17.447L10.6496 19.5057C10.7708 20.1206 10.4471 20.7876 9.7848 20.9975C9.10422 21.2136 7.85207 21.5224 6.25253 21.5224C4.65298 21.5224 3.40084 21.2136 2.71957 20.9975C2.05727 20.7876 1.73425 20.1206 1.85547 19.5057L2.26111 17.447C1.93863 17.4836 1.61206 17.4425 1.30875 17.327C1.00543 17.2116 0.734197 17.0251 0.517752 16.7832C0.301308 16.5414 0.145955 16.2512 0.0646999 15.937C-0.016555 15.6228 -0.0213464 15.2937 0.0507268 14.9772C0.452984 13.2084 0.59655 12.5569 0.670365 12.2224L0.671719 12.2183C0.74892 11.8682 0.752306 11.8526 0.887069 11.3021L0.888423 11.2953C1.13696 10.2815 1.62183 8.30207 3.53357 7.51787C3.89792 7.37146 4.28742 7.29784 4.68007 7.30116H7.82431ZM6.72657 8.65556H4.68075C4.50467 8.65556 4.27849 8.67588 4.04756 8.77069C2.84756 9.26301 2.47172 10.5246 2.20287 11.6244C2.07014 12.1648 2.06811 12.1743 1.99565 12.5014L1.99497 12.5061L1.99429 12.5102C1.9198 12.8468 1.77556 13.4989 1.37127 15.2772C1.33761 15.4239 1.35375 15.5776 1.41715 15.714C1.48054 15.8505 1.58757 15.9619 1.72135 16.0308C1.85512 16.0997 2.00803 16.122 2.15592 16.0943C2.30382 16.0667 2.43828 15.9905 2.53808 15.8779L3.35614 11.9183L4.68278 12.1926L3.85524 16.1948L3.88571 16.2063L3.19226 19.7264C3.7909 19.9106 4.87442 20.168 6.25253 20.168C7.63063 20.168 8.71415 19.9106 9.31212 19.7264L8.61866 16.205L8.64914 16.1935L7.82295 12.1926L9.14891 11.919L9.96697 15.8772C10.0668 15.9897 10.2011 16.0658 10.3489 16.0934C10.4967 16.1211 10.6495 16.0988 10.7832 16.03C10.9169 15.9613 11.024 15.85 11.0874 15.7137C11.1509 15.5774 11.1672 15.4238 11.1338 15.2772C10.7288 13.4996 10.5853 12.8461 10.5108 12.5102L10.5087 12.5014C10.4369 12.1743 10.4342 12.1648 10.3022 11.6244C10.0327 10.5246 9.65749 9.26301 8.45749 8.77001C8.25613 8.691 8.04127 8.65212 7.82499 8.65556L6.72657 8.65692V8.65556Z" fill="#2A7DB7"/>
<path d="M3.78693 24.8473C3.54876 24.8087 3.33212 24.6865 3.17577 24.5028C3.01943 24.319 2.9336 24.0856 2.93365 23.8443V22.2157C3.83704 22.3227 4.67677 22.3911 5.49686 22.4215L4.91311 24.1667C4.83655 24.3952 4.68125 24.589 4.47495 24.7136C4.26865 24.8381 4.02479 24.8859 3.78693 24.8473ZM7.59957 24.189L6.96706 22.4371C7.83691 22.4205 8.70564 22.3667 9.57089 22.2759V23.8443C9.57089 24.0834 9.48658 24.3148 9.33278 24.4978C9.17898 24.6809 8.96555 24.8038 8.73006 24.845C8.49456 24.8861 8.25209 24.8429 8.04531 24.723C7.83853 24.603 7.68069 24.4139 7.59957 24.189ZM18.1036 13.7926L24 19.689L23.0424 20.6466L21.854 19.4588V24.3353H19.3537V22.2516C19.3537 21.92 19.222 21.602 18.9876 21.3676C18.7531 21.1332 18.4352 21.0014 18.1036 21.0014C17.7721 21.0014 17.4541 21.1332 17.2197 21.3676C16.9852 21.602 16.8535 21.92 16.8535 22.2516V24.3353H14.3519V19.4588L13.1641 20.6466L12.2066 19.689L18.1036 13.7926Z" fill="#2A7DB7"/>
</svg>
