<svg width="24" height="18" viewBox="0 0 24 18" fill="none" xmlns="http://www.w3.org/2000/svg">
<path d="M5.43025 6.8997C5.43025 6.60305 5.31003 6.33449 5.11571 6.14014C4.92136 5.9458 4.65282 5.8256 4.35617 5.8256C4.05951 5.8256 3.79097 5.94582 3.59664 6.14014C3.4023 6.33448 3.28208 6.60305 3.28208 6.8997V11.4571H5.43025V6.8997ZM5.82277 5.43308C6.19812 5.80846 6.43032 6.32702 6.43032 6.8997V11.7564C6.43032 11.7904 6.42858 11.8346 6.42518 11.8885C6.42326 11.9169 6.42064 11.9453 6.41732 11.9736C6.40866 12.2421 6.18825 12.4572 5.91758 12.4572H2.79705C2.54782 12.4587 2.33101 12.2738 2.29875 12.0204L2.79475 11.9572L2.30058 12.0197C2.29386 11.9667 2.28931 11.9228 2.28714 11.8884C2.28375 11.8345 2.28201 11.7904 2.28201 11.7564V6.8997C2.28201 6.32702 2.51421 5.80846 2.88957 5.43308C3.26494 5.05773 3.7835 4.82553 4.35617 4.82553C4.92884 4.82553 5.44739 5.05773 5.82275 5.43308H5.82277Z" fill="#2A7DB7"/>
<path d="M3.3702 6.47147C3.49533 6.22552 3.39739 5.9247 3.15145 5.79957C2.90552 5.67444 2.60468 5.77238 2.47955 6.01833L0.0544286 10.7705C-0.0707009 11.0164 0.0272401 11.3173 0.273186 11.4424C0.519117 11.5675 0.819956 11.4696 0.945086 11.2236L3.3702 6.47147ZM6.23192 6.01831C6.10679 5.77237 5.80595 5.67443 5.56002 5.79955C5.31407 5.92468 5.21613 6.22552 5.34126 6.47145L7.76636 11.2237C7.89149 11.4696 8.19233 11.5675 8.43826 11.4424C8.68421 11.3173 8.78215 11.0164 8.65702 10.7705L6.23192 6.01831ZM3.88136 11.9572C3.88136 11.6811 3.65748 11.4572 3.38135 11.4572C3.10518 11.4572 2.8813 11.6811 2.8813 11.9572V17.0731C2.8813 17.3492 3.10518 17.5731 3.38133 17.5731C3.65748 17.5731 3.88136 17.3492 3.88136 17.0731V11.9572ZM5.83167 11.9572C5.83167 11.6811 5.60778 11.4572 5.33165 11.4572C5.05548 11.4572 4.8316 11.6811 4.8316 11.9572V17.0731C4.8316 17.3492 5.05548 17.5731 5.33163 17.5731C5.60779 17.5731 5.83167 17.3492 5.83167 17.0731V11.9572ZM4.43454 0.864532C4.93651 0.864532 5.39103 1.06804 5.72005 1.39705C6.04907 1.72605 6.25257 2.18056 6.25257 2.68257C6.25257 3.18454 6.04907 3.63909 5.72005 3.96807C5.39103 4.29709 4.93651 4.50059 4.43454 4.50059C3.93257 4.50059 3.47807 4.29709 3.14904 3.96807C2.82006 3.63909 2.61652 3.18454 2.61652 2.68257C2.61652 2.18058 2.82006 1.72605 3.14904 1.39705C3.47807 1.06804 3.93257 0.864532 4.43454 0.864532ZM5.013 2.10412C4.86499 1.95613 4.66047 1.86458 4.43454 1.86458C4.20859 1.86458 4.0041 1.95613 3.85611 2.10412C3.70815 2.2521 3.6166 2.45664 3.6166 2.68258C3.6166 2.90851 3.70815 3.11305 3.85611 3.26101C4.0041 3.40898 4.20861 3.50055 4.43454 3.50055C4.66048 3.50055 4.86499 3.40898 5.013 3.26101C5.16097 3.11304 5.25252 2.9085 5.25252 2.68257C5.25252 2.45662 5.16097 2.2521 5.013 2.10412ZM17.5702 6.85509C17.5819 6.30015 17.8117 5.79873 18.1773 5.43314C18.5526 5.05778 19.0712 4.8256 19.6439 4.8256C20.2165 4.8256 20.7351 5.05778 21.1105 5.43314C21.476 5.79873 21.7058 6.30017 21.7175 6.85509L22.747 12.6693L22.7474 12.6693C22.7531 12.7014 22.7555 12.7333 22.755 12.7647C22.7548 12.7975 22.753 12.8389 22.7499 12.8885C22.7478 12.9228 22.7432 12.9668 22.7365 13.0198L22.6841 13.0132L22.6839 13.0135L22.7383 13.0205C22.7061 13.2739 22.4892 13.4588 22.24 13.4573H17.0454C16.7747 13.4573 16.5543 13.2422 16.5457 12.9736C16.5424 12.9454 16.5397 12.917 16.5378 12.8886C16.5344 12.8347 16.5327 12.7905 16.5327 12.7564C16.5327 12.7194 16.5368 12.6833 16.5444 12.6485L17.5702 6.85509ZM18.8843 6.14021C18.691 6.33354 18.571 6.60032 18.5698 6.89514C18.5701 6.92591 18.5675 6.95663 18.5621 6.98693L18.5618 6.98685L17.5931 12.4572H21.6946L20.7297 7.00772C20.7219 6.97226 20.7179 6.93606 20.7179 6.89975C20.7179 6.60308 20.5977 6.33454 20.4034 6.14021C20.2091 5.94587 19.9405 5.82567 19.6439 5.82567C19.3472 5.82567 19.0787 5.94587 18.8843 6.14021Z" fill="#2A7DB7"/>
<path d="M21.5212 6.01831C21.3961 5.77237 21.0953 5.67443 20.8493 5.79955C20.6034 5.92468 20.5054 6.22552 20.6306 6.47145L23.0557 11.2237C23.1808 11.4696 23.4816 11.5675 23.7276 11.4424C23.9735 11.3173 24.0714 11.0164 23.9463 10.7705L21.5212 6.01831ZM18.6596 6.47147C18.7847 6.22552 18.6867 5.9247 18.4408 5.79957C18.1949 5.67444 17.894 5.77238 17.7689 6.01833L15.3438 10.7705C15.2187 11.0164 15.3166 11.3173 15.5626 11.4424C15.8085 11.5675 16.1093 11.4696 16.2344 11.2237L18.6596 6.47147ZM21.1195 12.9573C21.1195 12.6811 20.8956 12.4573 20.6195 12.4573C20.3433 12.4573 20.1194 12.6811 20.1194 12.9573V17.0731C20.1194 17.3492 20.3433 17.5731 20.6195 17.5731C20.8956 17.5731 21.1195 17.3492 21.1195 17.0731V12.9573ZM19.1691 12.9573C19.1691 12.6811 18.9452 12.4573 18.6691 12.4573C18.3929 12.4573 18.169 12.6811 18.169 12.9573V17.0731C18.169 17.3492 18.3929 17.5731 18.6691 17.5731C18.9452 17.5731 19.1691 17.3492 19.1691 17.0731V12.9573ZM19.5661 1.8646C19.3402 1.8646 19.1357 1.95617 18.9877 2.10414C18.8397 2.25211 18.7482 2.45664 18.7482 2.68258C18.7482 2.90851 18.8397 3.11304 18.9877 3.26104C19.1357 3.40898 19.3402 3.50055 19.5661 3.50055C19.7921 3.50055 19.9966 3.40898 20.1446 3.26101C20.2925 3.11304 20.3841 2.9085 20.3841 2.68258C20.3841 2.45664 20.2925 2.2521 20.1446 2.10412C19.9966 1.95615 19.7921 1.8646 19.5661 1.8646ZM18.2806 1.39708C18.6096 1.06804 19.0641 0.864532 19.5661 0.864532C20.0681 0.864532 20.5226 1.06804 20.8516 1.39707C21.1806 1.7261 21.3842 2.18061 21.3842 2.68258C21.3842 3.18455 21.1806 3.63909 20.8516 3.96807C20.5226 4.29709 20.0681 4.5006 19.5661 4.5006C19.0642 4.5006 18.6096 4.29708 18.2806 3.96808C17.9516 3.63907 17.7481 3.18455 17.7481 2.68257C17.7481 2.18058 17.9516 1.72606 18.2806 1.39708ZM8.5881 11.5191C8.60185 11.3128 8.44573 11.1344 8.23944 11.1207C8.03314 11.1069 7.85474 11.263 7.84099 11.4693C7.84063 11.4746 7.68974 13.3327 9.51805 13.485C9.72434 13.502 9.90539 13.3485 9.92236 13.1423C9.93935 12.936 9.78587 12.7549 9.57957 12.7379C8.49681 12.6477 8.58788 11.5223 8.5881 11.5191Z" fill="#2A7DB7"/>
<path d="M10.3461 13.4983C10.3462 13.4622 10.3391 13.4265 10.3253 13.3932C10.3115 13.3599 10.2912 13.3296 10.2657 13.3041C10.2402 13.2786 10.21 13.2584 10.1767 13.2446C10.1433 13.2308 10.1076 13.2237 10.0716 13.2238C10.0355 13.2237 9.99979 13.2308 9.96647 13.2446C9.93315 13.2584 9.90289 13.2786 9.87742 13.3041C9.85189 13.3296 9.83165 13.3599 9.81785 13.3932C9.80405 13.4265 9.79698 13.4622 9.79702 13.4983V15.006H10.3461V13.4983ZM10.796 12.7738C10.9814 12.9593 11.0961 13.2154 11.0961 13.4983V15.381C11.0961 15.5881 10.9282 15.756 10.7211 15.756H9.42201C9.21491 15.756 9.047 15.5881 9.047 15.381V13.4983C9.047 13.2154 9.16172 12.9593 9.34712 12.7738C9.53251 12.5884 9.78869 12.4737 10.0716 12.4737C10.3544 12.4737 10.6106 12.5884 10.796 12.7738Z" fill="#2A7DB7"/>
<path d="M9.91584 15.5979C9.91584 15.3908 9.74792 15.2229 9.54082 15.2229C9.33372 15.2229 9.16581 15.3908 9.16581 15.5979V17.2761C9.16581 17.4832 9.33372 17.6511 9.54082 17.6511C9.74792 17.6511 9.91584 17.4832 9.91584 17.2761V15.5979ZM10.9772 15.5979C10.9772 15.3908 10.8093 15.2229 10.6022 15.2229C10.3951 15.2229 10.2272 15.3908 10.2272 15.5979V17.2762C10.2272 17.4833 10.3951 17.6512 10.6022 17.6512C10.8093 17.6512 10.9772 17.4833 10.9772 17.2762V15.5979ZM10.026 10.3537C10.3095 10.3537 10.5663 10.4687 10.7521 10.6545C10.938 10.8403 11.053 11.0971 11.053 11.3806C11.053 11.6642 10.938 11.921 10.7521 12.1068C10.5663 12.2926 10.3095 12.4076 10.026 12.4076C9.74247 12.4076 9.4857 12.2926 9.29985 12.1068C9.11403 11.921 8.99905 11.6642 8.99905 11.3806C8.99905 11.0971 9.11403 10.8404 9.29985 10.6545C9.48571 10.4687 9.74247 10.3537 10.026 10.3537ZM10.2218 11.1848C10.1962 11.159 10.1656 11.1386 10.132 11.1247C10.0984 11.1108 10.0624 11.1037 10.026 11.1037C9.98962 11.1037 9.95359 11.1108 9.91998 11.1247C9.88637 11.1386 9.85584 11.159 9.83015 11.1848C9.8044 11.2105 9.78399 11.241 9.77007 11.2746C9.75616 11.3082 9.74903 11.3443 9.74908 11.3806C9.74908 11.4571 9.78008 11.5264 9.83015 11.5765C9.85584 11.6022 9.88637 11.6226 9.91998 11.6366C9.95359 11.6505 9.98962 11.6576 10.026 11.6576C10.1025 11.6576 10.1718 11.6266 10.2218 11.5765C10.2476 11.5508 10.268 11.5203 10.2819 11.4866C10.2959 11.453 10.303 11.417 10.3029 11.3806C10.3029 11.3041 10.2719 11.2349 10.2218 11.1848ZM11.5476 14.4309C11.5282 14.6363 11.679 14.8187 11.8845 14.8381C12.09 14.8575 12.2723 14.7067 12.2917 14.5012C12.2922 14.4958 12.494 12.6208 10.1612 12.4752C9.9549 12.4631 9.77778 12.6205 9.76566 12.8268C9.75353 13.033 9.91095 13.2102 10.1172 13.2223C11.669 13.3192 11.5479 14.4277 11.5476 14.4309Z" fill="#2A7DB7"/>
<path d="M11.6319 14.5012C11.6513 14.7066 11.8336 14.8575 12.0391 14.8381C12.2446 14.8187 12.3955 14.6363 12.376 14.4309C12.3758 14.4277 12.2546 13.3192 13.8064 13.2223C14.0127 13.2102 14.1701 13.0331 14.158 12.8267C14.1459 12.6204 13.9688 12.463 13.7624 12.4752C11.4296 12.6208 11.6314 14.4958 11.6319 14.5012Z" fill="#2A7DB7"/>
<path d="M16.0836 11.4694C16.0699 11.2631 15.8915 11.107 15.6852 11.1208C15.4789 11.1345 15.3228 11.3129 15.3365 11.5192C15.3367 11.5224 15.4278 12.6478 14.345 12.7381C14.1387 12.755 13.9853 12.9361 14.0022 13.1424C14.0192 13.3487 14.2003 13.5021 14.4066 13.4852C16.2349 13.3328 16.084 11.4748 16.0836 11.4694Z" fill="#2A7DB7"/>
<path d="M14.126 13.4983C14.126 13.4622 14.1189 13.4265 14.1052 13.3932C14.0914 13.3599 14.0711 13.3296 14.0456 13.3041C14.0201 13.2786 13.9899 13.2584 13.9565 13.2446C13.9232 13.2308 13.8875 13.2237 13.8514 13.2238C13.8154 13.2237 13.7797 13.2308 13.7463 13.2446C13.713 13.2584 13.6828 13.2786 13.6573 13.3041C13.6318 13.3296 13.6115 13.3599 13.5977 13.3932C13.5839 13.4265 13.5769 13.4622 13.5769 13.4983V15.006H14.126V13.4983ZM14.5759 12.7738C14.7613 12.9593 14.876 13.2154 14.876 13.4983V15.381C14.876 15.5881 14.7081 15.756 14.501 15.756H13.2019C12.9948 15.756 12.8269 15.5881 12.8269 15.381V13.4983C12.8269 13.2154 12.9416 12.9593 13.127 12.7738C13.3124 12.5884 13.5686 12.4737 13.8514 12.4737C14.1343 12.4737 14.3905 12.5884 14.5759 12.7738Z" fill="#2A7DB7"/>
<path d="M13.6957 15.5979C13.6957 15.3908 13.5278 15.2229 13.3207 15.2229C13.1136 15.2229 12.9457 15.3908 12.9457 15.5979V17.2761C12.9457 17.4832 13.1136 17.6511 13.3207 17.6511C13.5278 17.6511 13.6957 17.4832 13.6957 17.2761V15.5979ZM14.757 15.5979C14.757 15.3908 14.5891 15.2229 14.382 15.2229C14.1749 15.2229 14.007 15.3908 14.007 15.5979V17.2762C14.007 17.4833 14.1749 17.6512 14.382 17.6512C14.5891 17.6512 14.757 17.4833 14.757 17.2762V15.5979ZM13.8059 10.3537C14.0895 10.3537 14.3462 10.4687 14.5321 10.6545C14.7179 10.8403 14.8329 11.0971 14.8329 11.3806C14.8329 11.6642 14.7179 11.921 14.5321 12.1068C14.3462 12.2926 14.0894 12.4076 13.8059 12.4076C13.5224 12.4076 13.2656 12.2926 13.0798 12.1068C12.8939 11.921 12.779 11.6642 12.779 11.3806C12.779 11.0971 12.8939 10.8404 13.0798 10.6545C13.2656 10.4687 13.5224 10.3537 13.8059 10.3537ZM14.0018 11.1848C13.9761 11.159 13.9455 11.1386 13.9119 11.1247C13.8783 11.1108 13.8423 11.1037 13.8059 11.1037C13.7695 11.1037 13.7335 11.1108 13.6999 11.1247C13.6663 11.1386 13.6357 11.159 13.6101 11.1848C13.5843 11.2105 13.5639 11.241 13.55 11.2746C13.5361 11.3082 13.5289 11.3443 13.529 11.3806C13.529 11.4571 13.56 11.5264 13.6101 11.5765C13.6357 11.6022 13.6663 11.6226 13.6999 11.6366C13.7335 11.6505 13.7695 11.6576 13.8059 11.6576C13.8824 11.6576 13.9517 11.6266 14.0018 11.5765C14.0275 11.5508 14.0479 11.5203 14.0619 11.4866C14.0758 11.453 14.0829 11.417 14.0829 11.3806C14.0829 11.3041 14.0519 11.2349 14.0018 11.1848Z" fill="#2A7DB7"/>
</svg>
