<svg width="24" height="25" viewBox="0 0 24 25" fill="none" xmlns="http://www.w3.org/2000/svg">
<path d="M8.50056 6.36578C7.12062 6.36578 6.00067 5.02084 6.00067 3.36591C5.9769 3.03151 6.02527 2.69591 6.1425 2.38183C6.25972 2.06775 6.44307 1.78253 6.68012 1.54548C6.91717 1.30843 7.2024 1.12508 7.51648 1.00785C7.83056 0.890627 8.16616 0.842259 8.50056 0.866025C8.83496 0.842259 9.17056 0.890627 9.48464 1.00785C9.79872 1.12508 10.0839 1.30843 10.321 1.54548C10.558 1.78253 10.7414 2.06775 10.8586 2.38183C10.9758 2.69591 11.0242 3.03151 11.0004 3.36591C11.0004 5.02084 9.8805 6.36578 8.50056 6.36578ZM8.50056 1.86598C8.29817 1.84381 8.0934 1.86737 7.90133 1.93491C7.70927 2.00245 7.53482 2.11225 7.39086 2.25621C7.24689 2.40017 7.13709 2.57462 7.06955 2.76669C7.00201 2.95875 6.97846 3.16353 7.00062 3.36591C7.00062 4.47087 7.67559 5.36582 8.50056 5.36582C9.32552 5.36582 10.0005 4.47087 10.0005 3.36591C10.0227 3.16353 9.9991 2.95875 9.93156 2.76669C9.86402 2.57462 9.75422 2.40017 9.61026 2.25621C9.4663 2.11225 9.29185 2.00245 9.09978 1.93491C8.90772 1.86737 8.70294 1.84381 8.50056 1.86598Z" fill="#2A7DB7"/>
<path d="M4.5 11.3651H3.50005V8.15522C3.4963 7.53721 3.7216 6.93972 4.13248 6.47806C4.54336 6.0164 5.11068 5.7233 5.72495 5.65533L8.44483 5.36534L8.55482 6.3653L5.83494 6.67028C5.46638 6.71107 5.12599 6.88692 4.87946 7.16392C4.63294 7.44092 4.49775 7.79941 4.5 8.17022V11.3651Z" fill="#2A7DB7"/>
<path d="M5.5 8.36569H6.49996V11.3656H5.5V8.36569ZM10.4998 8.36569H11.4997V11.3656H10.4998V8.36569ZM15.4996 6.36578C14.1196 6.36578 12.9997 5.02084 12.9997 3.36591C12.9759 3.03151 13.0243 2.69591 13.1415 2.38183C13.2587 2.06775 13.4421 1.78253 13.6791 1.54548C13.9162 1.30843 14.2014 1.12508 14.5155 1.00785C14.8296 0.890627 15.1652 0.842259 15.4996 0.866025C15.834 0.842259 16.1696 0.890627 16.4836 1.00785C16.7977 1.12508 17.0829 1.30843 17.32 1.54548C17.557 1.78253 17.7404 2.06775 17.8576 2.38183C17.9748 2.69591 18.0232 3.03151 17.9994 3.36591C17.9994 5.02084 16.8795 6.36578 15.4996 6.36578ZM15.4996 1.86598C15.2972 1.84381 15.0924 1.86737 14.9003 1.93491C14.7083 2.00245 14.5338 2.11225 14.3899 2.25621C14.2459 2.40017 14.1361 2.57462 14.0685 2.76669C14.001 2.95875 13.9775 3.16353 13.9996 3.36591C13.9996 4.47087 14.6746 5.36583 15.4996 5.36583C16.3245 5.36583 16.9995 4.47087 16.9995 3.36591C17.0217 3.16353 16.9981 2.95875 16.9306 2.76669C16.863 2.57462 16.7532 2.40017 16.6093 2.25621C16.4653 2.11225 16.2908 2.00245 16.0988 1.93491C15.9067 1.86737 15.7019 1.84381 15.4996 1.86598Z" fill="#2A7DB7"/>
<path d="M11.5 11.3651H10.5V8.15522C10.4963 7.53721 10.7216 6.93972 11.1325 6.47806C11.5434 6.0164 12.1107 5.7233 12.7249 5.65533L15.4448 5.36534L15.5548 6.3653L12.8349 6.67028C12.4664 6.71107 12.126 6.88692 11.8795 7.16392C11.6329 7.44092 11.4978 7.79941 11.5 8.17022V11.3651Z" fill="#2A7DB7"/>
<path d="M12.5 8.36521H13.5V11.3651H12.5V8.36521ZM20.4996 11.3651H19.4997V8.15522C19.5019 7.78441 19.3668 7.42592 19.1202 7.14892C18.8737 6.87193 18.5333 6.69607 18.1647 6.65528L15.4449 6.3653L15.5549 5.36534L18.2747 5.66533C18.889 5.7333 19.4563 6.0264 19.8672 6.48806C20.2781 6.94972 20.5034 7.54721 20.4996 8.16522V11.3651Z" fill="#2A7DB7"/>
<path d="M17.5 8.36534H18.5V11.3652H17.5V8.36534Z" fill="#2A7DB7"/>
<path d="M23.4995 16.8651H0.500562C0.418664 16.8652 0.33799 16.8452 0.265631 16.8068C0.193272 16.7685 0.131443 16.7129 0.0855805 16.6451C0.0399759 16.5775 0.0115799 16.4998 0.00286567 16.4188C-0.00584858 16.3378 0.00538317 16.2558 0.0355827 16.1801L2.03549 11.1803C2.07254 11.0873 2.13667 11.0075 2.21958 10.9514C2.30248 10.8952 2.40034 10.8652 2.50047 10.8653H21.4996C21.5998 10.8652 21.6976 10.8952 21.7805 10.9514C21.8634 11.0075 21.9276 11.0873 21.9646 11.1803L23.9645 16.1801C23.9947 16.256 24.0059 16.3381 23.997 16.4193C23.9882 16.5005 23.9596 16.5783 23.9137 16.6459C23.8678 16.7135 23.8061 16.7688 23.7339 16.807C23.6617 16.8452 23.5812 16.8652 23.4995 16.8651ZM1.24053 15.8651H22.7396L21.1396 11.8653H2.84046L1.24053 15.8651Z" fill="#2A7DB7"/>
<path d="M21.4991 21.8651H2.49998C2.36738 21.8651 2.2402 21.8124 2.14644 21.7186C2.05268 21.6249 2 21.4977 2 21.3651V16.3653C2 16.2327 2.05268 16.1055 2.14644 16.0118C2.2402 15.918 2.36738 15.8653 2.49998 15.8653H21.4991C21.6317 15.8653 21.7589 15.918 21.8527 16.0118C21.9464 16.1055 21.9991 16.2327 21.9991 16.3653V21.3651C21.9991 21.4977 21.9464 21.6249 21.8527 21.7186C21.7589 21.8124 21.6317 21.8651 21.4991 21.8651ZM2.99996 20.8651H20.9992V16.8653H2.99996V20.8651Z" fill="#2A7DB7"/>
<path d="M20.9992 21.3647H21.9991V24.8645H20.9992V21.3647ZM2 21.3647H2.99996V24.8645H2V21.3647Z" fill="#2A7DB7"/>
</svg>
