<svg width="24" height="27" viewBox="0 0 24 27" fill="none" xmlns="http://www.w3.org/2000/svg">
<path d="M23.9237 17.9227C23.8879 17.8731 23.8409 17.8328 23.7865 17.8049C23.7321 17.7771 23.6719 17.7625 23.6108 17.7625H21.5548V17.5307C21.5438 16.9102 21.3553 16.3057 21.0116 15.7889C20.6679 15.2721 20.1833 14.8645 19.6152 14.6145C19.3323 14.4821 19.0451 14.3594 18.7539 14.2465L19.3717 13.4332C19.4289 13.3574 19.4564 13.2633 19.4492 13.1686C19.4419 13.0739 19.4003 12.9852 19.3322 12.919C17.649 11.2875 17.9037 10.4625 18.2898 9.2102C18.5564 8.45656 18.7007 7.6651 18.717 6.86585C18.7582 6.05433 18.6301 5.24311 18.3408 4.4838C18.0515 3.72449 17.6073 3.0337 17.0365 2.45539C15.0675 0.561229 12.1091 0.65575 12.0151 0.662158C11.8923 0.659488 8.93379 0.561763 6.96166 2.45593C6.39074 3.03416 5.94648 3.72493 5.65714 4.48426C5.36781 5.2436 5.23974 6.05485 5.2811 6.86639C5.29747 7.66563 5.4417 8.45709 5.70832 9.21073C6.09441 10.4625 6.34914 11.2886 4.66538 12.9195C4.59761 12.9854 4.55608 13.0736 4.54852 13.1678C4.54096 13.262 4.56787 13.3558 4.62426 13.4316L5.23785 14.2503C4.942 14.3661 4.65577 14.4868 4.38342 14.6166C3.81622 14.8666 3.33247 15.2738 2.98934 15.79C2.6462 16.3063 2.45803 16.9099 2.44707 17.5297V17.7636H0.38789C0.326918 17.7638 0.266851 17.7783 0.212527 17.806C0.158203 17.8337 0.111142 17.8738 0.0751346 17.923C0.0391275 17.9722 0.0151812 18.0292 0.00522514 18.0893C-0.00473097 18.1495 -0.000418562 18.2111 0.0178149 18.2693L2.46309 26.0211C2.48775 26.1 2.53695 26.1689 2.60351 26.2179C2.67007 26.2669 2.75052 26.2934 2.83316 26.2935H21.1671C21.2497 26.2934 21.3302 26.2669 21.3967 26.2179C21.4633 26.1689 21.5125 26.1 21.5372 26.0211L23.9824 18.2693C24.0006 18.211 24.0047 18.1492 23.9945 18.089C23.9843 18.0288 23.9601 17.9718 23.9237 17.9227ZM6.45167 8.98217C6.20818 8.30248 6.07513 7.58817 6.05757 6.86639C6.01843 6.16085 6.12608 5.45487 6.37371 4.79306C6.62133 4.13125 7.00355 3.52801 7.49621 3.02145C9.22537 1.35371 11.9579 1.43595 12.0151 1.43809C12.0386 1.43809 14.7631 1.3473 16.5008 3.01611C16.9946 3.52309 17.3778 4.1271 17.626 4.78988C17.8742 5.45266 17.982 6.15976 17.9427 6.86639C17.9252 7.58817 17.7921 8.30249 17.5486 8.98217C17.147 10.2841 16.7983 11.4157 18.5499 13.2335L17.9913 13.9688C17.4797 13.7987 16.9612 13.6497 16.4373 13.5224C16.0091 13.4242 15.6151 13.2126 15.2968 12.9097C14.9785 12.6069 14.7475 12.2241 14.628 11.8013C15.5488 10.7135 16.0423 9.32784 16.0165 7.90292C16.0195 7.36818 15.9489 6.83556 15.8066 6.32009C15.7876 6.25304 15.751 6.19232 15.7006 6.14423C15.6501 6.09614 15.5877 6.06245 15.5198 6.04667C15.0317 5.9411 14.5745 5.72418 14.184 5.41285C13.7935 5.10152 13.4801 4.70419 13.2684 4.25183C13.2439 4.18874 13.2033 4.13315 13.1507 4.09058C13.0981 4.048 13.0353 4.01993 12.9684 4.00913C12.9016 3.99834 12.8331 4.0052 12.7698 4.02904C12.7064 4.05288 12.6504 4.09286 12.6073 4.14503C11.1056 5.96069 8.58935 6.03492 8.56372 6.03599C8.48063 6.03773 8.40027 6.06597 8.33437 6.1166C8.26847 6.16722 8.22047 6.23759 8.19738 6.31742C8.05521 6.83344 7.98495 7.36661 7.98858 7.90185C7.96321 9.3267 8.45667 10.7122 9.37703 11.8002C9.26487 12.2278 9.03543 12.6155 8.71461 12.9196C8.39378 13.2238 7.99434 13.4322 7.56136 13.5213C7.226 13.6004 6.90292 13.6901 6.57663 13.7883C6.38011 13.8464 6.18893 13.9069 6.0031 13.9699L5.44985 13.2356C7.2025 11.4157 6.85325 10.2841 6.45167 8.98217ZM10.0061 12.3844C10.5756 12.8318 11.2791 13.0746 12.0033 13.0738C12.7275 13.073 13.4304 12.8287 13.999 12.3801C14.2734 13.0395 14.7642 13.5857 15.3906 13.9288C15.2058 15.031 13.701 15.9533 11.9991 15.9533C10.2971 15.9533 8.79067 15.0353 8.60751 13.9395C9.24049 13.5997 9.73512 13.0497 10.0061 12.3844ZM8.76397 7.90452C8.76199 7.53197 8.80012 7.16028 8.87772 6.7959C10.349 6.66698 11.7365 6.05531 12.8241 5.05606C13.3569 5.87833 14.17 6.47928 15.1124 6.7473C15.197 7.12789 15.2388 7.51677 15.2368 7.90666C15.2368 10.329 13.7848 12.299 12.0001 12.299C10.2154 12.299 8.76397 10.3252 8.76397 7.90452ZM3.22139 17.5297C3.23334 17.0572 3.38015 16.5979 3.64451 16.2061C3.90887 15.8143 4.27976 15.5063 4.71344 15.3183C5.38656 15.0045 6.08284 14.7429 6.79611 14.536C7.10813 14.4417 7.4228 14.3564 7.73973 14.2802C7.78832 14.269 7.83425 14.2508 7.88231 14.2374C8.22782 15.6505 9.94149 16.7281 12.0017 16.7281C14.0203 16.7281 15.7569 15.6307 16.1169 14.2332C16.1452 14.2417 16.1703 14.2529 16.2002 14.2615C16.2196 14.2681 16.2394 14.2737 16.2595 14.278C16.5799 14.3544 16.8912 14.4382 17.2009 14.5328C17.9151 14.7404 18.6123 15.0026 19.2863 15.3172C19.7209 15.505 20.0926 15.8133 20.3576 16.2056C20.6226 16.598 20.7697 17.058 20.7815 17.5313V17.763H3.22139V17.5297ZM20.8798 25.5159H3.11779L0.91817 18.54H23.0799L20.8798 25.5159Z" fill="#2A7DB7"/>
<path d="M9.10855 22.3581C9.10855 23.3193 10.5739 23.8256 12.0211 23.8256C13.4683 23.8256 14.9336 23.322 14.9336 22.3581C14.9336 20.4319 9.10855 20.4319 9.10855 22.3581ZM12.0211 23.0486C10.6118 23.0486 9.88501 22.5647 9.88501 22.3581C9.88501 22.1514 10.6118 21.6676 12.0211 21.6676C13.4304 21.6676 14.1572 22.1514 14.1572 22.3581C14.1572 22.5647 13.4304 23.0486 12.0211 23.0486Z" fill="#2A7DB7"/>
</svg>
