<svg width="24" height="20" viewBox="0 0 24 20" fill="none" xmlns="http://www.w3.org/2000/svg">
<path d="M2.42057 16.4706V15.7059C2.42057 15.3059 2.61422 14.9294 2.91679 14.7529C4.96218 13.5647 7.29803 12.9412 9.6823 12.9412C9.71861 12.9412 9.74281 12.9412 9.77912 12.9529C9.90015 12.1294 10.1422 11.3412 10.4932 10.6235C10.2269 10.6 9.96067 10.5882 9.6823 10.5882C6.7534 10.5882 4.01815 11.3765 1.6823 12.7294C0.617247 13.3412 0 14.4941 0 15.7059V18.8235H11.2073C10.6989 18.1176 10.2995 17.3176 10.0333 16.4706H2.42057ZM9.6823 9.41177C12.357 9.41177 14.5234 7.30588 14.5234 4.70588C14.5234 2.10588 12.357 0 9.6823 0C7.00756 0 4.84115 2.10588 4.84115 4.70588C4.84115 7.30588 7.00756 9.41177 9.6823 9.41177ZM9.6823 2.35294C11.0136 2.35294 12.1029 3.41176 12.1029 4.70588C12.1029 6 11.0136 7.05882 9.6823 7.05882C8.35098 7.05882 7.26172 6 7.26172 4.70588C7.26172 3.41176 8.35098 2.35294 9.6823 2.35294ZM22.6929 14.1176C22.6929 13.8588 22.6566 13.6235 22.6203 13.3765L24 12.1882L22.7897 10.1529L21.0348 10.7294C20.6475 10.4118 20.2118 10.1647 19.7277 9.98824L19.3646 8.23529H16.944L16.5809 9.98824C16.0968 10.1647 15.6611 10.4118 15.2738 10.7294L13.5189 10.1529L12.3086 12.1882L13.6884 13.3765C13.652 13.6235 13.6157 13.8588 13.6157 14.1176C13.6157 14.3765 13.652 14.6118 13.6884 14.8588L12.3086 16.0471L13.5189 18.0824L15.2738 17.5059C15.6611 17.8235 16.0968 18.0706 16.5809 18.2471L16.944 20H19.3646L19.7277 18.2471C20.2118 18.0706 20.6475 17.8235 21.0348 17.5059L22.7897 18.0824L24 16.0471L22.6203 14.8588C22.6566 14.6118 22.6929 14.3765 22.6929 14.1176ZM18.1543 16.4706C16.823 16.4706 15.7337 15.4118 15.7337 14.1176C15.7337 12.8235 16.823 11.7647 18.1543 11.7647C19.4856 11.7647 20.5749 12.8235 20.5749 14.1176C20.5749 15.4118 19.4856 16.4706 18.1543 16.4706Z" fill="#2A7DB7"/>
</svg>
