<svg width="25" height="20" viewBox="0 0 25 20" fill="none" xmlns="http://www.w3.org/2000/svg">
<path d="M4.56991 2.77243C4.56991 1.23771 5.70664 0 7.13657 0C8.55738 0 9.70322 1.23771 9.70322 2.77243C9.69411 4.31711 8.54826 5.54486 7.13657 5.54486C5.71575 5.54486 4.56991 4.30715 4.56991 2.77243ZM18.7275 14.6633H14.0704V10.168C14.0704 7.978 12.2986 6.20781 10.3051 6.20781H4.06258C1.87395 6.20781 -0.000982566 8.25639 8.30553e-06 10.275V18.5164C-0.00256796 19.4297 0.594631 19.9066 1.18905 19.9078C1.78497 19.909 2.3781 19.4321 2.3781 18.5164V10.4891H3.1708V19.9078H10.8996V10.4891H11.6923L11.7003 15.8802C11.6951 16.8145 12.2296 17.2123 12.7823 17.232H18.7275C20.3489 17.232 20.3489 14.6633 18.7275 14.6633ZM24.6128 10.4849C24.0866 11.0108 22.6102 9.59846 22.3786 10.311C22.1233 11.0914 23.6037 11.6173 23.4702 12.3554C23.3249 13.1316 22.2805 14.3319 19.1116 13.2885C17.8315 12.8643 15.0358 11.2907 15.3892 8.54655C15.5895 6.98143 16.9167 4.6869 20.1955 5.37393C22.7713 5.90834 24.554 8.3981 24.554 8.3981C25.351 9.58989 24.7894 10.311 24.6128 10.4849ZM16.9598 8.55501C16.6339 8.46596 16.3 8.68644 16.2216 9.03857C16.1391 9.3906 16.3433 9.75108 16.6692 9.83596C16.9951 9.92501 17.3289 9.70452 17.4074 9.35239C17.4899 9.00036 17.2857 8.63988 16.9598 8.55501ZM18.3851 7.61345C18.4676 7.26143 18.2635 6.90095 17.9375 6.81607C17.6116 6.72702 17.2777 6.9475 17.1993 7.29964C17.1168 7.65166 17.3209 8.01215 17.6469 8.09702C17.9728 8.18596 18.3067 7.96548 18.3851 7.61345ZM18.1142 10.1922C17.7883 10.1031 17.4546 10.3236 17.376 10.6757C17.2936 11.0278 17.4977 11.3882 17.8237 11.4731C18.1496 11.5622 18.4833 11.3417 18.5619 10.9895C18.6404 10.6375 18.4441 10.277 18.1142 10.1922ZM20.2738 7.32072C20.3563 6.9687 20.1522 6.60822 19.8262 6.52334C19.5003 6.43429 19.1665 6.65478 19.088 7.00691C19.0055 7.35893 19.2096 7.71941 19.5356 7.80857C19.8615 7.89334 20.1954 7.67703 20.2738 7.32072ZM19.8695 11.138C19.5436 11.0489 19.2098 11.2694 19.1313 11.6216C19.0488 11.9736 19.2529 12.3341 19.5789 12.4189C19.9048 12.508 20.2387 12.2875 20.3171 11.9354C20.3956 11.5792 20.1954 11.2229 19.8695 11.138Z" fill="#2A7DB7"/>
</svg>
