<svg width="24" height="24" viewBox="0 0 24 24" fill="none" xmlns="http://www.w3.org/2000/svg">
<path d="M11.257 0.00399564C10.887 0.0139956 10.522 0.0439956 10.157 0.0989956C9.61701 0.152996 9.07701 0.423996 8.48201 0.693996C7.72501 1.018 6.96701 1.343 6.26401 1.397C5.07401 1.775 4.69601 2.316 4.37201 2.748C4.37201 2.802 4.31801 2.856 4.31801 2.856C3.88501 3.721 3.83101 4.586 3.99301 5.451C4.15501 5.992 4.37101 6.48 4.53301 6.966C4.91301 7.994 5.29101 8.966 5.45301 10.102C5.61601 10.427 5.77701 10.859 5.88501 11.292C6.15501 12.157 6.42701 13.13 7.23801 13.887L7.24401 13.884C7.26101 13.903 7.27401 13.924 7.29201 13.941L7.31301 13.931L7.29301 13.347C7.94101 12.373 8.85901 11.724 10.157 11.454C10.677 11.344 11.238 11.304 11.82 11.326C12.4259 11.3423 13.0284 11.4214 13.618 11.562C15.078 11.94 16.213 12.698 16.268 13.347C16.295 13.701 16.308 14.042 16.3 14.383C16.3 14.447 16.296 14.511 16.293 14.576L16.429 14.644C16.5109 14.5967 16.5813 14.5318 16.635 14.454L16.638 14.451L16.644 14.443C16.684 14.389 16.719 14.319 16.754 14.249C16.774 14.212 16.792 14.163 16.81 14.12C17.015 13.658 17.172 12.967 17.348 12.157C17.402 11.887 17.458 11.67 17.511 11.454C17.944 10.481 18.538 9.616 19.133 8.804C20.106 7.454 21.025 6.209 20.917 4.749C19.133 1.288 16.645 0.746996 15.347 0.476996C15.131 0.422996 15.024 0.422996 14.862 0.368996C13.524 0.124996 12.368 -0.0270044 11.257 0.00399564ZM16.3 14.383C16.3057 14.055 16.295 13.7269 16.268 13.4C16.214 12.697 15.078 11.94 13.564 11.562C12.9912 11.4297 12.4074 11.3507 11.82 11.326C11.2985 11.3085 10.7767 11.3515 10.265 11.454C9.02101 11.724 8.04901 12.374 7.45401 13.346L7.50501 14.777C8.17201 14.422 9.23801 13.903 10.645 13.777C10.71 13.772 10.781 13.772 10.849 13.768C10.966 13.755 11.115 13.724 11.293 13.724C12.9 13.724 14.561 14.258 16.17 15.372C16.209 15.098 16.23 14.823 16.24 14.549L16.285 14.572C16.287 14.509 16.299 14.445 16.3 14.382V14.383ZM11.256 0.0579956C11.38 0.0539956 11.51 0.0679956 11.635 0.0689956C11.405 0.0669956 11.176 0.0719956 10.948 0.0849956C11.051 0.0789956 11.153 0.0609956 11.256 0.0579956ZM10.44 0.129996C10.364 0.138996 10.287 0.142996 10.211 0.153996C9.39401 0.270996 8.43701 0.854996 7.46101 1.199C7.81601 1.067 8.17501 0.902996 8.53601 0.748996C9.07601 0.478996 9.67101 0.207996 10.157 0.153996C10.251 0.139996 10.346 0.140996 10.44 0.129996ZM10.211 0.369996C10.373 0.369996 10.59 0.369996 10.752 0.423996C10.6306 0.39622 10.5051 0.391471 10.382 0.409996C10.49 0.417984 10.5963 0.440867 10.698 0.477996C11.278 1.478 10.272 5.757 10.019 8.627C10.1515 9.53724 10.3059 10.4442 10.482 11.347C9.77901 9.563 9.07601 6.426 8.96701 3.993C8.91301 3.02 8.96801 2.154 9.18501 1.506C9.40001 0.854996 9.72501 0.422996 10.21 0.368996L10.211 0.369996ZM13.347 0.639996C12.537 2.75 12.429 6.75 12.375 7.994C12.321 8.534 12.375 9.72399 12.429 10.589C12.429 10.805 12.483 11.021 12.483 11.238C12.483 11.021 12.429 10.859 12.429 10.643C11.996 7.39899 11.455 3.506 13.347 0.639996ZM16.699 1.019C16.429 3.181 15.294 4.209 14.916 6.319C14.808 7.995 14.591 9.94099 14.537 11.617C14.483 9.94099 14.537 8.157 14.807 6.372C15.077 4.534 15.672 2.695 16.699 1.019ZM6.53001 1.647C6.75313 1.64446 6.96841 1.72914 7.13001 1.883L7.11601 1.876C7.24901 1.968 7.38201 2.085 7.50901 2.26C7.30501 3.228 7.76401 5.292 7.54901 6.93C7.62501 8.478 7.62001 10.11 8.39801 11.389C7.41801 9.879 7.22201 7.951 7.07601 6.153C6.96301 5.063 6.87201 4.056 6.61201 3.25C6.46801 2.945 6.34301 2.675 6.22801 2.428C6.20401 2.391 6.18401 2.349 6.15801 2.314C6.06003 2.21216 6.00245 2.07816 5.99601 1.937C5.99601 1.883 6.04901 1.775 6.10401 1.775C6.15801 1.721 6.26501 1.719 6.31901 1.665C6.3882 1.65171 6.45858 1.64568 6.52901 1.647H6.53001ZM5.18301 2.26C5.12301 2.28 5.09101 2.301 5.04301 2.321C5.22001 2.287 5.40501 2.355 5.56301 2.639C5.37501 3.531 5.99901 6.008 5.99101 7.743C6.30401 9.591 6.54101 11.593 7.56301 12.858C6.37301 11.507 5.88701 9.128 5.50901 7.127C5.18401 5.559 4.91301 4.207 4.37301 3.775C4.31901 3.667 4.26501 3.612 4.26501 3.504C4.26501 3.342 4.26501 3.125 4.37301 2.909C4.09601 3.543 3.96801 4.176 4.00301 4.81C3.96208 4.15514 4.08946 3.5007 4.37301 2.909C4.37301 2.855 4.42701 2.855 4.42701 2.801C4.43901 2.785 4.45801 2.766 4.47101 2.75C4.52876 2.65033 4.60555 2.56301 4.69701 2.493C4.75201 2.432 4.79301 2.373 4.85601 2.311C4.80301 2.367 4.76801 2.421 4.72201 2.476C4.74901 2.458 4.77401 2.439 4.80601 2.424C4.85322 2.37098 4.91139 2.32886 4.97648 2.30054C5.04157 2.27223 5.11204 2.25839 5.18301 2.26ZM4.80601 2.424C4.80201 2.431 4.79801 2.434 4.79401 2.442L4.83101 2.412L4.80601 2.424ZM19.566 3.558L19.561 3.573C19.599 3.568 19.636 3.556 19.674 3.558C19.637 3.556 19.598 3.568 19.559 3.578C18.696 6.22 17.672 8.86199 16.648 11.504C16.6474 11.5051 16.6468 11.5061 16.646 11.507C16.559 11.972 16.412 12.391 16.106 12.697C16.539 12.21 16.592 11.506 16.646 10.641C16.7 9.83 16.7 8.965 17.133 8.099C17.133 8.046 17.134 7.994 17.186 7.94L17.187 7.938C17.284 7.585 17.389 7.249 17.504 6.92C17.922 5.63 18.644 3.754 19.517 3.58C19.533 3.574 19.55 3.561 19.566 3.558ZM8.37401 16.21L8.05001 16.318C8.21201 16.535 8.32001 16.698 8.42801 16.751C8.54309 16.8187 8.67354 16.8559 8.80701 16.859C8.86101 16.859 8.96801 16.859 9.02201 16.805L9.83401 16.535C9.88801 16.535 9.94201 16.481 9.99601 16.481C10.104 16.481 10.158 16.481 10.266 16.535L10.537 16.805L10.807 16.751C10.699 16.589 10.537 16.428 10.429 16.374C10.321 16.32 10.212 16.264 10.05 16.264H9.94201L9.07601 16.589H8.91501C8.80601 16.589 8.69901 16.589 8.64501 16.535C8.59101 16.481 8.48201 16.373 8.37401 16.21ZM5.77801 16.751C5.50801 16.913 5.12901 17.184 4.58801 17.4C4.04801 17.616 3.61501 17.833 3.39801 18.049C3.18301 18.265 3.07501 18.481 3.07501 18.698C3.07501 18.806 3.12901 18.861 3.23701 18.915C3.29101 18.969 3.40001 18.969 3.45401 19.023C4.20823 19.3502 4.94762 19.7105 5.67001 20.103C5.77901 20.157 5.88701 20.266 5.94201 20.32C5.99601 20.374 6.04901 20.374 6.10301 20.374C6.21201 20.374 6.37301 20.321 6.48101 20.212C6.58901 20.104 6.64401 19.995 6.64401 19.887C6.64401 19.779 6.58901 19.726 6.48101 19.672C6.48101 19.672 6.04801 19.455 5.29101 19.131C4.8843 18.9548 4.48769 18.7562 4.10301 18.536C4.26501 18.266 4.58901 18.049 5.07601 17.833C5.61601 17.617 5.99601 17.4 6.15701 17.238C6.21101 17.184 6.21101 17.13 6.21101 17.076C6.19759 16.9945 6.15996 16.9189 6.10301 16.859C6.02898 16.7916 5.93309 16.7533 5.83301 16.751H5.77801ZM17.025 16.751C16.9438 16.7644 16.8685 16.802 16.809 16.859C16.755 16.967 16.7 17.022 16.7 17.076V17.13C16.862 17.292 17.08 17.4 17.404 17.508C17.674 17.562 17.944 17.671 18.215 17.725C18.539 17.833 18.755 17.995 18.864 18.211V18.266C18.864 18.32 18.755 18.428 18.539 18.536C18.431 18.59 18.214 18.753 17.944 18.969C17.674 19.131 17.511 19.292 17.349 19.346C17.133 19.455 16.971 19.563 16.917 19.672C16.863 19.726 16.863 19.779 16.863 19.833C16.863 19.941 16.917 19.941 16.971 20.049C17.025 20.157 17.133 20.159 17.187 20.159C17.241 20.159 17.295 20.103 17.349 20.103C17.619 19.941 17.999 19.725 18.431 19.346C18.917 18.968 19.296 18.698 19.513 18.536C19.729 18.428 19.836 18.319 19.836 18.156C19.836 18.103 19.836 17.995 19.728 17.941C19.35 17.508 18.81 17.239 18.161 17.022C18.053 16.968 17.891 16.913 17.566 16.859C17.404 16.805 17.241 16.751 17.133 16.751H17.025ZM14.051 17.561C13.781 17.561 13.564 17.617 13.402 17.779C13.186 17.941 13.132 18.211 13.186 18.536C13.186 18.806 13.294 19.022 13.456 19.239C13.618 19.455 13.835 19.564 14.051 19.564C14.213 19.564 14.321 19.508 14.484 19.454C14.754 19.292 14.863 19.022 14.863 18.536C14.863 18.157 14.754 17.887 14.592 17.726C14.4335 17.6156 14.2441 17.5572 14.051 17.561ZM9.56301 17.616C9.29301 17.616 9.07701 17.671 8.91501 17.833C8.69801 17.995 8.64501 18.265 8.69901 18.59C8.69901 18.86 8.80601 19.076 8.96901 19.292C9.13201 19.508 9.34701 19.618 9.56301 19.618C9.72601 19.618 9.83401 19.562 9.99601 19.508C10.266 19.346 10.374 19.076 10.374 18.59C10.374 18.157 10.266 17.887 10.104 17.78C9.94579 17.6698 9.7568 17.6124 9.56401 17.616H9.56301ZM9.56301 18.266C9.72601 18.266 9.83401 18.374 9.83401 18.536C9.83401 18.698 9.67101 18.806 9.56401 18.806C9.40101 18.806 9.29401 18.698 9.29401 18.536C9.29401 18.374 9.40101 18.266 9.56401 18.266H9.56301ZM13.943 18.32C14.105 18.32 14.214 18.427 14.214 18.59C14.214 18.698 14.105 18.86 13.944 18.86C13.781 18.86 13.674 18.752 13.674 18.59C13.674 18.427 13.781 18.32 13.944 18.32H13.943ZM11.24 20.428L11.402 20.752C11.4567 20.8548 11.53 20.9467 11.618 21.023C11.672 21.077 11.781 21.185 11.888 21.185H11.997C12.105 21.185 12.158 21.185 12.212 21.131C12.266 21.077 12.376 21.077 12.43 21.023L12.591 20.861C12.645 20.807 12.699 20.752 12.699 20.698C12.753 20.644 12.753 20.59 12.807 20.536C12.807 20.482 12.861 20.428 12.861 20.428C12.807 20.536 12.699 20.644 12.645 20.752C12.537 20.806 12.484 20.915 12.375 20.915C12.268 20.969 12.159 20.969 12.051 20.969C11.943 20.969 11.835 20.969 11.781 20.915C11.673 20.915 11.618 20.861 11.564 20.807L11.402 20.644C11.348 20.59 11.294 20.482 11.24 20.428ZM10.374 21.456C9.23801 21.456 8.53601 22.97 6.91401 21.618C6.48201 24.268 9.67201 24.484 11.024 23.348C11.944 22.538 11.672 21.402 10.374 21.456ZM13.24 21.456C11.943 21.402 11.672 22.538 12.592 23.349C13.943 24.484 17.132 24.267 16.7 21.618C15.078 22.97 14.43 21.456 13.24 21.456Z" fill="#2A7DB7"/>
</svg>
