<svg width="28" height="28" viewBox="0 0 28 28" fill="none" xmlns="http://www.w3.org/2000/svg">
<path d="M0.822266 19.3627C0.822266 20.2213 1.5164 20.9154 2.37493 20.9154H3.47093V17.8101H2.37493C1.5164 17.8101 0.822266 18.5042 0.822266 19.3627Z" fill="#2A7DB7"/>
<path d="M4.56641 25.847H13.6084V15.5355L4.56641 15.5264V25.847ZM5.66241 16.6224H12.5124V24.751H5.66241V16.6224Z" fill="#2A7DB7"/>
<path d="M8.05475 20.7327C8.05475 19.7919 8.83108 19.0887 9.77181 19.0887V17.9927H6.75781V23.4727H9.77181V22.3767C8.83108 22.3767 8.05475 21.6734 8.05475 20.7327Z" fill="#2A7DB7"/>
<path d="M17.6266 8.38413C19.4716 8.38413 20.9603 6.8954 20.9603 5.05046C20.9603 3.20553 19.4716 1.7168 17.6266 1.7168C15.7817 1.7168 14.293 3.20553 14.293 5.05046C14.293 6.88626 15.7908 8.38413 17.6266 8.38413Z" fill="#2A7DB7"/>
<path d="M9.77344 19.0889V22.3769C10.7142 22.3769 11.454 21.6553 11.454 20.7146C11.454 19.7921 10.7142 19.0889 9.77344 19.0889Z" fill="#2A7DB7"/>
<path d="M25.2071 25.8473C26.0656 25.8473 26.7598 25.1532 26.7598 24.2946V13.3346C26.7598 11.0148 24.8783 9.1333 22.5584 9.1333H12.8771C10.5572 9.1333 8.67578 11.0148 8.67578 13.3346V14.4215H14.7038V25.8473H22.5584V14.4306H23.6544V24.2946C23.6544 25.1532 24.3486 25.8473 25.2071 25.8473Z" fill="#2A7DB7"/>
</svg>
