<svg width="28" height="28" viewBox="0 0 28 28" fill="none" xmlns="http://www.w3.org/2000/svg">
<g clip-path="url(#clip0_4_5330)">
<path d="M20.4224 6.66327C20.4881 6.6063 20.5652 6.56417 20.6487 6.53976C20.7321 6.51534 20.8198 6.50922 20.9059 6.52181C20.9903 6.5337 21.071 6.56438 21.1421 6.61158C21.2131 6.65878 21.2727 6.72131 21.3163 6.79456C21.3669 6.89562 21.3957 7.00618 21.4008 7.11907C21.4376 7.56075 21.3523 8.00404 21.1541 8.40049C21.0607 8.60086 20.9252 8.77873 20.7569 8.92197C20.5945 9.0512 20.4313 9.11331 20.162 8.97716C20.125 9.17045 20.0724 9.36041 20.0046 9.54516C19.8771 9.88587 19.2096 11.0009 18.342 11.5322C18.343 11.8059 18.3578 12.0912 18.4491 12.3173C18.6452 12.803 19.7049 13.4142 19.7778 13.4461C19.7778 13.4461 19.1773 15.7203 16.3393 15.7203C13.5013 15.7203 13.1279 13.4461 13.1279 13.4461C13.2008 13.4142 14.094 12.8882 14.2909 12.4024C14.3833 12.1744 14.3973 11.8879 14.3981 11.6137C13.9781 11.3984 13.6075 11.0981 13.3098 10.7319C12.9108 10.2477 12.6285 9.67842 12.4845 9.06785C12.2347 9.16758 12.0482 9.03866 11.9022 8.9222C11.7338 8.77896 11.5983 8.60109 11.5049 8.40072C11.3068 8.00426 11.2215 7.56096 11.2584 7.1193C11.2635 7.00641 11.2922 6.89584 11.3428 6.79478C11.3865 6.72153 11.4461 6.65901 11.5171 6.61181C11.5881 6.56461 11.6689 6.53393 11.7533 6.52203C11.8393 6.50945 11.9271 6.51557 12.0105 6.53998C12.0939 6.5644 12.1711 6.60653 12.2368 6.6635C12.2368 6.6635 11.964 2.71289 16.0351 2.71289C20.7144 2.71289 20.4224 6.66327 20.4224 6.66327Z" fill="white"/>
<path d="M13.1525 1.30597C13.4888 0.882555 14.0515 0.550589 14.6175 0.406992C15.2594 0.225064 15.9273 0.152694 16.5933 0.192928C17.9675 0.311743 19.3121 0.955228 20.1757 2.03072C21.1534 3.24844 21.3147 5.1665 20.8303 6.51619C20.6825 6.51279 20.5387 6.56424 20.4265 6.66062C20.3442 6.16438 20.1032 5.44298 19.927 4.96224C19.9042 4.87894 19.8574 4.80416 19.7925 4.74719C19.7077 4.69358 19.6116 4.66054 19.5118 4.65073C18.8813 4.5443 18.5212 4.46745 17.8774 4.43582C17.1846 4.40177 16.6844 4.72819 16.0192 4.57098C15.6283 4.47862 14.7546 4.03544 14.4566 3.81454C14.3763 3.75593 14.3046 3.69914 14.2376 3.6549C14.1578 3.60169 14.0526 3.55045 13.9681 3.59546C13.9514 3.60498 13.9357 3.6161 13.9212 3.62867C13.8763 3.66516 13.8103 3.71761 13.7685 3.75517C12.8372 4.54575 12.311 5.65255 12.3436 6.75564V6.75921L12.2372 6.6632C12.1716 6.60623 12.0944 6.5641 12.0109 6.53969C11.9275 6.51527 11.8398 6.50915 11.7538 6.52173C11.6911 6.53114 11.6303 6.5507 11.5739 6.57966C11.253 5.59052 11.3024 4.1573 11.5256 3.40541L11.5856 3.20313C11.8175 2.51297 12.1986 2.00472 12.6406 1.7544L13.1525 1.30597Z" fill="#2A7DB7"/>
<path d="M25.7732 27.2014C25.4016 22.066 24.8335 17.591 24.3634 16.0246C24.2621 15.6622 24.0517 15.3398 23.7609 15.1011C23.5002 14.9073 23.2208 14.74 22.9269 14.6017C22.0807 14.193 20.7259 13.6497 19.8587 13.2879L19.0295 12.9814C18.9104 13.6504 18.7072 14.5231 18.4847 15.1292C18.3031 15.6238 17.7076 17.3084 17.3022 18.2712C16.9974 18.9946 16.6532 19.7008 16.2714 20.3867C15.2861 18.1432 14.0914 15.8101 13.7804 12.9979L12.8764 13.3215L12.7727 13.3646C11.9002 13.727 10.5651 14.261 9.75205 14.6538C9.48996 14.7726 9.2498 14.9348 9.04167 15.1335C8.8118 15.3513 8.62964 15.6145 8.50674 15.9064C7.89936 17.4924 7.83619 18.2615 7.18837 19.9082C6.90863 19.2436 6.65078 18.6044 6.36366 17.9001C5.51121 18.3492 4.15301 18.9712 3.30078 19.1559C3.72557 20.5162 4.15217 21.9794 4.75058 23.3417C5.16655 24.2881 5.73607 25.1702 6.73584 25.4333C7.11034 25.5383 7.50388 25.5564 7.88643 25.4861C8.26898 25.4159 8.63042 25.2591 8.94315 25.0279C9.48326 24.6332 10.0781 23.8337 10.4522 23.3611L10.4865 23.3197C10.5321 23.8921 10.5208 24.4448 10.5208 25.0506C10.5208 25.807 10.476 26.3657 10.4752 27.2239L25.7732 27.2014Z" fill="#2A7DB7"/>
<path d="M3.34156 18.3002C3.65193 18.1862 5.1481 17.6345 5.76764 17.3164C5.83454 17.451 5.97137 17.7687 6.06411 17.9633L6.10318 18.0346C5.35578 18.4134 4.35076 18.8641 3.59614 19.0805L3.56847 19.0169C3.47421 18.7828 3.33509 18.3806 3.30469 18.3138L3.34156 18.3002Z" fill="white"/>
<path d="M13.2213 13.6037C13.3264 13.5506 13.427 13.489 13.5222 13.4197C13.7032 13.2997 13.8752 13.1666 14.0369 13.0215C14.1998 12.8843 14.3349 12.717 14.4348 12.5289C14.5691 12.2454 14.5805 11.9186 14.582 11.6103C14.583 11.3755 14.2182 11.3752 14.2171 11.6103C14.2193 11.7564 14.2119 11.9025 14.195 12.0477C14.1809 12.1622 14.1497 12.2739 14.1025 12.3791C14.0089 12.5383 13.8874 12.6792 13.7437 12.795C13.6058 12.9153 13.4597 13.0258 13.3064 13.1258C13.221 13.1869 13.1309 13.2413 13.0372 13.2886C12.9957 13.3133 12.9655 13.3533 12.9533 13.4C12.941 13.4467 12.9476 13.4964 12.9717 13.5383C12.9969 13.5792 13.0369 13.6088 13.0834 13.621C13.1299 13.6332 13.1793 13.627 13.2213 13.6037Z" fill="#2A7DB7"/>
<path d="M18.1602 11.608C18.1658 11.9158 18.183 12.2608 18.3542 12.5278C18.4817 12.7135 18.6376 12.878 18.8161 13.0155C18.9939 13.1603 19.1799 13.2947 19.3732 13.4179C19.4728 13.4871 19.5773 13.5491 19.6857 13.6035C19.7278 13.6265 19.7771 13.6326 19.8235 13.6204C19.8699 13.6082 19.9099 13.5788 19.9353 13.538C19.9593 13.4962 19.9659 13.4465 19.9537 13.3998C19.9415 13.3531 19.9113 13.3131 19.8699 13.2884C19.7722 13.2395 19.6779 13.184 19.5878 13.1223C19.4223 13.019 19.2627 12.9067 19.1095 12.7861C19.0219 12.7167 18.938 12.6428 18.8581 12.5649C18.7968 12.5058 18.7404 12.4419 18.6895 12.3738C18.6629 12.3359 18.6394 12.2959 18.6193 12.2543C18.6392 12.2961 18.605 12.2148 18.6041 12.2115C18.5909 12.1718 18.5796 12.1316 18.5705 12.0908C18.5388 11.9318 18.5236 11.7699 18.5253 11.6078C18.521 11.3733 18.1561 11.3725 18.1604 11.6078L18.1602 11.608Z" fill="#2A7DB7"/>
<path d="M18.865 12.5111C18.7644 12.3288 18.634 12.1646 18.4792 12.0254C18.1857 12.4199 17.5156 12.9126 16.7125 13.2357C16.6551 13.2545 16.6021 13.2845 16.5564 13.324C16.5372 13.3598 16.5746 13.3913 16.5921 13.4194C16.6309 13.4665 16.673 13.5107 16.7181 13.5517C16.4658 13.5517 16.2782 13.5527 16.0408 13.5529C16.0864 13.5116 16.129 13.4669 16.1681 13.4194C16.1857 13.3913 16.2231 13.3598 16.2039 13.324C16.1582 13.2845 16.1051 13.2545 16.0478 13.2357C15.2446 12.9126 14.5745 12.4199 14.2811 12.0254C14.0164 12.2686 13.9168 12.4617 13.7578 12.7685C14.0281 15.6835 15.2609 18.0821 16.2729 20.3864C16.6547 19.7005 16.9988 18.9943 17.3037 18.271C17.7091 17.3081 18.3046 15.6235 18.4862 15.1289C18.7219 14.4865 18.9363 13.5442 19.0515 12.8629C18.9808 12.7277 18.9238 12.6141 18.865 12.5111Z" fill="white"/>
<path d="M13.0797 21.3543L12.9712 21.144C12.6595 20.6249 12.4829 19.7262 12.4176 19.2596C12.338 18.6916 12.5468 17.4671 12.6598 17.0062C12.7636 17.1908 13.2204 18.2476 13.3475 18.5459C13.589 19.1128 14.0032 19.8838 13.8276 20.5096C13.6949 20.9823 13.4804 21.0432 13.2134 21.1843C12.9284 21.3348 12.6654 21.2497 12.3978 21.3814C12.1997 21.4789 12.1615 21.666 12.1871 21.85C12.2205 22.09 12.4256 22.3511 12.6946 22.2899C12.8173 22.2619 12.9158 22.1739 13.0252 22.112C13.1705 22.0297 13.3505 21.9584 13.5018 21.8879C13.8477 21.7264 14.1727 21.551 14.3841 21.2247C14.6122 20.873 14.7469 20.4763 14.7013 20.0597C14.5456 18.6411 13.5777 17.4408 13.1442 16.1671C13.1062 15.5162 13.3485 14.0006 13.7133 13.2205C13.7133 13.2205 13.7465 13.1825 13.7952 13.1254C13.7691 12.9086 13.7484 12.6889 13.7333 12.4663C13.2731 12.6731 12.7047 13.37 12.5329 14.3505C12.4381 14.8919 12.3117 15.4507 12.1985 16.0922C11.7739 17.1488 11.6192 18.5881 11.6664 19.2901C11.712 19.9726 11.9009 20.8409 12.2593 21.4002L12.3617 21.633L13.0797 21.3543Z" fill="white"/>
<path d="M20.6281 18.8309C20.6729 18.4393 20.5493 18.0076 20.1966 17.8229C20.5246 16.0389 20.4119 15.1629 20.1905 14.158C20.0602 13.5667 19.6397 12.7745 19.1091 12.4697C19.0862 12.6466 19.0516 12.8636 19.008 13.1022C19.1305 13.2247 19.3163 13.6512 19.3712 13.8539C19.7565 15.2823 19.7956 16.1939 19.5592 17.7384C19.1356 17.8317 18.9587 18.2367 18.9212 18.3935C18.8212 18.815 18.8549 19.362 19.2352 19.6339C19.322 19.6954 19.4212 19.7373 19.5259 19.7566C20.1264 19.8706 20.5173 19.4315 20.6129 18.93C20.6192 18.8974 20.6243 18.8643 20.6281 18.8309Z" fill="white"/>
<path d="M14.1399 22.1505C14.1357 22.0873 14.1155 22.0261 14.0811 21.9729C14.0467 21.9197 13.9993 21.8762 13.9434 21.8464L13.7601 21.7598C13.6765 21.8048 13.59 21.8467 13.5021 21.8878C13.3907 21.9398 13.2637 21.9922 13.1465 22.0489C13.1907 22.1582 13.2482 22.2616 13.3177 22.3568C13.3829 22.444 13.4783 22.5038 13.5852 22.5246C13.6529 22.5319 13.7214 22.5255 13.7866 22.5058C13.9235 22.4698 14.0641 22.398 14.123 22.2691C14.1386 22.2316 14.1444 22.1908 14.1399 22.1505Z" fill="#2A7DB7"/>
<path d="M12.1808 21.7813C12.1706 21.7003 12.186 21.6181 12.225 21.5463C12.2639 21.4745 12.3243 21.4167 12.3978 21.381C12.5438 21.3211 12.6994 21.288 12.8572 21.2832C12.9777 21.5388 13.0424 21.8171 13.0472 22.0997C13.0396 22.1034 13.032 22.1073 13.025 22.1116C12.9156 22.1735 12.8171 22.2615 12.6944 22.2894C12.4253 22.3507 12.2202 22.0896 12.1869 21.8496C12.184 21.8268 12.1818 21.804 12.1808 21.7813Z" fill="#2A7DB7"/>
<path d="M15.3965 17.9367L15.3972 17.9269C15.5572 16.6153 15.7773 15.0069 15.7773 14.961C15.774 14.8792 15.7608 14.7982 15.738 14.7196C15.7288 14.6829 15.7196 14.6475 15.7118 14.6108C15.6629 14.402 15.6319 14.257 15.5876 14.0275C15.6506 13.9619 15.7127 13.8961 15.7726 13.8304C15.8843 13.7078 15.9738 13.6176 16.0395 13.5531C16.2767 13.5531 16.4642 13.5521 16.7165 13.5518C16.7823 13.6165 16.8723 13.7068 16.9849 13.8304C17.0623 13.9154 17.1437 14.0006 17.2255 14.0852C17.2002 14.1863 17.1859 14.2435 17.1859 14.2435C17.161 14.3432 17.1335 14.4468 17.0968 14.5596C17.0442 14.6966 17.0123 14.8407 17.0023 14.9872C17.001 15.062 17.2151 16.4732 17.4168 17.8241L17.4343 17.9493C17.3887 18.0633 17.3445 18.1709 17.3023 18.271C16.9975 18.9944 16.6534 19.7006 16.2715 20.3865C15.9796 19.7218 15.6694 19.0494 15.3691 18.359C15.3823 18.158 15.3938 17.9794 15.3965 17.9367Z" fill="white"/>
<path d="M17.7716 14.6666C18.2683 14.0871 18.678 13.4384 18.9879 12.7409C18.837 12.4499 18.7355 12.2613 18.4789 12.0254C18.1854 12.4199 17.5153 12.9126 16.7123 13.2357C16.6549 13.2545 16.6018 13.2845 16.5561 13.324C16.5369 13.3598 16.5743 13.3913 16.5919 13.4194C16.6195 13.4636 16.7552 13.5771 16.986 13.8304C17.2482 14.1179 17.5548 14.4076 17.7716 14.6666Z" fill="white"/>
<path d="M14.9878 14.6666C14.491 14.0871 14.0813 13.4384 13.7715 12.7409C13.9223 12.4499 14.0238 12.2613 14.2808 12.0254C14.5742 12.4199 15.2443 12.9126 16.0474 13.2357C16.1048 13.2545 16.1579 13.2845 16.2036 13.324C16.2228 13.3598 16.1854 13.3913 16.1678 13.4194C16.1402 13.4636 16.0045 13.5771 15.7736 13.8304C15.5114 14.1179 15.2046 14.4076 14.9878 14.6666Z" fill="white"/>
<path d="M12.8285 13.1458C11.7701 13.5867 10.6924 13.995 9.66064 14.4961C9.0525 14.7914 8.55398 15.2715 8.31141 15.9101C8.08929 16.4954 7.90304 17.0913 7.72897 17.6921C7.53429 18.3643 7.33026 19.0317 7.08046 19.6859C7.06799 19.7326 7.07436 19.7822 7.09819 19.8242C7.12203 19.8662 7.16142 19.8971 7.20787 19.9103C7.25448 19.9221 7.30386 19.9155 7.34568 19.8917C7.3875 19.868 7.41852 19.829 7.43227 19.7829C7.86078 18.6609 8.12958 17.4897 8.5333 16.3598C8.64163 16.0565 8.74615 15.7618 8.95011 15.5072C9.14443 15.2618 9.38566 15.0576 9.65972 14.9063C10.1417 14.6403 10.6647 14.4359 11.1715 14.2228C11.7548 13.9776 12.3415 13.7408 12.9255 13.4973C12.9713 13.4831 13.01 13.452 13.0336 13.4103C13.0573 13.3686 13.0642 13.3195 13.0529 13.2729C13.0398 13.2264 13.0089 13.1869 12.9669 13.1631C12.9249 13.1392 12.8751 13.1329 12.8285 13.1455V13.1458Z" fill="#2A7DB7"/>
<path d="M19.8111 13.4638C20.8267 13.8873 21.858 14.2836 22.848 14.7652C23.3246 14.9971 23.8017 15.2632 24.0567 15.7473C24.2116 16.0414 24.2787 16.3879 24.3505 16.7105C24.5306 17.5195 24.6572 18.3407 24.7742 19.1608C24.9357 20.2928 25.0676 21.429 25.1859 22.5664C25.3278 23.9278 25.4495 25.291 25.5508 26.6561C25.5646 26.8377 25.5781 27.0194 25.5912 27.201C25.5923 27.249 25.6119 27.2948 25.6459 27.3288C25.6799 27.3627 25.7256 27.3823 25.7736 27.3834C25.8219 27.383 25.8681 27.3637 25.9022 27.3296C25.9363 27.2954 25.9557 27.2493 25.9561 27.201C25.854 25.7932 25.733 24.3869 25.5931 22.9821C25.4723 21.7833 25.3358 20.5859 25.1717 19.3923C25.0519 18.5208 24.9216 17.6487 24.7398 16.7877C24.683 16.4915 24.6094 16.1987 24.5193 15.9108C24.428 15.6296 24.2788 15.3706 24.0813 15.1506C23.8879 14.9532 23.6655 14.7866 23.4217 14.6565C22.939 14.3775 22.4174 14.1624 21.9056 13.9436C21.3571 13.709 20.8052 13.4827 20.2539 13.2549C20.1384 13.2072 20.023 13.1593 19.9078 13.1113C19.8611 13.0987 19.8114 13.1051 19.7693 13.1289C19.7273 13.1528 19.6964 13.1923 19.6833 13.2388C19.6717 13.2854 19.6784 13.3347 19.7022 13.3765C19.7259 13.4182 19.7648 13.4493 19.8108 13.4632L19.8111 13.4638Z" fill="#2A7DB7"/>
<path d="M22.3545 27.2236C22.3533 26.5264 22.3121 25.83 22.3089 25.1331C22.3056 24.3672 22.2851 23.5929 22.3956 22.8328C22.4488 22.4644 22.5231 22.0986 22.5856 21.7315C22.6481 21.3631 22.7083 20.9942 22.7661 20.6249C22.884 19.8738 22.9934 19.1214 23.0944 18.3677C23.2008 17.575 23.2979 16.781 23.3855 15.9857C23.3852 15.9374 23.3659 15.8911 23.3317 15.857C23.2976 15.8228 23.2513 15.8035 23.203 15.8032C23.155 15.8043 23.1092 15.8239 23.0752 15.8579C23.0413 15.8918 23.0217 15.9376 23.0206 15.9857C22.8635 17.4351 22.6721 18.8803 22.4464 20.3215C22.333 21.0546 22.2071 21.7853 22.0793 22.5161C21.9442 23.2881 21.9415 24.0668 21.9437 24.8482C21.946 25.6404 21.9884 26.4316 21.9894 27.2238C21.9894 27.4586 22.3546 27.459 22.3542 27.2238L22.3545 27.2236Z" fill="#2A7DB7"/>
<path d="M9.2832 16.1931C9.44152 17.6347 9.63425 19.0721 9.86139 20.5052C9.97656 21.24 10.1127 21.971 10.2322 22.705C10.3525 23.4436 10.3403 24.1936 10.339 24.9395C10.3376 25.7013 10.2945 26.462 10.2934 27.2237C10.293 27.4585 10.6579 27.4588 10.6583 27.2237C10.6594 26.5535 10.6976 25.8842 10.7032 25.2141C10.7094 24.471 10.7249 23.7214 10.6366 22.9821C10.5917 22.6057 10.5173 22.2336 10.4526 21.8602C10.3892 21.4938 10.3281 21.1271 10.2692 20.76C10.1503 20.0194 10.04 19.2776 9.93817 18.5345C9.83119 17.7554 9.73454 16.975 9.64824 16.1932C9.64688 16.1452 9.62722 16.0996 9.5933 16.0657C9.55937 16.0318 9.51375 16.0121 9.4658 16.0107C9.4175 16.011 9.37127 16.0304 9.33712 16.0645C9.30297 16.0987 9.28365 16.1449 9.28336 16.1932L9.2832 16.1931Z" fill="#2A7DB7"/>
<path d="M11.7109 6.40618C11.5199 5.72355 11.4923 4.99227 11.5535 4.2888C11.6032 3.71867 11.742 3.14467 12.033 2.64683C12.1981 2.34524 12.4389 2.09187 12.7317 1.91167C12.9351 1.79445 12.7515 1.47898 12.5475 1.59666C11.9365 1.94892 11.5683 2.61688 11.3732 3.27382C11.1988 3.9048 11.1297 4.56023 11.1688 5.2137C11.1827 5.64928 11.2464 6.08183 11.3589 6.50288C11.422 6.72865 11.7741 6.63272 11.7107 6.40588L11.7109 6.40618Z" fill="#2A7DB7"/>
<path d="M13.2819 1.43512C13.81 0.780616 14.645 0.532116 15.4469 0.41809C16.2596 0.300854 17.0885 0.380178 17.8642 0.64941C18.6177 0.90509 19.2967 1.34209 19.8415 1.92194C20.3452 2.48246 20.683 3.17205 20.8172 3.91359C20.9826 4.72674 20.9393 5.56856 20.6912 6.36043C20.6188 6.58437 20.971 6.68031 21.0431 6.45742C21.2789 5.69437 21.3383 4.88776 21.217 4.09838C21.103 3.29937 20.8052 2.52088 20.2954 1.89001C19.2106 0.547319 17.3883 -0.143372 15.6853 0.0249296C14.7199 0.120331 13.6609 0.387607 13.0239 1.17712C12.991 1.21201 12.9727 1.25816 12.9727 1.30612C12.9727 1.35409 12.991 1.40023 13.0239 1.43512C13.0583 1.46902 13.1046 1.48803 13.1529 1.48803C13.2012 1.48803 13.2475 1.46902 13.2819 1.43512Z" fill="#2A7DB7"/>
<path d="M12.5261 6.75571C12.5165 5.98938 12.7567 5.24076 13.2103 4.62305C13.4392 4.30043 13.7155 4.01428 14.0299 3.77432C14.0646 3.74832 14.0299 3.76086 14.0622 3.76618C14.1022 3.78013 14.1392 3.80168 14.171 3.82966C14.2518 3.885 14.3276 3.94748 14.4082 4.00321C14.5182 4.07922 14.6345 4.14612 14.7513 4.21081C15.0437 4.3741 15.3464 4.5183 15.6574 4.64251C15.9753 4.77296 16.3214 4.81973 16.6625 4.77835C17.0641 4.72864 17.4523 4.60192 17.8608 4.61765C18.2642 4.63794 18.6659 4.6848 19.0632 4.7579L19.4271 4.82062C19.5133 4.83536 19.6481 4.84061 19.7068 4.91708C19.7511 4.99257 19.7841 5.07414 19.8047 5.1592C19.8402 5.25873 19.8749 5.35857 19.9087 5.45871C20.055 5.86606 20.1694 6.28421 20.2508 6.70934C20.264 6.75579 20.2949 6.79518 20.3369 6.81903C20.3789 6.84288 20.4285 6.84927 20.4752 6.83682C20.5212 6.82301 20.5602 6.79196 20.5839 6.75014C20.6077 6.70833 20.6143 6.65897 20.6026 6.61234C20.5255 6.20688 20.4175 5.8079 20.2797 5.41887C20.2205 5.24099 20.1609 5.06243 20.0932 4.88767C20.0601 4.78455 20.0009 4.69172 19.9215 4.61811C19.825 4.54425 19.711 4.49669 19.5906 4.48006C19.1691 4.40085 18.7428 4.32757 18.3158 4.28523C18.0831 4.256 17.8483 4.24649 17.614 4.2568C17.3947 4.27705 17.177 4.3113 16.9621 4.35935C16.5997 4.43202 16.2514 4.46699 15.8958 4.34353C15.5864 4.2303 15.2867 4.09228 14.9994 3.93084C14.8679 3.85961 14.737 3.7858 14.6129 3.70218C14.4461 3.5899 14.2869 3.41901 14.0765 3.39933C13.8643 3.37948 13.6897 3.57865 13.5439 3.70986C13.3812 3.85594 13.2298 4.01421 13.0912 4.18329C12.4986 4.90697 12.1375 5.81317 12.1613 6.75571C12.1671 6.99015 12.5321 6.99098 12.5261 6.75571Z" fill="#2A7DB7"/>
<path d="M15.8328 15.1327C16.2106 15.1327 16.5884 15.1243 16.9661 15.1242C17.0145 15.1242 17.0609 15.1049 17.0951 15.0707C17.1293 15.0365 17.1485 14.9901 17.1485 14.9417C17.1485 14.8933 17.1293 14.8469 17.0951 14.8127C17.0609 14.7785 17.0145 14.7593 16.9661 14.7593C16.5884 14.7593 16.2106 14.7676 15.8328 14.7678C15.7844 14.7678 15.738 14.787 15.7038 14.8212C15.6696 14.8554 15.6504 14.9018 15.6504 14.9502C15.6504 14.9986 15.6696 15.045 15.7038 15.0792C15.738 15.1135 15.7844 15.1327 15.8328 15.1327Z" fill="#2A7DB7"/>
<path d="M15.4296 14.1678C15.4622 14.3323 15.4977 14.4963 15.536 14.6596C15.5707 14.7623 15.5901 14.8694 15.5937 14.9777C15.5861 15.0904 15.5655 15.2036 15.5509 15.3156C15.4835 15.8312 15.4161 16.3468 15.3488 16.8624C15.3032 17.2172 15.2585 17.5721 15.2148 17.9273C15.2151 17.9756 15.2344 18.0219 15.2685 18.056C15.3027 18.0902 15.349 18.1095 15.3973 18.1097C15.4453 18.1086 15.4911 18.089 15.525 18.055C15.559 18.0211 15.5786 17.9753 15.5797 17.9273C15.6551 17.3104 15.7349 16.6941 15.8154 16.0779C15.8628 15.7157 15.9272 15.3516 15.9572 14.9875C15.9593 14.8741 15.9431 14.7612 15.9093 14.653C15.8614 14.4601 15.8199 14.2653 15.7813 14.0705C15.775 14.0474 15.7641 14.0258 15.7494 14.0069C15.7346 13.988 15.7163 13.9721 15.6955 13.9603C15.6747 13.9485 15.6517 13.9409 15.6279 13.9379C15.6041 13.935 15.58 13.9367 15.5569 13.9431C15.5338 13.9495 15.5122 13.9603 15.4933 13.975C15.4744 13.9898 15.4586 14.0081 15.4467 14.0289C15.4349 14.0497 15.4273 14.0727 15.4243 14.0965C15.4214 14.1203 15.4231 14.1444 15.4295 14.1675L15.4296 14.1678Z" fill="#2A7DB7"/>
<path d="M16.6963 13.3696L16.0242 13.3711C15.9759 13.3711 15.9294 13.3903 15.8952 13.4245C15.861 13.4587 15.8418 13.5051 15.8418 13.5535C15.8418 13.6019 15.861 13.6483 15.8952 13.6825C15.9294 13.7167 15.9759 13.736 16.0242 13.736L16.6963 13.7345C16.7447 13.7345 16.7911 13.7153 16.8253 13.6811C16.8595 13.6469 16.8787 13.6005 16.8787 13.5521C16.8787 13.5037 16.8595 13.4573 16.8253 13.4231C16.7911 13.3889 16.7447 13.3696 16.6963 13.3696Z" fill="#2A7DB7"/>
<path d="M17.5936 17.7761C17.5055 17.187 17.4174 16.5979 17.3293 16.0088C17.2968 15.7899 17.2647 15.5708 17.233 15.3517C17.2218 15.2736 17.2109 15.1955 17.2002 15.1174C17.1982 15.1033 17.2044 15.1509 17.1997 15.1134C17.1982 15.1021 17.1967 15.0906 17.1952 15.0795C17.1927 15.0597 17.1898 15.0397 17.1882 15.0198C17.1849 14.9354 17.1968 14.851 17.2231 14.7706C17.2674 14.6104 17.3219 14.4539 17.3627 14.2924C17.4201 14.0644 17.0683 13.9675 17.0109 14.1954C16.9461 14.4527 16.8106 14.7269 16.8209 14.9963C16.8253 15.1089 16.849 15.2228 16.8647 15.3342C16.9331 15.821 17.007 16.3072 17.0799 16.7937C17.1337 17.1535 17.1875 17.5133 17.2415 17.8731C17.2546 17.9196 17.2856 17.959 17.3276 17.9829C17.3696 18.0067 17.4193 18.0131 17.4659 18.0005C17.5119 17.9866 17.5508 17.9556 17.5745 17.9138C17.5982 17.872 17.605 17.8227 17.5934 17.7761L17.5936 17.7761Z" fill="#2A7DB7"/>
<path d="M18.2381 20.0602C17.8352 20.4479 17.4265 20.8293 17.0066 21.1978C16.9724 21.232 16.9531 21.2784 16.9531 21.3268C16.9531 21.3752 16.9723 21.4216 17.0065 21.4558C17.0408 21.4901 17.0872 21.5093 17.1356 21.5093C17.184 21.5093 17.2304 21.4901 17.2646 21.4559C17.6849 21.0873 18.0937 20.7057 18.4961 20.3182C18.5298 20.2839 18.5486 20.2376 18.5485 20.1895C18.5483 20.1414 18.5291 20.0953 18.495 20.0612C18.461 20.0272 18.4149 20.008 18.3668 20.0078C18.3186 20.0076 18.2724 20.0264 18.2381 20.0602Z" fill="#2A7DB7"/>
<path d="M16.5118 22.9675C16.5321 22.9858 16.5485 23.0079 16.5682 23.0263C16.5497 23.0019 16.5459 22.9972 16.5568 23.0122C16.5603 23.0172 16.5638 23.0224 16.567 23.0274C16.5727 23.0362 16.5779 23.0454 16.5828 23.0546C16.5904 23.0692 16.5987 23.1009 16.581 23.0465C16.5844 23.0572 16.589 23.0675 16.5923 23.0783C16.5986 23.099 16.6033 23.1202 16.6063 23.1417L16.5997 23.0932C16.6046 23.1314 16.6046 23.17 16.5997 23.2082L16.6063 23.1597C16.6032 23.1812 16.5989 23.2025 16.5931 23.2234C16.5907 23.2323 16.5879 23.2411 16.5849 23.2498C16.582 23.2584 16.5673 23.2945 16.5822 23.2592C16.5971 23.2239 16.5822 23.2578 16.5782 23.2661C16.5742 23.2744 16.5698 23.2819 16.5654 23.2896C16.5609 23.2973 16.5565 23.3037 16.552 23.3107C16.5331 23.3398 16.5838 23.274 16.5627 23.2971C16.5551 23.3053 16.5247 23.3465 16.5137 23.3446C16.515 23.3446 16.5559 23.3151 16.528 23.3329C16.5235 23.3357 16.5191 23.3388 16.5145 23.3416C16.5042 23.348 16.4937 23.354 16.4829 23.3595C16.4781 23.3619 16.4731 23.3641 16.4683 23.3665C16.4426 23.3791 16.5063 23.3525 16.4857 23.3589C16.4754 23.3622 16.4652 23.3665 16.4548 23.3694C16.4299 23.3768 16.4045 23.3824 16.3788 23.3861L16.4273 23.3795C16.3815 23.3856 16.3351 23.3857 16.2893 23.38L16.3378 23.3865C16.3016 23.3805 16.266 23.3714 16.2313 23.3593C16.2863 23.3769 16.2613 23.3723 16.2471 23.3654C16.2383 23.361 16.2295 23.3563 16.2209 23.3512C16.2146 23.3474 16.2086 23.3432 16.2025 23.3392C16.1774 23.323 16.2414 23.3727 16.2123 23.3468C16.1957 23.3318 16.1798 23.316 16.1648 23.2995C16.1434 23.2758 16.1909 23.3381 16.1644 23.2984C16.1594 23.2908 16.1545 23.2832 16.15 23.2751C16.1455 23.2669 16.1419 23.2593 16.1378 23.2514C16.1235 23.2238 16.1545 23.2987 16.1404 23.2549C16.1345 23.2362 16.1302 23.2172 16.1274 23.1978L16.134 23.2463C16.1298 23.2135 16.1298 23.1803 16.134 23.1475L16.1274 23.196C16.1307 23.1729 16.1358 23.15 16.1426 23.1276C16.1458 23.1169 16.1497 23.1064 16.1534 23.0959C16.1657 23.0612 16.1349 23.1339 16.1516 23.1007C16.1622 23.0791 16.1738 23.0581 16.1866 23.0377C16.1926 23.0281 16.199 23.0187 16.2056 23.0096C16.2085 23.0047 16.2119 23.0001 16.2158 22.9959C16.2102 23.0007 16.1858 23.0321 16.2057 23.0096C16.2126 23.002 16.2192 22.9944 16.2266 22.9868C16.2341 22.9792 16.2619 22.9571 16.2342 22.9782C16.2066 22.9994 16.2373 22.9768 16.2449 22.9721C16.255 22.9656 16.2655 22.9597 16.2765 22.9542C16.2783 22.9533 16.2896 22.9466 16.2912 22.9471C16.2912 22.9471 16.2462 22.9644 16.2705 22.956C16.2811 22.9524 16.2915 22.9484 16.3022 22.9452C16.3266 22.938 16.3516 22.9327 16.3769 22.9294L16.3284 22.9359C16.3682 22.931 16.4085 22.931 16.4483 22.9359L16.3998 22.9294C16.4167 22.9318 16.4335 22.9351 16.45 22.9394C16.457 22.9413 16.4637 22.9433 16.4705 22.9455C16.4773 22.9477 16.5085 22.9603 16.4766 22.9466C16.4462 22.9336 16.4711 22.9445 16.478 22.948C16.4849 22.9515 16.4932 22.9556 16.5004 22.9602C16.5075 22.9649 16.5147 22.9695 16.5218 22.9741C16.5474 22.9909 16.4868 22.9455 16.5118 22.9669C16.5468 23 16.5928 23.019 16.641 23.0201C16.6771 23.0202 16.7125 23.0096 16.7426 22.9895C16.7727 22.9695 16.7961 22.9409 16.81 22.9076C16.8238 22.8742 16.8274 22.8374 16.8204 22.802C16.8133 22.7665 16.7958 22.734 16.7702 22.7084C16.6666 22.6186 16.5345 22.5683 16.3974 22.5666C16.2763 22.5636 16.157 22.5962 16.0544 22.6606C15.95 22.732 15.8685 22.8322 15.8199 22.9489C15.7712 23.0657 15.7574 23.1941 15.7803 23.3186C15.8144 23.4537 15.8971 23.5715 16.0127 23.6494C16.0836 23.6944 16.1626 23.7249 16.2453 23.7392C16.328 23.7536 16.4128 23.7514 16.4946 23.7328C16.5765 23.7142 16.6539 23.6796 16.7223 23.631C16.7907 23.5823 16.8488 23.5207 16.8933 23.4495C16.9491 23.3447 16.9746 23.2265 16.9668 23.1081C16.9545 22.9547 16.8842 22.8118 16.7702 22.7084C16.7359 22.6747 16.6897 22.6559 16.6415 22.6561C16.5934 22.6563 16.5473 22.6755 16.5133 22.7095C16.4792 22.7435 16.46 22.7896 16.4598 22.8378C16.4596 22.8859 16.4785 22.9321 16.5122 22.9665L16.5118 22.9675Z" fill="#2A7DB7"/>
<path d="M19.5745 19.5805C19.1447 19.4902 19.0308 19.0551 19.0607 18.6683C19.0667 18.5862 19.0803 18.5049 19.1015 18.4254C19.1057 18.4096 19.1106 18.3939 19.116 18.3784C19.1196 18.3676 19.1236 18.3571 19.1276 18.3465C19.1373 18.3191 19.1109 18.379 19.1338 18.332C19.1767 18.2289 19.2416 18.1364 19.3238 18.0609C19.3661 18.0206 19.4144 17.9873 19.4671 17.9621C19.5332 17.9312 19.6041 17.9115 19.6767 17.9039C19.8594 17.884 20.0431 17.9308 20.194 18.0355C20.4594 18.2426 20.4974 18.6503 20.4211 18.9538C20.3219 19.3486 20.0018 19.6557 19.5744 19.5806C19.5277 19.5691 19.4785 19.5759 19.4367 19.5997C19.395 19.6234 19.3639 19.6622 19.35 19.7081C19.3375 19.7548 19.3439 19.8044 19.3677 19.8464C19.3916 19.8884 19.4309 19.9193 19.4774 19.9325C19.7363 19.9873 20.0064 19.9453 20.2364 19.8143C20.4458 19.6824 20.6085 19.488 20.7013 19.2586C20.8888 18.817 20.8648 18.2544 20.5498 17.8759C20.2464 17.5115 19.6332 17.4299 19.233 17.675C19.0946 17.7644 18.977 17.8826 18.8883 18.0215C18.7995 18.1604 18.7417 18.3167 18.7188 18.4799C18.664 18.7626 18.6863 19.0548 18.7834 19.3259C18.8393 19.4769 18.932 19.6115 19.0532 19.7175C19.1744 19.8234 19.3203 19.8973 19.4774 19.9325C19.7066 19.9805 19.8045 19.6288 19.5745 19.5805Z" fill="#2A7DB7"/>
<path d="M19.6823 19.0586C19.6503 19.0527 19.6199 19.0399 19.5933 19.0211C19.4769 18.9378 19.4665 18.7702 19.4972 18.641C19.5053 18.6047 19.5209 18.5706 19.5431 18.5408C19.5653 18.511 19.5934 18.4862 19.6258 18.468C19.6582 18.4499 19.694 18.4387 19.731 18.4352C19.7679 18.4318 19.8052 18.4361 19.8404 18.448C19.9952 18.4905 20.0422 18.6627 20.0152 18.8053C19.9857 18.9587 19.866 19.0934 19.6823 19.0586Z" fill="#2A7DB7"/>
<path d="M13.7397 12.2674C13.2374 12.4583 12.8722 12.9391 12.6459 13.4083C12.4975 13.7271 12.3934 14.0647 12.3364 14.4117C12.2687 14.7842 12.1907 15.1539 12.1183 15.525C12.0809 15.7168 12.0651 15.9289 11.9951 16.1108C11.9364 16.2629 11.8847 16.4181 11.8385 16.5745C11.7416 16.9062 11.6649 17.2434 11.6088 17.5843C11.5135 18.1517 11.4433 18.7416 11.4849 19.3175C11.5381 20.0579 11.6994 20.8567 12.1006 21.4922C12.2256 21.6903 12.5415 21.5074 12.4156 21.3081C12.0823 20.7805 11.9327 20.1283 11.8671 19.514C11.8197 18.9811 11.8387 18.4444 11.9237 17.9162C11.9699 17.591 12.0333 17.2685 12.1137 16.9501C12.1536 16.7936 12.198 16.6384 12.2484 16.4848C12.31 16.3248 12.3605 16.1608 12.3996 15.9938C12.467 15.6248 12.5433 15.2574 12.6157 14.8893C12.6825 14.5496 12.7289 14.2046 12.8437 13.8766C12.946 13.5759 13.1013 13.296 13.3023 13.05C13.3874 12.947 13.4825 12.8526 13.5861 12.7682C13.6286 12.7359 13.6729 12.706 13.7188 12.6787C13.7416 12.6651 13.7652 12.6523 13.7891 12.6407C13.7993 12.6356 13.8095 12.6307 13.8199 12.626C13.8558 12.6096 13.7977 12.6342 13.8369 12.6194C13.8828 12.6054 13.9216 12.5743 13.9453 12.5326C13.969 12.4908 13.9758 12.4416 13.9643 12.395C13.9511 12.3485 13.9202 12.3091 13.8782 12.2852C13.8362 12.2614 13.7866 12.255 13.7399 12.2675L13.7397 12.2674Z" fill="#2A7DB7"/>
<path d="M13.1289 21.0515C12.8333 20.5513 12.7101 19.9388 12.618 19.3715C12.6135 19.3437 12.6091 19.3158 12.6049 19.2879C12.604 19.282 12.5935 19.2077 12.5979 19.2418C12.5903 19.1843 12.5866 19.1264 12.5845 19.0685C12.5799 18.9421 12.5837 18.8154 12.591 18.6892C12.6073 18.4055 12.6416 18.1229 12.6851 17.8422C12.7261 17.5782 12.7727 17.3141 12.8359 17.0543L12.5024 17.0979C12.6994 17.4529 12.8463 17.8425 13.0078 18.2143C13.2116 18.6839 13.4495 19.1507 13.5958 19.6417C13.6801 19.9248 13.7272 20.221 13.6376 20.5083C13.5625 20.7495 13.4491 20.858 13.2389 20.966C13.1173 21.0349 12.9841 21.0809 12.846 21.1018C12.6661 21.1108 12.4889 21.1493 12.3215 21.2158C12.0239 21.3572 11.9378 21.7094 12.0379 22.0058C12.138 22.3022 12.4167 22.541 12.7434 22.4648C12.9136 22.4252 13.0495 22.3006 13.2026 22.2234C13.3576 22.1453 13.5193 22.0813 13.6756 22.0059C13.9606 21.8687 14.2431 21.7019 14.443 21.451C14.6645 21.1741 14.8113 20.845 14.8695 20.4952C14.9227 20.1478 14.8619 19.7959 14.7761 19.4578C14.6892 19.1315 14.576 18.8128 14.4375 18.5047C14.1742 17.9001 13.843 17.3283 13.5677 16.7293C13.5027 16.588 13.4414 16.4453 13.3861 16.2999C13.3621 16.246 13.3418 16.1906 13.3253 16.1341C13.3202 16.0839 13.3195 16.0334 13.3232 15.9832C13.3281 15.74 13.3472 15.4974 13.3803 15.2565C13.4469 14.7021 13.5696 14.1558 13.7467 13.6262C13.7828 13.5193 13.8243 13.4143 13.871 13.3116C13.8941 13.2695 13.9001 13.2202 13.8879 13.1738C13.8758 13.1274 13.8463 13.0874 13.8056 13.062C13.7637 13.038 13.714 13.0314 13.6673 13.0436C13.6206 13.0559 13.5806 13.086 13.5559 13.1274C13.3294 13.6168 13.2014 14.1508 13.1046 14.6792C13.0545 14.9529 13.0144 15.2283 12.9872 15.5049C12.9614 15.7163 12.9526 15.9294 12.9608 16.1422C12.97 16.2897 13.05 16.4425 13.1063 16.5782C13.1706 16.7332 13.2388 16.8865 13.3108 17.0382C13.4485 17.3281 13.5974 17.6124 13.7428 17.8983C14.0325 18.4677 14.313 19.0489 14.4532 19.6759C14.5235 19.9904 14.5606 20.3027 14.4696 20.6171C14.3872 20.9261 14.2125 21.2027 13.9688 21.41C13.7281 21.6024 13.432 21.718 13.154 21.8441C13.0794 21.8779 13.0047 21.9125 12.9336 21.9536C12.8607 21.9952 12.7943 22.0496 12.7189 22.0867C12.6754 22.1113 12.6243 22.1186 12.5756 22.1073C12.5269 22.096 12.4843 22.0668 12.4562 22.0255C12.3882 21.9404 12.3551 21.8327 12.3635 21.7242C12.3729 21.6006 12.4538 21.5425 12.57 21.5094C12.722 21.4661 12.8823 21.4704 13.0363 21.4385C13.1813 21.4009 13.3202 21.3433 13.4493 21.2673C13.6611 21.165 13.8297 20.9908 13.9253 20.7759C14.0498 20.4796 14.0822 20.1528 14.0184 19.8378C13.9221 19.2901 13.6474 18.782 13.4293 18.2754C13.2563 17.8738 13.0842 17.4711 12.8981 17.0755C12.8724 17.0209 12.847 16.966 12.8177 16.9132C12.7991 16.883 12.7721 16.8588 12.74 16.8436C12.7079 16.8283 12.6721 16.8226 12.6369 16.8272C12.6017 16.8318 12.5685 16.8465 12.5414 16.8695C12.5144 16.8925 12.4945 16.9228 12.4842 16.9568C12.3559 17.4928 12.2719 18.0385 12.2329 18.5883C12.2099 18.8468 12.2157 19.1071 12.2503 19.3644C12.2932 19.6558 12.3521 19.9447 12.4265 20.2297C12.509 20.581 12.6395 20.9194 12.8142 21.2351C12.9336 21.4371 13.2491 21.2537 13.1292 21.0509L13.1289 21.0515Z" fill="#2A7DB7"/>
<path d="M11.7156 19.5061C11.9415 19.4926 12.1669 19.473 12.3917 19.4473C12.4398 19.4458 12.4857 19.4269 12.5209 19.3941C12.5548 19.3596 12.5739 19.3132 12.5741 19.2649C12.5701 19.1753 12.4932 19.0709 12.3917 19.0824C12.1669 19.1081 11.9416 19.1277 11.7156 19.1413C11.6673 19.1413 11.6209 19.1605 11.5866 19.1947C11.5524 19.2289 11.5332 19.2753 11.5332 19.3237C11.5332 19.3721 11.5524 19.4185 11.5866 19.4527C11.6209 19.4869 11.6673 19.5061 11.7156 19.5061Z" fill="#2A7DB7"/>
<path d="M13.7021 19.2146C13.7116 19.2105 13.721 19.2065 13.7304 19.2025L13.6868 19.2209C13.8537 19.1509 14.0262 19.0952 14.2026 19.0543C14.249 19.0411 14.2884 19.0102 14.3122 18.9682C14.336 18.9262 14.3424 18.8765 14.33 18.8299C14.3162 18.7838 14.2852 18.7448 14.2434 18.7211C14.2016 18.6973 14.1522 18.6907 14.1056 18.7025C13.9042 18.7504 13.7075 18.8164 13.5179 18.8995C13.4769 18.9235 13.4469 18.9626 13.4343 19.0085C13.4279 19.0316 13.4262 19.0557 13.4291 19.0795C13.4321 19.1033 13.4397 19.1263 13.4515 19.1471C13.4633 19.168 13.4792 19.1863 13.4981 19.201C13.517 19.2157 13.5386 19.2266 13.5617 19.233L13.6102 19.2394C13.6426 19.2395 13.6744 19.2309 13.7023 19.2146H13.7021Z" fill="#2A7DB7"/>
<path d="M20.3807 17.828C20.5327 16.9824 20.636 16.1189 20.5562 15.2596C20.49 14.5462 20.3573 13.8092 19.9971 13.1813C19.7685 12.7828 19.4561 12.4072 19.023 12.228C18.9763 12.2154 18.9266 12.2218 18.8846 12.2456C18.8426 12.2695 18.8117 12.3089 18.7986 12.3554C18.7869 12.402 18.7936 12.4513 18.8174 12.4931C18.8411 12.5349 18.88 12.5659 18.926 12.5798C19.2414 12.7103 19.4823 13.0295 19.6537 13.3172C19.8373 13.6287 19.9678 13.9685 20.04 14.3228C20.1799 14.9478 20.2376 15.5884 20.2116 16.2283C20.184 16.7328 20.123 17.2349 20.0291 17.7313C20.0176 17.7779 20.0244 17.8271 20.0481 17.8689C20.0718 17.9106 20.1106 17.9417 20.1565 17.9557C20.2032 17.9681 20.2528 17.9617 20.2948 17.9379C20.3368 17.9141 20.3677 17.8747 20.3809 17.8283L20.3807 17.828Z" fill="#2A7DB7"/>
<path d="M12.7195 21.4172C12.7854 21.5771 12.8307 21.7446 12.8543 21.9159L12.8478 21.8674C12.8547 21.9192 12.8598 21.9711 12.863 22.0233C12.863 22.0717 12.8822 22.1181 12.9164 22.1523C12.9507 22.1865 12.9971 22.2057 13.0455 22.2057C13.0938 22.2057 13.1402 22.1865 13.1745 22.1523C13.2087 22.1181 13.2279 22.0717 13.2279 22.0233C13.2151 21.782 13.1623 21.5445 13.0716 21.3205C13.0574 21.2755 13.0278 21.2369 12.988 21.2115C12.9673 21.1994 12.9444 21.1915 12.9207 21.1882C12.8969 21.185 12.8728 21.1864 12.8496 21.1925C12.8264 21.1986 12.8047 21.2092 12.7856 21.2236C12.7665 21.2381 12.7504 21.2562 12.7383 21.2769C12.7257 21.2978 12.7175 21.3211 12.7144 21.3453C12.7112 21.3695 12.7131 21.3941 12.7199 21.4175L12.7195 21.4172Z" fill="#2A7DB7"/>
<path d="M13.8659 21.9778C13.8795 21.9835 13.8915 21.9907 13.9044 21.9976C13.9318 22.0121 13.8892 21.9798 13.909 22.0013C13.9195 22.0126 13.9306 22.0231 13.9407 22.0349C13.9179 22.008 13.9403 22.0357 13.9448 22.0429C13.9535 22.0567 13.9606 22.071 13.9683 22.0854C13.9842 22.1158 13.963 22.0639 13.9715 22.0939C13.9758 22.1091 13.9811 22.1243 13.9847 22.14C13.9888 22.1582 13.988 22.1709 13.9867 22.1455C13.9875 22.1602 13.9874 22.175 13.988 22.1899C13.9894 22.2224 13.9968 22.1631 13.988 22.1911C13.9747 22.2345 14.004 22.1729 13.9848 22.2051C13.9776 22.2171 13.9711 22.2293 13.9632 22.241C13.9797 22.2166 13.9469 22.2581 13.942 22.2628C13.937 22.2675 13.9093 22.2907 13.9299 22.275C13.9011 22.2961 13.8702 22.3142 13.8377 22.3289C13.8279 22.3333 13.8289 22.333 13.8409 22.328C13.832 22.3315 13.8229 22.335 13.8139 22.3382C13.7981 22.3439 13.7821 22.3489 13.766 22.3534C13.7483 22.3585 13.7304 22.3631 13.7128 22.3671C13.7017 22.3696 13.6905 22.3718 13.6793 22.3737C13.6889 22.3729 13.6883 22.373 13.6776 22.3737C13.6579 22.3754 13.6382 22.376 13.6184 22.3754C13.5985 22.3738 13.5956 22.3737 13.6108 22.3754C13.6037 22.374 13.5965 22.3724 13.5895 22.3705C13.5825 22.3685 13.5391 22.3519 13.5644 22.3635C13.5489 22.3562 13.5339 22.348 13.5195 22.3388C13.5133 22.3349 13.5071 22.3312 13.5011 22.3266C13.5121 22.3358 13.5107 22.3347 13.4969 22.3233C13.483 22.3118 13.4712 22.3005 13.4589 22.2878C13.4376 22.267 13.4191 22.2436 13.4037 22.2181C13.3605 22.148 13.3224 22.0749 13.2897 21.9994C13.2692 21.9647 13.2358 21.9395 13.1969 21.9293C13.1579 21.9191 13.1165 21.9247 13.0817 21.9448C13.0477 21.9659 13.0231 21.9993 13.0129 22.038C13.0028 22.0767 13.0078 22.1178 13.0271 22.1528C13.0835 22.3007 13.1723 22.4341 13.2871 22.543C13.3495 22.5971 13.4224 22.6375 13.5012 22.6618C13.5915 22.6844 13.686 22.6852 13.7766 22.6639C13.9259 22.6389 14.0639 22.5687 14.1719 22.4628C14.2225 22.4101 14.2589 22.3453 14.2775 22.2747C14.2961 22.204 14.2964 22.1298 14.2783 22.059C14.2638 21.986 14.233 21.9172 14.1882 21.8576C14.1435 21.7981 14.086 21.7494 14.0199 21.715C13.9848 21.6958 13.9437 21.6908 13.905 21.7009C13.8664 21.711 13.833 21.7356 13.8119 21.7696C13.792 21.8045 13.7865 21.8458 13.7967 21.8847C13.8069 21.9236 13.8319 21.957 13.8664 21.9776L13.8659 21.9778Z" fill="#2A7DB7"/>
<path d="M20.0004 8.76346C19.9908 8.93058 19.9596 9.09576 19.9077 9.25491C19.8896 9.31527 19.8697 9.37509 19.8495 9.43476C19.8425 9.45537 19.8356 9.47612 19.8284 9.49664C19.8235 9.5104 19.801 9.56035 19.8246 9.50767C19.7513 9.66709 19.6671 9.82125 19.5725 9.96901C19.2963 10.4216 18.9485 10.8263 18.5426 11.1674C18.3184 11.3577 18.0579 11.5006 17.7769 11.5873C17.5515 11.6517 17.6473 12.0039 17.8739 11.9392C18.4563 11.7728 18.9414 11.3538 19.331 10.9043C19.6519 10.5487 19.9203 10.1491 20.1282 9.71762C20.2675 9.41765 20.348 9.09374 20.3652 8.76346C20.3728 8.52857 20.008 8.52887 20.0004 8.76346Z" fill="#2A7DB7"/>
<path d="M12.2342 8.7687C12.4516 9.93313 13.073 11.0513 14.1148 11.6684C14.3924 11.8358 14.6997 11.9483 15.0198 11.9997C15.0664 12.0111 15.1156 12.0042 15.1573 11.9805C15.199 11.9569 15.2301 11.9182 15.2442 11.8723C15.2567 11.8257 15.2504 11.776 15.2265 11.734C15.2027 11.692 15.1633 11.6611 15.1168 11.6479C14.0054 11.479 13.1546 10.472 12.7948 9.46053C12.7046 9.20347 12.6348 8.93971 12.5861 8.6717C12.5728 8.62528 12.5419 8.58591 12.4999 8.56208C12.4579 8.53825 12.4083 8.53186 12.3616 8.5443C12.3156 8.55803 12.2766 8.58905 12.2528 8.63087C12.2291 8.6727 12.2224 8.72208 12.2342 8.7687Z" fill="#2A7DB7"/>
<path d="M20.5522 6.79227C20.6359 6.72377 20.743 6.69052 20.8508 6.69954C20.9586 6.70856 21.0587 6.75915 21.1299 6.84061C21.2121 6.9446 21.2197 7.09337 21.2252 7.22009C21.2326 7.36687 21.225 7.51402 21.2024 7.65924C21.157 7.95206 21.0536 8.23287 20.8983 8.48524C20.7814 8.67111 20.5879 8.92249 20.3412 8.85469C20.1145 8.79228 20.0178 9.14416 20.2442 9.20649C20.8787 9.38133 21.2948 8.63135 21.4605 8.13412C21.5604 7.83443 21.604 7.51884 21.589 7.20329C21.5738 6.89808 21.4924 6.6077 21.2145 6.44183C21.0706 6.35897 20.9044 6.32332 20.7392 6.33991C20.574 6.35649 20.4182 6.42447 20.2937 6.53426C20.2599 6.56867 20.2409 6.615 20.2409 6.66327C20.2409 6.71153 20.2599 6.75786 20.2937 6.79227C20.3284 6.82561 20.3746 6.84424 20.4227 6.84424C20.4708 6.84424 20.517 6.82561 20.5517 6.79227H20.5522Z" fill="#2A7DB7"/>
<path d="M12.3657 6.53442C12.2522 6.43448 12.1124 6.36905 11.9629 6.34583C11.8135 6.32262 11.6604 6.34258 11.5219 6.40337C11.2302 6.5326 11.1078 6.80147 11.0778 7.10409C11.0169 7.71983 11.2017 8.40824 11.604 8.88419C11.8194 9.139 12.1301 9.34363 12.4746 9.26351C12.7032 9.2103 12.6064 8.85842 12.3776 8.91163C12.1379 8.96743 11.9047 8.70144 11.7868 8.52485C11.623 8.27262 11.5129 7.98939 11.4632 7.69277C11.4384 7.5479 11.4284 7.40089 11.4334 7.254C11.4369 7.12644 11.44 6.97274 11.5146 6.86342C11.5481 6.81881 11.5903 6.78144 11.6387 6.75358C11.687 6.72572 11.7405 6.70793 11.7959 6.7013C11.8513 6.69466 11.9075 6.69932 11.9611 6.71498C12.0146 6.73064 12.0645 6.75698 12.1076 6.79242C12.1424 6.82552 12.1885 6.84398 12.2366 6.84398C12.2846 6.84398 12.3308 6.82552 12.3656 6.79242C12.3994 6.758 12.4183 6.71168 12.4183 6.66342C12.4183 6.61516 12.3994 6.56884 12.3656 6.53442H12.3657Z" fill="#2A7DB7"/>
<path d="M18.9145 12.5574C18.8321 13.1074 18.7201 13.6525 18.5791 14.1904C18.467 14.6225 18.3223 15.0409 18.1708 15.4599C17.8337 16.3931 17.5037 17.3321 17.116 18.2457C16.6295 19.392 16.0177 20.4692 15.4045 21.5507C15.2587 21.8036 15.1262 22.0639 15.0075 22.3305C14.906 22.5413 14.8232 22.7606 14.7599 22.9858C14.6702 23.3597 14.6574 23.7562 14.6459 24.139C14.6182 25.0535 14.6601 25.9682 14.6823 26.8823C14.6842 26.9605 14.6857 27.0387 14.6869 27.1169C14.6902 27.3515 15.0551 27.3526 15.0518 27.1169C15.0398 26.2445 14.9943 25.373 15.0036 24.5002C15.0059 24.274 15.0112 24.0476 15.024 23.8217C15.0296 23.7213 15.0365 23.6209 15.0458 23.5207C15.0498 23.4764 15.0543 23.4321 15.0595 23.3879C15.0623 23.3639 15.0652 23.34 15.0684 23.316C15.0638 23.3498 15.0728 23.2872 15.0741 23.2791C15.1418 22.8417 15.3473 22.4205 15.553 22.0329C15.8397 21.4921 16.1601 20.9687 16.4543 20.4318C16.7465 19.8986 17.0213 19.3563 17.2695 18.8011C17.7024 17.8329 18.0612 16.8323 18.4221 15.8358C18.5577 15.4612 18.7016 15.0884 18.815 14.7063C18.9783 14.1487 19.1098 13.5822 19.2089 13.0096C19.2297 12.8913 19.249 12.7728 19.2666 12.654C19.2778 12.6074 19.271 12.5583 19.2473 12.5166C19.2236 12.4749 19.1849 12.4438 19.1391 12.4296C19.0925 12.4171 19.0428 12.4235 19.0008 12.4473C18.9588 12.4711 18.9279 12.5106 18.9147 12.557L18.9145 12.5574Z" fill="#2A7DB7"/>
<path d="M13.5566 12.5684C13.6506 13.6951 13.8738 14.8072 14.222 15.8828C14.5565 16.894 14.9459 17.8863 15.3886 18.8551C15.6233 19.3845 15.8638 19.9117 16.0972 20.4415C16.1219 20.483 16.1619 20.5131 16.2086 20.5254C16.2553 20.5376 16.305 20.531 16.3468 20.5069C16.3877 20.4817 16.4173 20.4416 16.4295 20.3952C16.4417 20.3487 16.4355 20.2993 16.4123 20.2573C15.5755 18.3568 14.6661 16.4786 14.207 14.4412C14.0671 13.8247 13.9717 13.1989 13.9215 12.5687C13.9204 12.5206 13.9008 12.4749 13.8668 12.4409C13.8328 12.407 13.7871 12.3874 13.7391 12.3862C13.6908 12.3866 13.6446 12.406 13.6105 12.4401C13.5764 12.4742 13.557 12.5204 13.5566 12.5687V12.5684Z" fill="#2A7DB7"/>
<path d="M17.8992 14.796C18.2733 14.3573 18.6008 13.8809 18.8766 13.3745C18.9432 13.25 19.0068 13.1241 19.0675 12.9966C19.105 12.9306 19.1367 12.8615 19.1624 12.79C19.1872 12.6995 19.1281 12.6179 19.0876 12.5416C18.9647 12.3012 18.8021 12.0833 18.6065 11.897C18.5865 11.8779 18.5624 11.8636 18.5361 11.8549C18.5098 11.8463 18.4819 11.8437 18.4545 11.8472C18.427 11.8508 18.4007 11.8604 18.3774 11.8754C18.3542 11.8904 18.3346 11.9104 18.32 11.934C18.014 12.3397 17.49 12.6638 17.0232 12.8969C16.8711 12.9729 16.7124 13.0308 16.5601 13.1045C16.4011 13.1814 16.3081 13.3311 16.4206 13.4948C16.5392 13.6675 16.7145 13.8065 16.8556 13.9601C17.1145 14.2414 17.3944 14.504 17.6412 14.7963C17.6756 14.8302 17.7219 14.8491 17.7702 14.8491C17.8184 14.8491 17.8648 14.8302 17.8992 14.7963C17.9326 14.7616 17.9513 14.7153 17.9513 14.6671C17.9513 14.6189 17.9326 14.5726 17.8992 14.5379C17.6672 14.2631 17.4046 14.016 17.1603 13.7525C17.0553 13.6391 16.9501 13.5265 16.8403 13.418C16.8108 13.3886 16.7817 13.3589 16.752 13.3295C16.7402 13.3179 16.714 13.2794 16.7514 13.3329C16.7469 13.3264 16.7225 13.2847 16.7253 13.297V13.394L16.7306 13.373L16.6837 13.4535C16.6652 13.4752 16.7027 13.4406 16.7167 13.4332C16.7306 13.4258 16.7449 13.4186 16.7594 13.4121C16.8207 13.3844 16.8842 13.3607 16.946 13.3338C17.0546 13.2865 17.1615 13.2358 17.2669 13.1817C17.4606 13.0826 17.648 12.9716 17.828 12.8494C18.1352 12.6514 18.4078 12.4043 18.635 12.1181L18.3485 12.155C18.5474 12.3511 18.71 12.5808 18.8289 12.8335V12.6494C18.5192 13.3293 18.1198 13.9645 17.6412 14.5382C17.608 14.573 17.5895 14.6193 17.5895 14.6674C17.5895 14.7155 17.608 14.7618 17.6412 14.7966C17.6757 14.8304 17.722 14.8492 17.7703 14.8491C17.8186 14.849 17.8648 14.8299 17.8992 14.796Z" fill="#2A7DB7"/>
<path d="M15.1156 14.538C14.637 13.9644 14.2375 13.3293 13.9278 12.6495V12.8336C14.0467 12.5809 14.2094 12.3511 14.4082 12.155L14.1217 12.1182C14.3489 12.4044 14.6215 12.6514 14.9287 12.8495C15.1087 12.9716 15.2961 13.0826 15.4898 13.1818C15.5901 13.2333 15.6918 13.2818 15.795 13.3271C15.8567 13.3542 15.9195 13.3788 15.9813 13.4058C16.0014 13.4145 16.0207 13.423 16.0401 13.4333C16.0525 13.4399 16.095 13.4794 16.073 13.4536L16.0261 13.3731L16.0314 13.3941V13.2971C16.0342 13.2848 16.0098 13.3265 16.0054 13.333C16.0434 13.2798 16.0165 13.3178 16.0047 13.3297C15.9751 13.359 15.946 13.3888 15.9163 13.4181C15.8067 13.5269 15.7014 13.6395 15.5964 13.7526C15.3521 14.0162 15.0896 14.2632 14.8576 14.538C14.8244 14.5729 14.8059 14.6191 14.8059 14.6673C14.8059 14.7154 14.8244 14.7616 14.8576 14.7965C14.892 14.8303 14.9383 14.8493 14.9866 14.8493C15.0348 14.8493 15.0812 14.8303 15.1156 14.7965C15.3326 14.5393 15.5766 14.3066 15.807 14.0618C15.9138 13.9482 16.0181 13.8325 16.1283 13.7221C16.1815 13.6689 16.2392 13.6178 16.2879 13.5598C16.3921 13.4349 16.4387 13.2686 16.2856 13.1569C16.1601 13.0657 15.9955 13.0214 15.8552 12.9557C15.5654 12.8207 15.2883 12.6598 15.0275 12.4748C14.8062 12.3232 14.6074 12.1412 14.437 11.934C14.4224 11.9104 14.4028 11.8904 14.3796 11.8754C14.3563 11.8604 14.33 11.8508 14.3025 11.8472C14.2751 11.8437 14.2472 11.8463 14.2209 11.8549C14.1946 11.8636 14.1705 11.8779 14.1505 11.897C13.9549 12.0833 13.7923 12.3012 13.6694 12.5416C13.6324 12.6113 13.5803 12.6837 13.5914 12.7658C13.611 12.8419 13.6418 12.9148 13.6826 12.9821C13.7456 13.1143 13.8115 13.2451 13.8802 13.3745C14.156 13.8809 14.4836 14.3572 14.8577 14.796C14.8921 14.8299 14.9384 14.8488 14.9867 14.8488C15.0349 14.8488 15.0813 14.8299 15.1157 14.796C15.1489 14.7613 15.1675 14.7151 15.1674 14.667C15.1674 14.6189 15.1489 14.5727 15.1156 14.538Z" fill="#2A7DB7"/>
<path d="M18.8797 13.2311C18.9085 13.2615 18.8873 13.2353 18.9039 13.2593C18.9177 13.2792 18.9307 13.2997 18.9433 13.3205C18.9771 13.3762 19.0071 13.4345 19.0356 13.4927C19.0875 13.5987 19.1326 13.7078 19.1705 13.8196C19.4344 14.6864 19.5504 15.5915 19.5136 16.4968C19.4936 16.8803 19.4482 17.262 19.3914 17.6417C19.3801 17.6883 19.387 17.7374 19.4106 17.7791C19.4343 17.8209 19.473 17.852 19.5188 17.8661C19.5655 17.8786 19.6152 17.8723 19.6572 17.8484C19.6992 17.8245 19.7301 17.7851 19.7432 17.7387C19.8446 17.061 19.917 16.3767 19.8783 15.6909C19.8419 15.0363 19.7265 14.3885 19.5349 13.7615C19.4876 13.6145 19.4298 13.4711 19.362 13.3323C19.3065 13.2017 19.2308 13.0806 19.1378 12.9734C18.9756 12.8029 18.7178 13.0612 18.8793 13.2314L18.8797 13.2311Z" fill="#2A7DB7"/>
<path d="M4.5274 13.454C4.33979 12.7341 3.91493 11.2597 3.75202 11.0527C3.62888 10.8956 3.48209 10.774 3.21124 10.8893C2.9784 10.9888 3.01625 11.2572 3.0605 11.479C3.10565 11.7097 3.40311 12.9134 3.57566 13.5361C3.51532 13.4522 3.42837 13.3913 3.32899 13.3632C3.2296 13.3351 3.12363 13.3415 3.02834 13.3814C2.8459 13.465 2.77528 13.6204 2.7958 13.7329C2.81332 13.8197 2.84159 13.9039 2.87996 13.9837C2.76479 13.8697 2.55658 13.8704 2.40789 13.95C2.25015 14.0344 2.0912 14.2605 2.16897 14.4236C2.20295 14.495 2.24688 14.5776 2.29561 14.6607L2.24065 14.6155C2.04027 14.4508 1.69242 14.5522 1.63586 14.7719C1.59245 14.9405 1.66573 15.1393 1.75962 15.2935C1.77277 15.3152 1.78698 15.3386 1.80211 15.3631L1.81549 15.4044C1.94403 15.8024 2.19421 16.4104 2.56905 16.8438C2.74305 17.0447 2.94389 17.2441 3.1017 17.4595C3.25951 17.675 3.29873 17.9144 3.37574 18.1723L3.40866 18.2752C3.78365 18.1369 4.92322 17.7127 5.57157 17.4113L5.55371 17.3552C5.49373 17.0781 5.42752 16.7178 5.46674 16.4831C5.53701 16.2184 5.6255 15.9589 5.73159 15.7064C5.81826 15.5014 5.8562 15.279 5.84242 15.0568C5.81467 14.8042 5.74922 14.4432 5.56116 14.18C5.51899 14.1231 5.46584 14.0752 5.40487 14.0391C5.17985 13.9012 4.90102 13.8947 4.63656 13.9104L4.61307 13.8046C4.6006 13.743 4.5702 13.6182 4.5274 13.454Z" fill="white"/>
<path d="M3.74929 13.481C3.61421 12.9892 3.49015 12.4942 3.3692 11.9987C3.32656 11.8239 3.28308 11.649 3.2456 11.4733C3.22383 11.3862 3.21197 11.297 3.21025 11.2072C3.21177 11.1084 3.238 11.0591 3.35248 11.0342C3.46058 11.0106 3.5144 11.058 3.58562 11.1365C3.58973 11.141 3.62021 11.1793 3.60341 11.1567C3.59231 11.1415 3.60106 11.1534 3.60341 11.1573C3.60775 11.1639 3.61223 11.1705 3.61626 11.1774C3.62789 11.1976 3.63861 11.2181 3.6488 11.239C3.65488 11.2516 3.66065 11.2645 3.66651 11.277C3.6694 11.2833 3.68741 11.325 3.67601 11.2983C3.66461 11.2716 3.68361 11.3169 3.68635 11.3236C3.6941 11.3429 3.7017 11.3623 3.70915 11.3818C3.73918 11.4596 3.76723 11.5381 3.79444 11.617C3.9334 12.0198 4.05374 12.429 4.16997 12.8388C4.26514 13.174 4.36845 13.5116 4.43679 13.8536C4.44965 13.9003 4.48052 13.9399 4.52261 13.9638C4.56471 13.9877 4.61457 13.9939 4.66123 13.981C4.70789 13.9682 4.74753 13.9373 4.77143 13.8952C4.79533 13.8531 4.80154 13.8033 4.78867 13.7566C4.72436 13.4349 4.62782 13.1173 4.5388 12.8018C4.41528 12.3635 4.28742 11.9253 4.13766 11.4951C4.01892 11.1541 3.8716 10.6879 3.43656 10.6627C3.35052 10.6575 3.26437 10.6709 3.18393 10.7018C3.10349 10.7328 3.03063 10.7807 2.97027 10.8422C2.87711 10.9582 2.8326 11.1058 2.84613 11.254C2.86402 11.4486 2.89965 11.6412 2.95255 11.8293C3.09129 12.4147 3.23739 12.9983 3.39672 13.5781C3.45883 13.8043 3.81094 13.7083 3.74853 13.4811L3.74929 13.481Z" fill="#2A7DB7"/>
<path d="M1.64075 15.4529C1.78707 15.9376 2.01242 16.3948 2.30772 16.806C2.48416 17.0397 2.69609 17.2425 2.88097 17.4691C2.96578 17.5686 3.03277 17.6821 3.07899 17.8044C3.12779 17.9407 3.16025 18.0823 3.201 18.221C3.26698 18.4458 3.61909 18.3502 3.55281 18.124C3.47276 17.8514 3.41347 17.5733 3.24045 17.341C3.06014 17.0987 2.84068 16.891 2.65064 16.6569C2.34497 16.2807 2.14132 15.8137 1.99256 15.356C1.92026 15.1336 1.56777 15.2288 1.64075 15.453V15.4529Z" fill="#2A7DB7"/>
<path d="M4.83396 15.2793C4.80947 15.1407 4.77683 15.0036 4.73621 14.8688C4.70515 14.7424 4.62554 14.6333 4.51462 14.5652C4.40109 14.5093 4.27756 14.4767 4.15125 14.4692C4.11499 14.464 4.08003 14.4546 4.04422 14.4481C4.06543 14.4519 4.03328 14.431 4.04635 14.4513C4.0573 14.4698 4.05263 14.4626 4.03236 14.4295C4.0236 14.4158 4.01624 14.4013 4.01039 14.3861C3.99503 14.3454 3.99574 14.3004 4.01237 14.2602C4.02224 14.2348 4.0344 14.2103 4.04871 14.1872C4.09432 14.1098 4.06391 14.1698 4.0573 14.1733C4.15346 14.1344 4.2561 14.114 4.35985 14.1131C4.6031 14.0912 4.86658 14.0576 5.10709 14.1144C5.21569 14.1336 5.31598 14.185 5.39482 14.2621C5.46837 14.3541 5.52334 14.4594 5.55666 14.5724C5.62463 14.7588 5.66114 14.9552 5.66468 15.1537C5.66035 15.4929 5.50048 15.7744 5.39375 16.0918C5.36624 16.1737 5.33917 16.2558 5.315 16.3388C5.30778 16.3636 5.2998 16.3887 5.29486 16.4141C5.2906 16.4343 5.2887 16.4544 5.28596 16.4749C5.29182 16.4311 5.28102 16.5085 5.27836 16.533C5.25069 16.8219 5.31812 17.1226 5.37848 17.4033C5.42789 17.6328 5.77969 17.5357 5.73036 17.3063C5.67631 17.0555 5.61633 16.7894 5.64339 16.5309C5.64492 16.5157 5.64735 16.4958 5.64993 16.4808C5.65252 16.4657 5.63313 16.5264 5.64568 16.5141C5.64955 16.5101 5.65001 16.4943 5.6516 16.4889C5.66073 16.4585 5.66848 16.4285 5.6776 16.3984C5.70307 16.3148 5.73081 16.2312 5.75894 16.1482C5.78813 16.0624 5.81808 15.977 5.85016 15.8924C5.857 15.8745 5.864 15.8567 5.87099 15.8392C5.87798 15.8217 5.88741 15.8028 5.87319 15.833C5.89144 15.7944 5.91014 15.7562 5.92641 15.7167C6.00962 15.5071 6.04344 15.2812 6.02523 15.0564C6.00441 14.7933 5.9402 14.5355 5.83519 14.2934C5.78005 14.1607 5.69385 14.0432 5.58384 13.9508C5.47383 13.8584 5.34323 13.7937 5.20303 13.7623C4.92724 13.6972 4.63792 13.7229 4.35878 13.7479C4.21403 13.7537 4.07096 13.7812 3.93438 13.8295C3.87093 13.8583 3.81446 13.9004 3.76882 13.9531C3.72319 14.0057 3.68947 14.0676 3.66999 14.1345C3.55992 14.4218 3.7156 14.7678 4.02849 14.8173C4.12389 14.8325 4.30975 14.8218 4.36638 14.9161C4.39074 14.9746 4.40765 15.0359 4.41671 15.0985C4.44388 15.1896 4.46538 15.2823 4.48109 15.3761C4.49421 15.4226 4.52513 15.462 4.56713 15.4859C4.60914 15.5097 4.65885 15.516 4.7055 15.5035C4.75163 15.4898 4.79072 15.4589 4.81465 15.4171C4.83857 15.3754 4.84549 15.326 4.83396 15.2793Z" fill="#2A7DB7"/>
<path d="M2.58294 15.4274C2.59153 15.4578 2.58552 15.393 2.58469 15.436C2.58385 15.4801 2.5935 15.4179 2.58332 15.449C2.5802 15.4586 2.55884 15.5111 2.57686 15.4755C2.56751 15.494 2.55831 15.5124 2.54728 15.5301C2.54166 15.539 2.53565 15.5474 2.5298 15.5561C2.53125 15.5539 2.54789 15.5342 2.53459 15.55C2.52321 15.5636 2.51116 15.5766 2.49848 15.5891C2.49141 15.5959 2.48404 15.6021 2.47674 15.6087C2.48221 15.6037 2.50715 15.5903 2.48024 15.6052C2.47461 15.6084 2.46884 15.612 2.46336 15.6155C2.44056 15.6303 2.44884 15.6191 2.46785 15.6148C2.45819 15.617 2.41365 15.6289 2.43166 15.6252C2.44968 15.6216 2.40027 15.6271 2.39069 15.6271C2.38309 15.6271 2.31832 15.6227 2.3539 15.6271C2.33092 15.6239 2.30818 15.6191 2.28586 15.6127C2.27469 15.6097 2.26382 15.6059 2.25272 15.6024C2.25135 15.6024 2.2249 15.5919 2.24261 15.5992C2.26184 15.6068 2.23014 15.5928 2.22596 15.5907C2.21836 15.5868 2.21137 15.5831 2.20422 15.5785C2.19487 15.5729 2.18582 15.5669 2.17693 15.5606C2.18347 15.5653 2.20125 15.583 2.17769 15.5599C2.16203 15.5447 2.14607 15.5295 2.13124 15.5136C2.11642 15.4976 2.10426 15.4827 2.09126 15.4668C2.0721 15.4435 2.10464 15.4851 2.08624 15.4604C2.08069 15.4528 2.07522 15.4452 2.06982 15.4381C2.04101 15.3981 2.01387 15.3569 1.98749 15.3153C1.93792 15.241 1.89343 15.1634 1.85431 15.0831C1.85332 15.081 1.84169 15.0512 1.8499 15.0727C1.84641 15.0636 1.84306 15.0544 1.83987 15.0452C1.83227 15.0239 1.82558 15.0023 1.81995 14.9803C1.81668 14.9679 1.8144 14.9554 1.81129 14.943C1.81022 14.9387 1.80551 14.9073 1.80893 14.9354C1.80589 14.9108 1.80718 14.8861 1.80597 14.8614C1.80597 14.8563 1.80885 14.8251 1.80467 14.8557C1.80599 14.8468 1.80777 14.8379 1.80999 14.8292C1.81305 14.8203 1.81559 14.8113 1.8176 14.8021C1.81934 14.7846 1.81342 14.8131 1.81121 14.8163C1.8182 14.8062 1.84823 14.7651 1.81691 14.8C1.82854 14.7871 1.84055 14.7751 1.85279 14.7628C1.86199 14.7536 1.87689 14.7508 1.84694 14.7669C1.85454 14.7627 1.86214 14.7569 1.86974 14.7523C1.87735 14.7478 1.88578 14.7439 1.89346 14.7393C1.92144 14.7222 1.874 14.7425 1.89346 14.7383C1.91133 14.7346 1.92873 14.7264 1.94667 14.7222C1.95572 14.72 1.96522 14.719 1.97419 14.7165C1.997 14.7103 1.93193 14.7175 1.97465 14.7173C1.99358 14.7173 2.01266 14.7173 2.0312 14.7173C2.0436 14.7173 2.06062 14.7257 2.02482 14.7159C2.03387 14.7184 2.04337 14.7195 2.05249 14.7218C2.06161 14.7241 2.07058 14.7274 2.0797 14.7294C2.11079 14.737 2.06777 14.7182 2.08214 14.7294C2.09156 14.737 2.14432 14.7692 2.11193 14.7437C2.14686 14.7765 2.19299 14.7948 2.24094 14.7948C2.28888 14.7948 2.33501 14.7765 2.36994 14.7437C2.40384 14.7093 2.42284 14.6629 2.42284 14.6147C2.42284 14.5664 2.40384 14.52 2.36994 14.4857C2.27616 14.4102 2.16196 14.3646 2.04202 14.3546C1.92209 14.3446 1.80192 14.3708 1.69696 14.4296C1.45963 14.5614 1.40376 14.8277 1.46815 15.0765C1.50464 15.2025 1.55962 15.3224 1.63128 15.4322C1.69614 15.5418 1.76939 15.6463 1.85036 15.7446C1.93298 15.8414 2.04042 15.9139 2.16115 15.9543C2.28189 15.9946 2.41133 16.0013 2.53558 15.9736C2.79145 15.9138 3.0078 15.5872 2.93482 15.3292C2.92196 15.2826 2.89109 15.2429 2.84901 15.2191C2.80692 15.1952 2.75707 15.189 2.71042 15.2018C2.66377 15.2147 2.62413 15.2456 2.60024 15.2876C2.57635 15.3297 2.57015 15.3796 2.58301 15.4262L2.58294 15.4274Z" fill="#2A7DB7"/>
<path d="M3.02694 13.873C2.80406 13.628 2.40725 13.6853 2.18148 13.8918C2.11885 13.9461 2.06762 14.0122 2.03077 14.0864C1.99392 14.1606 1.97218 14.2414 1.9668 14.3241C1.96589 14.482 2.06677 14.631 2.14415 14.7627C2.27102 14.9785 2.4226 15.1859 2.56703 15.3906C2.62736 15.4856 2.69933 15.5726 2.78125 15.6498C2.90388 15.7455 3.05705 15.7934 3.21234 15.7847C3.60429 15.7679 3.81995 15.3844 3.72166 15.0246C3.6597 14.7984 3.30759 14.8944 3.36985 15.1216C3.3844 15.1605 3.38897 15.2024 3.38316 15.2435C3.37734 15.2846 3.36132 15.3235 3.33656 15.3568C3.34841 15.3412 3.31466 15.378 3.30942 15.3831C3.29467 15.3975 3.30942 15.3854 3.31253 15.3827C3.306 15.3878 3.29885 15.3924 3.29186 15.3968C3.26125 15.4154 3.22551 15.4237 3.18984 15.4206C3.14861 15.4207 3.10767 15.4136 3.0689 15.3995C3.05475 15.3917 3.04004 15.385 3.02489 15.3793C3.02207 15.3786 3.00147 15.3649 3.02565 15.3811C3.04982 15.3974 3.01903 15.3745 3.01569 15.371C2.96591 15.3209 2.92129 15.2658 2.88251 15.2068C2.78155 15.0637 2.68273 14.9185 2.58353 14.7744C2.51229 14.6703 2.44694 14.5623 2.38779 14.4508C2.36612 14.4144 2.34746 14.3763 2.33199 14.3368C2.33663 14.352 2.33199 14.3227 2.33199 14.3206C2.33583 14.2993 2.34291 14.2788 2.35297 14.2597C2.37329 14.2184 2.40195 14.1816 2.43714 14.1519C2.47233 14.1221 2.51329 14.0999 2.55746 14.0867C2.59318 14.0724 2.63236 14.0689 2.67004 14.0768C2.70772 14.0847 2.74222 14.1036 2.76916 14.1311C2.92751 14.3052 3.18498 14.0466 3.02717 13.8731L3.02694 13.873Z" fill="#2A7DB7"/>
<path d="M3.97956 14.7128C3.98627 14.7536 3.9826 14.7954 3.9689 14.8343C3.95521 14.8733 3.93192 14.9082 3.90119 14.9358C3.88077 14.9553 3.85525 14.9685 3.82759 14.9741C3.79992 14.9797 3.77125 14.9773 3.7449 14.9672C3.66538 14.9167 3.60154 14.8451 3.56055 14.7603C3.4815 14.6305 3.40016 14.5023 3.31814 14.3744C3.18419 14.1656 3.03284 13.9506 2.97606 13.7054C2.97606 13.7039 2.96724 13.6694 2.9734 13.6918C2.97956 13.7141 2.98244 13.6707 2.97408 13.6885C2.96496 13.7079 2.9883 13.642 2.97887 13.6657C2.99321 13.6304 3.01764 13.6002 3.04911 13.5787C3.08781 13.5501 3.13365 13.5326 3.1816 13.5283C3.22956 13.524 3.27777 13.533 3.32095 13.5543C3.41977 13.6008 3.48963 13.7106 3.55394 13.795C3.6292 13.8938 3.7024 13.9948 3.76808 14.1C3.89214 14.2988 4.20799 14.1159 4.08317 13.9159C4.00086 13.7873 3.91205 13.6629 3.81711 13.5434C3.72179 13.4205 3.62646 13.2955 3.4818 13.2282C3.15918 13.0781 2.71441 13.2185 2.62319 13.5894C2.5848 13.7453 2.6466 13.9041 2.70878 14.0455C2.78394 14.2057 2.87121 14.36 2.96982 14.507C3.06933 14.6631 3.1661 14.821 3.26546 14.9772C3.34872 15.1275 3.47868 15.2466 3.63566 15.3164C3.72206 15.3432 3.8139 15.3475 3.90241 15.3287C3.99091 15.3099 4.07312 15.2688 4.14117 15.2091C4.21161 15.1483 4.26673 15.0717 4.30207 14.9856C4.33741 14.8994 4.35198 14.8062 4.34459 14.7134C4.33274 14.4798 3.96778 14.4784 3.97971 14.7134L3.97956 14.7128Z" fill="#2A7DB7"/>
<path d="M3.74323 18.9687C3.64441 18.7218 3.56771 18.4653 3.46105 18.2219L3.35205 18.4899C4.00701 18.2491 4.66038 18.0022 5.30257 17.7287C5.4901 17.6489 5.67703 17.5669 5.85856 17.4742L5.60899 17.4087C5.71367 17.6216 5.80383 17.8413 5.90546 18.0556C5.93017 18.0971 5.97017 18.1272 6.01685 18.1394C6.06353 18.1516 6.11315 18.1451 6.15503 18.1211C6.19604 18.0959 6.22574 18.0559 6.23794 18.0094C6.25014 17.9629 6.24388 17.9134 6.22048 17.8714C6.11892 17.6571 6.02876 17.4374 5.92401 17.2245C5.89903 17.1834 5.85903 17.1535 5.81246 17.1413C5.7659 17.1291 5.71641 17.1355 5.67444 17.1591C5.00063 17.5033 4.27626 17.7583 3.56755 18.0225C3.46351 18.0613 3.35934 18.0998 3.25505 18.1381C3.22854 18.1462 3.20418 18.1601 3.18372 18.1788C3.16326 18.1975 3.14723 18.2205 3.13679 18.2461C3.12635 18.2718 3.12176 18.2995 3.12336 18.3271C3.12496 18.3548 3.13271 18.3818 3.14604 18.4061C3.12764 18.3641 3.13798 18.3865 3.14764 18.4121C3.15569 18.4337 3.16383 18.4552 3.17181 18.4768C3.19461 18.5389 3.21742 18.6013 3.24022 18.6637C3.28925 18.7982 3.33836 18.9327 3.39157 19.0657C3.40568 19.1115 3.43676 19.1502 3.47848 19.1739C3.52019 19.1976 3.56938 19.2044 3.61598 19.1931C3.66245 19.1799 3.70188 19.149 3.72573 19.107C3.74958 19.065 3.75592 19.0153 3.74338 18.9687H3.74323Z" fill="#2A7DB7"/>
<path d="M8.026 21.3746C7.50103 20.2126 7.02136 19.032 6.54017 17.8514C6.53215 17.8249 6.51829 17.8005 6.49961 17.78C6.48093 17.7595 6.4579 17.7434 6.43221 17.733C6.40652 17.7225 6.37882 17.7179 6.35114 17.7196C6.32346 17.7212 6.29649 17.729 6.27221 17.7424C5.77658 18.0031 5.27074 18.2435 4.75468 18.4636C4.27101 18.6815 3.76825 18.8544 3.25281 18.9799C3.20639 18.9931 3.16701 19.024 3.14317 19.066C3.11933 19.108 3.11292 19.1576 3.12533 19.2043C3.39831 20.0785 3.66117 20.9566 3.96387 21.8215C4.11378 22.25 4.27334 22.6753 4.44841 23.0943C4.59495 23.4627 4.76696 23.8204 4.9632 24.1649C5.33074 24.7852 5.84249 25.3285 6.53956 25.5646C6.92377 25.6932 7.3315 25.7359 7.73402 25.6898C8.13654 25.6436 8.52403 25.5098 8.86918 25.2976C9.22593 25.0756 9.52293 24.7715 9.79857 24.4575C10.0722 24.1453 10.3242 23.8154 10.5815 23.49C10.6144 23.4551 10.6327 23.4089 10.6327 23.361C10.6327 23.313 10.6144 23.2669 10.5815 23.232C10.5472 23.1981 10.5008 23.1791 10.4525 23.1791C10.4043 23.1791 10.3579 23.1981 10.3235 23.232C9.88607 23.7852 9.4625 24.384 8.90727 24.8274C8.62101 25.0529 8.2872 25.2103 7.93112 25.2877C7.57504 25.3651 7.20602 25.3604 6.85199 25.2741C6.19376 25.1173 5.70482 24.6594 5.35088 24.0995C4.92861 23.4315 4.65251 22.6676 4.38721 21.9272C4.05396 20.9971 3.77148 20.0501 3.47699 19.107L3.34958 19.3314C3.88725 19.2131 4.405 19.0045 4.91044 18.7902C5.43541 18.5676 5.95061 18.3232 6.45602 18.0571L6.18806 17.9481C6.68118 19.1581 7.17294 20.368 7.71091 21.5585C7.73557 21.6 7.77559 21.6302 7.82231 21.6424C7.86903 21.6547 7.91869 21.648 7.96055 21.6239C8.00147 21.5987 8.0311 21.5587 8.04329 21.5123C8.05548 21.4658 8.04929 21.4164 8.026 21.3744V21.3746Z" fill="#2A7DB7"/>
<path d="M15.8093 6.84495C15.8093 6.85475 15.8109 6.86448 15.8105 6.87429L16.1689 6.82579C16.1586 6.74784 16.1322 6.67288 16.0914 6.60567C16.0506 6.53846 15.9962 6.48047 15.9318 6.43537C15.8022 6.35334 15.6593 6.2942 15.5096 6.26053C15.1893 6.18246 14.8588 6.15458 14.5299 6.1779C14.1973 6.18583 13.8682 6.24852 13.5559 6.36346C13.4052 6.41744 13.2804 6.52615 13.2062 6.66798C13.1463 6.81157 13.1198 6.96691 13.1286 7.12226C13.1252 7.411 13.2026 7.69493 13.352 7.94203C13.5072 8.17494 13.769 8.30052 14.0281 8.38407C14.2743 8.45884 14.5325 8.48561 14.7888 8.4629C15.066 8.45338 15.3393 8.39448 15.5958 8.28897C16.163 8.03713 16.2496 7.33959 16.1675 6.79607C16.1543 6.74959 16.1234 6.71016 16.0814 6.68632C16.0394 6.66247 15.9897 6.65613 15.9431 6.66866C15.8971 6.68254 15.8582 6.71359 15.8345 6.75537C15.8108 6.79715 15.804 6.84646 15.8157 6.89307C15.8653 7.22192 15.8418 7.67977 15.5496 7.89794C15.3995 8.00991 15.1783 8.05856 14.9956 8.08251C14.7978 8.11237 14.5971 8.11748 14.3981 8.09771C14.1798 8.0716 13.9707 7.99455 13.7877 7.87278C13.621 7.76118 13.5555 7.55495 13.5184 7.36658C13.4989 7.26456 13.4908 7.1607 13.4941 7.05688C13.4969 6.95282 13.5017 6.82997 13.5888 6.75867C13.6731 6.70176 13.7686 6.66329 13.8688 6.64578C14.0112 6.60728 14.1563 6.57916 14.3028 6.56163C14.6057 6.5217 14.9128 6.52446 15.215 6.56984C15.3591 6.59097 15.5 6.62986 15.6345 6.68562C15.6825 6.70315 15.7265 6.73022 15.7638 6.76521C15.7952 6.81188 15.8136 6.86614 15.817 6.92233C15.855 7.13283 16.1666 7.07042 16.1754 6.87383C16.1754 6.86403 16.1738 6.8543 16.1742 6.84449C16.1828 6.61013 15.818 6.61044 15.8093 6.84495Z" fill="#2A7DB7"/>
<path d="M16.7182 6.84519C16.7182 6.85499 16.7166 6.86472 16.717 6.87453C16.7175 6.91839 16.7338 6.9606 16.7628 6.99348C16.7919 7.02637 16.8317 7.04773 16.8752 7.0537C16.9188 7.06004 16.9631 7.05026 17 7.0262C17.0369 7.00214 17.0637 6.96546 17.0754 6.92303C17.0769 6.87506 17.0921 6.82853 17.1194 6.78903C17.1466 6.74953 17.1847 6.71875 17.229 6.70038C17.3403 6.64915 17.4575 6.61195 17.5779 6.58962C17.842 6.53854 18.1118 6.5232 18.38 6.54401C18.6549 6.55422 18.9267 6.6051 19.1866 6.69498C19.2323 6.70762 19.274 6.73171 19.3077 6.76497C19.3415 6.79822 19.3662 6.83955 19.3795 6.88502C19.4026 6.99442 19.4077 7.10685 19.3947 7.2179C19.3802 7.41091 19.329 7.64504 19.1979 7.79563C19.0611 7.95245 18.8415 8.01775 18.652 8.06625C18.2564 8.13735 17.8491 8.1041 17.4703 7.96979C17.0674 7.79996 17.0199 7.27043 17.0769 6.89346C17.0882 6.84686 17.0813 6.7977 17.0576 6.756C17.034 6.7143 16.9953 6.68321 16.9495 6.66906C16.9028 6.65656 16.8531 6.66292 16.8111 6.68676C16.7691 6.7106 16.7382 6.75001 16.7251 6.79646C16.6499 7.29392 16.7071 7.88944 17.1494 8.20628C17.3584 8.35595 17.6458 8.41958 17.8973 8.44778C18.1491 8.48304 18.4047 8.48012 18.6556 8.43912C18.9361 8.39208 19.1992 8.27182 19.4183 8.0905C19.6205 7.90966 19.7087 7.61 19.7446 7.3504C19.7844 7.0629 19.7911 6.69817 19.5513 6.49201C19.4248 6.39431 19.2777 6.32672 19.1211 6.29437C18.9524 6.25061 18.7808 6.21884 18.6075 6.19927C18.2381 6.15137 17.8634 6.16315 17.4977 6.23416C17.3266 6.26505 17.1614 6.32275 17.0083 6.40512C16.9316 6.44859 16.866 6.5092 16.8167 6.58222C16.7673 6.65524 16.7355 6.73868 16.7237 6.82603L17.082 6.87453C17.082 6.86472 17.0836 6.85499 17.0832 6.84519C17.0746 6.61113 16.7096 6.60999 16.7182 6.84519Z" fill="#2A7DB7"/>
<path d="M16.1308 7.13732C16.1639 7.12911 16.1971 7.12174 16.2306 7.11566C16.245 7.11307 16.2594 7.11087 16.2737 7.10851C16.3223 7.10091 16.2341 7.11208 16.283 7.10752C16.3457 7.10119 16.4087 7.09827 16.4718 7.09878C16.5008 7.09931 16.5299 7.10068 16.5589 7.10288C16.5758 7.10415 16.5927 7.10575 16.6096 7.10767C16.6168 7.10843 16.624 7.10927 16.6312 7.11018C16.6068 7.10684 16.6051 7.10668 16.626 7.10973C16.6884 7.12027 16.7502 7.13399 16.8112 7.15085C16.8578 7.16371 16.9077 7.15751 16.9498 7.13361C16.9919 7.10971 17.0227 7.07007 17.0356 7.02341C17.0485 6.97675 17.0423 6.92688 17.0184 6.88479C16.9945 6.8427 16.9548 6.81183 16.9082 6.79897C16.6229 6.71835 16.3216 6.71369 16.034 6.78544C15.9876 6.7987 15.9482 6.82963 15.9244 6.8716C15.9006 6.91356 15.8942 6.9632 15.9066 7.00984C15.9202 7.05597 15.9513 7.09501 15.9931 7.11878C16.0349 7.14254 16.0843 7.14919 16.131 7.13732H16.1308Z" fill="#2A7DB7"/>
<path d="M13.3577 6.70356C13.2325 6.67502 13.1042 6.66225 12.9759 6.66555C12.9276 6.66631 12.8814 6.68532 12.8466 6.71876C12.821 6.74428 12.8036 6.77682 12.7965 6.81227C12.7894 6.84772 12.793 6.88448 12.8069 6.91787C12.8207 6.95126 12.8442 6.97979 12.8743 6.99983C12.9044 7.01987 12.9397 7.03052 12.9759 7.03043C13.049 7.02816 13.1223 7.03187 13.1949 7.04153L13.1464 7.03499C13.1847 7.04006 13.2227 7.04693 13.2604 7.05559C13.3079 7.06756 13.3581 7.06098 13.4009 7.0372C13.4216 7.02511 13.4397 7.00906 13.4542 6.98997C13.4687 6.97088 13.4793 6.94912 13.4854 6.92594C13.4915 6.90275 13.4929 6.8786 13.4897 6.85486C13.4864 6.83111 13.4785 6.80824 13.4664 6.78756C13.4423 6.74662 13.4032 6.71664 13.3574 6.70394L13.3577 6.70356Z" fill="#2A7DB7"/>
<path d="M19.6376 7.05559C19.6755 7.04708 19.7135 7.04021 19.7516 7.03499L19.7031 7.04153C19.7757 7.03187 19.849 7.02816 19.9221 7.03043C19.9583 7.03052 19.9936 7.01987 20.0237 6.99983C20.0538 6.97979 20.0773 6.95126 20.0911 6.91787C20.105 6.88448 20.1086 6.84772 20.1015 6.81227C20.0944 6.77682 20.077 6.74428 20.0514 6.71876C20.0164 6.68566 19.9703 6.6667 19.9221 6.66555C19.7938 6.66225 19.6655 6.67502 19.5403 6.70356C19.5057 6.71308 19.4746 6.73261 19.4511 6.7597C19.4275 6.78679 19.4124 6.82023 19.4078 6.85584C19.4031 6.89144 19.4091 6.92763 19.4249 6.95987C19.4407 6.9921 19.4657 7.01895 19.4967 7.03704C19.5397 7.06034 19.5898 7.0669 19.6373 7.05544L19.6376 7.05559Z" fill="#2A7DB7"/>
<path d="M15.5484 9.8554C15.7776 10.08 16.1414 10.1451 16.4489 10.145C16.7564 10.1449 17.1201 10.0806 17.3497 9.85616C17.5178 9.69166 17.2597 9.43373 17.0917 9.59808C17.0841 9.60568 17.0461 9.63776 17.0689 9.61982C17.0901 9.60302 17.0408 9.63845 17.0295 9.64536C17.0095 9.65768 16.9889 9.669 16.9679 9.6795C16.9538 9.68656 16.9396 9.69333 16.925 9.69964C16.9498 9.68885 16.9245 9.69964 16.9129 9.70374C16.7639 9.75604 16.607 9.78177 16.4492 9.77976C16.2941 9.78233 16.1398 9.75736 15.9935 9.70603C15.9915 9.70526 15.9386 9.68322 15.973 9.69842C15.9609 9.69336 15.949 9.68776 15.9371 9.68162C15.9138 9.67015 15.8909 9.65775 15.8687 9.64407C15.8517 9.63358 15.8357 9.62187 15.8193 9.61062C15.8659 9.6424 15.818 9.60789 15.8066 9.59671C15.6387 9.43221 15.3809 9.69006 15.5486 9.85471L15.5484 9.8554Z" fill="#2A7DB7"/>
<path d="M16.3573 8.15874C16.3935 8.2895 16.4224 8.42214 16.444 8.55608L16.4375 8.50758C16.44 8.52576 16.4406 8.54417 16.439 8.56246L16.4454 8.51397C16.4442 8.52235 16.4422 8.5306 16.4394 8.5386L16.4578 8.49504C16.4554 8.50056 16.4525 8.50585 16.4491 8.51085L16.4776 8.47398C16.4738 8.4787 16.4694 8.48298 16.4647 8.48675L16.5015 8.45824C16.4914 8.46449 16.4809 8.47006 16.4701 8.47489L16.5137 8.4565C16.4966 8.46368 16.4788 8.46879 16.4605 8.4717L16.509 8.46516C16.4924 8.4671 16.4757 8.4671 16.4592 8.46516L16.5077 8.47162C16.4889 8.46904 16.4704 8.46448 16.4517 8.46189C16.4041 8.45083 16.3542 8.45736 16.3111 8.48029C16.2904 8.49238 16.2723 8.50843 16.2578 8.52752C16.2433 8.54661 16.2327 8.56837 16.2267 8.59155C16.2206 8.61473 16.2191 8.63889 16.2224 8.66263C16.2257 8.68637 16.2336 8.70924 16.2457 8.72993C16.2572 8.75051 16.2729 8.76852 16.2916 8.7829C16.3103 8.79727 16.3318 8.80769 16.3547 8.81355C16.3956 8.81902 16.4352 8.82951 16.4767 8.83134C16.5383 8.83181 16.5992 8.81747 16.6541 8.78953C16.6885 8.77415 16.7191 8.75122 16.7434 8.72244C16.7678 8.69366 16.7854 8.65977 16.7949 8.62328C16.8073 8.56336 16.8067 8.50147 16.793 8.44183C16.7714 8.31381 16.7419 8.18694 16.7094 8.06174C16.6965 8.01508 16.6656 7.97544 16.6235 7.95154C16.5815 7.92763 16.5316 7.92143 16.4849 7.9343C16.4383 7.94716 16.3986 7.97803 16.3747 8.02012C16.3508 8.06221 16.3446 8.11207 16.3575 8.15874H16.3573Z" fill="#2A7DB7"/>
<path d="M14.3266 7.05727C14.2642 7.25955 14.3045 7.72508 14.6879 7.76491C15.1946 7.76218 15.2218 7.19934 15.0514 6.93465C14.9118 6.71793 14.5013 6.62762 14.3266 7.05727Z" fill="#2A7DB7"/>
<path d="M18.5029 7.05956C18.5651 7.26192 18.5243 7.72745 18.1408 7.76652C17.6342 7.76326 17.6075 7.20042 17.7782 6.93589C17.918 6.71992 18.3286 6.62969 18.5029 7.05956Z" fill="#2A7DB7"/>
</g>
<defs>
<clipPath id="clip0_4_5330">
<rect width="27.4" height="27.4" fill="white"/>
</clipPath>
</defs>
</svg>
