<svg width="24" height="24" viewBox="0 0 24 24" fill="none" xmlns="http://www.w3.org/2000/svg">
<path d="M23.9801 23.2005C23.9801 23.4126 23.8748 23.6159 23.6873 23.7658C23.4998 23.9158 23.2455 24 22.9803 24H0.999839C0.734665 24 0.480352 23.9158 0.292846 23.7658C0.10534 23.6159 0 23.4126 0 23.2005C0 21.7654 0 18.7794 1.00584 16.7247C1.96355 14.6421 3.79269 12.8886 6.183 11.7615C5.95715 11.4336 5.79148 11.0814 5.69108 10.7158C5.29951 10.299 5.08634 9.79239 5.08318 9.27111V8.93692C4.63942 8.5495 4.39327 8.0432 4.39327 7.51784C4.39327 6.99248 4.63942 6.48618 5.08318 6.09876V6.05478C5.08029 5.96868 5.04549 5.88521 4.9832 5.81494C4.63945 5.41446 4.43824 4.94681 4.40108 4.46198C4.36392 3.97716 4.49221 3.49337 4.77223 3.06232C5.16765 2.45962 5.83781 2.00162 6.64393 1.78314C6.99387 1.68481 7.29382 1.49533 7.49279 1.24589C7.91344 0.709969 8.55924 0.311507 9.31423 0.122045C10.0692 -0.0674167 10.8839 -0.0354674 11.6121 0.212156C11.6782 0.23472 11.7493 0.246353 11.8211 0.246353C11.8929 0.246353 11.964 0.23472 12.0301 0.212156C12.7674 -0.0299236 13.5879 -0.0563357 14.3472 0.137567C15.1065 0.331469 15.756 0.733264 16.1814 1.27227C16.3684 1.51851 16.6613 1.70159 17.0053 1.78794H17.0163C17.5025 1.92328 17.943 2.14674 18.3033 2.44084C18.6636 2.73494 18.9339 3.0917 19.093 3.48322C19.2522 3.87474 19.2959 4.2904 19.2208 4.69768C19.1457 5.10497 18.9537 5.49283 18.66 5.83093C18.5951 5.90012 18.56 5.98428 18.56 6.07077V6.10755C18.9976 6.49393 19.2399 6.99658 19.2399 7.51784C19.2399 8.0391 18.9976 8.54175 18.56 8.92813V9.24313C18.5574 9.74404 18.3661 10.2327 18.0111 10.6454C17.9143 11.0432 17.7398 11.4263 17.4942 11.7807C19.9038 12.89 21.7494 14.641 22.7083 16.7279C23.6687 18.7959 24.1011 20.9967 23.9801 23.2005ZM12.232 22.401H21.9805C22.0074 20.6609 21.6234 18.9322 20.8486 17.3059C20.4193 16.3472 19.7573 15.4657 18.9008 14.7121C18.0443 13.9585 17.01 13.3475 15.8574 12.9144C15.9454 13.1862 15.9914 13.4692 15.9914 13.7618V18.5147C16.2602 18.6034 16.4823 18.7637 16.6202 18.9683C16.758 19.173 16.8031 19.4095 16.7477 19.6377C16.6924 19.866 16.54 20.0719 16.3165 20.2205C16.0929 20.3691 15.812 20.4514 15.5213 20.4533C15.2305 20.4552 14.9479 20.3766 14.7214 20.2309C14.4949 20.0852 14.3383 19.8813 14.2783 19.6539C14.2183 19.4264 14.2585 19.1893 14.3922 18.9829C14.5258 18.7764 14.7447 18.6133 15.0116 18.5211V13.7618C15.0116 13.3797 14.9076 13.0175 14.7216 12.6913C14.6486 12.7207 14.5746 12.7484 14.4997 12.7744L12.262 16.9358L12.257 16.9518C12.2479 16.9751 12.2429 16.9993 12.242 17.0237H12.232V22.401ZM13.7878 12.9631C13.455 13.0265 13.114 13.0584 12.7719 13.0583H10.9122C10.5483 13.0583 10.1924 13.0223 9.85241 12.9543C10.0008 13.2755 10.2685 13.5528 10.6196 13.7489C10.9707 13.945 11.3884 14.0505 11.8166 14.0514C12.2449 14.0523 12.6632 13.9484 13.0155 13.7537C13.3679 13.5591 13.6373 13.2829 13.7878 12.9623V12.9631ZM9.17252 12.7712C9.06254 12.7329 8.95455 12.6913 8.84857 12.6457C8.64007 12.9941 8.5321 13.3756 8.53262 13.7618V15.0122C9.15044 15.104 9.70859 15.3658 10.1103 15.7522C10.5121 16.1386 10.7321 16.6252 10.7323 17.1276V20.0298C10.7323 20.3176 10.4423 20.5494 10.0824 20.5494H9.15252C9.02259 20.5494 8.89797 20.5082 8.8061 20.4347C8.71422 20.3612 8.6626 20.2616 8.6626 20.1577C8.6626 20.0538 8.71422 19.9541 8.8061 19.8807C8.89797 19.8072 9.02259 19.7659 9.15252 19.7659H9.75243V17.1276C9.75243 16.7651 9.57229 16.4173 9.25166 16.1609C8.93102 15.9046 8.49615 15.7605 8.0427 15.7605C7.58926 15.7605 7.15438 15.9046 6.83374 16.1609C6.51311 16.4173 6.33298 16.7651 6.33298 17.1276V19.7659H7.00287C7.13281 19.7659 7.25742 19.8072 7.3493 19.8807C7.44117 19.9541 7.49279 20.0538 7.49279 20.1577C7.49279 20.2616 7.44117 20.3612 7.3493 20.4347C7.25742 20.5082 7.13281 20.5494 7.00287 20.5494H6.00303C5.91761 20.5496 5.83298 20.5363 5.75401 20.5103C5.67505 20.4843 5.6033 20.446 5.5429 20.3977C5.4825 20.3494 5.43464 20.292 5.40207 20.2289C5.3695 20.1657 5.35287 20.0981 5.35314 20.0298V17.1276C5.3529 16.6251 5.57278 16.1383 5.9746 15.7519C6.37642 15.3655 6.93479 15.1037 7.55278 15.0122V13.7618C7.55278 13.4828 7.59477 13.2118 7.67476 12.9519C5.42766 13.8533 3.70441 15.4154 2.86654 17.3107C2.23886 18.9594 1.94751 20.6782 2.00368 22.401H11.4422V19.8939H11.4322V17.0237C11.4313 16.9937 11.4245 16.9641 11.4122 16.9358L9.17252 12.7704V12.7712ZM10.1024 3.32055C9.73075 3.32045 9.36275 3.3789 9.01939 3.49256C8.67604 3.60623 8.36406 3.77288 8.10129 3.983C7.83851 4.19312 7.6301 4.44258 7.48795 4.71713C7.34579 4.99168 7.27269 5.28594 7.27283 5.58309V6.23067C7.27283 6.24266 7.27283 6.25466 7.27083 6.26585L7.57078 9.93228C7.68217 10.5775 8.08197 11.1686 8.69625 11.5962C9.31053 12.0239 10.0977 12.2593 10.9122 12.2588H12.7719C13.5863 12.259 14.3733 12.0235 14.9875 11.5959C15.6017 11.1682 16.0016 10.5773 16.1134 9.93228L16.4134 6.27464C16.4118 6.25654 16.4118 6.23838 16.4134 6.22028L16.4713 5.51833C16.4644 5.32995 16.3689 5.15057 16.204 5.01591C16.0391 4.88124 15.8169 4.80116 15.5815 4.7916H14.1917C13.6248 4.79284 13.0696 4.66192 12.5943 4.41486C12.1189 4.1678 11.7439 3.8153 11.5151 3.4005C11.5051 3.37671 11.4858 3.35611 11.4601 3.34173C11.4344 3.32734 11.4036 3.31992 11.3722 3.32055H10.1024Z" fill="#2A7DB7"/>
</svg>
