<svg width="28" height="28" viewBox="0 0 28 28" fill="none" xmlns="http://www.w3.org/2000/svg">
<g clip-path="url(#clip0_4_5395)">
<path d="M20.9965 4.51931C22.2415 4.51931 23.2508 3.51003 23.2508 2.26503C23.2508 1.02002 22.2415 0.0107422 20.9965 0.0107422C19.7515 0.0107422 18.7422 1.02002 18.7422 2.26503C18.7422 3.51003 19.7515 4.51931 20.9965 4.51931Z" fill="#2A7DB7"/>
<path d="M26.7254 18.0931C26.7254 17.8455 26.5247 17.6448 26.2772 17.6448H26.0875V16.663C26.1664 16.6033 26.237 16.5333 26.2971 16.4546C26.4381 16.2702 26.5222 16.0401 26.521 15.7899L26.4808 7.7989C26.4738 6.38658 25.319 5.23771 23.9068 5.23771H22.7919C22.6495 5.60996 21.5964 8.36108 21.4435 8.76036L21.7615 7.26278C21.7838 7.15757 21.7676 7.04792 21.7158 6.95373L21.2793 6.15972L21.6674 5.45386C21.7251 5.34875 21.649 5.21973 21.5289 5.21973H20.4636C20.3438 5.21973 20.2673 5.34859 20.3251 5.45386L20.7132 6.15972L20.275 6.95673C20.2242 7.04915 20.2077 7.1565 20.2282 7.26L20.5062 8.76041C20.3652 8.3987 19.3228 5.62495 19.1717 5.23776H18.0673C16.655 5.23776 15.5004 6.38668 15.4933 7.79896L15.4531 15.79C15.4501 16.3908 15.9347 16.8802 16.5354 16.8832C16.5372 16.8832 16.5391 16.8832 16.541 16.8832C17.1392 16.8832 17.6256 16.3998 17.6286 15.801L17.6688 7.80987C17.6688 7.80891 17.6688 7.80795 17.6688 7.80704C17.6702 7.69155 17.7646 7.59886 17.8801 7.59956C17.9955 7.60025 18.0888 7.69412 18.0888 7.80966L18.0893 26.0949C18.0893 26.8157 18.6737 27.4002 19.3946 27.4002C20.1155 27.4002 20.6999 26.8158 20.6999 26.0949V15.6617H21.2635V26.0948C21.2635 26.8156 21.8479 27.4 22.5688 27.4C23.2897 27.4 23.8741 26.8157 23.8741 26.0948V23.8715C23.3535 23.5966 22.9977 23.0499 22.9977 22.4215V18.0931C22.9977 17.4646 23.3535 16.9179 23.8741 16.643C23.8741 15.7213 23.8563 9.48747 23.8515 7.8217C23.8512 7.69829 23.9494 7.5972 24.0727 7.59399C24.1961 7.59078 24.2995 7.68652 24.3056 7.80971V7.80982L24.3458 15.8009C24.347 16.0477 24.4313 16.274 24.5706 16.4558C24.641 16.5475 24.7249 16.6283 24.8205 16.6936V17.6448H24.6367C24.3891 17.6448 24.1884 17.8455 24.1884 18.093V22.4214C24.1884 22.669 24.3891 22.8696 24.6367 22.8696H26.2775C26.5251 22.8696 26.7257 22.669 26.7257 22.4214V18.093H26.7254V18.0931Z" fill="#2A7DB7"/>
<path d="M7.89972 4.51039C9.14523 4.51039 10.1549 3.5007 10.1549 2.25519C10.1549 1.00968 9.14523 0 7.89972 0C6.65422 0 5.64453 1.00968 5.64453 2.25519C5.64453 3.5007 6.65422 4.51039 7.89972 4.51039Z" fill="#2A7DB7"/>
<path d="M12.2164 17.4809L11.4437 13.4914L9.64558 14.6392C9.19295 14.9281 8.63441 15.0235 8.08748 14.8718L6.58354 15.3081C6.4817 15.3376 6.37654 15.3526 6.27106 15.3526C5.77567 15.3526 5.33331 15.0201 5.19519 14.544L4.569 12.3853L3.72266 16.7548C4.13408 17.0528 4.40241 17.5368 4.40241 18.0825V18.201C4.58441 18.201 4.78681 18.201 5.0058 18.201V26.0941C5.0058 26.8153 5.5904 27.3999 6.31157 27.3999C7.03269 27.3999 7.61735 26.8154 7.61735 26.0941V18.201C7.80508 18.201 7.9934 18.201 8.18113 18.201V26.0941C8.18113 26.8153 8.76573 27.3999 9.48691 27.3999C10.2081 27.3999 10.7927 26.8154 10.7927 26.0941V18.201C11.1075 18.201 11.3887 18.201 11.623 18.201C12.0023 18.201 12.2888 17.8547 12.2164 17.4809Z" fill="#2A7DB7"/>
<path d="M4.80993 9.19594C5.64578 8.95352 6.47661 8.71254 7.3282 8.46551C7.23038 8.21463 7.09659 7.87159 6.0662 5.229H6.01338C4.84878 5.229 4.00227 5.97389 3.49741 7.44294C2.71507 9.7197 0.938301 14.5808 0.920481 14.6296C0.749285 15.0979 0.920588 15.6069 1.30595 15.8848C1.30595 16.7982 1.30595 16.6558 1.30595 17.634H1.12207C0.874511 17.634 0.673828 17.8347 0.673828 18.0823V22.4107C0.673828 22.6583 0.874511 22.859 1.12207 22.859H2.7628C3.01036 22.859 3.21105 22.6583 3.21105 22.4107V18.0823C3.21105 17.8347 3.01036 17.634 2.7628 17.634H2.57309C2.57309 17.0056 2.57309 16.5154 2.57309 15.8894C2.74637 15.7663 2.88583 15.5916 2.96434 15.3769C2.97526 15.3471 3.64046 13.5271 4.33744 11.5893L4.04589 10.5842C3.87378 9.99086 4.21655 9.36805 4.80993 9.19594Z" fill="#2A7DB7"/>
<path d="M8.63296 7.00256L8.19638 6.20855L8.58448 5.50268C8.64227 5.39758 8.56612 5.26855 8.44598 5.26855H7.38075C7.26088 5.26855 7.18441 5.39747 7.24226 5.50268L7.63035 6.20855L7.19216 7.00556C7.14133 7.09798 7.12479 7.20533 7.14529 7.30883L7.3724 8.45272C7.70693 8.3557 7.80775 8.31594 8.00298 8.31594C8.15839 8.31594 8.3085 8.34874 8.44571 8.40836L8.6785 7.31172C8.70103 7.20651 8.68476 7.0968 8.63296 7.00256Z" fill="#2A7DB7"/>
<path d="M8.22104 9.37325C8.18716 9.25638 8.06322 9.18204 7.93912 9.21817L5.0587 10.0536C4.93819 10.0885 4.86862 10.2151 4.90356 10.3355L6.05211 14.2951C6.08609 14.4123 6.21389 14.4852 6.33403 14.4502L7.10235 14.2274C7.05659 14.1709 7.01298 14.1119 6.973 14.0491C6.39803 13.1484 6.66213 11.9521 7.5628 11.3772L8.6087 10.7096L8.22104 9.37325Z" fill="#2A7DB7"/>
<path d="M13.3059 10.2922C13.0837 9.67459 12.9162 9.20638 12.7682 8.78821C12.6037 8.32327 12.4635 7.92025 12.2996 7.44342C11.7947 5.97432 10.9482 5.22949 9.78362 5.22949H9.7309C9.49233 5.85273 8.72872 7.84768 8.50331 8.43651C8.77597 8.57383 8.99014 8.81963 9.07866 9.12499L9.39317 10.2093L10.672 9.39299L10.6734 9.39208C10.7618 9.64264 10.8562 9.90813 10.9645 10.2108L8.01841 12.0915C7.51183 12.4148 7.36338 13.0876 7.68667 13.5941C8.01001 14.1006 8.6828 14.2492 9.18938 13.9258L12.8676 11.5779C13.2961 11.3043 13.4781 10.7705 13.3059 10.2922Z" fill="#2A7DB7"/>
</g>
<defs>
<clipPath id="clip0_4_5395">
<rect width="27.4" height="27.4" fill="white"/>
</clipPath>
</defs>
</svg>
