<svg width="24" height="24" viewBox="0 0 24 24" fill="none" xmlns="http://www.w3.org/2000/svg">
<g clip-path="url(#clip0_7_21)">
<path d="M21.7846 4.61538C21.6 4.43077 21.3231 4.24615 21.0462 4.24615C18.9231 4.15385 16.2462 1.93846 14.4923 1.01538C13.3846 0.461538 12.6462 0.0923077 12.0923 0H11.7231C11.1692 0.0923077 10.4308 0.461538 9.32309 1.01538C7.56925 1.93846 4.89232 4.15385 2.76925 4.24615C2.58463 4.33846 2.40002 4.43077 2.2154 4.61538C2.03078 4.89231 1.93848 5.16923 1.93848 5.44615C2.40001 14.6769 5.72309 20.4 11.5385 23.7231C11.7231 23.8154 11.8154 23.8154 12 23.8154C12.1846 23.8154 12.3692 23.8154 12.4616 23.7231C18.2769 20.4 21.6 14.6769 22.0616 5.44615C22.0616 5.16923 21.9692 4.89231 21.7846 4.61538ZM17.5385 14.3077L12.9231 11.8154V14.7692L14.7692 16.1538V16.6154L12 16.1538L9.23078 16.6154V16.1538L11.0769 14.7692V11.8154L6.46155 14.3077V13.2923L11.0769 9.32308V5.53846C11.0769 4.98462 11.4462 4.61538 12 4.61538C12.5539 4.61538 12.9231 4.98462 12.9231 5.53846V9.32308L17.5385 13.2923V14.3077Z" fill="#2A7DB7"/>
</g>
<defs>
<clipPath id="clip0_7_21">
<rect width="24" height="24" fill="white"/>
</clipPath>
</defs>
</svg>
