<svg width="24" height="22" viewBox="0 0 24 22" fill="none" xmlns="http://www.w3.org/2000/svg">
<path d="M17.4199 15.4688V17.4864H6.81866C5.94609 17.4864 5.10925 17.1676 4.49225 16.6C3.87525 16.0324 3.52862 15.2626 3.52862 14.4599C3.52862 13.6572 3.87525 12.8874 4.49225 12.3199C5.10925 11.7523 5.94609 11.4334 6.81866 11.4334H7.18422V10.0883H6.81866C5.55828 10.0883 4.34952 10.5489 3.45829 11.3687C2.56706 12.1886 2.06638 13.3005 2.06638 14.4599C2.06638 15.6193 2.56706 16.7313 3.45829 17.5511C4.34952 18.3709 5.55828 18.8315 6.81866 18.8315H17.4199V20.8492H23.2689V15.4688H17.4199ZM21.8067 19.5041H18.8822V16.8139H21.8067V19.5041Z" fill="#2A7DB7"/>
<path d="M15.9577 14.7962H14.4954V12.7785H10.1087V14.7962H8.64645V12.7785C8.64684 12.4219 8.80102 12.08 9.07516 11.8278C9.3493 11.5756 9.721 11.4338 10.1087 11.4334H14.4954C14.8831 11.4338 15.2548 11.5756 15.529 11.8278C15.8031 12.08 15.9573 12.4219 15.9577 12.7785V14.7962ZM12.3021 10.7609C11.8683 10.7609 11.4442 10.6425 11.0835 10.4208C10.7228 10.1991 10.4417 9.88401 10.2757 9.51533C10.1096 9.14665 10.0662 8.74097 10.1508 8.34958C10.2355 7.95819 10.4444 7.59868 10.7511 7.3165C11.0579 7.03433 11.4487 6.84216 11.8742 6.76431C12.2996 6.68646 12.7406 6.72641 13.1414 6.87913C13.5422 7.03184 13.8848 7.29045 14.1258 7.62225C14.3668 7.95405 14.4954 8.34415 14.4954 8.7432C14.4948 9.27816 14.2636 9.79105 13.8524 10.1693C13.4412 10.5476 12.8836 10.7603 12.3021 10.7609ZM12.3021 8.07065C12.1575 8.07065 12.0161 8.11009 11.8959 8.184C11.7756 8.2579 11.6819 8.36294 11.6266 8.48583C11.5713 8.60872 11.5568 8.74395 11.585 8.87441C11.6132 9.00488 11.6828 9.12471 11.7851 9.21877C11.8873 9.31283 12.0176 9.37689 12.1594 9.40284C12.3012 9.42879 12.4483 9.41547 12.5818 9.36456C12.7154 9.31366 12.8296 9.22746 12.91 9.11686C12.9903 9.00625 13.0332 8.87622 13.0332 8.7432C13.033 8.56489 12.9559 8.39392 12.8188 8.26783C12.6818 8.14174 12.4959 8.07083 12.3021 8.07065Z" fill="#2A7DB7"/>
<path d="M17.7855 2.69022H7.18421V0.672562H1.33524V6.053H7.18421V4.03533H17.7855C18.658 4.03533 19.4949 4.3542 20.1119 4.92177C20.7289 5.48935 21.0755 6.25915 21.0755 7.06183C21.0755 7.8645 20.7289 8.63431 20.1119 9.20188C19.4949 9.76946 18.658 10.0883 17.7855 10.0883H17.4199V11.4334H17.7855C19.0459 11.4334 20.2546 10.9729 21.1458 10.153C22.0371 9.33318 22.5378 8.22125 22.5378 7.06183C22.5378 5.90241 22.0371 4.79047 21.1458 3.97064C20.2546 3.1508 19.0459 2.69022 17.7855 2.69022ZM5.72196 4.70789H2.79748V2.01767H5.72196V4.70789Z" fill="#2A7DB7"/>
</svg>
