<svg width="22" height="22" viewBox="0 0 22 22" fill="none" xmlns="http://www.w3.org/2000/svg">
<path fill-rule="evenodd" clip-rule="evenodd" d="M7.33764 8.41185C8.73529 8.41185 8.73529 9.70595 10.1459 9.70595C10.8212 9.70595 11.1698 9.40231 11.5083 9.08955L11.5314 9.06822C11.5698 9.03265 11.6082 8.99705 11.6471 8.96185V9.70595C11.6471 11.4905 10.1964 12.9412 8.41177 12.9412C6.62718 12.9412 5.17647 11.4905 5.17647 9.70596V9.57655C5.46855 9.4578 5.68339 9.26748 5.89624 9.07479L5.93075 9.04355C6.28166 8.72581 6.63823 8.41185 7.33764 8.41185ZM22 0V12.9411H18.1176V11.647H20.7059V1.29412H1.2941V11.647H2.58822V12.9411H0V2.29165e-05H22V0ZM16.8649 8.18409L12.782 19.0572C10.7852 19.1762 7.63788 19.263 5.55177 18.5059L5.99177 17.2894C7.48518 17.833 9.86247 17.9067 12.0625 17.767L13.5818 13.7035L12.8894 13.5223C12.3536 13.3825 11.814 13.2777 11.2718 13.1884C12.2825 12.3576 12.9412 11.114 12.9412 9.70596V8.41185C12.9412 5.91422 10.9094 3.88247 8.41177 3.88247C5.91412 3.88247 3.88236 5.91422 3.88236 8.41185V9.70595C3.88236 11.1114 4.53977 12.3537 5.54659 13.1845C4.90471 13.2919 4.26929 13.4239 3.64423 13.6025C2.26082 13.9959 1.29413 15.2797 1.29413 16.72V20.4911L1.694 20.6567C3.80729 21.5354 6.13153 22 8.41177 22C10.4772 22 12.4067 21.8175 13.8445 21.4875C14.4216 21.3568 14.8862 20.9492 15.0894 20.3979L15.4544 19.3975C15.6187 18.9485 15.5411 18.458 15.2434 18.0853C15.0946 17.8964 14.9018 17.754 14.6869 17.6673L18.0762 8.63961L16.8649 8.18409Z" fill="#2A7DB7"/>
</svg>
