<svg width="89" height="85" viewBox="0 0 89 85" fill="none" xmlns="http://www.w3.org/2000/svg">
<path d="M3.72 29.36C2.78667 29.36 2.06667 29.1067 1.56 28.6C1.08 28.0667 0.84 27.32 0.84 26.36V3.56C0.84 2.54667 1.08 1.77333 1.56 1.24C2.06667 0.706665 2.73333 0.439998 3.56 0.439998C4.28 0.439998 4.82667 0.586665 5.2 0.88C5.6 1.14667 6.05333 1.6 6.56 2.24L20.6 20.12H19.52V3.4C19.52 2.46667 19.76 1.74667 20.24 1.24C20.7467 0.706665 21.4667 0.439998 22.4 0.439998C23.3333 0.439998 24.04 0.706665 24.52 1.24C25.0267 1.74667 25.28 2.46667 25.28 3.4V26.48C25.28 27.36 25.0533 28.0667 24.6 28.6C24.1467 29.1067 23.5333 29.36 22.76 29.36C22.0133 29.36 21.4133 29.2133 20.96 28.92C20.5333 28.6267 20.0667 28.16 19.56 27.52L5.56 9.64H6.6V26.36C6.6 27.32 6.36 28.0667 5.88 28.6C5.4 29.1067 4.68 29.36 3.72 29.36ZM39.8772 29.44C37.7705 29.44 35.9305 29.0267 34.3572 28.2C32.8105 27.3733 31.6105 26.1867 30.7572 24.64C29.9039 23.0933 29.4772 21.2667 29.4772 19.16C29.4772 17.5867 29.7172 16.1733 30.1972 14.92C30.6772 13.6667 31.3705 12.6 32.2772 11.72C33.2105 10.8133 34.3172 10.1333 35.5972 9.68C36.8772 9.2 38.3039 8.96 39.8772 8.96C41.9839 8.96 43.8105 9.37333 45.3572 10.2C46.9305 11.0267 48.1439 12.2 48.9972 13.72C49.8772 15.24 50.3172 17.0533 50.3172 19.16C50.3172 20.76 50.0639 22.1867 49.5572 23.44C49.0772 24.6933 48.3839 25.7733 47.4772 26.68C46.5705 27.5867 45.4639 28.28 44.1572 28.76C42.8772 29.2133 41.4505 29.44 39.8772 29.44ZM39.8772 24.92C40.7572 24.92 41.5172 24.7067 42.1572 24.28C42.7972 23.8533 43.3039 23.2267 43.6772 22.4C44.0505 21.5467 44.2372 20.4667 44.2372 19.16C44.2372 17.2133 43.8372 15.7867 43.0372 14.88C42.2372 13.9467 41.1839 13.48 39.8772 13.48C39.0239 13.48 38.2639 13.68 37.5972 14.08C36.9572 14.48 36.4505 15.1067 36.0772 15.96C35.7305 16.7867 35.5572 17.8533 35.5572 19.16C35.5572 21.1067 35.9572 22.56 36.7572 23.52C37.5572 24.4533 38.5972 24.92 39.8772 24.92ZM61.6031 29.36C60.8031 29.36 60.1231 29.1733 59.5631 28.8C59.0031 28.4 58.5498 27.7733 58.2031 26.92L52.5631 12.96C52.2698 12.2133 52.1765 11.56 52.2831 11C52.3898 10.4133 52.6698 9.94667 53.1231 9.6C53.6031 9.22667 54.2565 9.04 55.0831 9.04C55.7765 9.04 56.3498 9.21333 56.8031 9.56C57.2565 9.88 57.6431 10.5067 57.9631 11.44L62.3631 23.16H61.4431L66.0031 10.92C66.2165 10.28 66.5231 9.81333 66.9231 9.52C67.3498 9.2 67.8965 9.04 68.5631 9.04C69.2298 9.04 69.7631 9.2 70.1631 9.52C70.5898 9.84 70.9231 10.3067 71.1631 10.92L75.6431 23.16H74.8831L79.2431 11.28C79.5631 10.4267 79.9765 9.84 80.4831 9.52C80.9898 9.2 81.5365 9.04 82.1231 9.04C82.8698 9.04 83.4431 9.22667 83.8431 9.6C84.2698 9.97333 84.5098 10.4533 84.5631 11.04C84.6431 11.6267 84.5365 12.2667 84.2431 12.96L78.6431 26.92C78.3231 27.7467 77.8698 28.36 77.2831 28.76C76.7231 29.16 76.0431 29.36 75.2431 29.36C74.4698 29.36 73.7898 29.16 73.2031 28.76C72.6431 28.36 72.1898 27.7467 71.8431 26.92L67.0431 14.44H69.6431L64.9631 26.88C64.6431 27.7067 64.2031 28.3333 63.6431 28.76C63.0831 29.16 62.4031 29.36 61.6031 29.36ZM3.72 84.36C2.78667 84.36 2.06667 84.1067 1.56 83.6C1.08 83.0667 0.84 82.32 0.84 81.36V58.56C0.84 57.5467 1.08 56.7733 1.56 56.24C2.06667 55.7067 2.73333 55.44 3.56 55.44C4.28 55.44 4.82667 55.5867 5.2 55.88C5.6 56.1467 6.05333 56.6 6.56 57.24L20.6 75.12H19.52V58.4C19.52 57.4667 19.76 56.7467 20.24 56.24C20.7467 55.7067 21.4667 55.44 22.4 55.44C23.3333 55.44 24.04 55.7067 24.52 56.24C25.0267 56.7467 25.28 57.4667 25.28 58.4V81.48C25.28 82.36 25.0533 83.0667 24.6 83.6C24.1467 84.1067 23.5333 84.36 22.76 84.36C22.0133 84.36 21.4133 84.2133 20.96 83.92C20.5333 83.6267 20.0667 83.16 19.56 82.52L5.56 64.64H6.6V81.36C6.6 82.32 6.36 83.0667 5.88 83.6C5.4 84.1067 4.68 84.36 3.72 84.36ZM40.6372 84.44C38.3172 84.44 36.3172 84.0267 34.6372 83.2C32.9839 82.3467 31.7039 81.16 30.7972 79.64C29.9172 78.0933 29.4772 76.28 29.4772 74.2C29.4772 72.1733 29.9039 70.4 30.7572 68.88C31.6105 67.3333 32.7972 66.1333 34.3172 65.28C35.8639 64.4 37.6105 63.96 39.5572 63.96C40.9705 63.96 42.2505 64.2 43.3972 64.68C44.5439 65.1333 45.5305 65.8 46.3572 66.68C47.1839 67.5333 47.8105 68.5867 48.2372 69.84C48.6639 71.0667 48.8772 72.44 48.8772 73.96C48.8772 74.4667 48.7172 74.8533 48.3972 75.12C48.0772 75.36 47.6105 75.48 46.9972 75.48H34.4372V72.36H44.5172L43.8772 72.92C43.8772 71.8267 43.7172 70.92 43.3972 70.2C43.0772 69.4533 42.6105 68.8933 41.9972 68.52C41.4105 68.1467 40.6772 67.96 39.7972 67.96C38.8105 67.96 37.9705 68.1867 37.2772 68.64C36.5839 69.0933 36.0505 69.7467 35.6772 70.6C35.3039 71.4533 35.1172 72.48 35.1172 73.68V74C35.1172 76.0267 35.5839 77.52 36.5172 78.48C37.4772 79.44 38.8905 79.92 40.7572 79.92C41.3972 79.92 42.1305 79.84 42.9572 79.68C43.7839 79.52 44.5572 79.2667 45.2772 78.92C45.8905 78.6267 46.4372 78.5333 46.9172 78.64C47.3972 78.72 47.7705 78.9333 48.0372 79.28C48.3039 79.6267 48.4505 80.0267 48.4772 80.48C48.5305 80.9333 48.4372 81.3867 48.1972 81.84C47.9572 82.2667 47.5572 82.6267 46.9972 82.92C46.0905 83.4267 45.0639 83.8 43.9172 84.04C42.7972 84.3067 41.7039 84.44 40.6372 84.44ZM54.3922 84.28C53.6455 84.28 53.0455 84.08 52.5922 83.68C52.1389 83.2533 51.8989 82.72 51.8722 82.08C51.8722 81.44 52.1389 80.7867 52.6722 80.12L58.8722 72.52V75.24L53.1122 68.2C52.5522 67.5067 52.2855 66.84 52.3122 66.2C52.3389 65.56 52.5789 65.04 53.0322 64.64C53.4855 64.24 54.0855 64.04 54.8322 64.04C55.5522 64.04 56.1522 64.16 56.6322 64.4C57.1122 64.64 57.5655 65.04 57.9922 65.6L62.2722 71.08H60.1522L64.4322 65.6C64.8855 65.04 65.3522 64.64 65.8322 64.4C66.3122 64.16 66.8989 64.04 67.5922 64.04C68.3389 64.04 68.9389 64.2533 69.3922 64.68C69.8455 65.08 70.0722 65.6 70.0722 66.24C70.0989 66.88 69.8322 67.5333 69.2722 68.2L63.5122 75.24V72.52L69.7522 80.12C70.3122 80.76 70.5789 81.4 70.5522 82.04C70.5255 82.68 70.2722 83.2133 69.7922 83.64C69.3389 84.0667 68.7389 84.28 67.9922 84.28C67.2722 84.28 66.6722 84.16 66.1922 83.92C65.7389 83.6533 65.2855 83.2533 64.8322 82.72L60.1522 76.76H62.1922L57.5122 82.72C57.0855 83.2267 56.6322 83.6133 56.1522 83.88C55.6989 84.1467 55.1122 84.28 54.3922 84.28ZM84.2959 84.44C82.4559 84.44 80.9093 84.1333 79.6559 83.52C78.4293 82.9067 77.5093 82.0133 76.8959 80.84C76.3093 79.6667 76.0159 78.1867 76.0159 76.4V68.88H74.3359C73.5893 68.88 73.0026 68.68 72.5759 68.28C72.1759 67.88 71.9759 67.3333 71.9759 66.64C71.9759 65.8933 72.1759 65.3333 72.5759 64.96C73.0026 64.56 73.5893 64.36 74.3359 64.36H76.0159V61.32C76.0159 60.3067 76.2826 59.5467 76.8159 59.04C77.3493 58.5067 78.0959 58.24 79.0559 58.24C80.0426 58.24 80.7893 58.5067 81.2959 59.04C81.8026 59.5467 82.0559 60.3067 82.0559 61.32V64.36H85.8559C86.6026 64.36 87.1759 64.56 87.5759 64.96C87.9759 65.3333 88.1759 65.8933 88.1759 66.64C88.1759 67.3333 87.9759 67.88 87.5759 68.28C87.1759 68.68 86.6026 68.88 85.8559 68.88H82.0559V76.16C82.0559 77.28 82.3093 78.12 82.8159 78.68C83.3493 79.24 84.1893 79.52 85.3359 79.52C85.7359 79.52 86.1093 79.48 86.4559 79.4C86.8026 79.32 87.1226 79.2667 87.4159 79.24C87.7893 79.2133 88.0959 79.3333 88.3359 79.6C88.5759 79.84 88.6959 80.3867 88.6959 81.24C88.6959 81.88 88.5893 82.44 88.3759 82.92C88.1626 83.4 87.7893 83.7467 87.2559 83.96C86.9093 84.0933 86.4293 84.2 85.8159 84.28C85.2293 84.3867 84.7226 84.44 84.2959 84.44Z" fill="#0674C1"/>
</svg>
