<svg width="55" height="55" viewBox="0 0 55 55" fill="none" xmlns="http://www.w3.org/2000/svg">
<path d="M12.7636 6.83447C10.4979 6.83447 8.32497 7.73453 6.72287 9.33663C5.12076 10.9387 4.2207 13.1117 4.2207 15.3774V35.8804C4.2207 38.1461 5.12076 40.319 6.72287 41.9211C8.32497 43.5232 10.4979 44.4233 12.7636 44.4233H14.4722V41.0061H12.7636C11.4042 41.0061 10.1004 40.4661 9.13917 39.5048C8.1779 38.5436 7.63787 37.2398 7.63787 35.8804V15.3774C7.63787 14.018 8.1779 12.7142 9.13917 11.7529C10.1004 10.7917 11.4042 10.2516 12.7636 10.2516H33.2666C34.626 10.2516 35.9298 10.7917 36.8911 11.7529C37.8523 12.7142 38.3924 14.018 38.3924 15.3774V23.9203H41.8095V15.3774C41.8095 13.1117 40.9095 10.9387 39.3074 9.33663C37.7053 7.73453 35.5323 6.83447 33.2666 6.83447H12.7636ZM23.0151 27.3375C21.6557 27.3375 20.3519 27.8775 19.3907 28.8388C18.4294 29.8 17.8894 31.1038 17.8894 32.4632V46.1319C17.8894 47.4913 18.4294 48.7951 19.3907 49.7563C20.3519 50.7176 21.6557 51.2576 23.0151 51.2576H43.5181C44.8775 51.2576 46.1813 50.7176 47.1426 49.7563C48.1038 48.7951 48.6439 47.4913 48.6439 46.1319V32.4632C48.6439 31.1038 48.1038 29.8 47.1426 28.8388C46.1813 27.8775 44.8775 27.3375 43.5181 27.3375H23.0151ZM21.3065 32.4632C21.3065 32.0101 21.4865 31.5755 21.807 31.2551C22.1274 30.9346 22.562 30.7546 23.0151 30.7546H43.5181C43.9713 30.7546 44.4058 30.9346 44.7263 31.2551C45.0467 31.5755 45.2267 32.0101 45.2267 32.4632V34.1171L33.2666 40.7601L21.3065 34.1171V32.4632ZM21.3065 38.0229L32.4362 44.208C32.6902 44.3493 32.976 44.4234 33.2666 44.4234C33.5572 44.4234 33.843 44.3493 34.097 44.208L45.2267 38.0229V46.1319C45.2267 46.585 45.0467 47.0196 44.7263 47.34C44.4058 47.6605 43.9713 47.8405 43.5181 47.8405H23.0151C22.562 47.8405 22.1274 47.6605 21.807 47.34C21.4865 47.0196 21.3065 46.585 21.3065 46.1319V38.0229ZM14.4722 17.086C14.0191 17.086 13.5845 17.266 13.2641 17.5864C12.9436 17.9068 12.7636 18.3414 12.7636 18.7946C12.7636 19.2477 12.9436 19.6823 13.2641 20.0027C13.5845 20.3231 14.0191 20.5031 14.4722 20.5031H31.558C32.0112 20.5031 32.4458 20.3231 32.7662 20.0027C33.0866 19.6823 33.2666 19.2477 33.2666 18.7946C33.2666 18.3414 33.0866 17.9068 32.7662 17.5864C32.4458 17.266 32.0112 17.086 31.558 17.086H14.4722Z" fill="white"/>
</svg>
