<svg width="24" height="24" viewBox="0 0 24 24" fill="none" xmlns="http://www.w3.org/2000/svg">
<g clip-path="url(#clip0_11_67)">
<path d="M8.5744 10.5C9.21761 10.5 9.80405 10.1784 10.2321 9.65844C10.6768 9.11833 10.9519 8.36677 10.9519 7.5318C10.9519 6.67152 10.8632 5.90133 10.5176 5.37141C10.192 4.87231 9.60195 4.56358 8.57441 4.56358C7.54678 4.56358 6.95671 4.87231 6.63115 5.37141C6.28553 5.90131 6.19692 6.67152 6.19692 7.5318C6.19692 8.3668 6.47199 9.11837 6.91667 9.65849C7.3447 10.1784 7.93115 10.5 8.5744 10.5ZM10.8093 10.1331C10.2411 10.8232 9.4512 11.25 8.5744 11.25C7.69754 11.25 6.90767 10.8232 6.33952 10.1331C5.78803 9.46324 5.4469 8.54321 5.4469 7.5318C5.4469 6.54574 5.56061 5.64429 6.00421 4.96418C6.46791 4.25329 7.25413 3.81355 8.57441 3.81355C9.8946 3.81355 10.6808 4.2533 11.1445 4.96418C11.5881 5.64427 11.7019 6.54573 11.7019 7.5318C11.7019 8.54318 11.3608 9.46321 10.8093 10.1331H10.8093Z" fill="#2A7DB7"/>
<path d="M12.723 13.125C12.2779 12.6043 11.5032 12.2973 10.2017 12.0483C9.95112 12.2608 9.42045 12.5977 8.57443 12.5977C7.72831 12.5977 7.19761 12.2608 6.94701 12.0483C5.57247 12.3113 4.78544 12.6391 4.35377 13.2153C3.89732 13.8246 3.78476 14.7732 3.75695 16.2607L3.7559 16.3171C3.75367 16.4341 3.75168 16.5392 3.75114 16.7274C3.95209 17.0001 4.9366 18 8.57443 18C9.50439 18 10.2606 17.9346 10.875 17.8327V18.5794C10.2359 18.6846 9.47656 18.75 8.57443 18.75C3.91396 18.75 3.04756 17.01 3.04493 17.005L3.00098 16.8321C3.00098 16.7181 3.00464 16.5248 3.00879 16.3054L3.00986 16.2489C3.04059 14.6046 3.18021 13.5357 3.75611 12.7671C4.33763 11.9909 5.31204 11.5833 7.00111 11.2784L7.21925 11.239L7.35855 11.4131C7.35953 11.4144 7.699 11.8477 8.57441 11.8477C9.44969 11.8477 9.78914 11.4144 9.79013 11.4131L9.92944 11.239L10.1476 11.2784C11.856 11.5867 12.8334 12.0003 13.4125 12.7943C13.4887 12.8988 13.557 13.0089 13.6183 13.125H12.723Z" fill="#2A7DB7"/>
<path d="M12.375 13.5H20.25C20.5598 13.5 20.8411 13.6265 21.0448 13.8302C21.2486 14.0339 21.375 14.3153 21.375 14.625V19.125C21.375 19.4348 21.2486 19.7161 21.0448 19.9199C20.8411 20.1236 20.5598 20.25 20.25 20.25H12.375C12.0653 20.25 11.7839 20.1236 11.5802 19.9199C11.3765 19.7161 11.25 19.4348 11.25 19.125V14.625C11.25 14.3153 11.3765 14.0339 11.5802 13.8302C11.7839 13.6265 12.0653 13.5 12.375 13.5ZM20.25 14.25H12.375C12.2723 14.25 12.1786 14.2923 12.1105 14.3605C12.0423 14.4286 12 14.5223 12 14.625V19.125C12 19.2278 12.0423 19.3215 12.1105 19.3896C12.1786 19.4577 12.2723 19.5 12.375 19.5H20.25C20.3527 19.5 20.4464 19.4577 20.5146 19.3896C20.5827 19.3215 20.625 19.2278 20.625 19.125V14.625C20.625 14.5223 20.5827 14.4286 20.5146 14.3605C20.4464 14.2923 20.3527 14.25 20.25 14.25Z" fill="#2A7DB7"/>
<path d="M14.8125 13.875C14.8125 14.0821 14.9804 14.25 15.1875 14.25C15.3946 14.25 15.5625 14.0821 15.5625 13.875V13.125H17.0625V13.875C17.0625 14.0821 17.2304 14.25 17.4375 14.25C17.6446 14.25 17.8125 14.0821 17.8125 13.875V12.75C17.8125 12.5429 17.6446 12.375 17.4375 12.375H15.1875C14.9804 12.375 14.8125 12.5429 14.8125 12.75V13.875Z" fill="#2A7DB7"/>
</g>
<defs>
<clipPath id="clip0_11_67">
<rect width="24" height="24" fill="white"/>
</clipPath>
</defs>
</svg>
