<svg width="24" height="24" viewBox="0 0 24 24" fill="none" xmlns="http://www.w3.org/2000/svg">
<g clip-path="url(#clip0_11_76)">
<path d="M21.612 18.3565C20.9456 18.0434 20.261 17.7706 19.562 17.5395C20.6023 15.8315 21.1518 13.8689 21.15 11.868C21.201 9.67403 20.6288 7.51069 19.5 5.62994L19.878 2.21911C19.8856 2.15033 19.8735 2.0808 19.843 2.01868C19.8125 1.95657 19.765 1.90446 19.706 1.86846C17.7885 0.7013 14.91 0 12 0C9.09 0 6.211 0.7013 4.3 1.86796C4.241 1.90396 4.19347 1.95607 4.16301 2.01818C4.13254 2.0803 4.1204 2.14983 4.128 2.21861L4.5055 5.62493C3.37527 7.50715 2.80121 9.67198 2.85 11.868C2.84811 13.8691 3.398 15.8317 4.439 17.5395C3.73846 17.7712 3.05239 18.0447 2.3845 18.3585C1.68658 18.6657 1.0911 19.1668 0.668524 19.8024C0.245944 20.438 0.0139522 21.1816 0 21.9452V23.6358C0.00349081 23.7301 0.0433422 23.8194 0.111177 23.8849C0.179012 23.9504 0.269547 23.987 0.36375 23.987C0.457953 23.987 0.548488 23.9504 0.616323 23.8849C0.684158 23.8194 0.724009 23.7301 0.7275 23.6358V21.9452C0.742492 21.3198 0.935807 20.7117 1.28462 20.1928C1.63343 19.6739 2.12317 19.2658 2.696 19.0168C3.55597 18.616 4.44502 18.2811 5.3555 18.0149C5.809 17.8797 6.191 17.776 6.56 17.6893C6.68733 17.6578 6.81299 17.6198 6.9365 17.5756C7.545 19.2086 10.7025 20.7349 11.6365 21.1562V23.6363C11.64 23.7306 11.6798 23.8199 11.7477 23.8854C11.8155 23.9509 11.906 23.9875 12.0002 23.9875C12.0945 23.9875 12.185 23.9509 12.2528 23.8854C12.3207 23.8199 12.3605 23.7306 12.364 23.6363V21.1542C13.295 20.7314 16.4475 19.1976 17.0615 17.5646C17.1845 17.6107 17.307 17.6507 17.434 17.6848C17.802 17.773 18.195 17.8797 18.634 18.0104C19.5467 18.2759 20.4378 18.6108 21.2995 19.0123C21.8732 19.2616 22.3638 19.6703 22.7131 20.19C23.0625 20.7098 23.2561 21.3188 23.271 21.9452V23.6328C23.271 23.7294 23.3093 23.822 23.3775 23.8903C23.4456 23.9586 23.5381 23.997 23.6345 23.997C23.7309 23.997 23.8234 23.9586 23.8915 23.8903C23.9597 23.822 23.998 23.7294 23.998 23.6328V21.9472C23.9841 21.1829 23.752 20.4386 23.3291 19.8023C22.9063 19.166 22.3104 18.6643 21.612 18.3565ZM12 0.729352C14.6805 0.729352 17.321 1.34099 19.1235 2.3729L18.817 5.15957C16.5907 4.58385 14.2993 4.29929 12 4.313C9.70137 4.29905 7.41062 4.58361 5.185 5.15957L4.876 2.3729C6.678 1.34049 9.318 0.729352 12 0.729352ZM12 20.521C10.355 19.7942 7.93 18.3766 7.5935 17.2866C8.4329 16.856 9.07747 16.1218 9.3965 15.2327C10.1929 15.6722 11.0909 15.8936 12 15.8744C12.9124 15.894 13.8136 15.671 14.612 15.2282C14.9428 16.1041 15.582 16.8285 16.409 17.265C16.076 18.3575 13.647 19.7867 12 20.521ZM8.4365 13.3578C7.3275 11.7047 7.2805 9.36486 7.3725 8.29839C8.12453 8.71857 8.9716 8.9384 9.83267 8.93682C10.6937 8.93524 11.54 8.71231 12.2905 8.28937C12.922 7.88537 13.6407 7.63825 14.3868 7.56855C15.1329 7.49885 15.8848 7.60858 16.58 7.88863C16.711 8.5774 16.858 11.4322 15.5655 13.3578C15.1769 13.9399 14.6439 14.4107 14.0188 14.724C13.3937 15.0374 12.698 15.1825 12 15.1451C11.3021 15.1822 10.6065 15.0367 9.9817 14.7229C9.35689 14.4091 8.82437 13.9378 8.4365 13.3553V13.3578ZM18.844 17.3151C18.432 17.1916 18.0166 17.0793 17.5985 16.9785C17.381 16.9167 17.1695 16.8356 16.9665 16.736C16.5566 16.5559 16.1902 16.2896 15.892 15.9552C15.5937 15.6209 15.3707 15.2262 15.238 14.7979C15.5963 14.5007 15.91 14.1533 16.1695 13.7665C17.6925 11.4958 17.4575 8.06746 17.2195 7.48638C17.1839 7.39938 17.1165 7.3293 17.031 7.29052C16.2121 6.9244 15.3154 6.76754 14.4211 6.83398C13.5269 6.90042 12.663 7.1881 11.907 7.67122C10.4725 8.56037 8.15 8.26032 7.3975 7.37868C7.35683 7.33145 7.30474 7.29547 7.24622 7.27417C7.1877 7.25286 7.12471 7.24696 7.06326 7.25701C7.00181 7.26706 6.94396 7.29273 6.89524 7.33158C6.84653 7.37042 6.80857 7.42113 6.785 7.47887C6.5475 8.05894 6.3085 11.4903 7.832 13.765C8.09152 14.1525 8.40541 14.5006 8.764 14.7984C8.64174 15.2331 8.42319 15.6344 8.1246 15.9727C7.82602 16.311 7.45511 16.5774 7.0395 16.7521C6.83096 16.8506 6.61324 16.9282 6.3895 16.984C6.009 17.0742 5.6145 17.1819 5.149 17.3206C4.11883 15.6896 3.57436 13.7981 3.5795 11.868C3.52319 9.78503 4.06311 7.72943 5.1355 5.94402C6.796 5.35192 9.813 5.04235 12.0015 5.04235C14.19 5.04235 17.1975 5.35142 18.859 5.94402C19.9366 7.72822 20.479 9.78539 20.4215 11.87C20.425 13.7976 19.8799 15.6863 18.85 17.3146L18.844 17.3151Z" fill="#2A7DB7"/>
<path d="M11.0324 2.90789H11.6384V3.51552C11.6419 3.60983 11.6818 3.69911 11.7496 3.7646C11.8175 3.83009 11.908 3.86668 12.0022 3.86668C12.0964 3.86668 12.1869 3.83009 12.2548 3.7646C12.3226 3.69911 12.3625 3.60983 12.3659 3.51552V2.90789H12.9714C13.0679 2.90789 13.1603 2.86952 13.2285 2.80122C13.2966 2.73293 13.3349 2.6403 13.3349 2.54371C13.3349 2.44713 13.2966 2.3545 13.2285 2.2862C13.1603 2.21791 13.0679 2.17954 12.9714 2.17954H12.3659V1.57191C12.3625 1.4776 12.3226 1.38831 12.2548 1.32283C12.1869 1.25734 12.0964 1.22075 12.0022 1.22075C11.908 1.22075 11.8175 1.25734 11.7496 1.32283C11.6818 1.38831 11.6419 1.4776 11.6384 1.57191V2.17954H11.0324C10.936 2.17954 10.8436 2.21791 10.7754 2.2862C10.7072 2.3545 10.6689 2.44713 10.6689 2.54371C10.6689 2.6403 10.7072 2.73293 10.7754 2.80122C10.8436 2.86952 10.936 2.90789 11.0324 2.90789Z" fill="#2A7DB7"/>
</g>
<defs>
<clipPath id="clip0_11_76">
<rect width="24" height="24" fill="white"/>
</clipPath>
</defs>
</svg>
