<svg width="24" height="24" viewBox="0 0 24 24" fill="none" xmlns="http://www.w3.org/2000/svg">
<path d="M13.5 20.25C13.9142 20.25 14.25 19.9142 14.25 19.5C14.25 19.0858 13.9142 18.75 13.5 18.75C13.0858 18.75 12.75 19.0858 12.75 19.5C12.75 19.9142 13.0858 20.25 13.5 20.25Z" fill="#2A7DB7"/>
<path d="M21 15C21.8272 15 22.5 14.3273 22.5 13.5V10.5C22.5 9.67275 21.8272 9 21 9H20.25V5.25C20.25 4.42275 19.5772 3.75 18.75 3.75H15V3C15 2.17275 14.3273 1.5 13.5 1.5H10.5C9.67275 1.5 9 2.17275 9 3V3.75H5.25C4.42275 3.75 3.75 4.42275 3.75 5.25V9.1065C2.46 9.44175 1.5 10.6065 1.5 12C1.5 13.3935 2.46 14.5575 3.75 14.8935V18.75C3.75 19.5772 4.42275 20.25 5.25 20.25H10.5V21C10.5 21.8272 11.1727 22.5 12 22.5H21C21.8272 22.5 22.5 21.8272 22.5 21V18C22.5 17.1727 21.8272 16.5 21 16.5H20.25V15H21ZM21 13.5H18V10.5H21V13.5ZM10.5 3H13.5V6H10.5V3ZM9 5.25V6C9 6.82725 9.67275 7.5 10.5 7.5H13.5C14.3273 7.5 15 6.82725 15 6V5.25H18.75V9H18C17.1727 9 16.5 9.67275 16.5 10.5V11.25H7.3935C7.25915 10.7344 6.98969 10.2639 6.61291 9.88709C6.23612 9.51031 5.76564 9.24085 5.25 9.1065V5.25H9ZM3 12C3 11.1727 3.67275 10.5 4.5 10.5C5.32725 10.5 6 11.1727 6 12C6 12.8273 5.32725 13.5 4.5 13.5C3.67275 13.5 3 12.8273 3 12ZM21 21H12V18H21V21ZM18.75 16.5H12C11.1727 16.5 10.5 17.1727 10.5 18V18.75H5.25V14.8935C5.76564 14.7592 6.23612 14.4897 6.61291 14.1129C6.98969 13.7361 7.25915 13.2656 7.3935 12.75H16.5V13.5C16.5 14.3273 17.1727 15 18 15H18.75V16.5Z" fill="#2A7DB7"/>
</svg>
