<svg width="24" height="24" viewBox="0 0 24 24" fill="none" xmlns="http://www.w3.org/2000/svg">
<path d="M19.5 9.31L9.90498 18.895V20.395H11.405L21 10.815L19.5 9.315M18.575 10.225L20.075 11.725M3.10498 18.5C3.60762 18.5026 4.08884 18.7038 4.4438 19.0597C4.79875 19.4156 4.99867 19.8974 4.99998 20.4M3.10498 13.61C4.9058 13.61 6.63286 14.3254 7.90624 15.5987C9.17961 16.8721 9.89498 18.5992 9.89498 20.4M3.10498 16.1C4.24587 16.1 5.34011 16.5529 6.14731 17.3591C6.95451 18.1654 7.40866 19.2591 7.40998 20.4" stroke="#2A7DB7" stroke-linecap="round" stroke-linejoin="round"/>
<path d="M8.58496 6.9C9.07097 6.9 9.46496 6.50601 9.46496 6.02C9.46496 5.53399 9.07097 5.14 8.58496 5.14C8.09895 5.14 7.70496 5.53399 7.70496 6.02C7.70496 6.50601 8.09895 6.9 8.58496 6.9Z" stroke="#2A7DB7" stroke-linecap="round" stroke-linejoin="round"/>
<path d="M14 17.8V20.4H3.10498V7.175L8.55498 3.6L14 7.175V14.765M11.365 17.435L12.87 18.94" stroke="#2A7DB7" stroke-linecap="round" stroke-linejoin="round"/>
</svg>
