<svg width="24" height="24" viewBox="0 0 24 24" fill="none" xmlns="http://www.w3.org/2000/svg">
<g clip-path="url(#clip0_11_159)">
<path d="M22.5 8.5H20V8C20 7.73478 19.8946 7.48043 19.7071 7.29289C19.5196 7.10536 19.2652 7 19 7C19 5.555 19 5.795 16.8 3.18C16.065 2.295 15.15 2.5 13.455 2.5C13.06 2.5 12.9 2.335 12.13 1.82C11.7631 1.58514 11.3278 1.4806 10.8943 1.52323C10.4607 1.56586 10.0541 1.75317 9.74 2.055C8.665 3.125 8.955 3 7.445 3C7.06616 2.99912 6.6958 3.1121 6.38197 3.3243C6.06813 3.53649 5.82531 3.8381 5.685 4.19C4.91 6.125 5 5.735 5 7C4.73478 7 4.48043 7.10536 4.29289 7.29289C4.10536 7.48043 4 7.73478 4 8V8.5H1.5C1.10218 8.5 0.720644 8.65804 0.43934 8.93934C0.158035 9.22064 0 9.60218 0 10C0 10.3978 0.158035 10.7794 0.43934 11.0607C0.720644 11.342 1.10218 11.5 1.5 11.5H4V12C4 12.2652 4.10536 12.5196 4.29289 12.7071C4.48043 12.8946 4.73478 13 5 13V17.455C5 18.405 5.45 18.72 7.2 20.82C7.935 21.705 8.85 21.5 10.545 21.5C10.94 21.5 11.1 21.665 11.87 22.18C12.2342 22.4229 12.6713 22.5323 13.107 22.4894C13.5427 22.4466 13.9501 22.2542 14.26 21.945C14.835 21.37 15.09 21 15.62 21C18.06 21 17.995 20.615 18.855 18.455C19.06 17.955 19 18.065 19 13C19.2652 13 19.5196 12.8946 19.7071 12.7071C19.8946 12.5196 20 12.2652 20 12V11.5H22.5C22.8978 11.5 23.2794 11.342 23.5607 11.0607C23.842 10.7794 24 10.3978 24 10C24 9.60218 23.842 9.22064 23.5607 8.93934C23.2794 8.65804 22.8978 8.5 22.5 8.5ZM6.615 4.565C6.895 3.855 7.615 4 8.38 4C9.355 4 9.8 3.405 10.445 2.76C10.5939 2.61791 10.7862 2.52985 10.991 2.5099C11.1959 2.48996 11.4015 2.53929 11.575 2.65C13.075 3.65 12.62 3.5 15.345 3.5C15.945 3.5 16.075 3.875 17.77 5.905C17.985 6.22668 18.0674 6.619 18 7H6C6 5.87 5.905 6.335 6.615 4.565ZM1.5 10.5C1.36739 10.5 1.24021 10.4473 1.14645 10.3536C1.05268 10.2598 1 10.1326 1 10C1 9.86739 1.05268 9.74021 1.14645 9.64645C1.24021 9.55268 1.36739 9.5 1.5 9.5H4V10.5H1.5ZM17.385 19.44C17.105 20.145 16.385 20 15.62 20C14.645 20 14.2 20.595 13.555 21.24C13.4061 21.3821 13.2138 21.4702 13.009 21.4901C12.8041 21.51 12.5985 21.4607 12.425 21.35C10.925 20.35 11.38 20.5 8.655 20.5C8.055 20.5 7.925 20.125 6.23 18.095C5.92 17.72 6 17.875 6 13H18C18 18.87 18.205 17.39 17.385 19.44ZM19 12H5V8H19V12ZM22.5 10.5H20V9.5H22.5C22.6326 9.5 22.7598 9.55268 22.8536 9.64645C22.9473 9.74021 23 9.86739 23 10C23 10.1326 22.9473 10.2598 22.8536 10.3536C22.7598 10.4473 22.6326 10.5 22.5 10.5Z" fill="#2A7DB7"/>
</g>
<defs>
<clipPath id="clip0_11_159">
<rect width="24" height="24" fill="white"/>
</clipPath>
</defs>
</svg>
