<svg width="24" height="24" viewBox="0 0 24 24" fill="none" xmlns="http://www.w3.org/2000/svg">
<g clip-path="url(#clip0_11_48)">
<path d="M19.4728 10.3431L11.9996 5.472L4.52644 10.3431L4.11694 9.71494L11.9996 4.57687L19.8823 9.71494L19.4728 10.3431Z" fill="#2A7DB7"/>
<path d="M22.783 12.3173H1.21692V9.70032H22.783V12.3173ZM1.96692 11.5673H22.033V10.4503H1.96692V11.5673Z" fill="#2A7DB7"/>
<path d="M22.9282 10.4516H1.07169L0.866943 9.76238L11.7948 2.64038H12.2043L23.1329 9.76238L22.9282 10.4516ZM2.33394 9.70163H21.6659L11.9996 3.40219L2.33394 9.70163Z" fill="#2A7DB7"/>
<path d="M11.5876 0H12.3376V2.88956H11.5876V0Z" fill="#2A7DB7"/>
<path d="M15.9388 3.43368H12.1074V2.68368H14.783L14.4802 2.00493L14.783 1.32637H12.1074V0.57637H15.9388L15.3015 2.00493L15.9388 3.43368ZM2.0321 11.9385H2.7821V14.5549H2.0321V11.9385ZM3.90167 11.9385H4.65167V14.5549H3.90167V11.9385ZM7.66029 11.9385H8.41029V14.5549H7.66029V11.9385ZM9.52985 11.9385H10.2799V14.5549H9.52985V11.9385Z" fill="#2A7DB7"/>
<path d="M13.2883 11.9385H14.0383V14.5549H13.2883V11.9385ZM15.1579 11.9385H15.9079V14.5549H15.1579V11.9385Z" fill="#2A7DB7"/>
<path d="M18.9163 11.9385H19.6663V14.5549H18.9163V11.9385ZM20.7856 11.9385H21.5356V16.4154H20.7856V11.9385Z" fill="#2A7DB7"/>
<path d="M19.0076 24H1.62355C1.44749 24 1.27862 23.9301 1.15401 23.8058C1.02939 23.6814 0.95921 23.5127 0.958862 23.3366V16.2178C0.958862 15.8522 1.25699 15.5548 1.62355 15.5548H19.0076C19.1836 15.5549 19.3523 15.6247 19.4768 15.749C19.6014 15.8733 19.6715 16.0419 19.6719 16.2178V23.3366C19.6716 23.5126 19.6014 23.6813 19.4769 23.8056C19.3524 23.93 19.1836 23.9999 19.0076 24ZM1.70886 23.25H18.9219V16.3048H1.70886V23.25Z" fill="#2A7DB7"/>
<path d="M2.79651 17.5174H4.15888V18.2674H2.79651V17.5174ZM5.07576 17.5174H6.43832V18.2674H5.07576V17.5174ZM7.3552 17.5174H8.7172V18.2674H7.3552V17.5174ZM9.63463 17.5174H10.9966V18.2674H9.63463V17.5174ZM11.9141 17.5174H13.2763V18.2674H11.9141V17.5174ZM14.1935 17.5174H15.5555V18.2674H14.1935V17.5174ZM16.4726 17.5174H17.8346V18.2674H16.4726V17.5174Z" fill="#2A7DB7"/>
<path d="M2.79651 19.4025H4.15888V20.1525H2.79651V19.4025ZM5.07576 19.4025H6.43832V20.1525H5.07576V19.4025ZM7.3552 19.4025H8.7172V20.1525H7.3552V19.4025ZM9.63463 19.4025H10.9966V20.1525H9.63463V19.4025ZM11.9141 19.4025H13.2763V20.1525H11.9141V19.4025ZM14.1935 19.4025H15.5555V20.1525H14.1935V19.4025ZM16.4726 19.4025H17.8346V20.1525H16.4726V19.4025Z" fill="#2A7DB7"/>
<path d="M2.79651 21.2874H4.15888V22.0374H2.79651V21.2874ZM5.07576 21.2874H6.43832V22.0374H5.07576V21.2874ZM7.3552 21.2874H15.5763V22.0374H7.3552V21.2874ZM16.4726 21.2874H17.8346V22.0374H16.4726V21.2874Z" fill="#2A7DB7"/>
<path d="M20.6934 19.9011H19.6711V19.1511H20.6934C20.7175 19.1514 20.7408 19.1421 20.7581 19.1252C20.7754 19.1084 20.7853 19.0854 20.7856 19.0612V14.4097H21.5356V19.0612C21.5356 19.5242 21.1578 19.9011 20.6934 19.9011Z" fill="#2A7DB7"/>
</g>
<defs>
<clipPath id="clip0_11_48">
<rect width="24" height="24" fill="white"/>
</clipPath>
</defs>
</svg>
