<svg width="24" height="24" viewBox="0 0 24 24" fill="none" xmlns="http://www.w3.org/2000/svg">
<path d="M9.28741 23.9481H2.18079V10.0507C2.18079 8.59256 3.01572 7.29881 4.32897 6.687V1.77544H7.51385V6.68681C8.82729 7.29919 9.66222 8.59275 9.66222 10.0506V11.1103H8.91222V10.0506C8.91222 8.81831 8.16297 7.7325 7.00366 7.28419L6.76385 7.19156V2.52544H5.07897V7.19194L4.83916 7.28456C3.67985 7.73231 2.93079 8.81812 2.93079 10.0507V23.1981H9.28722L9.28741 23.9481Z" fill="#2A7DB7"/>
<path d="M4.07139 3.69713H7.77151V4.44713H4.07139V3.69713ZM7.54333 20.7176H3.88745V10.5023H7.54333V11.2523H4.63745V19.9676H7.54333V20.7176Z" fill="#2A7DB7"/>
<path d="M19.0482 15.1275L16.887 11.9203H10.6707V11.1703H17.0867L17.3976 11.3359L19.6699 14.7084L19.0482 15.1275Z" fill="#2A7DB7"/>
<path d="M19.3232 15.4648H12.9056V14.7148H17.9571L15.6962 13.3719L16.0793 12.7271L19.5146 14.7673L19.3232 15.4648Z" fill="#2A7DB7"/>
<path d="M19.6648 23.9481H14.476V14.7148H19.6648V23.9481ZM15.226 23.1981H18.9148V15.4648H15.226V23.1981Z" fill="#2A7DB7"/>
<path d="M15.2259 23.9481H8.05969V14.7148H15.2259V23.9481ZM8.80969 23.1981H14.4759V15.4648H8.80969V23.1981ZM17.4617 11.9203H10.2956V9.39882H17.4617V11.9203ZM11.0456 11.1703H16.7117V10.1488H11.0456V11.1703Z" fill="#2A7DB7"/>
<path d="M15.0803 15.126L14.4621 14.7011L16.374 11.9203H10.8679L8.66457 15.126L8.04639 14.7011L10.3614 11.3329L10.6706 11.1703H17.0867L17.3957 11.7578L15.0803 15.126Z" fill="#2A7DB7"/>
<path d="M11.5677 21.03C10.5516 21.03 9.72473 20.2072 9.72473 19.1961C9.72473 18.1849 10.5514 17.3621 11.5677 17.3621C12.5841 17.3621 13.4106 18.1849 13.4106 19.1961C13.4106 20.2072 12.5841 21.03 11.5677 21.03ZM11.5677 18.1121C10.965 18.1121 10.4747 18.5985 10.4747 19.1961C10.4747 19.7936 10.965 20.28 11.5677 20.28C12.1703 20.28 12.6606 19.7936 12.6606 19.1961C12.6606 18.5985 12.1703 18.1121 11.5677 18.1121Z" fill="#2A7DB7"/>
<path d="M21.8192 24H21.0692V5.20312H8.5575V4.45312H21.8192V24Z" fill="#2A7DB7"/>
<path d="M11.4313 6.88912H10.6813V3.68156C10.6813 1.6515 12.3416 0 14.3829 0H15.6763C17.7176 0 19.3779 1.6515 19.3779 3.68156V6.88894H18.6279V3.68156C18.6281 2.06512 17.3042 0.75 15.6763 0.75H14.3829C12.7554 0.75 11.4313 2.06512 11.4313 3.68156V6.88912Z" fill="#2A7DB7"/>
</svg>
