<svg width="24" height="24" viewBox="0 0 24 24" fill="none" xmlns="http://www.w3.org/2000/svg">
<path d="M10.5 5.5C10.5 5.36739 10.5527 5.24021 10.6464 5.14645C10.7402 5.05268 10.8674 5 11 5H13C13.1326 5 13.2598 5.05268 13.3536 5.14645C13.4473 5.24021 13.5 5.36739 13.5 5.5C13.5 5.63261 13.4473 5.75979 13.3536 5.85355C13.2598 5.94732 13.1326 6 13 6H11C10.8674 6 10.7402 5.94732 10.6464 5.85355C10.5527 5.75979 10.5 5.63261 10.5 5.5Z" fill="#2A7DB7"/>
<path fill-rule="evenodd" clip-rule="evenodd" d="M16.682 9.26C16.5005 9.4025 16.265 9.5165 15.981 9.609C16.0354 10.1645 15.9729 10.7252 15.7975 11.255C15.6222 11.7849 15.3379 12.2722 14.9629 12.6856C14.588 13.0991 14.1307 13.4294 13.6204 13.6555C13.1101 13.8816 12.5582 13.9984 12 13.9984C11.4419 13.9984 10.89 13.8816 10.3797 13.6555C9.8694 13.4294 9.41208 13.0991 9.03713 12.6856C8.66218 12.2722 8.37789 11.7849 8.20255 11.255C8.02721 10.7252 7.9647 10.1645 8.01903 9.609C7.73503 9.5165 7.49953 9.4025 7.31853 9.26C7.08353 9.075 6.92603 8.828 6.90753 8.531C6.89003 8.2555 6.99903 8.0215 7.10803 7.8565C7.21564 7.70022 7.34341 7.55883 7.48803 7.436C7.55803 7.3745 7.62703 7.32 7.69103 7.2725C7.67203 7.17 7.65103 7.046 7.63003 6.9025C7.54146 6.27224 7.49801 5.63645 7.50003 5C7.50003 4.843 7.56703 4.726 7.59803 4.6765C7.63703 4.614 7.68303 4.5605 7.72503 4.5175C7.80853 4.43 7.91653 4.341 8.03503 4.2555C8.27503 4.0815 8.60503 3.886 8.99703 3.703C9.77853 3.338 10.852 3 12 3C13.1485 3 14.2215 3.3385 15.003 3.703C15.34 3.85714 15.6621 4.04209 15.965 4.2555C16.0835 4.341 16.1915 4.4305 16.275 4.5175C16.317 4.5605 16.363 4.614 16.402 4.6765C16.433 4.726 16.5 4.843 16.5 5C16.5 5.801 16.435 6.45 16.37 6.9025C16.349 7.046 16.328 7.17 16.309 7.2725C16.373 7.32 16.4425 7.3745 16.5125 7.436C16.6375 7.5455 16.7805 7.688 16.892 7.8565C17.0015 8.0215 17.11 8.2555 17.093 8.5315C17.0745 8.828 16.917 9.075 16.682 9.26ZM8.50103 5.159C8.50853 5.833 8.56453 6.378 8.62003 6.759C8.63303 6.849 8.64603 6.929 8.65803 7H15.342C15.3545 6.929 15.367 6.8485 15.38 6.759C15.435 6.378 15.4915 5.833 15.499 5.159C15.4601 5.1261 15.4199 5.09474 15.3785 5.065C15.198 4.9345 14.924 4.77 14.58 4.6095C13.8885 4.2865 12.962 4 12 4C11.038 4 10.1115 4.2865 9.42003 4.6095C9.07603 4.77 8.80203 4.9345 8.62203 5.0645C8.58046 5.09456 8.5401 5.12625 8.50103 5.1595V5.159ZM8.39403 8L8.39253 8.001C8.30624 8.0585 8.22358 8.12129 8.14503 8.189C8.05603 8.267 7.98503 8.343 7.94203 8.409C7.9318 8.42384 7.92261 8.43938 7.91453 8.4555C7.92162 8.46196 7.92895 8.46813 7.93653 8.474C8.01153 8.533 8.17253 8.6195 8.48653 8.705C8.54853 8.722 8.61503 8.738 8.68603 8.754L8.69053 8.755C8.94153 8.8105 9.25053 8.86 9.62703 8.899C10.1605 8.9545 10.832 8.991 11.671 8.999L12 9C13.6135 9 14.657 8.8995 15.31 8.755L15.314 8.754C15.3855 8.738 15.452 8.722 15.514 8.705C15.8275 8.62 15.989 8.533 16.0635 8.474C16.0711 8.46813 16.0785 8.46196 16.0855 8.4555C16.0776 8.4394 16.0686 8.42386 16.0585 8.409C16.0004 8.32727 15.932 8.25334 15.855 8.189C15.7767 8.1213 15.6942 8.05851 15.608 8.001L15.606 8H8.39403ZM11.864 10C13.185 10 14.209 9.93 14.994 9.808C15.0198 10.2157 14.9621 10.6243 14.8244 11.0089C14.6867 11.3934 14.4719 11.7458 14.1932 12.0444C13.9145 12.3431 13.5778 12.5816 13.2036 12.7455C12.8295 12.9094 12.4258 12.9951 12.0173 12.9975C11.6088 12.9998 11.2042 12.9187 10.8282 12.7592C10.4521 12.5996 10.1127 12.365 9.83055 12.0696C9.54842 11.7742 9.32959 11.4243 9.18747 11.0413C9.04535 10.6584 8.98293 10.2504 9.00403 9.8425C9.73553 9.9435 10.673 10 11.864 10ZM8.03903 19.4385C8.01298 19.6245 7.99995 19.8122 8.00003 20V20.5C8.00009 20.6099 7.96393 20.7168 7.89713 20.8041C7.83034 20.8914 7.73665 20.9542 7.63054 20.9829C7.52444 21.0116 7.41183 21.0045 7.31015 20.9628C7.20847 20.9211 7.12338 20.847 7.06803 20.752C6.73105 20.9348 6.33672 20.9812 5.96653 20.8815L5.00053 20.6225C4.61641 20.5194 4.28896 20.268 4.09019 19.9235C3.89141 19.579 3.83758 19.1697 3.94053 18.7855L4.32853 17.3365C4.43153 16.9523 4.68293 16.6247 5.02742 16.4258C5.37192 16.227 5.7813 16.1731 6.16553 16.276L7.13153 16.5345C7.46753 16.6245 7.74653 16.822 7.94053 17.08C8.40339 16.4357 9.01309 15.911 9.71913 15.5493C10.4252 15.1876 11.2072 14.9993 12.0005 15C12.7934 14.9995 13.575 15.1878 14.2807 15.5493C14.9863 15.9108 15.5958 16.4352 16.0585 17.079C16.2595 16.8125 16.544 16.6209 16.8665 16.535L17.8325 16.2765C18.2167 16.1735 18.626 16.2274 18.9705 16.4262C19.315 16.6249 19.5664 16.9524 19.6695 17.3365L20.058 18.786C20.109 18.9763 20.122 19.1747 20.0962 19.37C20.0705 19.5653 20.0065 19.7537 19.908 19.9242C19.8095 20.0948 19.6783 20.2443 19.522 20.3642C19.3657 20.4841 19.1873 20.5721 18.997 20.623L18.0315 20.8815C17.662 20.9812 17.2683 20.9354 16.9315 20.7535C16.876 20.8483 16.7908 20.9222 16.6891 20.9638C16.5874 21.0053 16.4748 21.0122 16.3687 20.9834C16.2627 20.9545 16.1691 20.8915 16.1025 20.8041C16.0358 20.7168 15.9998 20.6099 16 20.5V20C16.0001 19.8122 15.9871 19.6245 15.961 19.4385L13.359 20.136C13.2383 20.3945 13.0462 20.6132 12.8055 20.7665C12.5648 20.9197 12.2854 21.0011 12 21.0011C11.7147 21.0011 11.4353 20.9197 11.1945 20.7665C10.9538 20.6132 10.7618 20.3945 10.641 20.136L8.03903 19.4385ZM10.56 19.0785C10.6271 18.8506 10.7473 18.6418 10.9107 18.4692C11.0741 18.2967 11.2761 18.1654 11.5 18.086V16.031C10.7987 16.1197 10.1334 16.3924 9.57157 16.8215C9.00979 17.2506 8.5716 17.8207 8.30153 18.474L10.56 19.0785ZM15.6985 18.4735C15.4284 17.8203 14.9902 17.2503 14.4284 16.8213C13.8666 16.3923 13.2013 16.1196 12.5 16.031V18.0855C12.952 18.2455 13.305 18.6155 13.44 19.079L15.6985 18.474V18.4735ZM16.772 18.1135C16.755 18.0501 16.7507 17.9839 16.7592 17.9188C16.7678 17.8537 16.7891 17.7909 16.8219 17.734C16.8547 17.6771 16.8984 17.6273 16.9505 17.5873C17.0026 17.5473 17.0621 17.518 17.1255 17.501L18.0915 17.242C18.2196 17.2078 18.3559 17.2258 18.4707 17.2921C18.5855 17.3584 18.6692 17.4675 18.7035 17.5955L19.092 19.0445C19.109 19.1079 19.1134 19.1741 19.1048 19.2392C19.0963 19.3043 19.075 19.3671 19.0422 19.424C19.0093 19.4809 18.9656 19.5307 18.9135 19.5707C18.8614 19.6107 18.802 19.64 18.7385 19.657L17.7725 19.916C17.7091 19.933 17.6429 19.9373 17.5777 19.9287C17.5126 19.9202 17.4498 19.8988 17.3929 19.8659C17.336 19.8331 17.2862 19.7893 17.2462 19.7371C17.2063 19.685 17.177 19.6255 17.16 19.562L16.772 18.1135ZM5.90703 17.242C5.84357 17.2249 5.77736 17.2205 5.7122 17.229C5.64703 17.2375 5.58418 17.2588 5.52725 17.2917C5.47031 17.3245 5.42041 17.3682 5.38039 17.4204C5.34038 17.4725 5.31103 17.532 5.29403 17.5955L4.90603 19.044C4.88902 19.1074 4.88467 19.1736 4.89323 19.2387C4.90178 19.3038 4.92308 19.3666 4.95591 19.4235C4.98874 19.4804 5.03245 19.5302 5.08454 19.5702C5.13664 19.6102 5.1961 19.6395 5.25953 19.6565L6.22553 19.9155C6.28896 19.9325 6.35512 19.9369 6.42023 19.9283C6.48534 19.9198 6.54813 19.8985 6.60501 19.8656C6.66189 19.8328 6.71174 19.7891 6.75172 19.737C6.79171 19.6849 6.82103 19.6254 6.83803 19.562L7.22603 18.113C7.24312 18.0495 7.24753 17.9833 7.23901 17.9182C7.23049 17.853 7.2092 17.7901 7.17637 17.7332C7.14354 17.6763 7.09981 17.6264 7.04767 17.5864C6.99553 17.5463 6.93602 17.517 6.87253 17.5L5.90653 17.2415L5.90703 17.242ZM12.5 19.5C12.5 19.6326 12.4474 19.7598 12.3536 19.8536C12.2598 19.9473 12.1326 20 12 20C11.8674 20 11.7402 19.9473 11.6465 19.8536C11.5527 19.7598 11.5 19.6326 11.5 19.5C11.5 19.3674 11.5527 19.2402 11.6465 19.1464C11.7402 19.0527 11.8674 19 12 19C12.1326 19 12.2598 19.0527 12.3536 19.1464C12.4474 19.2402 12.5 19.3674 12.5 19.5Z" fill="#2A7DB7"/>
</svg>
