<svg width="24" height="24" viewBox="0 0 24 24" fill="none" xmlns="http://www.w3.org/2000/svg">
<path d="M22.1348 19.2491L22.1325 15.1912C22.1324 14.6685 21.9502 14.1621 21.6173 13.759C21.2844 13.3559 20.8215 13.0814 20.3082 12.9825V12.9806L20.1131 11.0381C20.0554 10.4453 19.7786 9.89531 19.3368 9.49582C18.895 9.09632 18.32 8.87605 17.7244 8.87811H16.9819V6.18561C16.9814 6.06089 16.9561 5.93752 16.9075 5.82265C16.859 5.70779 16.788 5.60372 16.6989 5.5165C16.6097 5.42928 16.5042 5.36063 16.3883 5.31456C16.2724 5.26849 16.1485 5.2459 16.0238 5.24811C16.2271 5.2069 16.4164 5.114 16.5734 4.97836C16.7304 4.84273 16.8497 4.66893 16.92 4.47373C17.1295 3.89399 16.7963 3.33186 16.4569 3.06561C16.3209 2.96366 16.2113 2.83063 16.1372 2.67764C16.0632 2.52465 16.0269 2.35615 16.0313 2.18623C16.0321 2.09067 16.0013 1.99751 15.9437 1.92123C15.8862 1.84494 15.805 1.7898 15.7129 1.76437C15.6208 1.73893 15.5228 1.74462 15.4343 1.78056C15.3457 1.8165 15.2715 1.88067 15.2232 1.96311C14.9157 2.49186 14.5313 3.22311 14.4488 3.70498C14.408 3.90413 14.4119 4.10984 14.4602 4.3073C14.5085 4.50475 14.6 4.68903 14.7282 4.84686C14.8973 5.04769 15.1268 5.18845 15.3825 5.24811C15.2582 5.24675 15.1349 5.26995 15.0196 5.31637C14.9043 5.36279 14.7993 5.43153 14.7106 5.51864C14.6219 5.60574 14.5513 5.7095 14.5029 5.82396C14.4544 5.93841 14.429 6.06132 14.4282 6.18561V8.87811H13.2769V6.18561C13.2767 6.06081 13.2516 5.93731 13.2031 5.82232C13.1546 5.70733 13.0837 5.60315 12.9945 5.51587C12.9053 5.42859 12.7996 5.35996 12.6836 5.31399C12.5676 5.26801 12.4435 5.24562 12.3188 5.24811C12.5228 5.20806 12.7129 5.1156 12.8704 4.97983C13.0278 4.84406 13.1473 4.66964 13.2169 4.47373C13.2972 4.21994 13.2955 3.94727 13.2121 3.69449C13.1286 3.44171 12.9676 3.22166 12.7519 3.06561C12.6159 2.96366 12.5063 2.83063 12.4322 2.67764C12.3582 2.52465 12.3219 2.35615 12.3263 2.18623C12.3271 2.09067 12.2963 1.99751 12.2387 1.92123C12.1812 1.84494 12.1 1.7898 12.0079 1.76437C11.9158 1.73893 11.8178 1.74462 11.7293 1.78056C11.6407 1.8165 11.5665 1.88067 11.5182 1.96311C11.2107 2.49186 10.8263 3.22311 10.7438 3.70498C10.703 3.90413 10.7069 4.10984 10.7552 4.3073C10.8035 4.50475 10.895 4.68903 11.0232 4.84686C11.1923 5.04769 11.4218 5.18845 11.6775 5.24811C11.5531 5.24635 11.4296 5.26927 11.3141 5.31555C11.1987 5.36183 11.0935 5.43055 11.0047 5.51774C10.916 5.60492 10.8454 5.70884 10.7971 5.82348C10.7487 5.93812 10.7236 6.0612 10.7232 6.18561V8.87811H9.5719V6.18561C9.5707 6.0611 9.54495 5.93804 9.49612 5.8235C9.44729 5.70895 9.37635 5.60516 9.28735 5.51808C9.19834 5.43099 9.09304 5.36232 8.97746 5.31599C8.86187 5.26967 8.73829 5.2466 8.61378 5.24811C8.81884 5.21062 9.01018 5.11908 9.16806 4.98296C9.32594 4.84683 9.44464 4.67104 9.5119 4.47373C9.58809 4.21966 9.58435 3.94831 9.50117 3.69644C9.418 3.44457 9.25941 3.22435 9.0469 3.06561C8.9109 2.96366 8.80129 2.83063 8.72724 2.67764C8.6532 2.52465 8.61686 2.35615 8.62128 2.18623C8.62208 2.09067 8.59131 1.99751 8.53373 1.92123C8.47616 1.84494 8.39501 1.7898 8.30289 1.76437C8.21077 1.73893 8.11282 1.74462 8.02427 1.78056C7.93571 1.8165 7.8615 1.88067 7.81315 1.96311C7.50565 2.49186 7.12128 3.22311 7.03878 3.70498C6.99866 3.90428 7.00306 4.10998 7.05168 4.30738C7.1003 4.50478 7.19193 4.68899 7.32003 4.84686C7.48812 5.048 7.71719 5.18886 7.97253 5.24811C7.84812 5.2463 7.72458 5.26919 7.60908 5.31545C7.49357 5.36171 7.38839 5.43043 7.29963 5.51762C7.21087 5.60482 7.14028 5.70876 7.09197 5.82342C7.04365 5.93808 7.01856 6.06119 7.01815 6.18561V8.87811H6.27378C5.67824 8.87639 5.10346 9.09678 4.66173 9.49621C4.22001 9.89563 3.94307 10.4454 3.88503 11.0381L3.69003 12.9825C3.17718 13.0821 2.71492 13.3569 2.38243 13.7598C2.04994 14.1628 1.86791 14.6688 1.86753 15.1912V19.2487C1.7242 19.2173 1.57573 19.2175 1.4325 19.2494C1.28927 19.2813 1.15472 19.3441 1.03827 19.4334C0.921815 19.5226 0.826256 19.6363 0.75827 19.7663C0.690284 19.8963 0.651508 20.0397 0.644653 20.1862V21.315C0.64505 21.5635 0.743949 21.8017 0.919679 21.9775C1.09541 22.1532 1.33363 22.2521 1.58215 22.2525H22.4175C22.666 22.2521 22.9043 22.1532 23.08 21.9775C23.2557 21.8017 23.3546 21.5635 23.355 21.315V20.1862C23.355 19.6706 22.9654 19.1694 22.1348 19.2491ZM15.3019 4.36311C15.2455 4.28824 15.2061 4.202 15.1863 4.11038C15.1666 4.01876 15.167 3.92394 15.1875 3.83248C15.2547 3.56162 15.3555 3.30021 15.4875 3.05436C15.6109 3.28805 15.7829 3.49263 15.9919 3.65436C16.0856 3.71388 16.1576 3.80206 16.1971 3.90578C16.2366 4.0095 16.2416 4.12321 16.2113 4.22998C16.1672 4.33063 16.0922 4.41456 15.997 4.46954C15.9019 4.52452 15.7917 4.54767 15.6825 4.53561C15.6102 4.53712 15.5385 4.52241 15.4726 4.49256C15.4068 4.46271 15.3484 4.41848 15.3019 4.36311ZM15.1782 6.18561C15.1779 6.16092 15.1826 6.13642 15.1919 6.11356C15.2012 6.0907 15.215 6.06993 15.2325 6.05247C15.25 6.03501 15.2707 6.02121 15.2936 6.01187C15.3165 6.00254 15.341 5.99786 15.3657 5.99811H16.0444C16.0941 5.99811 16.1418 6.01786 16.177 6.05303C16.2121 6.08819 16.2319 6.13588 16.2319 6.18561V8.87811H15.1782V6.18561ZM11.5969 4.36311C11.5405 4.28824 11.5011 4.202 11.4813 4.11038C11.4616 4.01876 11.462 3.92394 11.4825 3.83248C11.5503 3.56179 11.651 3.30046 11.7825 3.05436C11.9059 3.28805 12.0779 3.49263 12.2869 3.65436C12.3804 3.71412 12.4523 3.80224 12.4921 3.90581C12.5319 4.00939 12.5375 4.12299 12.5082 4.22998C12.4634 4.33054 12.388 4.41431 12.2926 4.46924C12.1973 4.52416 12.0869 4.5474 11.9775 4.53561C11.9052 4.53712 11.8335 4.52241 11.7676 4.49256C11.7018 4.46271 11.6434 4.41848 11.5969 4.36311ZM11.4732 6.18561C11.4729 6.16092 11.4776 6.13642 11.4869 6.11356C11.4962 6.0907 11.51 6.06993 11.5275 6.05247C11.545 6.03501 11.5657 6.02121 11.5886 6.01187C11.6115 6.00254 11.636 5.99786 11.6607 5.99811H12.3394C12.3641 5.99786 12.3886 6.00254 12.4115 6.01187C12.4343 6.02121 12.4551 6.03501 12.4725 6.05247C12.49 6.06993 12.5038 6.0907 12.5131 6.11356C12.5225 6.13642 12.5272 6.16092 12.5269 6.18561V8.87811H11.4732V6.18561ZM7.8919 4.36311C7.83552 4.28824 7.7961 4.202 7.77635 4.11038C7.7566 4.01876 7.757 3.92394 7.77753 3.83248C7.84556 3.56189 7.94631 3.30059 8.07753 3.05436C8.20153 3.28764 8.3734 3.49211 8.5819 3.65436C8.6754 3.71412 8.74731 3.80224 8.78712 3.90581C8.82693 4.00939 8.83255 4.12299 8.80315 4.22998C8.75845 4.33054 8.68299 4.41431 8.58763 4.46924C8.49227 4.52416 8.38194 4.5474 8.27253 4.53561C8.20023 4.53712 8.12851 4.52241 8.06264 4.49256C7.99677 4.46271 7.93843 4.41848 7.8919 4.36311ZM7.76815 6.18561C7.76815 6.13588 7.78791 6.08819 7.82307 6.05303C7.85823 6.01786 7.90592 5.99811 7.95565 5.99811H8.6344C8.65909 5.99786 8.68359 6.00254 8.70645 6.01187C8.72931 6.02121 8.75008 6.03501 8.76754 6.05247C8.785 6.06993 8.79881 6.0907 8.80814 6.11356C8.81748 6.13642 8.82215 6.16092 8.8219 6.18561V8.87811H7.76815V6.18561ZM4.63128 11.1131C4.67154 10.7057 4.86208 10.3279 5.16574 10.0534C5.46939 9.77886 5.86441 9.62724 6.27378 9.62811H17.7244C18.1339 9.62695 18.529 9.77846 18.8328 10.0531C19.1365 10.3277 19.3269 10.7056 19.3669 11.1131L19.5506 12.9412H4.44753L4.63128 11.1131ZM2.61753 15.1912C2.61807 14.7936 2.77628 14.4124 3.05747 14.1312C3.33866 13.85 3.71987 13.6918 4.11753 13.6912H19.8825C20.2802 13.6918 20.6614 13.85 20.9426 14.1312C21.2238 14.4124 21.382 14.7936 21.3825 15.1912V15.5831H10.0463C9.72265 15.5835 9.41239 15.7122 9.18355 15.941C8.95471 16.1698 8.826 16.4801 8.82565 16.8037C8.83281 16.9228 8.79403 17.0402 8.71729 17.1316C8.64056 17.2229 8.53171 17.2814 8.41315 17.295C8.2873 17.2914 8.16701 17.2423 8.07461 17.1568C7.9822 17.0713 7.92395 16.9552 7.91065 16.83C7.90843 16.6803 7.87304 16.533 7.80705 16.3986C7.74105 16.2643 7.64609 16.1462 7.52899 16.053C7.4119 15.9598 7.27558 15.8936 7.12986 15.8594C6.98415 15.8251 6.83265 15.8236 6.68628 15.855C6.45859 15.9062 6.25532 16.0339 6.11032 16.2167C5.96533 16.3996 5.88736 16.6266 5.8894 16.86V17.6869C5.8894 17.8162 5.85697 18.1425 5.38503 18.1425C5.26664 18.1289 5.15801 18.0703 5.08159 17.9789C5.00517 17.8875 4.9668 17.7702 4.9744 17.6512V16.8037C4.97406 16.4801 4.84534 16.1698 4.61651 15.941C4.38767 15.7122 4.0774 15.5835 3.75378 15.5831H2.61753V15.1912ZM2.61753 16.3331H3.75378C3.87847 16.3335 3.99795 16.3832 4.08612 16.4714C4.1743 16.5596 4.22401 16.679 4.2244 16.8037V17.6512C4.2244 18.2869 4.69972 18.8887 5.31378 18.8887C6.51228 18.8887 6.6394 18.0262 6.6394 17.6869V16.86C6.63835 16.8249 6.64438 16.79 6.65712 16.7574C6.66987 16.7247 6.68907 16.6949 6.71358 16.6698C6.73809 16.6448 6.76741 16.6249 6.79978 16.6114C6.83215 16.5979 6.86691 16.5911 6.90197 16.5913C6.93704 16.5916 6.9717 16.5989 7.00387 16.6129C7.03604 16.6268 7.06507 16.6471 7.08922 16.6726C7.11337 16.698 7.13214 16.728 7.14441 16.7609C7.15669 16.7937 7.16221 16.8287 7.16065 16.8637C7.16146 17.0272 7.19641 17.1887 7.26324 17.3378C7.33008 17.487 7.42733 17.6206 7.54878 17.73C7.67446 17.8443 7.82256 17.9311 7.98364 17.985C8.14472 18.0389 8.31526 18.0587 8.4844 18.0431C8.78684 18.0068 9.0653 17.8603 9.2666 17.6317C9.46789 17.4031 9.57792 17.1083 9.57565 16.8037C9.57575 16.6789 9.62537 16.5593 9.7136 16.4711C9.80184 16.3828 9.92149 16.3332 10.0463 16.3331H21.3825V19.0237C21.3825 19.1269 21.3533 19.2487 21.195 19.2487H2.80503C2.75146 19.2411 2.70262 19.2139 2.66798 19.1723C2.63334 19.1307 2.61536 19.0778 2.61753 19.0237V16.3331ZM22.605 21.315C22.605 21.3647 22.5853 21.4124 22.5501 21.4476C22.5149 21.4827 22.4673 21.5025 22.4175 21.5025H1.58253C1.5328 21.5025 1.48511 21.4827 1.44995 21.4476C1.41478 21.4124 1.39503 21.3647 1.39503 21.315V20.1862C1.39503 20.1365 1.41478 20.0888 1.44995 20.0537C1.48511 20.0185 1.5328 19.9987 1.58253 19.9987H22.4175C22.4673 19.9987 22.5149 20.0185 22.5501 20.0537C22.5853 20.0888 22.605 20.1365 22.605 20.1862V21.315Z" fill="#2A7DB7"/>
</svg>
