<svg width="24" height="24" viewBox="0 0 24 24" fill="none" xmlns="http://www.w3.org/2000/svg">
<path d="M15.8299 15.0135H15.1837C16.0207 14.2234 16.5975 13.221 16.6826 12.3285H16.9815C17.2549 12.328 17.517 12.2191 17.7103 12.0256C17.9035 11.8322 18.0122 11.5699 18.0124 11.2965V10.3912C18.012 10.1895 17.9337 9.99566 17.7938 9.8503C17.6539 9.70493 17.4632 9.61928 17.2616 9.61125C17.2781 9.54075 17.2886 9.46875 17.2886 9.39337V8.90587C17.2886 8.50687 17.0452 8.16375 16.6991 8.01712V6.0915C17.8534 5.955 18.7661 5.29837 19.1801 4.28662C19.6204 3.21037 19.4044 1.96162 18.6427 1.179C18.1417 0.664124 16.9796 -0.0787507 14.8282 0.734249C13.0065 1.42275 11.082 1.42237 9.26061 0.734249C7.10886 -0.0791257 5.94749 0.664124 5.44611 1.179C4.68411 1.96162 4.46849 3.21075 4.90874 4.28662C5.32274 5.29837 6.23549 5.95537 7.38974 6.0915V8.01675C7.2148 8.09044 7.06546 8.21403 6.96035 8.37209C6.85524 8.53015 6.79903 8.71568 6.79874 8.9055V9.393C6.79874 9.46837 6.80924 9.54112 6.82574 9.61162C6.40949 9.62887 6.07536 9.9705 6.07536 10.3916V11.2961C6.07566 11.5697 6.18448 11.8321 6.37796 12.0255C6.57143 12.219 6.83375 12.3278 7.10736 12.3281H7.40661C7.49174 13.2206 8.06811 14.223 8.90511 15.0131H8.17011C5.79636 15.0131 3.86511 16.9444 3.86511 19.3181V22.7554C3.86531 22.9854 3.95681 23.206 4.11951 23.3686C4.28222 23.5312 4.50282 23.6227 4.73286 23.6227H19.2664C19.4965 23.6227 19.7172 23.5313 19.8801 23.3687C20.043 23.2061 20.1347 22.9855 20.1352 22.7554V19.3181C20.1352 16.9444 18.204 15.0131 15.8302 15.0131L15.8299 15.0135ZM13.4835 16.1205V16.4861C13.483 16.8609 13.3339 17.2202 13.0689 17.4852C12.8038 17.7503 12.4445 17.8994 12.0697 17.8999H11.9287C11.5541 17.8993 11.1949 17.7501 10.9301 17.4851C10.6653 17.22 10.5164 16.8608 10.5161 16.4861V16.0837C11.4731 16.4906 12.5186 16.5064 13.4835 16.1205ZM7.76474 9.60825C7.70779 9.60767 7.65331 9.58489 7.6129 9.54476C7.57249 9.50463 7.54934 9.45032 7.54836 9.39337V8.90587C7.54836 8.78962 7.64736 8.69137 7.76474 8.69137H16.3237C16.3804 8.69215 16.4346 8.71505 16.4747 8.75519C16.5148 8.79533 16.5376 8.84954 16.5382 8.90625V9.39375C16.5375 9.4504 16.5146 9.50451 16.4746 9.54457C16.4345 9.58463 16.3804 9.60747 16.3237 9.60825H7.76474ZM17.2624 11.2965C17.2616 11.3709 17.2318 11.442 17.1793 11.4947C17.1268 11.5473 17.0558 11.5774 16.9815 11.5785H16.6995V10.3582H17.2301C17.247 10.3582 17.2624 10.3744 17.2624 10.392V11.2965ZM5.60249 4.00275C5.27324 3.19875 5.42624 2.27437 5.98274 1.7025C6.62736 1.04025 7.69761 0.945374 8.99511 1.43625C10.9901 2.18962 13.098 2.18962 15.0926 1.43625C16.3905 0.945749 17.4604 1.04062 18.105 1.7025C18.6619 2.27437 18.8145 3.19875 18.4856 4.00312C18.1402 4.84725 17.3494 5.3445 16.3155 5.36737C16.3117 5.36737 16.3084 5.36962 16.3042 5.37C16.3009 5.37 16.2979 5.36812 16.2941 5.3685C15.9429 5.398 15.5898 5.34323 15.264 5.20875C15.172 5.17086 15.0687 5.17106 14.9769 5.20932C14.885 5.24758 14.8121 5.32075 14.7742 5.41275C14.7363 5.50475 14.7366 5.60803 14.7748 5.69987C14.8131 5.79172 14.8862 5.86461 14.9782 5.9025C15.2899 6.03075 15.6157 6.1005 15.9491 6.11812V7.94137H8.13936V6.11812C8.47274 6.10177 8.80092 6.02885 9.10986 5.9025C9.20186 5.86466 9.27506 5.79182 9.31335 5.70001C9.35164 5.6082 9.35189 5.50493 9.31405 5.41294C9.27621 5.32094 9.20337 5.24774 9.11156 5.20945C9.01975 5.17116 8.91648 5.17091 8.82449 5.20875C8.49863 5.34337 8.14531 5.39815 7.79399 5.3685C7.79024 5.3685 7.78724 5.37 7.78349 5.37C7.77974 5.37 7.77636 5.36737 7.77224 5.36737C6.73874 5.34487 5.94786 4.84725 5.60249 4.00312V4.00275ZM6.82499 11.2965V10.3912C6.82499 10.374 6.84111 10.3579 6.85836 10.3579H7.38936V11.5781H7.10699C7.03223 11.578 6.96056 11.5483 6.90769 11.4954C6.85483 11.4426 6.82509 11.3709 6.82499 11.2961V11.2965ZM8.13936 12.1039V10.3582H15.9487V12.1039C15.9487 13.0065 15.0877 14.3077 13.911 15.0615C13.3249 15.3795 12.726 15.6637 12.0435 15.6641C11.3696 15.6645 10.7554 15.3877 10.1797 15.0637C9.00111 14.31 8.13936 13.0072 8.13936 12.1039ZM4.61511 22.7557V19.3185C4.61511 17.358 6.20961 15.7635 8.17011 15.7635H9.76649V16.4861C9.76666 16.8468 9.85702 17.2016 10.0293 17.5184C10.2017 17.8352 10.4505 18.1039 10.7531 18.3L13.5277 20.4251V22.8735H7.27874V21.8486C7.27874 21.7492 7.23923 21.6538 7.1689 21.5835C7.09858 21.5131 7.00319 21.4736 6.90374 21.4736C6.80428 21.4736 6.7089 21.5131 6.63857 21.5835C6.56825 21.6538 6.52874 21.7492 6.52874 21.8486V22.8735H4.73249C4.70144 22.873 4.67181 22.8604 4.6499 22.8385C4.62798 22.8165 4.6155 22.7868 4.61511 22.7557ZM19.3849 22.7557C19.3843 22.787 19.3715 22.8168 19.3493 22.8388C19.3271 22.8607 19.2972 22.8732 19.266 22.8735H17.4716V21.8486C17.4716 21.7492 17.4321 21.6538 17.3618 21.5835C17.2915 21.5131 17.1961 21.4736 17.0966 21.4736C16.9972 21.4736 16.9018 21.5131 16.8314 21.5835C16.7611 21.6538 16.7216 21.7492 16.7216 21.8486V22.8735H14.2774V20.2399C14.2774 20.1824 14.2641 20.1257 14.2387 20.0741C14.2133 20.0225 14.1763 19.9775 14.1307 19.9425L12.4057 18.6214C13.4396 18.459 14.2335 17.5646 14.2335 16.4861V15.7635H15.8299C17.7904 15.7635 19.3849 17.3584 19.3849 19.3185V22.7557Z" fill="#2A7DB7"/>
<path d="M12.3045 21.6975C12.404 21.6975 12.4994 21.658 12.5697 21.5877C12.64 21.5173 12.6795 21.422 12.6795 21.3225C12.6795 21.223 12.64 21.1277 12.5697 21.0573C12.4994 20.987 12.404 20.9475 12.3045 20.9475H12.2918C12.2429 20.9476 12.1944 20.9574 12.1493 20.9764C12.1042 20.9953 12.0634 21.023 12.0291 21.0579C11.9948 21.0928 11.9677 21.1342 11.9496 21.1796C11.9314 21.225 11.9224 21.2736 11.9231 21.3225C11.9231 21.5291 12.0975 21.6975 12.3045 21.6975ZM10.197 12.3285C10.2965 12.3285 10.3919 12.289 10.4622 12.2187C10.5325 12.1483 10.572 12.053 10.572 11.9535V11.6063C10.572 11.5068 10.5325 11.4114 10.4622 11.3411C10.3919 11.2708 10.2965 11.2313 10.197 11.2313C10.0976 11.2313 10.0022 11.2708 9.93186 11.3411C9.86153 11.4114 9.82202 11.5068 9.82202 11.6063V11.9535C9.82202 12.053 9.86153 12.1483 9.93186 12.2187C10.0022 12.289 10.0976 12.3285 10.197 12.3285ZM13.9028 12.3285C14.0022 12.3285 14.0976 12.289 14.1679 12.2187C14.2383 12.1483 14.2778 12.053 14.2778 11.9535V11.6063C14.2778 11.5068 14.2383 11.4114 14.1679 11.3411C14.0976 11.2708 14.0022 11.2313 13.9028 11.2313C13.8033 11.2313 13.7079 11.2708 13.6376 11.3411C13.5673 11.4114 13.5278 11.5068 13.5278 11.6063V11.9535C13.5278 12.053 13.5673 12.1483 13.6376 12.2187C13.7079 12.289 13.8033 12.3285 13.9028 12.3285ZM12.0386 14.592C12.27 14.592 12.5029 14.514 12.7264 14.3584C12.8057 14.3006 12.8592 14.214 12.8755 14.1173C12.8917 14.0205 12.8693 13.9212 12.8132 13.8407C12.757 13.7602 12.6716 13.705 12.5752 13.6868C12.4787 13.6686 12.379 13.6889 12.2974 13.7434C12.111 13.8727 11.9708 13.8739 11.7968 13.7471C11.7163 13.6886 11.6159 13.6645 11.5177 13.6801C11.4194 13.6956 11.3314 13.7495 11.2729 13.83C11.2144 13.9105 11.1903 14.0109 11.2058 14.1091C11.2214 14.2073 11.2753 14.2954 11.3558 14.3539C11.574 14.5125 11.8058 14.592 12.0386 14.592Z" fill="#2A7DB7"/>
</svg>
