<svg width="24" height="24" viewBox="0 0 24 24" fill="none" xmlns="http://www.w3.org/2000/svg">
<g clip-path="url(#clip0_11_31)">
<path d="M23.2485 22.1207H10.203V21.3692H21.4128L17.3467 17.3711L17.8736 16.8356L23.2485 22.1207ZM8.72978 22.1207H0.751465V0L5.77853 4.94287L5.25165 5.47875L1.50278 1.7925V21.3692H8.72978V22.1207ZM12.1993 18.2788H4.65896V10.1719H5.41028V17.5275H12.1993V18.2788Z" fill="#2A7DB7"/>
<path d="M1.12708 20.0927H2.85789V20.844H1.12708V20.0927ZM1.12708 18.4335H2.12251V19.1848H1.12708V18.4335ZM1.12708 16.7739H2.85789V17.5252H1.12708V16.7739ZM1.12708 15.1144H2.12251V15.8659H1.12708V15.1144ZM1.12708 13.4552H2.85789V14.2067H1.12708V13.4552ZM1.12708 11.7954H2.12251V12.5467H1.12708V11.7954ZM1.12708 10.1364H2.85789V10.8877H1.12708V10.1364ZM1.12708 8.47687H2.12251V9.22818H1.12708V8.47687ZM1.12708 6.81731H2.85789V7.56862H1.12708V6.81731ZM1.12708 5.15831H2.12251V5.90962H1.12708V5.15831ZM1.12708 3.49893H2.85789V4.25024H1.12708V3.49893Z" fill="#2A7DB7"/>
<path d="M14.8828 23.4298L12.9789 19.9877V19.3643H13.7302V19.7934L14.8828 21.8777L16.0357 19.7934V19.3643H16.7872V19.9877L14.8828 23.4298Z" fill="#2A7DB7"/>
<path d="M16.942 20.1559H12.8245V5.81418H13.5758V19.4044H16.1908V5.81418H16.942V20.1559Z" fill="#2A7DB7"/>
<path d="M14.5071 5.44312H15.2586V18.2501H14.5071V5.44312Z" fill="#2A7DB7"/>
<path d="M16.7895 2.07488H16.038V1.4267L13.7284 1.42557V2.07488H12.9771V1.31963C12.9771 1.13363 13.0642 0.95701 13.2165 0.835322C13.3461 0.731447 13.5142 0.67426 13.6892 0.67426H13.6899L16.0772 0.674072C16.47 0.674072 16.7893 0.96376 16.7893 1.31982L16.7895 2.07488Z" fill="#2A7DB7"/>
<path d="M16.942 5.78905H12.8245V2.71799H16.942V5.78905ZM13.5758 5.03755H16.1906V3.4693H13.5758V5.03755Z" fill="#2A7DB7"/>
<path d="M9.19554 22.4346H9.94685V24H9.19554V22.4346ZM11.1045 2.41126H10.3532V1.42557H8.74797V2.41126H7.99647V0.674255H11.1045V2.41126ZM7.94641 18.3184V11.3593H8.69772V17.5669L10.3918 17.5667L10.3922 11.3593H11.1435L11.1431 18.3182L7.94641 18.3184Z" fill="#2A7DB7"/>
<path d="M10.61 23.0121H8.4785V21.3431H9.22981V22.2609H9.85869V21.3431H10.61V23.0121ZM11.4114 11.5575H7.69006V2.1015H11.4116L11.4114 11.5575ZM8.44138 10.8062H10.6601V2.853H8.44138V10.8062Z" fill="#2A7DB7"/>
<path d="M6.24861 11.7186L6.24805 3.87994L11.0291 3.88051V4.63182L6.99936 4.63126L6.99992 11.7186H6.24861ZM10.9895 21.6446H8.09923V17.6154H10.9895V21.6446ZM8.85073 20.8933H10.2382V18.3668H8.85073V20.8933Z" fill="#2A7DB7"/>
</g>
<defs>
<clipPath id="clip0_11_31">
<rect width="24" height="24" fill="white"/>
</clipPath>
</defs>
</svg>
