<svg width="24" height="24" viewBox="0 0 24 24" fill="none" xmlns="http://www.w3.org/2000/svg">
<g clip-path="url(#clip0_11_125)">
<path d="M10.5522 15.0918C10.5522 14.9365 10.4263 14.8106 10.271 14.8106C10.1157 14.8106 9.98973 14.9365 9.98973 15.0918V20.3437H9.41101C9.25568 20.3437 9.12976 20.4697 9.12976 20.625C9.12976 20.7803 9.25568 20.9062 9.41101 20.9062H10.271C10.4263 20.9062 10.5522 20.7803 10.5522 20.625V15.0918ZM11.6089 3.75295C11.456 3.77902 11.3532 3.92416 11.3792 4.07705C11.4053 4.22995 11.5505 4.33275 11.7034 4.30667C12.3098 4.20254 12.9012 4.35409 13.3669 4.68329C13.8319 5.01201 14.1716 5.5184 14.2757 6.1245C14.3798 6.731 14.2282 7.32231 13.899 7.788C13.5703 8.25304 13.0639 8.59273 12.4578 8.69681C11.8513 8.80095 11.26 8.64939 10.7943 8.32019C10.3293 7.99148 9.98958 7.48506 9.8855 6.87896C9.80707 6.42208 9.87367 5.9738 10.052 5.58138C10.2355 5.17759 10.5374 4.8329 10.9213 4.59884C11.0535 4.51816 11.0953 4.34548 11.0147 4.21322C10.934 4.08095 10.7613 4.03914 10.629 4.11983C10.1481 4.41306 9.76992 4.84486 9.54006 5.35068C9.317 5.84149 9.23369 6.40211 9.33178 6.97345C9.4621 7.73253 9.88807 8.36711 10.4713 8.77941C11.0539 9.19121 11.7936 9.38082 12.5523 9.25053C13.3114 9.12019 13.946 8.69424 14.3583 8.111C14.7701 7.52843 14.9597 6.78872 14.8294 6.03002C14.699 5.27093 14.2731 4.63635 13.6899 4.22406C13.1073 3.81225 12.3676 3.62266 11.6089 3.75295Z" fill="#2A7DB7"/>
<path d="M11.4289 5.52933C11.4853 5.38493 11.414 5.2221 11.2696 5.16569C11.1252 5.10927 10.9624 5.18057 10.906 5.32498C10.7923 5.61612 10.6206 5.87629 10.4049 6.09153C10.1883 6.30762 9.92765 6.47908 9.63709 6.59178C9.49269 6.64759 9.42088 6.80992 9.47669 6.95432C9.53252 7.09873 9.69485 7.17053 9.83925 7.11471C10.1995 6.97509 10.5268 6.76209 10.8004 6.48924C11.0716 6.21862 11.287 5.89279 11.4289 5.52933Z" fill="#2A7DB7"/>
<path d="M14.6097 6.17596C14.7438 6.0983 14.7895 5.92663 14.7118 5.79253C14.6342 5.65845 14.4625 5.6127 14.3284 5.69036C14.2144 5.75643 14.0947 5.81226 13.9707 5.85717C13.8486 5.90142 13.721 5.9351 13.5896 5.95767C12.9831 6.06179 12.3918 5.91027 11.9261 5.58106C11.461 5.25233 11.1213 4.74594 11.0173 4.13984C10.9963 4.01754 10.9853 3.89724 10.9845 3.7802C10.9835 3.65889 10.9925 3.5377 11.0112 3.41783C11.0349 3.26493 10.9301 3.12177 10.7772 3.09812C10.6243 3.07446 10.4812 3.17923 10.4575 3.33213C10.4342 3.48107 10.423 3.63165 10.4241 3.78239C10.4253 3.93689 10.4384 4.08808 10.4635 4.23431C10.5939 4.99342 11.0198 5.62798 11.6031 6.04027C12.1856 6.4521 12.9254 6.64167 13.6841 6.5114C13.8457 6.48365 14.0056 6.44111 14.1619 6.38451C14.317 6.32837 14.4669 6.25859 14.6097 6.17596H14.6097Z" fill="#2A7DB7"/>
<path d="M11.5254 4.30204C11.6764 4.33722 11.8275 4.24329 11.8626 4.09222C11.8978 3.94114 11.8039 3.79011 11.6528 3.75493C11.5311 3.72615 11.3823 3.64991 11.2486 3.54908C11.1299 3.45959 11.0302 3.35651 10.9827 3.25859C10.9154 3.11905 10.7476 3.06051 10.6081 3.12787C10.4685 3.19522 10.41 3.36295 10.4773 3.5025C10.5662 3.68578 10.7271 3.85927 10.9102 3.99733C11.1033 4.14295 11.3295 4.25574 11.5254 4.30204ZM13.0542 11.2925C13.054 11.0017 12.9361 10.7383 12.7455 10.5477C12.5547 10.3569 12.2911 10.2389 12 10.2389C11.7089 10.2389 11.4453 10.3569 11.2545 10.5477C11.0638 10.7384 10.9458 11.002 10.9458 11.2931C10.9458 11.3102 10.9443 11.327 10.9414 11.3432L10.5522 15.0722C10.5541 15.4693 10.7157 15.8286 10.9762 16.089C11.2382 16.351 11.6002 16.5131 12 16.5131C12.3998 16.5131 12.7618 16.351 13.0238 16.089C13.2843 15.8286 13.4459 15.4693 13.4478 15.0722L13.0565 11.3222L13.0557 11.3223C13.0547 11.3124 13.0542 11.3025 13.0542 11.2925ZM13.1432 10.15C13.434 10.4408 13.6145 10.8419 13.6166 11.2851L14.0059 15.0151C14.0089 15.0314 14.0104 15.0481 14.0104 15.0652C14.0104 15.6203 13.7853 16.1229 13.4215 16.4867C13.0577 16.8505 12.5551 17.0756 12 17.0756C11.4449 17.0756 10.9423 16.8505 10.5785 16.4867C10.2153 16.1236 9.99041 15.6221 9.98964 15.0681C9.98953 15.0575 9.99002 15.0468 9.99114 15.036L9.99188 15.0361L10.3834 11.2851C10.3855 10.8419 10.566 10.4408 10.8568 10.1499C11.1494 9.85739 11.5536 9.6764 12 9.6764C12.4464 9.6764 12.8506 9.85739 13.1432 10.15Z" fill="#2A7DB7"/>
<path d="M14.3628 13.8193C14.3628 13.9747 14.4887 14.1006 14.644 14.1006C14.7993 14.1006 14.9253 13.9747 14.9253 13.8193V11.6868C14.9253 11.1081 14.5806 10.5934 14.0234 10.229C13.5014 9.88758 12.7857 9.67639 12.0001 9.67639C11.2144 9.67639 10.4987 9.88756 9.97667 10.229C9.41947 10.5934 9.07483 11.1081 9.07483 11.6868V13.8193C9.07483 13.9747 9.20075 14.1006 9.35608 14.1006C9.5114 14.1006 9.63733 13.9747 9.63733 13.8193V11.6868C9.63733 11.3105 9.88457 10.9606 10.2843 10.6992C10.7191 10.4148 11.3254 10.2389 12.0001 10.2389C12.6747 10.2389 13.281 10.4148 13.7158 10.6992C14.1155 10.9606 14.3628 11.3105 14.3628 11.6868V13.8193ZM14.0104 15.0919C14.0104 14.9366 13.8845 14.8106 13.7291 14.8106C13.5738 14.8106 13.4479 14.9366 13.4479 15.0919V20.625C13.4479 20.7804 13.5738 20.9063 13.7291 20.9063H14.5891C14.7445 20.9063 14.8704 20.7804 14.8704 20.625C14.8704 20.4697 14.7445 20.3438 14.5891 20.3438H14.0104V15.0919Z" fill="#2A7DB7"/>
<path d="M10.4891 14.3004C10.3338 14.3004 10.2079 14.4263 10.2079 14.5816C10.2079 14.7369 10.3338 14.8629 10.4891 14.8629H13.5108C13.6661 14.8629 13.7921 14.7369 13.7921 14.5816C13.7921 14.4263 13.6661 14.3004 13.5108 14.3004H10.4891Z" fill="#2A7DB7"/>
</g>
<defs>
<clipPath id="clip0_11_125">
<rect width="24" height="24" fill="white"/>
</clipPath>
</defs>
</svg>
