<svg width="24" height="24" viewBox="0 0 24 24" fill="none" xmlns="http://www.w3.org/2000/svg">
<g clip-path="url(#clip0_11_100)">
<path d="M3.6209 4.13417H5.92352V4.92163H7.54063V4.13417H16.4593V4.92163H18.0764V4.13417H20.3791C20.4606 4.13416 20.5414 4.15028 20.6167 4.1816C20.692 4.21291 20.7603 4.2588 20.8178 4.31663C20.8753 4.37445 20.9208 4.44307 20.9517 4.51855C20.9826 4.59402 20.9983 4.67485 20.9978 4.7564V20.031C20.9983 20.1129 20.9825 20.194 20.9514 20.2697C20.9203 20.3454 20.8745 20.4142 20.8166 20.4721C20.7587 20.5299 20.6899 20.5758 20.6142 20.6069C20.5385 20.638 20.4574 20.6537 20.3756 20.6533H3.6209C3.53906 20.6537 3.45794 20.638 3.38223 20.6069C3.30653 20.5758 3.23775 20.5299 3.17988 20.4721C3.122 20.4142 3.07619 20.3454 3.04508 20.2697C3.01398 20.194 2.9982 20.1129 2.99867 20.031V4.7564C2.9982 4.67456 3.01398 4.59343 3.04508 4.51773C3.07619 4.44203 3.122 4.37325 3.17988 4.31537C3.23775 4.2575 3.30653 4.21169 3.38223 4.18058C3.45794 4.14948 3.53906 4.1337 3.6209 4.13417ZM5.17473 4.88296H3.75097V19.9045H20.249V4.88296H18.8252V5.11146C18.8257 5.18546 18.8115 5.25881 18.7834 5.32726C18.7553 5.39571 18.7139 5.45791 18.6615 5.51023C18.6092 5.56255 18.547 5.60397 18.4786 5.63207C18.4101 5.66017 18.3368 5.6744 18.2628 5.67393H16.2695C16.1955 5.6744 16.1222 5.66017 16.0537 5.63207C15.9852 5.60397 15.9231 5.56255 15.8707 5.51023C15.8184 5.45791 15.777 5.39571 15.7489 5.32726C15.7208 5.25881 15.7066 5.18546 15.707 5.11146V4.88647H8.28942V5.11498C8.28989 5.18897 8.27566 5.26232 8.24756 5.33078C8.21946 5.39923 8.17804 5.46142 8.12572 5.51375C8.0734 5.56607 8.0112 5.60748 7.94275 5.63558C7.8743 5.66369 7.80095 5.67792 7.72695 5.67745H5.73369C5.65999 5.67745 5.58702 5.66288 5.51897 5.63457C5.45093 5.60626 5.38915 5.56477 5.3372 5.51249C5.28525 5.46022 5.24415 5.39818 5.21627 5.32996C5.18839 5.26174 5.17427 5.18868 5.17473 5.11498V4.88296Z" fill="#2A7DB7"/>
<path d="M5.73368 3.34318H7.73398C7.80797 3.34271 7.88132 3.35694 7.94978 3.38505C8.01823 3.41315 8.08042 3.45456 8.13275 3.50689C8.18507 3.55921 8.22648 3.6214 8.25458 3.68985C8.28269 3.75831 8.29692 3.83166 8.29645 3.90565V5.11145C8.29692 5.18545 8.28269 5.2588 8.25458 5.32725C8.22648 5.39571 8.18507 5.4579 8.13275 5.51022C8.08042 5.56255 8.01823 5.60396 7.94978 5.63206C7.88132 5.66016 7.80797 5.67439 7.73398 5.67393H5.7372C5.66307 5.67487 5.58951 5.66097 5.52084 5.63303C5.45217 5.6051 5.38979 5.56371 5.33737 5.51129C5.28495 5.45887 5.24355 5.39648 5.21562 5.32782C5.18769 5.25915 5.17378 5.18558 5.17473 5.11145L5.17824 3.90565C5.17778 3.83166 5.19201 3.75831 5.22011 3.68985C5.24821 3.6214 5.28962 3.55921 5.34195 3.50689C5.39427 3.45456 5.45646 3.41315 5.52492 3.38505C5.59337 3.35694 5.66672 3.34271 5.74072 3.34318H5.73368ZM7.54063 4.09549H5.92352V4.92162H7.54063V4.09549Z" fill="#2A7DB7"/>
<path d="M16.2695 3.34318H18.2628C18.3368 3.34271 18.4102 3.35694 18.4786 3.38505C18.5471 3.41315 18.6093 3.45456 18.6616 3.50689C18.7139 3.55921 18.7553 3.6214 18.7834 3.68985C18.8115 3.75831 18.8258 3.83166 18.8253 3.90565V5.11145C18.8258 5.18545 18.8115 5.2588 18.7834 5.32725C18.7553 5.39571 18.7139 5.4579 18.6616 5.51022C18.6093 5.56255 18.5471 5.60396 18.4786 5.63206C18.4102 5.66016 18.3368 5.67439 18.2628 5.67393H16.2695C16.1954 5.67487 16.1219 5.66097 16.0532 5.63303C15.9845 5.6051 15.9221 5.56371 15.8697 5.51129C15.8173 5.45887 15.7759 5.39648 15.748 5.32782C15.72 5.25915 15.7061 5.18558 15.7071 5.11145V3.90565C15.7066 3.83166 15.7208 3.75831 15.7489 3.68985C15.777 3.6214 15.8185 3.55921 15.8708 3.50689C15.9231 3.45456 15.9853 3.41315 16.0537 3.38505C16.1222 3.35694 16.1956 3.34271 16.2695 3.34318ZM18.073 4.09549H16.4559V4.92162H18.073V4.09549Z" fill="#2A7DB7"/>
<path d="M3.37488 6.89026H20.6252V7.64257H3.37488V6.89026Z" fill="#2A7DB7"/>
<path d="M5.38912 9.40381H8.13117V12.5185H5.01648V9.40381H5.38912ZM7.38238 10.1526H5.76527V11.7697H7.38238V10.1526Z" fill="#2A7DB7"/>
<path d="M5.38912 14.1321H8.13117V17.2503H5.01648V14.1321H5.38912ZM7.38238 14.8844H5.76527V16.5015H7.38238V14.8844Z" fill="#2A7DB7"/>
<path d="M14.4836 8.99953C15.075 8.99768 15.661 9.1128 16.2078 9.33828C16.7546 9.56375 17.2513 9.89513 17.6696 10.3133C18.0878 10.7316 18.4192 11.2284 18.6446 11.7751C18.8701 12.3219 18.9852 12.9079 18.9834 13.4993C18.9852 14.0908 18.8701 14.6767 18.6446 15.2235C18.4192 15.7703 18.0878 16.2671 17.6696 16.6853C17.2513 17.1035 16.7546 17.4349 16.2078 17.6603C15.661 17.8858 15.075 18.0009 14.4836 17.9991C13.6808 17.9993 12.8926 17.7845 12.2008 17.3772C11.509 16.9698 10.939 16.3846 10.5498 15.6824L11.2037 15.3203C11.525 15.8968 11.9928 16.3781 12.5599 16.7157C13.1269 17.0534 13.773 17.2352 14.4329 17.243C15.0928 17.2508 15.7431 17.0841 16.3179 16.7599C16.8927 16.4358 17.3717 15.9655 17.7065 15.3968C18.0413 14.8281 18.2199 14.1811 18.2244 13.5211C18.2289 12.8612 18.059 12.2118 17.7319 11.6386C17.4049 11.0654 16.9322 10.5888 16.3619 10.2568C15.7915 9.9249 15.1435 9.74949 14.4836 9.74833V8.99953Z" fill="#2A7DB7"/>
<path d="M9.79053 16.9128L10.3108 14.9793L10.4057 14.6172L10.7678 14.7122L12.8419 15.2676L12.6486 15.9918L10.9366 15.5348L10.5147 17.1062L9.79053 16.9128Z" fill="#2A7DB7"/>
</g>
<defs>
<clipPath id="clip0_11_100">
<rect width="24" height="24" fill="white"/>
</clipPath>
</defs>
</svg>
