<svg width="24" height="24" viewBox="0 0 24 24" fill="none" xmlns="http://www.w3.org/2000/svg">
<path d="M12.0469 10.0125H12.4138C12.5008 10.0125 12.5843 9.97793 12.6458 9.9164C12.7074 9.85486 12.7419 9.7714 12.7419 9.68438C12.7419 9.59735 12.7074 9.51389 12.6458 9.45236C12.5843 9.39082 12.5008 9.35625 12.4138 9.35625H12.0619L12.1931 8.49225C12.1996 8.44964 12.1976 8.40618 12.1872 8.36434C12.1769 8.32251 12.1584 8.28312 12.1328 8.24843C12.0812 8.17837 12.0038 8.13169 11.9178 8.11866C11.8317 8.10563 11.744 8.12732 11.674 8.17896C11.6039 8.23059 11.5572 8.30795 11.5442 8.394L11.4112 9.27282C11.3973 9.36437 11.4034 9.45784 11.4289 9.54685C11.4545 9.63586 11.499 9.7183 11.5593 9.78853C11.6197 9.85876 11.6945 9.91513 11.7786 9.95379C11.8628 9.99244 11.9543 10.0125 12.0469 10.0125ZM11.9766 11.9063C12.2578 11.9169 12.538 11.8663 12.7978 11.758C13.0576 11.6498 13.2907 11.4864 13.4812 11.2793C13.5101 11.2462 13.532 11.2077 13.5456 11.166C13.5593 11.1244 13.5645 11.0804 13.5609 11.0367C13.5573 10.993 13.545 10.9504 13.5246 10.9116C13.5043 10.8727 13.4764 10.8383 13.4426 10.8104C13.4087 10.7825 13.3696 10.7617 13.3276 10.7492C13.2856 10.7367 13.2415 10.7327 13.1979 10.7375C13.1543 10.7423 13.1121 10.7558 13.0738 10.7772C13.0355 10.7986 13.0019 10.8275 12.975 10.8621C12.8453 10.9934 12.6893 11.0959 12.5172 11.1627C12.3452 11.2296 12.1609 11.2593 11.9766 11.25C11.7921 11.2593 11.6079 11.2296 11.4358 11.1627C11.2637 11.0958 11.1076 10.9933 10.9779 10.8619C10.9216 10.798 10.8427 10.7586 10.7579 10.7518C10.673 10.745 10.5889 10.7715 10.5232 10.8256C10.4575 10.8797 10.4154 10.9573 10.4058 11.0418C10.3962 11.1264 10.4198 11.2114 10.4717 11.2789C10.6622 11.4861 10.8954 11.6495 11.1552 11.7579C11.415 11.8662 11.6953 11.9168 11.9766 11.9063Z" fill="#2A7DB7"/>
<path d="M19.3991 16.4115C19.1522 16.3426 18.8997 16.2951 18.6446 16.2694L16.3142 16.0402L15.8484 15.9938C15.7017 15.979 15.5603 15.9312 15.4346 15.8541C15.3089 15.7769 15.2024 15.6724 15.1228 15.5483C15.0411 15.4253 14.9883 15.2854 14.9685 15.1391L14.7876 13.7233C15.5144 13.1348 16.0377 12.3326 16.2834 11.4302C16.3927 11.0267 16.4685 10.6129 16.5576 10.2047C16.6438 10.2201 16.7313 10.2282 16.8189 10.2289C17.1495 10.2289 17.472 10.1267 17.7423 9.93643C18.0126 9.74613 18.2175 9.47696 18.329 9.16576C18.4405 8.85455 18.4531 8.5165 18.3651 8.19785C18.2771 7.87921 18.0928 7.59553 17.8374 7.38562H18.5625C18.625 7.38556 18.6861 7.36766 18.7388 7.33405C18.7914 7.30043 18.8334 7.25249 18.8598 7.19585C18.8861 7.1392 18.8958 7.07622 18.8876 7.01428C18.8794 6.95235 18.8537 6.89403 18.8136 6.84619L17.0136 4.70869V3.14062C17.0126 2.30807 16.6815 1.50987 16.0928 0.921108C15.5042 0.332347 14.7061 0.00109174 13.8735 0L10.1265 0C9.29384 0.000942902 8.49555 0.332132 7.90678 0.920909C7.318 1.50969 6.98681 2.30797 6.98587 3.14062V4.7085L5.18587 6.846C5.1456 6.89388 5.11986 6.95226 5.11166 7.01428C5.10346 7.0763 5.11314 7.13936 5.13958 7.19606C5.16602 7.25276 5.2081 7.30072 5.26088 7.3343C5.31366 7.36789 5.37493 7.38569 5.43749 7.38562H6.11568C5.86007 7.59548 5.67558 7.87922 5.58746 8.19799C5.49934 8.51675 5.51191 8.85496 5.62344 9.16631C5.73497 9.47766 5.94 9.74692 6.21048 9.93724C6.48096 10.1276 6.80365 10.2296 7.13437 10.2294C7.23734 10.2289 7.34002 10.2183 7.44093 10.1978L7.66312 11.2148C7.88208 12.2019 8.4281 13.086 9.21262 13.7239L9.03168 15.1397C9.01188 15.286 8.95912 15.4259 8.87737 15.5488C8.79781 15.673 8.69123 15.7775 8.56557 15.8547C8.43992 15.9318 8.29845 15.9795 8.15174 15.9943L7.68599 16.0401L5.35574 16.2694C5.10063 16.295 4.8482 16.3426 4.60124 16.4115C3.6442 16.675 2.79988 17.2449 2.19752 18.0339C1.59517 18.8229 1.26796 19.7876 1.26599 20.7803V23.6719C1.26604 23.7588 1.30058 23.8422 1.36202 23.9037C1.42346 23.9652 1.5068 23.9999 1.59374 24H22.4062C22.4933 24 22.5767 23.9654 22.6382 23.9038C22.6997 23.8423 22.7343 23.7589 22.7344 23.6719V20.7812C22.7326 19.7884 22.4055 18.8235 21.8031 18.0343C21.2007 17.2451 20.3563 16.6751 19.3991 16.4115ZM16.8187 9.57319C16.7781 9.57315 16.7375 9.5704 16.6972 9.56494C16.8315 8.95031 17.0057 8.32931 17.0188 7.69725C17.2479 7.74649 17.4506 7.87875 17.5879 8.06855C17.7253 8.25835 17.7875 8.49226 17.7627 8.72522C17.7378 8.95817 17.6276 9.1737 17.4534 9.33026C17.2791 9.48683 17.053 9.57336 16.8187 9.57319ZM7.64212 3.14062C7.64286 2.48196 7.90485 1.85048 8.3706 1.38473C8.83635 0.918979 9.46782 0.656994 10.1265 0.65625H13.8735C14.5322 0.656994 15.1636 0.918979 15.6294 1.38473C16.0951 1.85048 16.3571 2.48196 16.3579 3.14062V4.5H7.64212V3.14062ZM7.46662 5.15625H16.5334L17.8575 6.72937H6.14249L7.46662 5.15625ZM7.13437 9.57319C6.89597 9.57345 6.66621 9.48393 6.49082 9.32244C6.31544 9.16096 6.2073 8.93936 6.18791 8.70175C6.16853 8.46414 6.23933 8.22794 6.38622 8.04017C6.53311 7.85239 6.74533 7.72682 6.98062 7.68844C6.99262 8.32144 7.1668 8.943 7.30124 9.55819C7.24618 9.56818 7.19033 9.5732 7.13437 9.57319ZM8.49712 11.6959C8.24305 11.0696 8.14912 10.3646 8.00549 9.7065C7.8598 9.02025 7.63649 8.31262 7.63649 7.6065V7.38562H9.18318C9.16605 7.44841 9.15698 7.51311 9.15618 7.57819C9.15618 7.7854 9.2385 7.98413 9.38502 8.13066C9.53155 8.27718 9.73028 8.3595 9.93749 8.3595C10.1447 8.3595 10.3434 8.27718 10.49 8.13066C10.6365 7.98413 10.7188 7.7854 10.7188 7.57819C10.718 7.51311 10.7089 7.44841 10.6918 7.38562H13.0449C13.0278 7.44841 13.0187 7.51311 13.0179 7.57819C13.0164 7.6899 13.0388 7.80064 13.0837 7.90294C13.1286 8.00524 13.1949 8.09673 13.2782 8.17122C13.3614 8.24572 13.4597 8.30149 13.5663 8.33479C13.673 8.36808 13.7855 8.37811 13.8964 8.36421C14.0072 8.35031 14.1138 8.3128 14.2089 8.25421C14.3041 8.19561 14.3855 8.1173 14.4478 8.02456C14.5101 7.93181 14.5517 7.82679 14.57 7.71657C14.5882 7.60635 14.5826 7.49349 14.5536 7.38562H16.3635V7.6065C16.3633 7.87754 16.3344 8.1478 16.2772 8.41275L15.9906 9.72187C15.8951 10.1544 15.8031 10.5881 15.7076 11.0207C15.5168 11.9263 15.0065 12.7331 14.2701 13.2938C13.9306 13.522 13.5665 13.7112 13.1846 13.8577C12.4155 14.1123 11.5849 14.1123 10.8157 13.8577C10.4336 13.7112 10.0692 13.522 9.72955 13.2938C9.18119 12.883 8.75511 12.3306 8.49712 11.6959ZM10.5937 14.4765C11.1819 14.6727 11.8046 14.7438 12.4219 14.6855C13.0392 14.6271 13.6375 14.4404 14.1786 14.1375L14.3173 15.2233C14.335 15.3613 14.371 15.4964 14.4242 15.6249C13.7075 16.1066 12.8635 16.3639 12 16.3639C11.1365 16.3639 10.2925 16.1066 9.5758 15.6249C9.62904 15.4963 9.66498 15.3612 9.68268 15.2231L9.82143 14.1375C10.0674 14.275 10.326 14.3885 10.5937 14.4765ZM9.21187 16.1739C10.0371 16.7254 11.0074 17.0198 12 17.0198C12.9926 17.0198 13.9628 16.7254 14.7881 16.1739C15.0456 16.4337 15.3833 16.5988 15.7464 16.6427L15.4065 17.2382C15.2055 17.5899 14.9151 17.8823 14.5649 18.0859C14.2146 18.2894 13.8168 18.3969 13.4117 18.3975H10.5883C10.1833 18.397 9.78555 18.2897 9.4353 18.0863C9.08505 17.8829 8.79467 17.5907 8.59349 17.2391L8.25355 16.6434C8.61676 16.5994 8.95445 16.4339 9.21187 16.1739ZM1.92187 20.7812C1.92333 20.0069 2.15616 19.2507 2.59048 18.6097C3.0248 17.9686 3.64079 17.472 4.35937 17.1836V23.3438H1.92187V20.7812ZM5.01562 16.9856C5.14907 16.957 5.28403 16.9359 5.41987 16.9224L7.53862 16.7141L8.02387 17.5644C8.28256 18.0164 8.65592 18.3921 9.10625 18.6536C9.55658 18.9151 10.0679 19.0531 10.5887 19.0538H11.745V23.3438H10.5909V20.7501C10.591 20.707 10.5825 20.6643 10.566 20.6245C10.5495 20.5846 10.5254 20.5485 10.4949 20.518C10.4644 20.4875 10.4282 20.4633 10.3884 20.4469C10.3486 20.4304 10.3059 20.4219 10.2628 20.4219H6.49724C6.41022 20.4219 6.32676 20.4565 6.26522 20.518C6.20369 20.5796 6.16912 20.663 6.16912 20.7501V23.3438H5.01562V16.9856ZM6.82499 23.3438V21.0782H9.93468V23.3438H6.82499ZM12.4005 19.0538H13.4113C13.9321 19.0531 14.4434 18.915 14.8938 18.6535C15.3441 18.392 15.7175 18.0162 15.9761 17.5643L16.4625 16.7141L18.5812 16.9224C18.7171 16.9359 18.852 16.957 18.9855 16.9856V23.3438H17.8312V20.7501C17.8312 20.663 17.7967 20.5796 17.7351 20.518C17.6736 20.4565 17.5901 20.4219 17.5031 20.4219H13.7372C13.6941 20.4219 13.6514 20.4304 13.6116 20.4469C13.5718 20.4633 13.5356 20.4875 13.5051 20.518C13.4746 20.5485 13.4505 20.5846 13.434 20.6245C13.4175 20.6643 13.409 20.707 13.4091 20.7501V23.3438H12.4009L12.4005 19.0538ZM14.0649 23.3438V21.0782H17.175V23.3438H14.0649ZM22.0777 23.3438H19.6402V17.1836C20.3588 17.472 20.9748 17.9686 21.4091 18.6097C21.8434 19.2507 22.0763 20.0069 22.0777 20.7812V23.3438Z" fill="#2A7DB7"/>
</svg>
