<svg width="24" height="24" viewBox="0 0 24 24" fill="none" xmlns="http://www.w3.org/2000/svg">
<g clip-path="url(#clip0_11_167)">
<path d="M15.5645 8.66233C15.6117 8.82489 15.6476 8.99054 15.6719 9.15808C15.6971 9.33222 15.7102 9.50829 15.7102 9.68519C15.7102 10.6968 15.3002 11.6127 14.6372 12.2757C13.9742 12.9386 13.0583 13.3487 12.0467 13.3487C11.0351 13.3487 10.1192 12.9386 9.45621 12.2757C8.79325 11.6127 8.38317 10.6968 8.38317 9.68519C8.38317 9.37251 8.42361 9.06604 8.49957 8.77091C8.57788 8.46674 8.69284 8.17985 8.83913 7.91535L9.08523 8.05048L8.83912 7.91434C8.89901 7.80608 9.01978 7.75282 9.13514 7.77362L15.3191 8.44255L15.2895 8.72161L15.3197 8.442C15.4434 8.45536 15.5396 8.54703 15.5645 8.66233ZM15.116 9.23719C15.1035 9.15077 15.0874 9.06492 15.0676 8.97987L9.24647 8.35019C9.16077 8.5291 9.09202 8.71619 9.0423 8.90935C8.97924 9.15436 8.94566 9.41424 8.94566 9.68519C8.94566 10.5415 9.29277 11.3168 9.85391 11.878C10.4151 12.4391 11.1904 12.7862 12.0467 12.7862C12.903 12.7862 13.6783 12.4391 14.2395 11.878C14.8006 11.3168 15.1477 10.5415 15.1477 9.68517C15.1477 9.53092 15.1369 9.38139 15.116 9.23719ZM15.7795 16.6536C15.6066 15.9957 15.1158 15.4404 14.452 15.0417C13.7752 14.6351 12.9227 14.3929 12.0388 14.3679C11.9423 14.3652 11.8457 14.365 11.7491 14.3674C10.859 14.3897 9.99958 14.6324 9.31829 15.0417C8.65453 15.4404 8.16371 15.9957 7.99084 16.6536L7.7025 17.751L7.69803 17.7509C7.47815 17.7492 7.25533 17.7809 7.04846 17.857L7.40513 16.4995C7.62045 15.6801 8.21238 15.0002 9.00767 14.5224C9.7895 14.0527 10.7716 13.7772 11.7805 13.7596C11.8646 13.7582 11.9483 13.7585 12.0324 13.7605C13.0263 13.785 13.9918 14.0594 14.7626 14.5224C15.5579 15.0001 16.1499 15.6801 16.3652 16.4995L17.0286 19.0243C17.0393 19.0559 17.0448 19.089 17.0448 19.1224C17.0448 19.29 16.9089 19.4259 16.7413 19.4259H10.9967C11.6652 19.1761 12.3985 18.8991 12.425 18.8736L12.4819 18.8189H16.3484L15.7795 16.6536Z" fill="#2A7DB7"/>
<path d="M13.9929 14.6234C14.062 14.485 14.0059 14.3168 13.8676 14.2476C13.7293 14.1785 13.561 14.2345 13.4919 14.3729C13.3647 14.6261 13.1431 14.8381 12.8648 14.9885C12.5773 15.1439 12.2309 15.2321 11.8642 15.2321C11.513 15.2321 11.1805 15.1518 10.9011 15.0089C10.6295 14.87 10.4078 14.6722 10.2695 14.4328C10.1919 14.2987 10.0202 14.2529 9.8861 14.3306C9.75201 14.4083 9.70626 14.5799 9.78392 14.714C9.97659 15.0476 10.2791 15.3199 10.6462 15.5077C11.0054 15.6914 11.4262 15.7946 11.8642 15.7946C12.3241 15.7946 12.7627 15.6818 13.1306 15.4829C13.5076 15.2791 13.8119 14.9835 13.9929 14.6234Z" fill="#2A7DB7"/>
<path fill-rule="evenodd" clip-rule="evenodd" d="M6.91878 19.7367L7.25588 20.4486L6.97808 20.5801C6.8253 20.6525 6.6411 20.5867 6.56875 20.4339L6.49475 20.2776C6.42239 20.1248 6.4882 19.9406 6.64098 19.8683L6.91878 19.7367Z" stroke="#2A7DB7" stroke-width="31.9996" stroke-linecap="round" stroke-linejoin="round"/>
<path d="M11.4658 17.1195L13.4898 16.8277L13.4898 16.8274C13.5956 16.8121 13.6937 16.8855 13.709 16.9913C13.719 17.0606 13.6909 17.1267 13.6406 17.1682L12.1565 18.5941L12.0227 18.455L12.1567 18.5945C12.1328 18.6176 12.1033 18.6341 12.0711 18.6423L9.43411 19.5899L9.43438 19.5907C9.33571 19.6261 9.22716 19.5765 9.18894 19.4797L8.88783 18.8438L8.88744 18.844C8.84222 18.7485 8.88199 18.6346 8.9762 18.5879L11.3825 17.1469L11.3822 17.1463C11.4076 17.1311 11.4362 17.1219 11.4658 17.1195ZM12.9506 17.2958L11.5469 17.4982L9.31178 18.8366L9.46863 19.1679L11.9181 18.2877L12.9506 17.2958Z" fill="#2A7DB7"/>
<path d="M9.18017 18.5585C9.13468 18.4621 9.01958 18.4208 8.92312 18.4663C8.82668 18.5118 8.78538 18.6269 8.83088 18.7233L9.25122 19.611C9.29673 19.7074 9.41183 19.7487 9.50828 19.7032C9.60473 19.6577 9.64602 19.5426 9.6005 19.4461L9.18017 18.5585Z" fill="#2A7DB7"/>
<path d="M8.81756 18.7349C8.84287 19.0688 8.88213 19.1347 9.05594 19.4265C9.1195 19.5332 9.19922 19.667 9.30095 19.8496C9.37621 19.9846 9.38099 20.1153 9.34036 20.2292L9.16385 20.167L9.34045 20.2299L9.33815 20.236C9.30776 20.3174 9.25384 20.3871 9.18615 20.4412C9.12188 20.4925 9.0439 20.5298 8.96197 20.5486C8.82153 20.581 8.66712 20.5602 8.54335 20.4664C8.52804 20.4548 8.5085 20.4334 8.48675 20.4061L8.48618 20.4067C8.43827 20.4548 8.38083 20.4933 8.31877 20.52L8.31888 20.5203L8.31879 20.5203L8.31886 20.5204C8.31579 20.5218 8.3127 20.523 8.30961 20.5242C8.24946 20.5485 8.1854 20.5617 8.12052 20.5632C8.07611 20.5643 8.03172 20.5598 7.98859 20.5493C7.96639 20.588 7.93891 20.6235 7.90737 20.6551C7.85934 20.7033 7.80256 20.7419 7.74008 20.7687L7.66609 20.5966L7.74008 20.7689C7.73519 20.771 7.73027 20.7729 7.72531 20.7745C7.66678 20.7976 7.60462 20.8102 7.54171 20.8117C7.35853 20.816 7.17564 20.7267 7.08131 20.507C6.99364 20.3028 6.90704 20.1303 6.83003 19.977C6.65386 19.6263 6.52261 19.365 6.54417 19.0939C6.58156 18.6236 6.83867 18.3581 7.17017 18.2311C7.33361 18.1686 7.51511 18.1426 7.69509 18.144C7.87102 18.1453 8.04593 18.1729 8.20056 18.2178C8.54217 18.3171 8.80102 18.5165 8.81756 18.7349ZM8.73514 19.6184C8.52364 19.2634 8.47586 19.1832 8.44401 18.7627C8.43986 18.7077 8.29365 18.6339 8.09656 18.5767C7.97263 18.5407 7.83312 18.5186 7.69362 18.5175C7.55815 18.5165 7.42304 18.5355 7.30346 18.5812C7.09969 18.6593 6.94136 18.8256 6.91771 19.1232C6.90424 19.2928 7.01515 19.5137 7.16402 19.81C7.24571 19.9727 7.33761 20.1556 7.42553 20.3605C7.44952 20.4163 7.49243 20.4391 7.53438 20.4382C7.5504 20.4378 7.56728 20.4343 7.58404 20.428C7.58669 20.4268 7.58938 20.4255 7.59211 20.4244L7.59217 20.4245C7.61167 20.4161 7.62889 20.4049 7.64224 20.3915C7.67163 20.3619 7.68438 20.315 7.66012 20.2585L8.00434 20.112C8.02832 20.1679 8.07124 20.1907 8.11319 20.1897C8.12991 20.1893 8.14788 20.1853 8.16585 20.1781L8.17093 20.1759L8.2449 20.3482L8.17165 20.176C8.19034 20.168 8.20731 20.1568 8.22105 20.143C8.25045 20.1135 8.26321 20.0665 8.23894 20.01L8.58317 19.8635C8.59302 19.8865 8.64924 19.9799 8.70454 20.0658C8.74133 20.1228 8.7672 20.1663 8.76893 20.1676C8.79773 20.1894 8.83866 20.1931 8.87848 20.1839C8.90599 20.1776 8.93201 20.1652 8.95322 20.1482C8.96862 20.1359 8.98046 20.1215 8.98651 20.1062L8.98724 20.104L8.98731 20.104L8.98734 20.104L8.98755 20.1041C8.99386 20.0857 8.99101 20.0612 8.97431 20.0312C8.87635 19.8554 8.79777 19.7236 8.73513 19.6184L8.73514 19.6184ZM7.07043 7.59085L17.0755 8.56564C17.3966 7.99852 17.1988 7.66034 16.8284 7.41163C16.5736 7.24051 16.2323 7.0937 15.9009 6.95118C15.1304 6.6198 14.4054 6.30787 14.4648 5.60809C14.4651 5.59429 14.4664 5.58073 14.4686 5.56748C14.5115 5.11724 14.3311 4.68339 14.003 4.34433C13.6605 3.99031 13.1603 3.73899 12.5821 3.67273C12.5704 3.6722 12.5587 3.67093 12.5471 3.66894C11.9682 3.61042 11.4262 3.74887 11.0162 4.02119C10.6179 4.28577 10.3469 4.67732 10.2976 5.13297C10.2154 5.89327 9.42616 6.05893 8.59065 6.2343C8.31874 6.29137 8.04098 6.34968 7.79426 6.43053C7.28313 6.59801 6.90601 6.88807 7.07043 7.59085ZM17.1946 9.14046L6.84925 8.13253C6.73215 8.13123 6.62364 8.05629 6.58515 7.93881L6.85243 7.85123L6.58545 7.93803C6.16936 6.66829 6.77569 6.17349 7.62067 5.8966C7.89234 5.80757 8.18745 5.74561 8.47636 5.68498C9.10622 5.55279 9.70118 5.42787 9.73949 5.07365C9.80773 4.44289 10.1723 3.90798 10.7064 3.55316C11.2199 3.21203 11.8927 3.03811 12.6051 3.1107C12.6117 3.11096 12.6185 3.11143 12.6253 3.11215L12.6252 3.11278C13.3452 3.19077 13.9726 3.50624 14.4051 3.95321C14.8464 4.40925 15.0878 5.00145 15.027 5.62389C15.0268 5.63087 15.0263 5.63788 15.0255 5.64491L15.0249 5.64484C14.9927 5.94876 15.5404 6.18434 16.1228 6.43483C16.4745 6.58609 16.8368 6.74191 17.1404 6.9458C17.7985 7.38763 18.1372 7.98545 17.4687 8.99634C17.4163 9.09222 17.3102 9.15268 17.1945 9.14141L17.1946 9.14046Z" fill="#2A7DB7"/>
<path d="M11.5116 5.85236C11.4089 5.83983 11.3154 5.91294 11.3029 6.01569C11.2904 6.11844 11.3635 6.2119 11.4662 6.22443L12.7641 6.38413C12.8668 6.39666 12.9603 6.32354 12.9728 6.22079C12.9853 6.11804 12.9122 6.02458 12.8095 6.01206L11.5116 5.85235V5.85236Z" fill="#2A7DB7"/>
<path d="M11.872 6.74446C11.8594 6.8472 11.9325 6.94066 12.0353 6.95319C12.138 6.96573 12.2315 6.89261 12.244 6.78986L12.4037 5.49204C12.4163 5.3893 12.3431 5.29583 12.2404 5.28331C12.1376 5.27077 12.0442 5.34389 12.0317 5.44664L11.872 6.74446ZM8.73118 9.22964C8.63248 9.1989 8.52753 9.25399 8.4968 9.35269C8.46605 9.45138 8.52114 9.55634 8.61985 9.58706C10.1784 10.0777 11.8316 9.59665 13.3289 9.16091C13.7819 9.0291 14.2202 8.90153 14.6351 8.80778C14.7358 8.78514 14.7991 8.68511 14.7765 8.58439C14.7538 8.4837 14.6538 8.42039 14.5531 8.44304C14.1301 8.53862 13.6849 8.66818 13.2249 8.80204C11.7796 9.22262 10.184 9.68697 8.73118 9.22964Z" fill="#2A7DB7"/>
<path d="M10.8527 8.86143C11.0552 8.86143 11.2387 8.94354 11.3715 9.07633L11.3715 9.07629C11.3814 9.08623 11.3907 9.0966 11.3993 9.1073C11.5156 9.23705 11.5863 9.408 11.5863 9.59503C11.5863 9.79651 11.5042 9.97945 11.3715 10.1122L11.3715 10.1137C11.3616 10.1237 11.3512 10.133 11.3405 10.1416C11.2107 10.2579 11.0397 10.3286 10.8527 10.3286C10.6512 10.3286 10.4683 10.2465 10.3356 10.1137L10.334 10.1138L10.3302 10.1099C10.1997 9.97744 10.1191 9.79559 10.1191 9.59503C10.1191 9.3925 10.2013 9.20909 10.334 9.07633C10.4668 8.94355 10.6502 8.86143 10.8527 8.86143Z" fill="#2A7DB7"/>
</g>
<defs>
<clipPath id="clip0_11_167">
<rect width="24" height="24" fill="white"/>
</clipPath>
</defs>
</svg>
