<svg width="24" height="24" viewBox="0 0 24 24" fill="none" xmlns="http://www.w3.org/2000/svg">
<path d="M18.0632 7.3324C18.0335 7.28603 17.9926 7.24787 17.9443 7.22143C17.896 7.19499 17.8418 7.18112 17.7868 7.18109H6.21316C6.1581 7.18112 6.10393 7.19499 6.05563 7.22143C6.00734 7.24787 5.96647 7.28603 5.93678 7.3324L5.25578 8.39665C5.01455 8.1133 4.88214 7.75329 4.88228 7.38115C4.88228 7.29413 4.84771 7.21067 4.78618 7.14914C4.72464 7.0876 4.64118 7.05303 4.55416 7.05303C4.46713 7.05303 4.38367 7.0876 4.32214 7.14914C4.2606 7.21067 4.22603 7.29413 4.22603 7.38115C4.22568 7.79842 4.05977 8.19849 3.76472 8.49354C3.46968 8.78858 3.06961 8.95449 2.65234 8.95484C2.56532 8.95484 2.48186 8.98941 2.42032 9.05095C2.35879 9.11248 2.32422 9.19594 2.32422 9.28297C2.32422 9.36999 2.35879 9.45345 2.42032 9.51499C2.48186 9.57652 2.56532 9.61109 2.65234 9.61109C2.92218 9.61143 3.18738 9.68118 3.42247 9.81365C3.65755 9.94611 3.85459 10.1368 3.99466 10.3675L3.04328 11.8538C3.00405 11.9151 2.98634 11.9877 2.99292 12.0603C2.99951 12.1328 3.03002 12.201 3.07966 12.2543L11.7609 21.5712C11.7916 21.6042 11.8287 21.6305 11.87 21.6485C11.9113 21.6665 11.9559 21.6758 12.0009 21.6758C12.046 21.6758 12.0905 21.6665 12.1318 21.6485C12.1731 21.6305 12.2102 21.6042 12.2409 21.5712L15.75 17.8041C15.9925 18.0096 16.1875 18.2655 16.3212 18.5539C16.4549 18.8423 16.5242 19.1564 16.5243 19.4743C16.5243 19.5614 16.5589 19.6448 16.6205 19.7064C16.682 19.7679 16.7654 19.8025 16.8525 19.8025C16.9395 19.8025 17.023 19.7679 17.0845 19.7064C17.146 19.6448 17.1806 19.5614 17.1806 19.4743C17.1813 18.8924 17.4128 18.3346 17.8242 17.9231C18.2357 17.5116 18.7936 17.2802 19.3755 17.2795C19.4625 17.2795 19.546 17.2449 19.6075 17.1834C19.669 17.1218 19.7036 17.0384 19.7036 16.9513C19.7036 16.8643 19.669 16.7809 19.6075 16.7193C19.546 16.6578 19.4625 16.6232 19.3755 16.6232C19.041 16.623 18.711 16.5461 18.4108 16.3985C18.1106 16.2509 17.8482 16.0365 17.6437 15.7718L20.9207 12.2543C20.9703 12.201 21.0008 12.1328 21.0074 12.0603C21.014 11.9877 20.9963 11.9151 20.957 11.8538L18.0632 7.3324ZM20.0812 11.7027H15.4929L17.7868 8.11878L20.0812 11.7027ZM9.10703 11.4214L6.81259 7.83753H11.4L9.10703 11.4214ZM12 8.11878L14.2938 11.7027H9.70609L12 8.11878ZM8.86497 12.3589L11.2605 20.0725L4.07397 12.3589H8.86497ZM9.55197 12.3589H14.448L12 20.2414L9.55197 12.3589ZM14.8935 11.4214L12.6 7.83753H17.1873L14.8935 11.4214ZM6.21316 8.11878L8.50703 11.7027H3.91872L4.22884 11.218C4.23688 11.3018 4.27697 11.3794 4.34075 11.4344C4.40453 11.4895 4.4871 11.5178 4.57124 11.5135C4.65539 11.5092 4.73463 11.4726 4.79247 11.4113C4.8503 11.3501 4.88227 11.2688 4.88172 11.1846C4.88212 10.7674 5.04805 10.3673 5.34309 10.0723C5.63813 9.77732 6.03818 9.61144 6.45541 9.61109C6.54243 9.61109 6.62589 9.57652 6.68743 9.51499C6.74896 9.45345 6.78353 9.36999 6.78353 9.28297C6.78353 9.19594 6.74896 9.11248 6.68743 9.05095C6.62589 8.98941 6.54243 8.95484 6.45541 8.95484C6.22036 8.95463 5.98839 8.9013 5.77684 8.79884L6.21316 8.11878ZM4.55416 8.5444C4.70155 8.78288 4.89234 8.99162 5.11666 9.15978C5.12529 9.16736 5.1343 9.17449 5.14366 9.18115C5.14778 9.18378 5.15247 9.18528 5.15678 9.18772C5.20159 9.22015 5.24566 9.2539 5.29309 9.28297C4.9923 9.46763 4.73927 9.7206 4.55453 10.0213C4.3698 9.72065 4.11685 9.46769 3.81616 9.28297C4.11676 9.09818 4.3696 8.84515 4.55416 8.5444ZM18.0482 16.9513C17.5385 17.2208 17.1218 17.6375 16.8523 18.1472C16.6301 17.7283 16.3076 17.371 15.9135 17.1073C15.9 17.0963 15.8856 17.0864 15.8703 17.0779C15.8008 17.0329 15.7299 16.9902 15.6564 16.9513C16.1661 16.6819 16.5829 16.2652 16.8523 15.7555C16.8738 15.7963 16.8978 15.8353 16.9213 15.8749C16.9308 15.8965 16.9426 15.917 16.9565 15.936C17.2246 16.3648 17.6012 16.715 18.0482 16.9513ZM17.1804 14.4285C17.1804 14.3415 17.1458 14.258 17.0843 14.1965C17.0228 14.135 16.9393 14.1004 16.8523 14.1004C16.7653 14.1004 16.6818 14.135 16.6203 14.1965C16.5587 14.258 16.5242 14.3415 16.5242 14.4285C16.5232 15.0103 16.2916 15.5679 15.8802 15.9791C15.4687 16.3903 14.911 16.6216 14.3293 16.6223C14.2423 16.6223 14.1588 16.6568 14.0973 16.7184C14.0357 16.7799 14.0012 16.8634 14.0012 16.9504C14.0012 17.0374 14.0357 17.1209 14.0973 17.1824C14.1588 17.244 14.2423 17.2785 14.3293 17.2785C14.622 17.2782 14.9117 17.3368 15.1813 17.4508L12.7395 20.0725L15.135 12.3589H19.926L17.3107 15.1662C17.225 14.9296 17.1809 14.6801 17.1804 14.4285ZM12 5.3839C12.0431 5.38393 12.0857 5.37546 12.1256 5.35898C12.1654 5.3425 12.2016 5.31833 12.232 5.28785C12.2625 5.25738 12.2867 5.2212 12.3032 5.18138C12.3196 5.14156 12.3281 5.09888 12.3281 5.05578V2.6524C12.3281 2.56538 12.2935 2.48192 12.232 2.42039C12.1705 2.35885 12.087 2.32428 12 2.32428C11.9129 2.32428 11.8295 2.35885 11.768 2.42039C11.7064 2.48192 11.6718 2.56538 11.6718 2.6524V5.05578C11.6718 5.09888 11.6803 5.14156 11.6968 5.18138C11.7133 5.2212 11.7374 5.25738 11.7679 5.28785C11.7984 5.31833 11.8346 5.3425 11.8744 5.35898C11.9142 5.37546 11.9569 5.38393 12 5.3839ZM9.43872 5.78553C9.50023 5.84704 9.58366 5.8816 9.67066 5.8816C9.75765 5.8816 9.84108 5.84704 9.90259 5.78553C9.96411 5.72402 9.99867 5.64059 9.99867 5.55359C9.99867 5.4666 9.96411 5.38317 9.90259 5.32165L8.20328 3.62215C8.17302 3.59081 8.13682 3.5658 8.09679 3.5486C8.05676 3.5314 8.0137 3.52233 7.97014 3.52195C7.92657 3.52156 7.88336 3.52985 7.84303 3.54634C7.8027 3.56283 7.76606 3.58719 7.73525 3.61799C7.70443 3.6488 7.68006 3.68543 7.66355 3.72575C7.64705 3.76607 7.63874 3.80928 7.63911 3.85284C7.63948 3.89641 7.64852 3.93947 7.66571 3.97951C7.6829 4.01954 7.70789 4.05575 7.73922 4.08603L9.43872 5.78553ZM14.3293 5.88172C14.3724 5.88177 14.4151 5.87329 14.4549 5.85679C14.4947 5.84028 14.5308 5.81606 14.5612 5.78553L16.2607 4.08603C16.2921 4.05575 16.317 4.01954 16.3342 3.97951C16.3514 3.93947 16.3605 3.89641 16.3608 3.85284C16.3612 3.80928 16.3529 3.76607 16.3364 3.72575C16.3199 3.68543 16.2955 3.6488 16.2647 3.61799C16.2339 3.58719 16.1972 3.56283 16.1569 3.54634C16.1166 3.52985 16.0734 3.52156 16.0298 3.52195C15.9862 3.52233 15.9432 3.5314 15.9031 3.5486C15.8631 3.5658 15.8269 3.59081 15.7967 3.62215L14.0973 5.32165C14.0515 5.36754 14.0203 5.42599 14.0076 5.48962C13.995 5.55325 14.0015 5.6192 14.0263 5.67914C14.0511 5.73907 14.0931 5.79031 14.1471 5.82637C14.201 5.86242 14.2644 5.88168 14.3293 5.88172ZM21.3438 5.22547C21.0176 5.22512 20.7047 5.09533 20.474 4.86459C20.2433 4.63385 20.1136 4.32101 20.1133 3.99472C20.1133 3.90769 20.0787 3.82423 20.0172 3.7627C19.9556 3.70116 19.8722 3.66659 19.7852 3.66659C19.6981 3.66659 19.6147 3.70116 19.5531 3.7627C19.4916 3.82423 19.457 3.90769 19.457 3.99472C19.4566 4.32104 19.3268 4.63389 19.096 4.86462C18.8653 5.09535 18.5524 5.22512 18.2261 5.22547C18.1391 5.22547 18.0556 5.26004 17.9941 5.32157C17.9325 5.38311 17.898 5.46657 17.898 5.55359C17.898 5.64062 17.9325 5.72408 17.9941 5.78561C18.0556 5.84715 18.1391 5.88172 18.2261 5.88172C18.5524 5.88206 18.8653 6.01184 19.096 6.24257C19.3268 6.4733 19.4566 6.78614 19.457 7.11247C19.457 7.19949 19.4916 7.28295 19.5531 7.34449C19.6147 7.40602 19.6981 7.44059 19.7852 7.44059C19.8722 7.44059 19.9556 7.40602 20.0172 7.34449C20.0787 7.28295 20.1133 7.19949 20.1133 7.11247C20.1136 6.78618 20.2433 6.47333 20.474 6.24259C20.7047 6.01185 21.0176 5.88206 21.3438 5.88172C21.4309 5.88172 21.5143 5.84715 21.5759 5.78561C21.6374 5.72408 21.672 5.64062 21.672 5.55359C21.672 5.46657 21.6374 5.38311 21.5759 5.32157C21.5143 5.26004 21.4309 5.22547 21.3438 5.22547ZM19.7852 6.05047C19.6519 5.8555 19.4834 5.68706 19.2885 5.55378C19.4834 5.42057 19.6519 5.25219 19.7852 5.05728C19.9183 5.25223 20.0867 5.42061 20.2817 5.55378C20.0867 5.68696 19.9183 5.85553 19.7852 6.05047Z" fill="#2A7DB7"/>
</svg>
