<svg width="24" height="24" viewBox="0 0 24 24" fill="none" xmlns="http://www.w3.org/2000/svg">
<g clip-path="url(#clip0_11_150)">
<path d="M11.4154 3.69505C11.2625 3.72112 11.1597 3.86626 11.1858 4.01915C11.2119 4.17205 11.357 4.27486 11.5099 4.24877C12.4274 4.09124 13.322 4.32049 14.0265 4.81854C14.7304 5.3161 15.2445 6.08244 15.402 6.99957C15.5595 7.91708 15.3303 8.81165 14.8323 9.5162C14.3347 10.22 13.5684 10.7342 12.6512 10.8917C11.7337 11.0492 10.8391 10.8199 10.1346 10.3219C9.43072 9.82433 8.91658 9.05799 8.75911 8.14086C8.64044 7.44969 8.74121 6.77158 9.011 6.17791C9.28867 5.5669 9.74552 5.04529 10.3264 4.69111C10.4587 4.61041 10.5005 4.43775 10.4198 4.30549C10.3391 4.17322 10.1664 4.13141 10.0342 4.21209C9.35625 4.62545 8.82308 5.23416 8.49906 5.94722C8.18455 6.63927 8.06707 7.42973 8.20538 8.23535C8.38915 9.30548 8.98953 10.2 9.8116 10.7811C10.633 11.3618 11.676 11.6291 12.7457 11.4454C13.8158 11.2616 14.7103 10.6613 15.2915 9.83919C15.8721 9.01778 16.1394 7.97482 15.9557 6.90509C15.772 5.83496 15.1716 4.94045 14.3495 4.35931C13.5281 3.77867 12.4852 3.51137 11.4154 3.69506V3.69505Z" fill="#2A7DB7"/>
<path d="M11.0126 6.10817C11.0691 5.96377 10.9978 5.80094 10.8534 5.74453C10.7089 5.68811 10.5461 5.75941 10.4897 5.90382C10.3178 6.34409 10.0579 6.73779 9.73127 7.06371C9.40374 7.39051 9.00942 7.64983 8.56958 7.82045C8.42517 7.87627 8.35337 8.0386 8.40919 8.183C8.465 8.32741 8.62733 8.39921 8.77174 8.3434C9.27967 8.14649 9.74111 7.84614 10.1268 7.46141C10.5089 7.0801 10.8125 6.62075 11.0126 6.10817Z" fill="#2A7DB7"/>
<path d="M15.698 6.98534C15.8321 6.90768 15.8778 6.73601 15.8002 6.60191C15.7225 6.46783 15.5508 6.42208 15.4167 6.49974C15.2442 6.5997 15.063 6.68415 14.8755 6.75209C14.6899 6.81931 14.4968 6.87037 14.2987 6.90438C13.3811 7.06192 12.4866 6.83267 11.782 6.33462C11.0782 5.83705 10.564 5.07072 10.4066 4.15358C10.3751 3.97012 10.3586 3.78797 10.3573 3.60904C10.3559 3.42574 10.3695 3.24263 10.3978 3.06153C10.4214 2.90862 10.3166 2.76546 10.1637 2.74181C10.0108 2.71815 9.86769 2.82291 9.84403 2.97583C9.81115 3.186 9.79542 3.3985 9.79698 3.61122C9.79859 3.82762 9.81723 4.04064 9.85283 4.24806C10.0366 5.31819 10.637 6.21272 11.459 6.79384C12.2804 7.37449 13.3234 7.64179 14.3931 7.45811C14.6215 7.4189 14.847 7.35899 15.0667 7.27943C15.2854 7.20027 15.4967 7.10185 15.698 6.98534Z" fill="#2A7DB7"/>
<path d="M11.3015 4.24352C11.4525 4.2787 11.6036 4.18476 11.6387 4.03369C11.6739 3.88261 11.58 3.73158 11.4289 3.6964C11.2348 3.65051 11.0006 3.53122 10.7924 3.37422C10.605 3.23289 10.4459 3.06679 10.3674 2.90482C10.3 2.76528 10.1323 2.70674 9.99273 2.77409C9.85318 2.84145 9.79465 3.00918 9.86201 3.14874C9.98196 3.39604 10.2022 3.63257 10.454 3.82247C10.7215 4.02425 11.0333 4.18009 11.3015 4.24353V4.24352ZM5.93849 15.4936C5.9962 15.5204 6.04381 15.5437 6.08262 15.5627C6.14963 15.5955 6.18041 15.6106 6.20442 15.6134C6.23347 15.6167 6.28412 15.613 6.37764 15.606V15.606V15.6057C6.38047 15.6055 6.38331 15.6054 6.38613 15.6053C6.48059 15.5983 6.61486 15.5885 6.83575 15.5795C7.06914 15.5701 7.2178 15.6991 7.2869 15.8745C7.31562 15.9475 7.32861 16.0291 7.32634 16.1107C7.32411 16.1914 7.30711 16.2722 7.27589 16.3444C7.25358 16.3961 7.22463 16.4442 7.18914 16.4862C7.22094 16.5334 7.24484 16.5861 7.26094 16.6416C7.28051 16.7095 7.28807 16.7802 7.28327 16.8506C7.27841 16.9213 7.26137 16.9915 7.23253 17.0554C7.21092 17.1033 7.18324 17.1478 7.14961 17.1869C7.1802 17.2332 7.20326 17.2846 7.21894 17.3386C7.23851 17.4065 7.24607 17.4772 7.24127 17.5476C7.23642 17.6183 7.21938 17.6885 7.19053 17.7524C7.11024 17.9305 6.94599 18.0615 6.70392 18.0441C6.47474 18.0276 6.26001 18.0385 6.06986 18.0482C5.6422 18.07 5.31829 18.0865 5.12487 17.8149C4.66581 17.1703 4.76729 16.4636 5.01438 15.9917C5.08594 15.8551 5.16975 15.7375 5.25588 15.6462C5.35034 15.546 5.45173 15.4732 5.5487 15.4355C5.69596 15.3784 5.83273 15.3925 5.93849 15.4936ZM5.91854 15.8981C5.86746 15.873 5.81604 15.8485 5.7643 15.8247C5.73239 15.8133 5.70418 15.7935 5.68269 15.7673L5.82747 15.6482L5.6832 15.7668C5.6758 15.7578 5.69008 15.7816 5.68345 15.7842C5.63866 15.8015 5.58496 15.8425 5.52832 15.9025C5.46336 15.9714 5.39991 16.0605 5.34543 16.1646C5.15059 16.5367 5.0698 17.0929 5.42957 17.5981C5.50393 17.7025 5.73965 17.6905 6.05081 17.6747C6.25344 17.6644 6.48226 17.6528 6.73028 17.6706C6.78927 17.6748 6.82947 17.6425 6.84925 17.5986C6.85968 17.5755 6.86591 17.5495 6.86774 17.5227C6.86966 17.4945 6.86715 17.4671 6.86006 17.4426C6.84559 17.3927 6.80799 17.3516 6.74591 17.3471L6.77225 16.9736C6.83126 16.9778 6.87145 16.9455 6.89124 16.9017C6.90167 16.8785 6.9079 16.8525 6.90973 16.8257C6.91165 16.7975 6.90914 16.7701 6.90206 16.7456C6.88758 16.6957 6.85 16.6545 6.78792 16.6501L6.81427 16.2765C6.87099 16.2806 6.91097 16.2444 6.93166 16.1965C6.9447 16.1661 6.95187 16.1335 6.95281 16.1004C6.95367 16.0688 6.9489 16.0377 6.93827 16.0107C6.92477 15.9765 6.89579 15.9512 6.85038 15.9531C6.65739 15.9609 6.51519 15.9713 6.41429 15.9788C6.41136 15.9792 6.40842 15.9795 6.40546 15.9797L6.39155 15.7927L6.40472 15.9795C6.2885 15.9881 6.22563 15.9928 6.16193 15.9854C6.07662 15.9755 6.02684 15.9512 5.91854 15.8981ZM18.2358 15.8247C18.1841 15.8484 18.1326 15.8729 18.0816 15.8981C17.9733 15.9511 17.9235 15.9755 17.8382 15.9854C17.7745 15.9928 17.7116 15.9881 17.5954 15.9794L17.6085 15.7927L17.5946 15.9797C17.5917 15.9794 17.5887 15.9791 17.5858 15.9788C17.4849 15.9713 17.3427 15.9608 17.1497 15.953C17.1043 15.9512 17.0753 15.9764 17.0618 16.0107C17.0512 16.0377 17.0464 16.0687 17.0473 16.1004C17.0482 16.1334 17.0554 16.166 17.0684 16.1964C17.0891 16.2443 17.1291 16.2805 17.1858 16.2765L17.2122 16.65C17.1501 16.6545 17.1125 16.6956 17.098 16.7456C17.0909 16.77 17.0884 16.7975 17.0904 16.8257C17.0922 16.8524 17.0984 16.8784 17.1089 16.9016C17.1286 16.9454 17.1688 16.9777 17.2278 16.9735L17.2542 17.347C17.1921 17.3515 17.1545 17.3926 17.14 17.4426C17.1329 17.467 17.1304 17.4945 17.1324 17.5226C17.1342 17.5494 17.1404 17.5754 17.1508 17.5986C17.1706 17.6424 17.2108 17.6747 17.2698 17.6705C17.5178 17.6527 17.7467 17.6643 17.9493 17.6746C18.2604 17.6905 18.4962 17.7025 18.5705 17.598C18.9303 17.0928 18.8495 16.5366 18.6547 16.1645C18.6002 16.0605 18.5367 15.9713 18.4718 15.9025C18.4151 15.8424 18.3614 15.8015 18.3166 15.7841C18.31 15.7815 18.3243 15.7578 18.3169 15.7667L18.1726 15.6481L18.3174 15.7673C18.2959 15.7934 18.2677 15.8133 18.2358 15.8247ZM17.9175 15.5626C17.9563 15.5436 18.0039 15.5203 18.0616 15.4936C18.1674 15.3925 18.3041 15.3783 18.4514 15.4355C18.5484 15.4731 18.6498 15.546 18.7442 15.6461C18.8303 15.7375 18.9142 15.855 18.9857 15.9917C19.2328 16.4635 19.3343 17.1702 18.8752 17.8148C18.6818 18.0864 18.3579 18.0699 17.9302 18.0482C17.7401 18.0385 17.5254 18.0276 17.2962 18.044C17.0541 18.0614 16.8899 17.9304 16.8096 17.7524C16.7807 17.6884 16.7637 17.6183 16.7588 17.5476C16.754 17.4771 16.7616 17.4064 16.7812 17.3386C16.7968 17.2845 16.8199 17.2331 16.8505 17.1869C16.8169 17.1478 16.7892 17.1033 16.7676 17.0554C16.7387 16.9915 16.7217 16.9213 16.7168 16.8506C16.712 16.7801 16.7196 16.7094 16.7392 16.6416C16.7553 16.586 16.7792 16.5334 16.811 16.4862C16.7755 16.4441 16.7465 16.396 16.7242 16.3444C16.693 16.2721 16.676 16.1913 16.6737 16.1106C16.6715 16.0291 16.6845 15.9475 16.7132 15.8745C16.7823 15.699 16.931 15.57 17.1643 15.5795C17.3852 15.5884 17.5195 15.5982 17.614 15.6053C17.6168 15.6053 17.6196 15.6055 17.6225 15.6057L17.6224 15.6059V15.606C17.716 15.6129 17.7666 15.6167 17.7957 15.6133C17.8197 15.6105 17.8505 15.5954 17.9175 15.5626ZM15.5094 14.0466C15.2693 13.7072 14.9353 13.4125 14.5388 13.1743C13.8311 12.7492 12.9291 12.5058 12.0016 12.5058C11.0688 12.5058 10.1673 12.7539 9.45979 13.1846C9.06997 13.4219 8.74035 13.7137 8.49955 14.0483C8.28692 14.0054 8.07319 13.968 7.85858 13.9363C8.1551 13.4332 8.60324 13.0049 9.14788 12.6733C9.94822 12.1861 10.9606 11.9054 12.0016 11.9054C13.0351 11.9054 14.0464 12.1804 14.846 12.6608C15.4001 12.9936 15.8543 13.4256 16.1489 13.9352C15.9348 13.9667 15.7216 14.0038 15.5094 14.0466Z" fill="#2A7DB7"/>
<path d="M14.0874 12.7621C14.1566 12.6237 14.1005 12.4555 13.9622 12.3863C13.8238 12.3172 13.6556 12.3732 13.5864 12.5116C13.4609 12.7614 13.2423 12.9706 12.9675 13.1192C12.6836 13.2726 12.3415 13.3597 11.9794 13.3597C11.6325 13.3597 11.3041 13.2804 11.0282 13.1392C10.7601 13.0021 10.5413 12.8069 10.4048 12.5707C10.3271 12.4366 10.1555 12.3908 10.0214 12.4685C9.88727 12.5461 9.84153 12.7178 9.91919 12.8519C10.11 13.1823 10.4097 13.452 10.7733 13.638C11.129 13.82 11.5456 13.9222 11.9794 13.9222C12.4347 13.9222 12.869 13.8105 13.2333 13.6135C13.6068 13.4117 13.9082 13.1188 14.0874 12.7621ZM5.97095 15.6485C5.97095 15.8071 6.0995 15.9356 6.25808 15.9356C6.41663 15.9356 6.54521 15.8071 6.54521 15.6485V14.777C7.3979 14.8038 8.29644 14.948 9.16735 15.1918C10.0744 15.4456 10.9505 15.8066 11.7129 16.2542V20.174C11.1434 19.822 10.1813 19.3777 9.52957 19.24C8.54044 18.9652 7.51335 18.8417 6.54521 18.8216V17.9583C6.54521 17.7997 6.41665 17.6712 6.25808 17.6712C6.0995 17.6712 5.97095 17.7997 5.97095 17.9583V19.1058C5.97095 19.2644 6.0995 19.3929 6.25808 19.3929C7.26442 19.3929 8.34582 19.5058 9.3764 19.7923C9.38182 19.7942 9.38728 19.7959 9.39286 19.7974L9.39398 19.7969C10.2617 20.0397 11.0943 20.4063 11.8158 20.933C11.8674 20.9764 11.9327 21.0001 12.0001 21C12.1587 21 12.2872 20.8715 12.2872 20.7129V16.0956C12.2882 15.9979 12.2394 15.9022 12.15 15.8475L12.0001 16.0924L12.1493 15.8479C11.3098 15.3339 10.3329 14.9228 9.32217 14.6399C8.301 14.3541 7.24407 14.1981 6.25809 14.1981C6.09951 14.1981 5.97096 14.3267 5.97096 14.4853L5.97095 15.6485Z" fill="#2A7DB7"/>
<path d="M17.4549 15.6642C17.4549 15.8228 17.5835 15.9514 17.742 15.9514C17.9006 15.9514 18.0292 15.8228 18.0292 15.6642V14.4853C18.0292 14.3267 17.9006 14.1982 17.742 14.1982C16.756 14.1982 15.6991 14.3541 14.6779 14.64C13.6672 14.9229 12.6903 15.334 11.8509 15.8479L12 16.0924L11.8501 15.8475C11.7608 15.9022 11.7119 15.998 11.7129 16.0956V20.7129C11.7129 20.8715 11.8415 21 12 21C12.0702 21 12.1345 20.9748 12.1844 20.9331C12.9058 20.4063 13.7384 20.0397 14.6061 19.7969L14.6072 19.7975C14.6128 19.7959 14.6183 19.7942 14.6237 19.7923C15.6543 19.5059 16.7357 19.3929 17.742 19.3929C17.9006 19.3929 18.0292 19.2644 18.0292 19.1058V17.9895C18.0292 17.8309 17.9006 17.7024 17.742 17.7024C17.5835 17.7024 17.4549 17.8309 17.4549 17.9895V18.8217C16.4868 18.8417 15.4597 18.9652 14.4706 19.24C13.8188 19.3777 12.8567 19.822 12.2872 20.1741V16.2543C13.0496 15.8066 13.9257 15.4456 14.8328 15.1918C15.7037 14.948 16.6022 14.8038 17.4549 14.777L17.4549 15.6642Z" fill="#2A7DB7"/>
</g>
<defs>
<clipPath id="clip0_11_150">
<rect width="24" height="24" fill="white"/>
</clipPath>
</defs>
</svg>
