<svg width="24" height="24" viewBox="0 0 24 24" fill="none" xmlns="http://www.w3.org/2000/svg">
<path d="M21.8906 4.04813C21.89 3.53412 21.6856 3.04134 21.3221 2.67788C20.9587 2.31442 20.4659 2.10997 19.9519 2.10938H4.59787C3.93748 2.11185 3.30494 2.37576 2.83859 2.84336C2.37225 3.31097 2.11006 3.94422 2.10938 4.60463V21.5625C2.10938 21.6495 2.14395 21.733 2.20548 21.7945C2.26702 21.8561 2.35048 21.8906 2.4375 21.8906H19.9519C20.0389 21.8906 20.1224 21.8561 20.1839 21.7945C20.2454 21.733 20.28 21.6495 20.28 21.5625V5.95706C20.7302 5.87941 21.1386 5.64537 21.4333 5.29617C21.7279 4.94697 21.8899 4.50501 21.8906 4.04813ZM2.76562 21.2344V4.60463C2.76617 4.11732 2.95989 3.65011 3.30433 3.30539C3.64876 2.96067 4.11582 2.76657 4.60312 2.76562C4.94326 2.76585 5.26939 2.90118 5.50974 3.14186C5.7501 3.38253 5.885 3.70883 5.88478 4.04897C5.88456 4.38911 5.74922 4.71523 5.50855 4.95559C5.26788 5.19594 4.94158 5.33085 4.60144 5.33063C4.51441 5.33063 4.43095 5.3652 4.36942 5.42673C4.30788 5.48827 4.27331 5.57173 4.27331 5.65875C4.27331 5.74577 4.30788 5.82923 4.36942 5.89077C4.43095 5.9523 4.51441 5.98688 4.60144 5.98688H19.6239V21.2344H2.76562ZM19.9524 5.33063H6.054C6.36715 4.97676 6.54002 4.52056 6.54002 4.04803C6.54002 3.5755 6.36715 3.1193 6.054 2.76544H19.9519C20.292 2.76544 20.6182 2.90056 20.8587 3.14107C21.0993 3.38159 21.2344 3.7078 21.2344 4.04794C21.2344 4.38808 21.0993 4.71429 20.8587 4.9548C20.6182 5.19532 20.292 5.33044 19.9519 5.33044L19.9524 5.33063Z" fill="#2A7DB7"/>
<path d="M4.55625 10.4336C4.61715 10.4337 4.67684 10.4166 4.72856 10.3845L4.98938 10.2231V12.8867C4.98938 12.9737 5.02395 13.0572 5.08548 13.1187C5.14702 13.1802 5.23048 13.2148 5.3175 13.2148H9.31725C9.40427 13.2148 9.48773 13.1802 9.54927 13.1187C9.6108 13.0572 9.64538 12.9737 9.64538 12.8867V10.2229L9.90637 10.3843C9.94302 10.4073 9.98385 10.4228 10.0265 10.43C10.0692 10.4371 10.1128 10.4358 10.155 10.426C10.1971 10.4162 10.2369 10.3982 10.272 10.373C10.3072 10.3478 10.337 10.3158 10.3598 10.2791C10.3825 10.2423 10.3978 10.2014 10.4047 10.1587C10.4116 10.1159 10.41 10.0723 10.3999 10.0302C10.3899 9.98814 10.3716 9.94846 10.3462 9.91347C10.3208 9.87848 10.2887 9.84886 10.2517 9.82632L7.49044 8.11725C7.43858 8.0851 7.37877 8.06807 7.31775 8.06807C7.25673 8.06807 7.19692 8.0851 7.14506 8.11725L4.38412 9.8265C4.32341 9.86408 4.27662 9.92044 4.25084 9.98703C4.22505 10.0536 4.2217 10.1268 4.24127 10.1955C4.26084 10.2641 4.30228 10.3245 4.35929 10.3675C4.41631 10.4105 4.48579 10.4337 4.55719 10.4336H4.55625ZM7.317 8.78213L8.98837 9.81675V12.5586H5.64638V9.81675L7.317 8.78213ZM18.5625 17.1259H3.75C3.66298 17.1259 3.57952 17.1604 3.51798 17.222C3.45645 17.2835 3.42188 17.367 3.42188 17.454V20.0603C3.42188 20.1473 3.45645 20.2307 3.51798 20.2923C3.57952 20.3538 3.66298 20.3884 3.75 20.3884H18.5625C18.6495 20.3884 18.733 20.3538 18.7945 20.2923C18.8561 20.2307 18.8906 20.1473 18.8906 20.0603V17.454C18.8906 17.367 18.8561 17.2835 18.7945 17.222C18.733 17.1604 18.6495 17.1259 18.5625 17.1259ZM18.2344 19.7321H16.7781V18.6576C16.7781 18.5705 16.7435 18.4871 16.682 18.4255C16.6204 18.364 16.537 18.3294 16.4499 18.3294C16.3629 18.3294 16.2795 18.364 16.2179 18.4255C16.1564 18.4871 16.1218 18.5705 16.1218 18.6576V19.7321H15.0135V19.083C15.0135 18.996 14.9789 18.9125 14.9174 18.851C14.8559 18.7894 14.7724 18.7549 14.6854 18.7549C14.5984 18.7549 14.5149 18.7894 14.4534 18.851C14.3918 18.9125 14.3573 18.996 14.3573 19.083V19.7321H13.2489V18.6576C13.2489 18.5705 13.2144 18.4871 13.1528 18.4255C13.0913 18.364 13.0078 18.3294 12.9208 18.3294C12.8338 18.3294 12.7503 18.364 12.6888 18.4255C12.6273 18.4871 12.5927 18.5705 12.5927 18.6576V19.7321H11.4844V19.083C11.4844 18.996 11.4498 18.9125 11.3883 18.851C11.3267 18.7894 11.2433 18.7549 11.1562 18.7549C11.0692 18.7549 10.9858 18.7894 10.9242 18.851C10.8627 18.9125 10.8281 18.996 10.8281 19.083V19.7321H9.71981V18.6576C9.71981 18.5705 9.68524 18.4871 9.62371 18.4255C9.56217 18.364 9.47871 18.3294 9.39169 18.3294C9.30466 18.3294 9.2212 18.364 9.15967 18.4255C9.09813 18.4871 9.06356 18.5705 9.06356 18.6576V19.7321H7.95525V19.083C7.95525 18.996 7.92068 18.9125 7.85914 18.851C7.79761 18.7894 7.71415 18.7549 7.62713 18.7549C7.5401 18.7549 7.45664 18.7894 7.39511 18.851C7.33357 18.9125 7.299 18.996 7.299 19.083V19.7321H6.19069V18.6576C6.19069 18.5705 6.15612 18.4871 6.09458 18.4255C6.03305 18.364 5.94959 18.3294 5.86256 18.3294C5.77554 18.3294 5.69208 18.364 5.63054 18.4255C5.56901 18.4871 5.53444 18.5705 5.53444 18.6576V19.7321H4.07812V17.7821H18.2344V19.7321Z" fill="#2A7DB7"/>
<path d="M4.6012 15.2961C4.51417 15.2961 4.43071 15.3306 4.36918 15.3922C4.30764 15.4537 4.27307 15.5372 4.27307 15.6242C4.27307 15.7112 4.30764 15.7947 4.36918 15.8562C4.43071 15.9177 4.51417 15.9523 4.6012 15.9523H17.7187C17.8057 15.9523 17.8892 15.9177 17.9507 15.8562C18.0123 15.7947 18.0468 15.7112 18.0468 15.6242C18.0468 15.5372 18.0123 15.4537 17.9507 15.3922C17.8892 15.3306 17.8057 15.2961 17.7187 15.2961H12.5146L12.8146 15.1749C12.8696 15.1527 12.9174 15.116 12.9532 15.0688L16.2965 10.6513L16.4278 10.7503C16.4848 10.7934 16.5543 10.8167 16.6258 10.8167C16.6408 10.8167 16.6559 10.8156 16.6708 10.8135C16.7569 10.8015 16.8348 10.7559 16.8873 10.6866L17.4153 9.98887C17.4413 9.9545 17.4603 9.91535 17.4712 9.87364C17.4821 9.83193 17.4846 9.78849 17.4787 9.74579C17.4728 9.7031 17.4585 9.66199 17.4367 9.62481C17.4149 9.58763 17.386 9.55512 17.3516 9.52912L17.2203 9.43012L17.8246 8.63156C18.0149 8.3817 18.112 8.07328 18.0991 7.7595C18.0974 7.71475 18.0934 7.66987 18.0871 7.62487C18.0504 7.35843 17.9354 7.10887 17.7568 6.90779C17.5782 6.70671 17.3439 6.56314 17.0836 6.49525C16.8234 6.42736 16.5488 6.4382 16.2947 6.5264C16.0406 6.61461 15.8184 6.77621 15.6562 6.99075L15.0519 7.78931L14.9206 7.69031C14.8513 7.63782 14.7639 7.61502 14.6777 7.62694C14.5915 7.63886 14.5136 7.68452 14.4611 7.75387L13.9331 8.45156C13.9071 8.48593 13.8881 8.52509 13.8772 8.5668C13.8663 8.60851 13.8638 8.65195 13.8697 8.69464C13.8756 8.73734 13.8899 8.77845 13.9117 8.81562C13.9335 8.8528 13.9624 8.88532 13.9968 8.91131L14.1281 9.01031L10.7851 13.4278C10.7494 13.4751 10.7271 13.5312 10.7206 13.5902L10.5331 15.2964L4.6012 15.2961ZM16.6443 7.11469C16.782 7.0958 16.9222 7.11814 17.0472 7.1789C17.1722 7.23965 17.2764 7.33609 17.3467 7.45603C17.4169 7.57597 17.45 7.71404 17.4418 7.85278C17.4336 7.99153 17.3844 8.12473 17.3006 8.23556L16.6963 9.03394L15.5773 8.18719L15.575 8.1855L16.1803 7.3875C16.2357 7.31357 16.3054 7.2514 16.385 7.20457C16.4647 7.15774 16.5529 7.12719 16.6445 7.11469H16.6443ZM14.7881 8.41162L16.6944 9.85425L16.5631 10.0286L14.6553 8.586L14.7881 8.41162ZM11.3624 13.7516L14.6512 9.40612L15.7724 10.2547L12.4844 14.6002L11.2139 15.114L11.3624 13.7516Z" fill="#2A7DB7"/>
</svg>
