<svg width="24" height="24" viewBox="0 0 24 24" fill="none" xmlns="http://www.w3.org/2000/svg">
<g clip-path="url(#clip0_11_136)">
<path d="M5.41335 7.75468H8.82068L9.24319 6.48382L9.59768 6.60101L9.24184 6.4827C9.29501 6.32274 9.44555 6.22254 9.60571 6.22601H14.4024C14.5807 6.22601 14.7299 6.35045 14.768 6.51722L15.1794 7.75468H18.5867C19.2508 7.75468 19.8542 8.02609 20.2914 8.46331C20.7287 8.90053 21.0001 9.50397 21.0001 10.168V18.5612C21.0001 19.2253 20.7287 19.8287 20.2914 20.2659C19.8542 20.7032 19.2508 20.9746 18.5867 20.9746H5.41332C4.74928 20.9746 4.14585 20.7032 3.70862 20.2659C3.27139 19.8287 3 19.2253 3 18.5612V10.168C3 9.50397 3.27141 8.90052 3.70863 8.46329C4.14586 8.02608 4.74928 7.75468 5.41332 7.75468H5.41335ZM9.08946 8.50471H5.41335C4.95632 8.50471 4.54056 8.69195 4.23892 8.99358C3.93728 9.29522 3.75004 9.711 3.75004 10.168V18.5612C3.75004 19.0183 3.93728 19.434 4.23892 19.7357C4.54056 20.0373 4.95632 20.2246 5.41335 20.2246H18.5867C19.0438 20.2246 19.4595 20.0373 19.7612 19.7357C20.0628 19.434 20.2501 19.0183 20.2501 18.5612V10.168C20.2501 9.711 20.0628 9.29522 19.7612 8.99358C19.4595 8.69194 19.0438 8.50471 18.5867 8.50471H14.9186C14.7585 8.50818 14.608 8.40797 14.5548 8.24801L14.9106 8.1297L14.5561 8.24688L14.1336 6.97602H9.86648L9.45509 8.21349C9.41702 8.38026 9.2678 8.5047 9.0895 8.5047L9.08946 8.50471Z" fill="#2A7DB7"/>
<path d="M12 10.0932C13.1795 10.0932 14.2474 10.5713 15.0203 11.3443C15.7933 12.1173 16.2714 13.1852 16.2714 14.3646C16.2714 15.5441 15.7933 16.612 15.0203 17.3849C14.2474 18.1579 13.1795 18.636 12 18.636C10.8206 18.636 9.75271 18.1579 8.97973 17.3849C8.20675 16.612 7.72864 15.5441 7.72864 14.3646C7.72864 13.1852 8.20675 12.1173 8.97973 11.3443C9.75271 10.5713 10.8206 10.0932 12 10.0932ZM14.4901 11.8746C13.8529 11.2374 12.9725 10.8432 12 10.8432C11.0276 10.8432 10.1472 11.2374 9.51 11.8746C8.87281 12.5118 8.47865 13.3922 8.47865 14.3646C8.47865 15.3371 8.87279 16.2175 9.51 16.8547C10.1472 17.4919 11.0276 17.886 12 17.886C12.9725 17.886 13.8529 17.4919 14.4901 16.8547C15.1273 16.2175 15.5214 15.3371 15.5214 14.3646C15.5214 13.3922 15.1273 12.5118 14.4901 11.8746Z" fill="#2A7DB7"/>
<path d="M12 12.1212C12.6195 12.1212 13.1803 12.3723 13.5863 12.7783C13.9923 13.1843 14.2435 13.7452 14.2435 14.3646C14.2435 14.9841 13.9923 15.545 13.5863 15.9509C13.1803 16.3569 12.6195 16.6081 12 16.6081C11.3806 16.6081 10.8197 16.3569 10.4137 15.9509C10.0077 15.545 9.75656 14.9841 9.75656 14.3646C9.75656 13.7452 10.0077 13.1843 10.4137 12.7783C10.8197 12.3723 11.3806 12.1212 12 12.1212ZM13.0561 13.3086C12.7858 13.0384 12.4124 12.8712 12 12.8712C11.5876 12.8712 11.2142 13.0384 10.944 13.3086C10.6737 13.5788 10.5066 13.9522 10.5066 14.3646C10.5066 14.7771 10.6737 15.1505 10.944 15.4207C11.2142 15.6909 11.5876 15.8581 12 15.8581C12.4124 15.8581 12.7858 15.6909 13.0561 15.4207C13.3263 15.1505 13.4934 14.7771 13.4934 14.3646C13.4934 13.9522 13.3263 13.5788 13.0561 13.3086ZM6.73525 7.23092C6.73525 7.02382 6.56735 6.85592 6.36025 6.85592C6.15314 6.85592 5.98523 7.02382 5.98523 7.23092V8.12969C5.98523 8.3368 6.15314 8.50469 6.36024 8.50469C6.56735 8.50469 6.73525 8.3368 6.73525 8.12969V7.23092ZM16.497 9.28761C16.2899 9.28761 16.122 9.45551 16.122 9.66261C16.122 9.86972 16.2899 10.0376 16.497 10.0376H18.7235C18.9306 10.0376 19.0985 9.86973 19.0985 9.66262C19.0985 9.45551 18.9306 9.28761 18.7235 9.28761H16.497ZM9.91454 3.8208C9.81099 3.64202 9.58209 3.58103 9.40331 3.68458C9.22453 3.78812 9.16354 4.01703 9.26708 4.19581L9.93905 5.35969C10.0426 5.53848 10.2715 5.59946 10.4503 5.49591C10.6291 5.39237 10.69 5.16346 10.5865 4.98468L9.91454 3.8208ZM14.7329 4.19581C14.8365 4.01703 14.7755 3.78812 14.5967 3.68458C14.4179 3.58103 14.189 3.64202 14.0855 3.8208L13.4135 4.98468C13.31 5.16346 13.3709 5.39238 13.5497 5.49591C13.7285 5.59946 13.9574 5.53848 14.061 5.35969L14.7329 4.19581ZM12.375 3.40044C12.375 3.19333 12.2071 3.02544 12 3.02544C11.7929 3.02544 11.625 3.19333 11.625 3.40044V5.17293C11.625 5.38004 11.7929 5.54793 12 5.54793C12.2071 5.54793 12.375 5.38004 12.375 5.17293V3.40044ZM10.3765 7.42485H13.6235C13.8306 7.42485 13.9985 7.59276 13.9985 7.79985V9.09383C13.9985 9.30093 13.8306 9.46883 13.6235 9.46883H10.3765C10.1694 9.46883 10.0015 9.30093 10.0015 9.09383V7.79987C10.0015 7.59276 10.1694 7.42485 10.3765 7.42485ZM13.2485 8.17488H10.7515V8.71882H13.2485V8.17488Z" fill="#2A7DB7"/>
</g>
<defs>
<clipPath id="clip0_11_136">
<rect width="24" height="24" fill="white"/>
</clipPath>
</defs>
</svg>
