<svg width="24" height="24" viewBox="0 0 24 24" fill="none" xmlns="http://www.w3.org/2000/svg">
<path d="M18.1476 13.8113C18.1339 13.809 18.1201 13.8076 18.1062 13.8071C18.1015 13.8071 18.0972 13.8083 18.0925 13.8084C18.0833 13.8084 18.0737 13.8071 18.0651 13.8071H16.12C16.5274 13.1976 16.7925 12.5042 16.8957 11.7784C17.1331 11.7292 17.353 11.6175 17.5327 11.4547C17.7124 11.292 17.8454 11.0842 17.9178 10.8528C17.9902 10.6214 17.9995 10.3749 17.9446 10.1387C17.8897 9.90258 17.7727 9.68538 17.6057 9.50963C17.8072 9.36413 17.958 9.15923 18.0371 8.92367C18.1161 8.68812 18.1195 8.43371 18.0467 8.19615C17.9738 7.95859 17.8285 7.74977 17.631 7.599C17.4335 7.44823 17.1937 7.36307 16.9454 7.35544V7.30969C16.9438 6.17065 16.5498 5.06694 15.8296 4.18445C15.1094 3.30196 14.1071 2.69462 12.9915 2.46469L12.9824 2.46301C12.3341 2.33195 11.6662 2.33195 11.0179 2.46301L11.0087 2.46469C9.89304 2.69459 8.89067 3.30198 8.17046 4.18455C7.45025 5.06712 7.05622 6.17094 7.05474 7.31007V7.35582C6.80628 7.36328 6.5664 7.44835 6.36875 7.59909C6.17111 7.74983 6.02562 7.95867 5.95272 8.1963C5.87982 8.43394 5.88315 8.68844 5.96226 8.92408C6.04136 9.15973 6.19227 9.36469 6.3938 9.51019C6.22679 9.68595 6.1098 9.90314 6.05494 10.1393C6.00007 10.3754 6.00932 10.622 6.08174 10.8534C6.15415 11.0847 6.2871 11.2925 6.46681 11.4553C6.64652 11.618 6.86646 11.7298 7.10386 11.7789C7.20708 12.5048 7.47225 13.1981 7.87974 13.8075H5.93499C4.92093 13.8088 3.94877 14.2122 3.23173 14.9292C2.51468 15.6463 2.11128 16.6184 2.10999 17.6325V21.3075C2.10999 21.3945 2.14456 21.478 2.20609 21.5395C2.26763 21.6011 2.35109 21.6356 2.43811 21.6356C2.52513 21.6356 2.60859 21.6011 2.67013 21.5395C2.73167 21.478 2.76624 21.3945 2.76624 21.3075V17.6325C2.76726 16.8493 3.05787 16.0941 3.58216 15.5122C4.10645 14.9303 4.82739 14.5628 5.6063 14.4804V21.3071C5.6063 21.3942 5.64087 21.4776 5.7024 21.5392C5.76394 21.6007 5.8474 21.6353 5.93442 21.6353C6.02145 21.6353 6.10491 21.6007 6.16644 21.5392C6.22798 21.4776 6.26255 21.3942 6.26255 21.3071V14.4634H8.31267L11.7049 21.45C11.7318 21.5055 11.7738 21.5522 11.8261 21.5849C11.8784 21.6176 11.9388 21.6349 12.0004 21.6349C12.0072 21.6349 12.0139 21.633 12.0207 21.6326C12.0274 21.6323 12.0342 21.6349 12.0409 21.6349C12.1026 21.6349 12.163 21.6176 12.2153 21.5849C12.2675 21.5522 12.3095 21.5055 12.3364 21.45L15.7285 14.4634H17.778V21.3071C17.778 21.3942 17.8126 21.4776 17.8742 21.5392C17.9357 21.6007 18.0191 21.6353 18.1062 21.6353C18.1932 21.6353 18.2767 21.6007 18.3382 21.5392C18.3997 21.4776 18.4343 21.3942 18.4343 21.3071V14.4866C19.2051 14.5778 19.9157 14.9483 20.4317 15.528C20.9477 16.1078 21.2333 16.8566 21.2344 17.6327V21.3077C21.2344 21.3947 21.269 21.4782 21.3305 21.5397C21.3921 21.6012 21.4755 21.6358 21.5625 21.6358C21.6496 21.6358 21.733 21.6012 21.7946 21.5397C21.8561 21.4782 21.8907 21.3947 21.8907 21.3077V17.6327C21.8892 16.6331 21.4968 15.6738 20.7974 14.9597C20.0979 14.2456 19.1469 13.8334 18.1476 13.8113ZM13.8375 16.8563L12.8037 15.9628C13.4428 15.8556 14.0545 15.6233 14.6037 15.2792L13.8375 16.8563ZM9.45755 15.3169C9.99139 15.6407 10.5819 15.8599 11.1977 15.963L10.1922 16.8319L9.45755 15.3169ZM12.5944 3.06244V4.83282H11.4062V3.06319C11.8001 3.00713 12.1998 3.00713 12.5937 3.06319L12.5944 3.06244ZM8.50205 4.83282L9.0668 5.63232C9.11743 5.70234 9.19364 5.74956 9.27888 5.76373C9.36412 5.7779 9.45151 5.75787 9.52207 5.708C9.59263 5.65812 9.64068 5.58243 9.65577 5.49735C9.67086 5.41227 9.65178 5.32467 9.60267 5.25357L8.93724 4.31157C9.43956 3.7976 10.0629 3.41794 10.75 3.20738V5.16169C10.75 5.24872 10.7846 5.33218 10.8461 5.39371C10.9076 5.45525 10.9911 5.48982 11.0781 5.48982H12.9218C13.0088 5.48982 13.0923 5.45525 13.1538 5.39371C13.2154 5.33218 13.2499 5.24872 13.2499 5.16169V3.20738C13.9371 3.41794 14.5604 3.7976 15.0627 4.31157L14.3972 5.25357C14.3718 5.28873 14.3536 5.32858 14.3437 5.37082C14.3338 5.41306 14.3323 5.45685 14.3394 5.49965C14.3466 5.54245 14.3621 5.58342 14.3851 5.62018C14.4082 5.65693 14.4383 5.68876 14.4737 5.7138C14.5092 5.73884 14.5492 5.75661 14.5916 5.76607C14.6339 5.77554 14.6777 5.77651 14.7204 5.76893C14.7631 5.76135 14.8039 5.74537 14.8405 5.72193C14.877 5.69848 14.9085 5.66802 14.9331 5.63232L15.4979 4.83282C16.0131 5.55605 16.2896 6.42209 16.2889 7.31007V7.35394H7.71099V7.31007C7.71029 6.42209 7.98685 5.55605 8.50205 4.83282ZM7.09336 8.01019H16.9067C17.0489 8.01019 17.1853 8.06667 17.2858 8.1672C17.3863 8.26773 17.4428 8.40408 17.4428 8.54626C17.4428 8.68843 17.3863 8.82478 17.2858 8.92531C17.1853 9.02584 17.0489 9.08232 16.9067 9.08232H7.09336C6.95119 9.08232 6.81484 9.02584 6.71431 8.92531C6.61378 8.82478 6.5573 8.68843 6.5573 8.54626C6.5573 8.40408 6.61378 8.26773 6.71431 8.1672C6.81484 8.06667 6.95119 8.01019 7.09336 8.01019ZM7.38286 11.1508C7.19558 11.1508 7.01598 11.0764 6.88355 10.944C6.75113 10.8116 6.67674 10.632 6.67674 10.4447C6.67674 10.2574 6.75113 10.0778 6.88355 9.94539C7.01598 9.81296 7.19558 9.73857 7.38286 9.73857H16.6172C16.8021 9.74042 16.9789 9.81466 17.1096 9.94535C17.2404 10.076 17.3147 10.2528 17.3166 10.4376C17.3186 10.6225 17.248 10.8007 17.12 10.9341C16.992 11.0675 16.8168 11.1455 16.632 11.1512C16.624 11.1512 16.6079 11.1501 16.5994 11.1499C16.5173 11.1499 16.4381 11.1807 16.3776 11.2363C16.3171 11.2918 16.2797 11.368 16.2726 11.4499C16.1814 12.5202 15.6918 13.5174 14.9007 14.2441C14.1095 14.9707 13.0744 15.3739 12.0001 15.3739C10.9259 15.3739 9.8908 14.9707 9.09962 14.2441C8.30844 13.5174 7.81884 12.5202 7.72767 11.4499C7.71837 11.3658 7.67771 11.2883 7.6138 11.2329C7.54988 11.1774 7.46742 11.1481 7.38286 11.1508ZM12.0207 20.5982L10.4888 17.4429L12 16.1368L13.5404 17.4681L12.0207 20.5982Z" fill="#2A7DB7"/>
<path d="M16.4376 19.4477H14.3751C14.288 19.4477 14.2046 19.4823 14.143 19.5438C14.0815 19.6053 14.0469 19.6888 14.0469 19.7758C14.0469 19.8628 14.0815 19.9463 14.143 20.0078C14.2046 20.0694 14.288 20.1039 14.3751 20.1039H16.4376C16.5246 20.1039 16.608 20.0694 16.6696 20.0078C16.7311 19.9463 16.7657 19.8628 16.7657 19.7758C16.7657 19.6888 16.7311 19.6053 16.6696 19.5438C16.608 19.4823 16.5246 19.4477 16.4376 19.4477ZM9.46875 11.0102H9.85462C9.88172 11.0978 9.93629 11.1743 10.0103 11.2284C10.0842 11.2826 10.1737 11.3115 10.2653 11.3108C10.357 11.3102 10.446 11.28 10.5192 11.2248C10.5924 11.1696 10.6459 11.0923 10.6718 11.0044C10.7525 10.99 10.825 10.9459 10.8748 10.8807C10.9246 10.8155 10.9482 10.734 10.9408 10.6523C10.9335 10.5706 10.8957 10.4946 10.8351 10.4394C10.7744 10.3842 10.6953 10.3537 10.6133 10.3539H9.46875C9.38173 10.3539 9.29827 10.3885 9.23673 10.4501C9.17519 10.5116 9.14062 10.595 9.14062 10.6821C9.14062 10.7691 9.17519 10.8526 9.23673 10.9141C9.29827 10.9756 9.38173 11.0102 9.46875 11.0102ZM13.3286 11.0044C13.3545 11.0923 13.4079 11.1696 13.4811 11.2248C13.5543 11.28 13.6434 11.3102 13.735 11.3108C13.8267 11.3115 13.9161 11.2826 13.9901 11.2284C14.0641 11.1743 14.1187 11.0978 14.1458 11.0102H14.5312C14.6183 11.0102 14.7017 10.9756 14.7633 10.9141C14.8248 10.8526 14.8594 10.7691 14.8594 10.6821C14.8594 10.595 14.8248 10.5116 14.7633 10.4501C14.7017 10.3885 14.6183 10.3539 14.5312 10.3539H13.3875C13.3055 10.3537 13.2263 10.3842 13.1657 10.4394C13.105 10.4946 13.0673 10.5706 13.0599 10.6523C13.0526 10.734 13.0762 10.8155 13.126 10.8807C13.1758 10.9459 13.2482 10.99 13.329 11.0044H13.3286Z" fill="#2A7DB7"/>
</svg>
