<svg width="24" height="24" viewBox="0 0 24 24" fill="none" xmlns="http://www.w3.org/2000/svg">
<g clip-path="url(#clip0_11_114)">
<path d="M21 18.0375C21 17.938 20.9605 17.8427 20.8901 17.7723C20.8198 17.702 20.7244 17.6625 20.625 17.6625H16.7122L16.0443 16.5454C15.903 16.3079 15.6788 16.131 15.4149 16.0488C15.1511 15.9666 14.8661 15.9848 14.6148 16.0999L10.8543 5.12888C10.8291 5.05491 10.7814 4.99067 10.7178 4.94516C10.6543 4.89964 10.5781 4.87511 10.5 4.875H7.12496C7.07086 4.87505 7.01741 4.88681 6.96828 4.90946C6.91915 4.93212 6.8755 4.96514 6.84034 5.00625L4.59034 7.63913C4.53945 7.69864 4.50848 7.77259 4.50175 7.8506C4.49503 7.92862 4.51289 8.00678 4.55284 8.07413L10.3961 18.075L10.3361 18.1027C10.1943 18.1695 10.0679 18.265 9.96496 18.3831C9.86202 18.5013 9.78477 18.6396 9.73812 18.7892C9.69147 18.9388 9.67643 19.0965 9.69396 19.2522C9.7115 19.408 9.76121 19.5584 9.83996 19.6939L11.8016 23.0659C11.9121 23.2569 12.0764 23.411 12.274 23.5091C12.4716 23.6073 12.6938 23.6449 12.9127 23.6175L17.3696 23.0584C17.5484 23.0356 17.7192 22.9703 17.8676 22.868C18.016 22.7657 18.1377 22.6293 18.2226 22.4702C18.3074 22.3112 18.3529 22.1342 18.3553 21.9539C18.3577 21.7737 18.3169 21.5955 18.2362 21.4342L17.8567 20.673H18.375C19.0724 20.6711 19.7406 20.3925 20.2327 19.8984C20.7249 19.4042 21.0009 18.7349 21 18.0375Z" fill="#565252" fill-opacity="0.12"/>
<path d="M9.0225 18.5228C9.10228 18.269 9.23523 18.0352 9.4125 17.8369L7.5 14.5778V21C7.5 21.2984 7.61853 21.5845 7.8295 21.7955C8.04048 22.0065 8.32663 22.125 8.625 22.125H10.4164L9.19238 20.0269C9.06136 19.8016 8.9786 19.5516 8.94936 19.2927C8.92011 19.0337 8.94502 18.7715 9.0225 18.5228ZM22.125 7.875H12.5917L15.1155 15.216C15.4329 15.2226 15.7436 15.3093 16.0184 15.4683C16.2933 15.6272 16.5235 15.8531 16.6875 16.125L17.1375 16.875H20.625C20.9234 16.875 21.2095 16.9935 21.4205 17.2045C21.6315 17.4155 21.75 17.7016 21.75 18C21.749 18.7838 21.4757 19.5429 20.9768 20.1474C20.4779 20.7519 19.7845 21.1642 19.0151 21.3139C19.0971 21.576 19.1206 21.8529 19.0837 22.125H22.125C22.4234 22.125 22.7095 22.0065 22.9205 21.7955C23.1315 21.5845 23.25 21.2984 23.25 21V9C23.25 8.70163 23.1315 8.41548 22.9205 8.2045C22.7095 7.99353 22.4234 7.875 22.125 7.875ZM21.375 10.125H16.875C16.7755 10.125 16.6802 10.0855 16.6098 10.0152C16.5395 9.94484 16.5 9.84946 16.5 9.75C16.5 9.65054 16.5395 9.55516 16.6098 9.48483C16.6802 9.41451 16.7755 9.375 16.875 9.375H21.375C21.4745 9.375 21.5698 9.41451 21.6402 9.48483C21.7105 9.55516 21.75 9.65054 21.75 9.75C21.75 9.84946 21.7105 9.94484 21.6402 10.0152C21.5698 10.0855 21.4745 10.125 21.375 10.125Z" fill="#565252" fill-opacity="0.12"/>
<path d="M9.6585 10.3605C10.1448 10.058 10.5461 9.63673 10.8245 9.13627C11.103 8.63581 11.2494 8.0727 11.25 7.5V5.25H12.375C12.4492 5.24998 12.5216 5.22798 12.5833 5.18678C12.645 5.14557 12.693 5.08701 12.7214 5.0185C12.7498 4.94998 12.7572 4.8746 12.7427 4.80186C12.7283 4.72913 12.6926 4.66232 12.6401 4.60988L11.3197 3.28988L12.3446 0.9C12.3717 0.836896 12.381 0.767565 12.3713 0.699569C12.3617 0.631573 12.3336 0.567523 12.2901 0.514404C12.2466 0.461285 12.1893 0.421138 12.1245 0.398341C12.0597 0.375544 11.9899 0.370973 11.9228 0.385125L5.39325 1.75838C5.14112 1.81237 4.91505 1.95098 4.75256 2.15119C4.59008 2.3514 4.50096 2.60116 4.5 2.859V7.5C4.50066 8.07264 4.64711 8.63567 4.92555 9.13606C5.20398 9.63645 5.60524 10.0577 6.0915 10.3601C4.56447 10.756 3.21181 11.647 2.24527 12.8938C1.27873 14.1405 0.752863 15.6725 0.75 17.25V18C0.75 18.2984 0.868526 18.5845 1.0795 18.7955C1.29048 19.0065 1.57663 19.125 1.875 19.125H13.875C14.1734 19.125 14.4595 19.0065 14.6705 18.7955C14.8815 18.5845 15 18.2984 15 18V17.25C14.9971 15.6726 14.4712 14.1406 13.5046 12.894C12.5381 11.6473 11.1855 10.7563 9.6585 10.3605ZM5.25 4.5V3.75H10.7198L11.4698 4.5H5.25ZM5.54775 2.4915L11.3708 1.26638L10.6279 3H5.25V2.859C5.25005 2.77299 5.27966 2.68962 5.33387 2.62285C5.38808 2.55608 5.46359 2.50997 5.54775 2.49225V2.4915ZM5.25 7.5V5.25H10.5V7.5C10.5 8.19619 10.2234 8.86387 9.73116 9.35615C9.23887 9.84844 8.57119 10.125 7.875 10.125C7.17881 10.125 6.51113 9.84844 6.01884 9.35615C5.52656 8.86387 5.25 8.19619 5.25 7.5ZM14.25 18C14.25 18.0995 14.2105 18.1948 14.1402 18.2652C14.0698 18.3355 13.9745 18.375 13.875 18.375H1.875C1.77554 18.375 1.68016 18.3355 1.60984 18.2652C1.53951 18.1948 1.5 18.0995 1.5 18V17.25C1.5 15.5592 2.17165 13.9377 3.36719 12.7422C4.56274 11.5466 6.18425 10.875 7.875 10.875C9.56575 10.875 11.1873 11.5466 12.3828 12.7422C13.5784 13.9377 14.25 15.5592 14.25 17.25V18Z" fill="#2A7DB7"/>
<path d="M7.875 11.625C7.77554 11.625 7.68016 11.6645 7.60983 11.7348C7.53951 11.8052 7.5 11.9005 7.5 12V12.75C7.5 12.8495 7.53951 12.9448 7.60983 13.0152C7.68016 13.0855 7.77554 13.125 7.875 13.125C7.97446 13.125 8.06984 13.0855 8.14017 13.0152C8.21049 12.9448 8.25 12.8495 8.25 12.75V12C8.25 11.9005 8.21049 11.8052 8.14017 11.7348C8.06984 11.6645 7.97446 11.625 7.875 11.625ZM7.875 13.875C7.77554 13.875 7.68016 13.9145 7.60983 13.9848C7.53951 14.0552 7.5 14.1505 7.5 14.25V15C7.5 15.0995 7.53951 15.1948 7.60983 15.2652C7.68016 15.3355 7.77554 15.375 7.875 15.375C7.97446 15.375 8.06984 15.3355 8.14017 15.2652C8.21049 15.1948 8.25 15.0995 8.25 15V14.25C8.25 14.1505 8.21049 14.0552 8.14017 13.9848C8.06984 13.9145 7.97446 13.875 7.875 13.875ZM7.875 16.125C7.77554 16.125 7.68016 16.1645 7.60983 16.2348C7.53951 16.3052 7.5 16.4005 7.5 16.5V17.25C7.5 17.3495 7.53951 17.4448 7.60983 17.5152C7.68016 17.5855 7.77554 17.625 7.875 17.625C7.97446 17.625 8.06984 17.5855 8.14017 17.5152C8.21049 17.4448 8.25 17.3495 8.25 17.25V16.5C8.25 16.4005 8.21049 16.3052 8.14017 16.2348C8.06984 16.1645 7.97446 16.125 7.875 16.125ZM12 13.875H9.75C9.65054 13.875 9.55516 13.9145 9.48483 13.9848C9.41451 14.0552 9.375 14.1505 9.375 14.25C9.375 14.3495 9.41451 14.4448 9.48483 14.5152C9.55516 14.5855 9.65054 14.625 9.75 14.625H12C12.0995 14.625 12.1948 14.5855 12.2652 14.5152C12.3355 14.4448 12.375 14.3495 12.375 14.25C12.375 14.1505 12.3355 14.0552 12.2652 13.9848C12.1948 13.9145 12.0995 13.875 12 13.875Z" fill="#2A7DB7"/>
</g>
<defs>
<clipPath id="clip0_11_114">
<rect width="24" height="24" fill="white"/>
</clipPath>
</defs>
</svg>
