<svg width="24" height="24" viewBox="0 0 24 24" fill="none" xmlns="http://www.w3.org/2000/svg">
<g clip-path="url(#clip0_11_90)">
<path d="M21.0589 12.693V11.943C21.6953 11.943 22.2128 11.5273 22.2128 11.0163C22.2128 10.5054 21.6951 10.0897 21.0589 10.0897V9.33972C22.1087 9.33972 22.9628 10.092 22.9628 11.0163C22.9628 11.9407 22.1087 12.693 21.0589 12.693ZM23.1805 23.4435H22.4305V18.7053C22.4305 17.8663 21.6927 17.1838 20.7859 17.1838H18.3893V16.4338H20.7857C22.1061 16.4338 23.1803 17.4528 23.1803 18.7053L23.1805 23.4435ZM10.2775 23.4435H9.52747V18.7053C9.52747 17.4527 10.6017 16.4336 11.9222 16.4336H14.3188V17.1836H11.9222C11.0153 17.1836 10.2775 17.8663 10.2775 18.7053V23.4435Z" fill="#2A7DB7"/>
<path d="M16.3543 18.3722L13.9436 16.9725V15.3302H14.6936V16.5407L16.3543 17.505L18.0142 16.5407V15.3302H18.7642V16.9725L16.3543 18.3722ZM19.0342 3.2207H18.2842C18.2842 2.13226 17.4051 1.24689 16.3243 1.24689C15.2437 1.24689 14.3647 2.13245 14.3647 3.2207H13.6147C13.6147 1.71864 14.8301 0.496887 16.3243 0.496887C17.8185 0.4967 19.0342 1.71864 19.0342 3.2207Z" fill="#2A7DB7"/>
<path d="M16.3326 16.0877C13.5015 16.0877 11.1985 13.7715 11.1985 10.9247V9.22465H11.9485V10.9247C11.9485 13.3581 13.9154 15.3377 16.3326 15.3377C18.7502 15.3377 20.7171 13.3579 20.7171 10.9247V9.22465H21.4671V10.9247C21.4671 13.7715 19.1639 16.0877 16.3326 16.0877ZM15.9794 19.1621H16.7294V19.9498H15.9794V19.1621ZM15.9794 20.7589H16.7294V21.5464H15.9794V20.7589ZM21.4673 8.36121H19.2074L18.5927 7.29002L17.9781 8.36121H11.1985V7.09409C11.1985 4.24727 13.5017 1.93127 16.3326 1.93127C19.1635 1.93127 21.4671 4.24746 21.4673 7.09409V8.36121ZM19.6418 7.61121H20.7173V7.09409C20.7171 4.6609 18.7502 2.68127 16.3326 2.68127C13.9152 2.68127 11.9485 4.6609 11.9485 7.09409V7.61121H17.5437L18.5927 5.78327L19.6418 7.61121Z" fill="#2A7DB7"/>
<path d="M16.3762 13.8414C15.8818 13.8414 15.4211 13.5529 15.1442 13.0695L15.795 12.6968C15.9388 12.9476 16.1507 13.0914 16.3764 13.0914C16.6022 13.0914 16.8141 12.9474 16.9579 12.6968L17.6087 13.0695C17.3314 13.5529 16.8707 13.8414 16.3762 13.8414ZM13.4994 10.1378H14.3664V10.8878H13.4994V10.1378ZM18.3021 10.1378H19.1696V10.8878H18.3021V10.1378ZM0 22.7533H24V23.5033H0V22.7533ZM18.4314 20.2281H21.5687V20.9781H18.4314V20.2281ZM7.41412 22.1419H6.66412C6.66412 20.9128 5.67131 19.9129 4.45088 19.9129C3.23044 19.9129 2.23763 20.9128 2.23763 22.1419H1.48763C1.48763 20.4992 2.81681 19.1629 4.45088 19.1629C6.08494 19.1629 7.41412 20.4992 7.41412 22.1419Z" fill="#2A7DB7"/>
<path d="M4.07591 18.3546H4.82591V19.3014H4.07591V18.3546ZM4.07591 16.4608H4.82591V17.4077H4.07591V16.4608ZM2.39422 16.9168L2.86484 17.7368L2.21422 18.1101L1.74359 17.2901L2.39422 16.9168ZM0.513406 18.5325L1.32866 19.0061L0.951781 19.6547L0.136719 19.1811L0.513406 18.5325ZM8.3899 18.5331L8.76678 19.1816L7.95153 19.6553L7.57466 19.0067L8.3899 18.5331ZM6.50684 16.9163L7.15747 17.2894L6.68703 18.1093L6.03641 17.7362L6.50684 16.9163Z" fill="#2A7DB7"/>
</g>
<defs>
<clipPath id="clip0_11_90">
<rect width="24" height="24" fill="white"/>
</clipPath>
</defs>
</svg>
