<svg width="24" height="24" viewBox="0 0 24 24" fill="none" xmlns="http://www.w3.org/2000/svg">
<path d="M6.75 1.5H8.25V9H6.75V1.5Z" fill="#2A7DB7"/>
<path d="M10.5 8.24997C10.5 9.04562 10.1839 9.80868 9.62132 10.3713C9.05871 10.9339 8.29565 11.25 7.5 11.25C6.70435 11.25 5.94129 10.9339 5.37868 10.3713C4.81607 9.80868 4.5 9.04562 4.5 8.24997V1.49997H3V8.24997C3.00108 9.31263 3.37818 10.3406 4.06454 11.1519C4.75089 11.9632 5.7022 12.5054 6.75 12.6825V22.5H8.25V12.6825C9.2978 12.5054 10.2491 11.9632 10.9355 11.1519C11.6218 10.3406 11.9989 9.31263 12 8.24997V1.49997H10.5V8.24997ZM16.5 1.49997H15.75V22.5H17.25V15H19.5C19.8978 15 20.2794 14.8419 20.5607 14.5606C20.842 14.2793 21 13.8978 21 13.5V5.99997C21.0232 5.4028 20.9227 4.80729 20.7047 4.25083C20.4868 3.69437 20.1562 3.18898 19.7336 2.7664C19.311 2.34382 18.8056 2.01318 18.2491 1.79524C17.6927 1.5773 17.0972 1.47677 16.5 1.49997ZM19.5 13.5H17.25V3.06747C19.41 3.48747 19.5 5.72247 19.5 5.99997V13.5Z" fill="#2A7DB7"/>
</svg>
