<svg width="24" height="24" viewBox="0 0 24 24" fill="none" xmlns="http://www.w3.org/2000/svg">
<g clip-path="url(#clip0_11_119)">
<path d="M9.78669 9.87332C8.89507 9.87332 8.02349 9.60884 7.28223 9.11334C6.54097 8.61785 5.96334 7.91361 5.62244 7.08974C5.28154 6.26586 5.19268 5.35938 5.36711 4.48499C5.54155 3.6106 5.97143 2.8076 6.60236 2.1776C7.2333 1.5476 8.03693 1.11891 8.91158 0.94577C9.78623 0.772633 10.6926 0.862832 11.5159 1.20495C12.3393 1.54707 13.0427 2.12574 13.5371 2.86774C14.0315 3.60973 14.2947 4.4817 14.2934 5.37332C14.2898 6.56686 13.8137 7.71042 12.9691 8.55376C12.1245 9.3971 10.9802 9.87156 9.78669 9.87332ZM9.78669 2.19999C9.15907 2.19999 8.54554 2.3861 8.02368 2.73479C7.50183 3.08348 7.0951 3.57909 6.85492 4.15894C6.61473 4.73879 6.55189 5.37684 6.67433 5.99241C6.79678 6.60797 7.09901 7.17341 7.54281 7.61721C7.98661 8.061 8.55204 8.36323 9.16761 8.48568C9.78317 8.60812 10.4212 8.54528 11.0011 8.3051C11.5809 8.06492 12.0765 7.65818 12.4252 7.13633C12.7739 6.61448 12.96 6.00095 12.96 5.37332C12.96 4.5317 12.6257 3.72455 12.0306 3.12944C11.4355 2.53432 10.6283 2.19999 9.78669 2.19999Z" fill="#2A7DB7"/>
<path d="M10.9467 21.12C10.801 20.9743 10.6886 20.7987 10.6173 20.6053C10.5459 20.412 10.5173 20.2055 10.5334 20H2.66671V16.1467C3.61198 15.138 4.75851 14.3391 6.0321 13.8017C7.30569 13.2642 8.67795 13.0002 10.06 13.0267H10.54C10.5094 12.8032 10.5308 12.5756 10.6025 12.3617C10.6742 12.1478 10.7943 11.9533 10.9534 11.7933L11.0334 11.72C10.72 11.72 10.3667 11.68 10.06 11.68C8.43364 11.6414 6.81899 11.9647 5.33282 12.6265C3.84666 13.2883 2.52613 14.272 1.46671 15.5067C1.38016 15.6221 1.33337 15.7624 1.33337 15.9067V20C1.33337 20.3536 1.47385 20.6928 1.7239 20.9428C1.97395 21.1929 2.31309 21.3333 2.66671 21.3333H11.1334L10.9467 21.12Z" fill="#2A7DB7"/>
<path d="M17.9133 10.86C17.9463 10.8532 17.9803 10.8532 18.0133 10.86C17.9803 10.854 17.9464 10.854 17.9133 10.86Z" fill="#2A7DB7"/>
<path d="M22.4533 15.5467L21.12 15.14C21.0247 14.8139 20.8951 14.4988 20.7333 14.2L21.4 12.96C21.4217 12.9104 21.4269 12.8552 21.4149 12.8024C21.4029 12.7496 21.3743 12.702 21.3333 12.6667L20.3666 11.7C20.3301 11.6604 20.2813 11.6343 20.2281 11.6258C20.1748 11.6174 20.1203 11.6271 20.0733 11.6533L18.8466 12.32C18.5446 12.1502 18.2249 12.0138 17.8933 11.9133L17.4866 10.58C17.4694 10.5309 17.4366 10.4888 17.3934 10.4599C17.3501 10.4311 17.2986 10.4171 17.2466 10.42H15.88C15.8275 10.4194 15.7762 10.436 15.7341 10.4673C15.6919 10.4986 15.6612 10.5429 15.6466 10.5933L15.24 11.9267C14.9061 12.0238 14.5841 12.158 14.28 12.3267L13.0666 11.66C13.0206 11.6342 12.9672 11.6248 12.9152 11.6333C12.8631 11.6418 12.8154 11.6676 12.78 11.7067L11.7933 12.6667C11.7567 12.7052 11.7332 12.7542 11.726 12.8069C11.7188 12.8595 11.7284 12.9131 11.7533 12.96L12.42 14.1733C12.2436 14.4738 12.1027 14.7937 12 15.1267L10.6666 15.5267C10.6162 15.5412 10.5719 15.572 10.5406 15.6141C10.5093 15.6563 10.4927 15.7075 10.4933 15.76V17.1267C10.4972 17.1748 10.516 17.2206 10.5471 17.2576C10.5781 17.2946 10.6199 17.3211 10.6666 17.3333L12 17.74C12.0985 18.067 12.2326 18.3823 12.4 18.68L11.7333 19.9533C11.7079 19.999 11.698 20.0516 11.7052 20.1034C11.7124 20.1551 11.7363 20.2031 11.7733 20.24L12.74 21.2067C12.7777 21.2443 12.8264 21.2691 12.8791 21.2775C12.9317 21.2859 12.9857 21.2774 13.0333 21.2533L14.28 20.5867C14.5767 20.7462 14.8895 20.8736 15.2133 20.9667L15.6133 22.3C15.6297 22.3493 15.6609 22.3925 15.7026 22.4235C15.7444 22.4545 15.7947 22.4719 15.8466 22.4733H17.2133C17.2655 22.4729 17.3163 22.4558 17.3582 22.4247C17.4001 22.3935 17.4311 22.3499 17.4466 22.3L17.8533 20.9333C18.1728 20.8402 18.4812 20.7128 18.7733 20.5533L20.0333 21.22C20.0796 21.2446 20.1327 21.2534 20.1845 21.245C20.2363 21.2365 20.2839 21.2114 20.32 21.1733L21.3333 20.2667C21.3605 20.2275 21.3752 20.181 21.3752 20.1333C21.3752 20.0857 21.3605 20.0391 21.3333 20L20.6666 18.7467C20.8285 18.4526 20.9581 18.1419 21.0533 17.82L22.3866 17.4133C22.4371 17.3988 22.4813 17.368 22.5126 17.3259C22.544 17.2837 22.5606 17.2325 22.56 17.18V15.78C22.5661 15.735 22.5593 15.6892 22.5404 15.6479C22.5215 15.6066 22.4913 15.5715 22.4533 15.5467ZM16.5666 18.6667C16.1257 18.668 15.6943 18.5383 15.3271 18.2942C14.9599 18.05 14.6734 17.7023 14.5041 17.2952C14.3347 16.8881 14.2901 16.4398 14.3758 16.0072C14.4615 15.5747 14.6737 15.1773 14.9855 14.8655C15.2973 14.5537 15.6947 14.3415 16.1272 14.2558C16.5598 14.1701 17.008 14.2148 17.4152 14.3841C17.8223 14.5535 18.17 14.8399 18.4142 15.2071C18.6583 15.5743 18.788 16.0057 18.7866 16.4467C18.7849 17.0349 18.5504 17.5986 18.1345 18.0145C17.7185 18.4305 17.1549 18.6649 16.5666 18.6667Z" fill="#2A7DB7"/>
</g>
<defs>
<clipPath id="clip0_11_119">
<rect width="24" height="24" fill="white"/>
</clipPath>
</defs>
</svg>
