<svg width="24" height="24" viewBox="0 0 24 24" fill="none" xmlns="http://www.w3.org/2000/svg">
<path d="M7.93863 11.3138L7.88019 11.4342H7.40629H7.25573V11.3773C7.93064 11.2399 8.43074 10.6366 8.43074 9.92332V6.4H18.099L18.8422 14.8736L18.5172 16.8622H3.7345L3.4652 15.0855H13.5067H13.9067V14.6855V11.2436C13.9067 10.4633 13.2817 9.82425 12.5017 9.82425H9.5383C8.99664 9.82425 8.51427 10.1371 8.27552 10.6128L8.27544 10.6128L8.27176 10.6205C8.16152 10.8525 8.03638 11.1119 7.93863 11.3138ZM4.24447 8.64089C4.24449 8.64079 4.24451 8.64069 4.24453 8.6406L4.65346 6.4H5.80541V11.4342H4.57309C4.18821 10.5625 4.07247 9.58885 4.24446 8.64097C4.24446 8.64094 4.24447 8.64091 4.24447 8.64089ZM18.1301 8.35851C18.1301 7.3281 17.3111 6.48397 16.2817 6.48397C15.2522 6.48397 14.4332 7.3281 14.4332 8.35851C14.4332 9.38892 15.2522 10.233 16.2817 10.233C17.3111 10.233 18.1301 9.38892 18.1301 8.35851ZM15.8799 8.35851C15.8799 8.12503 16.0696 7.94225 16.2817 7.94225C16.4938 7.94225 16.6835 8.12503 16.6835 8.35851C16.6835 8.59454 16.495 8.77477 16.2817 8.77477C16.0684 8.77477 15.8799 8.59454 15.8799 8.35851ZM18.4627 12.737C18.4627 11.5266 17.4927 10.5239 16.2817 10.5239C15.0707 10.5239 14.1007 11.5266 14.1007 12.737C14.1007 13.9517 15.0712 14.9501 16.2817 14.9501C17.4922 14.9501 18.4627 13.9517 18.4627 12.737ZM15.551 12.737C15.551 12.3154 15.8848 11.9859 16.2817 11.9859C16.6768 11.9859 17.0087 12.3137 17.0087 12.737C17.0087 13.1585 16.6785 13.4843 16.2817 13.4843C15.8831 13.4843 15.551 13.1568 15.551 12.737ZM18.4497 18.6H3.79056V18.4032H18.4497V18.6Z" stroke="#2A7DB7" stroke-width="0.8"/>
</svg>
