<svg width="24" height="24" viewBox="0 0 24 24" fill="none" xmlns="http://www.w3.org/2000/svg">
<path d="M15.5254 14.9821C15.0389 14.7323 14.6128 14.5135 14.3835 14.2664L14.3583 14.1317C15.7196 13.2756 16.5821 11.5686 16.5821 9.67499C16.5821 9.52612 16.5744 9.37949 16.5615 9.23484C16.9359 9.0389 17.16 8.89195 17.1884 8.87296C17.2524 8.83024 17.305 8.77236 17.3413 8.70447C17.3776 8.63657 17.3966 8.56076 17.3966 8.48376C17.3966 8.40676 17.3776 8.33094 17.3413 8.26305C17.305 8.19516 17.2524 8.13728 17.1884 8.09456C17.1704 8.08256 17.075 8.01988 16.9134 7.92627C17.3224 7.49296 17.5525 6.98985 17.5525 6.43809C17.553 6.37694 17.5415 6.31629 17.5185 6.25963C17.4955 6.20297 17.4615 6.15143 17.4185 6.10797C17.3754 6.06452 17.3242 6.03001 17.2678 6.00644C17.2114 5.98287 17.1508 5.97071 17.0897 5.97065C16.8291 5.94604 15.946 5.25838 15.3615 4.80346C14.1672 3.87346 12.932 2.91177 12 2.91177C11.0383 2.91177 9.7936 3.88574 8.58962 4.82755C7.98751 5.2986 7.16274 5.94402 6.91492 5.97055C6.79091 5.97057 6.67199 6.01983 6.5843 6.10752C6.49662 6.1952 6.44735 6.31413 6.44734 6.43813C6.44734 6.98985 6.67735 7.4931 7.08653 7.92641C6.92504 8.02007 6.82965 8.08274 6.8117 8.0947C6.74759 8.13739 6.69503 8.19526 6.65867 8.26315C6.62231 8.33105 6.60329 8.40688 6.60329 8.4839C6.60329 8.56092 6.62231 8.63675 6.65867 8.70464C6.69503 8.77254 6.74759 8.83041 6.8117 8.8731C6.84029 8.89209 7.06407 9.0389 7.43842 9.23484C7.42499 9.38122 7.41813 9.52813 7.41784 9.67513C7.41784 11.5687 8.28038 13.2758 9.64196 14.132L9.61674 14.2666C9.38743 14.5137 8.96129 14.7325 8.47487 14.9823C7.02043 15.7289 4.82251 16.8571 4.82251 20.6207C4.82253 20.7447 4.87181 20.8636 4.95949 20.9513C5.04717 21.039 5.16609 21.0882 5.29009 21.0883H18.71C18.7714 21.0883 18.8322 21.0762 18.889 21.0527C18.9457 21.0292 18.9973 20.9948 19.0407 20.9513C19.0841 20.9079 19.1185 20.8564 19.142 20.7996C19.1655 20.7429 19.1776 20.6821 19.1776 20.6207C19.1773 16.857 16.9795 15.7287 15.5254 14.9821ZM8.02993 8.48371C8.85835 8.07182 10.3368 7.48091 12 7.48091C13.6633 7.48091 15.1418 8.07191 15.9702 8.48371C15.1417 8.8957 13.6632 9.48651 12 9.48651C10.3367 9.48651 8.85817 8.89565 8.02993 8.48371ZM7.43846 6.76912C7.86924 6.56915 8.41018 6.15505 9.16581 5.56401C10.0921 4.83941 11.3606 3.84688 12 3.84688C12.6109 3.84688 13.8687 4.8262 14.7872 5.54127C15.5647 6.14662 16.1199 6.56934 16.5607 6.77099C16.4742 7.02238 16.29 7.25882 16.0289 7.47281C15.1706 7.08243 13.9038 6.63946 12.4566 6.55916L14.1108 5.34834H12.6704L11.9837 5.74026L11.2754 5.34829H9.88918L11.5433 6.55916C10.0962 6.63927 8.82948 7.08224 7.97096 7.47281C7.70935 7.25835 7.52462 7.02131 7.43846 6.76912ZM13.445 20.1529L12.7764 18.0338L13.9655 16.8448L12 14.8794L10.0346 16.8448L11.2235 18.0337L10.5549 20.1529H5.77079C5.93331 17.3381 7.57192 16.4968 8.90181 15.814C9.54024 15.4862 10.0916 15.2031 10.4288 14.7507C10.4713 14.6937 10.5002 14.6277 10.5133 14.5579L10.6225 13.9767C10.6413 13.8773 10.6273 13.7744 10.5825 13.6836C10.5378 13.5928 10.4648 13.519 10.3745 13.4733C9.14635 12.8506 8.35281 11.3597 8.35281 9.67509C8.35281 9.67012 8.35332 9.66529 8.35346 9.66013C9.28693 10.0432 10.5707 10.4219 12 10.4219C13.429 10.4219 14.7127 10.0432 15.6465 9.66032C15.6465 9.66534 15.6469 9.67016 15.6469 9.67513C15.6469 11.3598 14.8536 12.8506 13.6255 13.4733C13.5353 13.5191 13.4624 13.5929 13.4176 13.6837C13.3729 13.7744 13.3588 13.8773 13.3774 13.9767L13.4867 14.5579C13.4998 14.6278 13.5288 14.6937 13.5713 14.7507C13.9083 15.2031 14.4597 15.4864 15.0983 15.814C16.4279 16.4968 18.0666 17.3381 18.2292 20.1529L13.445 20.1529ZM12 17.4879L11.3571 16.8448L12 16.2017L12.6429 16.8449L12 17.4879ZM11.9688 18.7791L11.9998 18.8102L12.031 18.7791L12.4518 20.1133H11.5479L11.9688 18.7791Z" fill="#2A7DB7"/>
</svg>
