<svg width="26" height="26" viewBox="0 0 26 26" fill="none" xmlns="http://www.w3.org/2000/svg">
<path d="M11.8004 3.39999V10.6C11.8004 11.926 9.38234 13 6.40022 13C3.4181 13 1 11.926 1 10.6V3.39999" stroke="#2A7DB7" stroke-width="1.5" stroke-linecap="round" stroke-linejoin="round"/>
<path d="M11.8004 7C11.8004 8.326 9.38234 9.4 6.40022 9.4C3.4181 9.4 1 8.326 1 7M17.8007 2.2H21.4008C22.0374 2.2 22.6479 2.45286 23.098 2.90294C23.5481 3.35303 23.8009 3.96348 23.8009 4.6V8.2M8.2003 23.8H4.60015C3.9636 23.8 3.35313 23.5471 2.90302 23.097C2.45292 22.647 2.20005 22.0365 2.20005 21.4V17.8M11.8004 3.4C11.8004 4.726 9.38234 5.8 6.40022 5.8C3.4181 5.8 1 4.726 1 3.4C1 2.074 3.4181 1 6.40022 1C9.38234 1 11.8004 2.074 11.8004 3.4Z" stroke="#2A7DB7" stroke-width="1.5" stroke-linecap="round" stroke-linejoin="round"/>
<path d="M19.6003 19C21.2572 19 22.6004 17.6569 22.6004 16C22.6004 14.3431 21.2572 13 19.6003 13C17.9434 13 16.6002 14.3431 16.6002 16C16.6002 17.6569 17.9434 19 19.6003 19Z" stroke="#2A7DB7" stroke-width="1.5" stroke-linecap="round" stroke-linejoin="round"/>
<path d="M25 25H14.1995C14.1995 24.2909 14.3392 23.5887 14.6106 22.9335C14.882 22.2784 15.2798 21.6831 15.7812 21.1816C16.2827 20.6802 16.878 20.2824 17.5332 20.0111C18.1884 19.7397 18.8906 19.6 19.5997 19.6C20.3089 19.6 21.0111 19.7397 21.6663 20.0111C22.3215 20.2824 22.9168 20.6802 23.4183 21.1816C23.9197 21.6831 24.3175 22.2784 24.5889 22.9335C24.8603 23.5887 25 24.2909 25 25Z" stroke="#2A7DB7" stroke-width="1.5" stroke-linecap="round" stroke-linejoin="round"/>
</svg>
