<svg width="24" height="24" viewBox="0 0 24 24" fill="none" xmlns="http://www.w3.org/2000/svg">
<path fill-rule="evenodd" clip-rule="evenodd" d="M5.33429 10.667V12.667L3.00695 16.657C1.97029 18.4337 3.25229 20.667 5.31029 20.667H10.025C12.083 20.667 13.365 18.4343 12.3283 16.657L10.001 12.667V10.667C10.1778 10.667 10.3473 10.5968 10.4724 10.4718C10.5974 10.3467 10.6676 10.1772 10.6676 10.0003V7.33368C10.6676 7.15687 10.5974 6.9873 10.4724 6.86227C10.3473 6.73725 10.1778 6.66701 10.001 6.66701H5.33429C5.15748 6.66701 4.98791 6.73725 4.86288 6.86227C4.73786 6.9873 4.66762 7.15687 4.66762 7.33368V10.0003C4.66762 10.1772 4.73786 10.3467 4.86288 10.4718C4.98791 10.5968 5.15748 10.667 5.33429 10.667ZM11.1763 17.3283L8.66762 13.0277V10.667H6.66762V13.027L4.15895 17.3283C3.64029 18.2177 4.28095 19.3337 5.31029 19.3337H10.025C11.0536 19.3337 11.695 18.2177 11.1763 17.3283ZM6.00095 8.00035V9.33368H9.33429V8.00035H6.00095ZM17.3343 7.11901C18.8556 6.10568 20.001 5.12568 20.001 3.33368H21.3343C21.3343 5.60768 19.9496 6.92101 18.5423 7.91035C19.0963 8.28235 19.647 8.68568 20.101 9.14768C20.8156 9.87368 21.3343 10.783 21.3343 12.0003C21.3343 13.2177 20.8156 14.127 20.101 14.8537C19.647 15.315 19.0963 15.7183 18.5423 16.0903C19.949 17.0797 21.3343 18.393 21.3343 20.667H20.001C20.001 20.4317 19.981 20.2097 19.9436 20.0003H16.6676C16.4908 20.0003 16.3212 19.9301 16.1962 19.8051C16.0712 19.6801 16.001 19.5105 16.001 19.3337C16.001 19.1569 16.0712 18.9873 16.1962 18.8623C16.3212 18.7372 16.4908 18.667 16.6676 18.667H19.3776C18.8963 17.9877 18.1723 17.4397 17.3343 16.8817C15.813 17.895 14.6676 18.875 14.6676 20.667H13.3343C13.3343 18.393 14.719 17.0797 16.1263 16.0903C15.5723 15.7183 15.0216 15.315 14.5676 14.853C13.853 14.127 13.3343 13.2177 13.3343 12.0003C13.3343 10.783 13.853 9.87368 14.5676 9.14701C15.0216 8.68568 15.5723 8.28235 16.1263 7.91035C14.7196 6.92101 13.3343 5.60768 13.3343 3.33368H14.6676C14.6676 3.56901 14.6876 3.79101 14.725 4.00035H18.001C18.1778 4.00035 18.3473 4.07058 18.4724 4.19561C18.5974 4.32063 18.6676 4.4902 18.6676 4.66701C18.6676 4.84382 18.5974 5.01339 18.4724 5.13842C18.3473 5.26344 18.1778 5.33368 18.001 5.33368H15.291C15.7723 6.01301 16.4963 6.56101 17.3343 7.11901ZM17.3343 8.71235C16.665 9.14701 16.0703 9.54568 15.601 10.0003H19.0676C18.599 9.54568 18.0036 9.14701 17.3343 8.71168V8.71235ZM14.6676 12.0003C14.6676 11.7617 14.697 11.5403 14.753 11.3337H19.9156C19.9716 11.5403 20.001 11.7617 20.001 12.0003C20.001 12.239 19.9716 12.4603 19.9156 12.667H14.753C14.6951 12.4495 14.6664 12.2254 14.6676 12.0003ZM15.601 14.0003C16.0703 14.455 16.665 14.8537 17.3343 15.289C18.0036 14.8537 18.599 14.455 19.0676 14.0003H15.601Z" fill="#2A7DB7"/>
<path fill-rule="evenodd" clip-rule="evenodd" d="M2 0C1.46957 0 0.960859 0.210714 0.585787 0.585787C0.210714 0.960859 0 1.46957 0 2V22C0 22.5304 0.210714 23.0391 0.585787 23.4142C0.960859 23.7893 1.46957 24 2 24H22C22.5304 24 23.0391 23.7893 23.4142 23.4142C23.7893 23.0391 24 22.5304 24 22V2C24 1.46957 23.7893 0.960859 23.4142 0.585787C23.0391 0.210714 22.5304 0 22 0H2ZM22.6667 2C22.6667 1.82319 22.5964 1.65362 22.4714 1.5286C22.3464 1.40357 22.1768 1.33333 22 1.33333H2C1.82319 1.33333 1.65362 1.40357 1.5286 1.5286C1.40357 1.65362 1.33333 1.82319 1.33333 2V22C1.33333 22.1768 1.40357 22.3464 1.5286 22.4714C1.65362 22.5964 1.82319 22.6667 2 22.6667H22C22.1768 22.6667 22.3464 22.5964 22.4714 22.4714C22.5964 22.3464 22.6667 22.1768 22.6667 22V2Z" fill="#2A7DB7"/>
</svg>
