<svg width="24" height="18" viewBox="0 0 24 18" fill="none" xmlns="http://www.w3.org/2000/svg">
<path d="M15.12 0.600006C12.7608 0.600006 10.632 1.57561 9.10559 3.14281C8.1195 2.94343 7.10258 2.95293 6.12039 3.17067C5.1382 3.38841 4.21254 3.80957 3.4031 4.407C2.59366 5.00442 1.9184 5.76484 1.42086 6.63924C0.923323 7.51364 0.614552 8.48259 0.514456 9.48364C0.41436 10.4847 0.52516 11.4956 0.839713 12.4512C1.15427 13.4068 1.66559 14.2859 2.34071 15.0317C3.01584 15.7776 3.83978 16.3737 4.75941 16.7816C5.67904 17.1895 6.67395 17.4002 7.67999 17.4H15.12C16.2231 17.4 17.3154 17.1827 18.3345 16.7606C19.3537 16.3385 20.2797 15.7197 21.0597 14.9397C21.8397 14.1597 22.4584 13.2337 22.8806 12.2145C23.3027 11.1954 23.52 10.1031 23.52 9.00001C23.52 7.8969 23.3027 6.8046 22.8806 5.78547C22.4584 4.76633 21.8397 3.84032 21.0597 3.06031C20.2797 2.2803 19.3537 1.66156 18.3345 1.23942C17.3154 0.817279 16.2231 0.600006 15.12 0.600006ZM7.67999 15.8736C6.93447 15.8755 6.19597 15.7297 5.50719 15.4444C4.81841 15.1591 4.19302 14.7401 3.66719 14.2116C2.59679 13.14 2.00639 11.7144 2.00639 10.2C2.00639 8.68561 2.59679 7.26001 3.66839 6.18841C4.73999 5.11681 6.16439 4.52641 7.67999 4.52641C9.19559 4.52641 10.62 5.11681 11.6928 6.18841L13.9416 8.43841C14.0991 8.59594 14.1876 8.80961 14.1876 9.03241C14.1876 9.2552 14.0991 9.46887 13.9416 9.62641C13.7841 9.78395 13.5704 9.87245 13.3476 9.87245C13.1248 9.87245 12.9111 9.78395 12.7536 9.62641L10.5048 7.37521C8.99519 5.86801 6.36599 5.86801 4.85639 7.37521C4.10159 8.13121 3.68639 9.13321 3.68639 10.2C3.68639 11.2668 4.10159 12.2688 4.85639 13.0248C5.79839 13.9656 7.17599 14.3184 8.44559 14.0856C8.83439 14.5944 9.27239 15.0636 9.76559 15.4716C9.10193 15.7358 8.39431 15.8722 7.67999 15.8736ZM20.0268 13.9068C19.3838 14.5531 18.6191 15.0655 17.7769 15.4144C16.9347 15.7633 16.0316 15.9418 15.12 15.9396C14.2082 15.9419 13.3049 15.7635 12.4625 15.4146C11.62 15.0656 10.8551 14.5532 10.212 13.9068L6.96119 10.656C6.80365 10.4985 6.71515 10.2848 6.71515 10.062C6.71515 9.83921 6.80365 9.62555 6.96119 9.46801C7.11873 9.31047 7.3324 9.22196 7.55519 9.22196C7.77798 9.22196 7.99165 9.31047 8.14919 9.46801L11.4 12.7188C12.3936 13.7124 13.7148 14.2596 15.12 14.2596C16.5252 14.2596 17.8452 13.7124 18.8388 12.7188C19.8324 11.7252 20.3796 10.404 20.3796 9.00001C20.3796 7.59601 19.8324 6.27481 18.8388 5.28121C17.8452 4.28761 16.5252 3.74041 15.12 3.74041C14.0724 3.74041 13.0716 4.04641 12.2184 4.61281C11.7579 4.24126 11.2538 3.92733 10.7172 3.67801C11.9592 2.64841 13.488 2.05921 15.1212 2.05921C16.974 2.05921 18.7164 2.78161 20.028 4.09201C21.3396 5.40361 22.0608 7.14601 22.0608 8.99881C22.0608 10.8516 21.3384 12.5964 20.0268 13.9068Z" fill="#2A7DB7"/>
</svg>
