<svg width="23" height="21" viewBox="0 0 23 21" fill="none" xmlns="http://www.w3.org/2000/svg">
<path d="M16.0423 1H6.54232C5.66787 1 4.95898 1.70888 4.95898 2.58333V10.5C4.95898 11.3745 5.66787 12.0833 6.54232 12.0833H16.0423C16.9168 12.0833 17.6257 11.3745 17.6257 10.5V2.58333C17.6257 1.70888 16.9168 1 16.0423 1Z" stroke="#2A7DB7" stroke-width="1.5" stroke-linecap="round" stroke-linejoin="round"/>
<path d="M4.95833 5.75H2.58333C2.16341 5.75 1.76068 5.91682 1.46375 6.21375C1.16682 6.51068 1 6.91341 1 7.33333V14.4583C1 14.8783 1.16682 15.281 1.46375 15.5779C1.76068 15.8749 2.16341 16.0417 2.58333 16.0417H20C20.4199 16.0417 20.8227 15.8749 21.1196 15.5779C21.4165 15.281 21.5833 14.8783 21.5833 14.4583V7.33333C21.5833 6.91341 21.4165 6.51068 21.1196 6.21375C20.8227 5.91682 20.4199 5.75 20 5.75H17.625M6.54167 16.0417L5.75 20M16.0417 16.0417L16.8333 20" stroke="#2A7DB7" stroke-width="1.5" stroke-linecap="round" stroke-linejoin="round"/>
</svg>
