<svg width="28" height="26" viewBox="0 0 28 26" fill="none" xmlns="http://www.w3.org/2000/svg">
<mask id="path-1-outside-1_1_55" maskUnits="userSpaceOnUse" x="0" y="0" width="28" height="26" fill="black">
<rect fill="white" width="28" height="26"/>
<path d="M2 24V20.5778C2 19.9056 2.15525 19.2741 2.46575 18.6833C2.77626 18.0926 3.20548 17.6444 3.75342 17.3389C4.68493 16.8093 5.73516 16.3611 6.90411 15.9944C8.07306 15.6278 9.36073 15.4444 10.7671 15.4444C12.1735 15.4444 13.4612 15.6278 14.6301 15.9944C15.7991 16.3611 16.8493 16.8093 17.7808 17.3389C18.3288 17.6444 18.758 18.0926 19.0685 18.6833C19.379 19.2741 19.5342 19.9056 19.5342 20.5778V24H2ZM4.19178 21.5556H17.3425V20.5778C17.3425 20.3537 17.2921 20.15 17.1912 19.9667C17.0904 19.7833 16.9582 19.6407 16.7945 19.5389C16.137 19.1722 15.2921 18.8056 14.2597 18.4389C13.2274 18.0722 12.0632 17.8889 10.7671 17.8889C9.47032 17.8889 8.30575 18.0722 7.27342 18.4389C6.2411 18.8056 5.39653 19.1722 4.73973 19.5389C4.57534 19.6407 4.44311 19.7833 4.34301 19.9667C4.24292 20.15 4.19251 20.3537 4.19178 20.5778V21.5556ZM10.7671 14.2222C9.56164 14.2222 8.52968 13.7435 7.67123 12.7861C6.81279 11.8287 6.38356 10.6778 6.38356 9.33333H6.10959C5.94521 9.33333 5.81297 9.27711 5.71288 9.16467C5.61279 9.05222 5.56237 8.90474 5.56164 8.72222C5.56164 8.53889 5.61206 8.391 5.71288 8.27856C5.8137 8.16611 5.94594 8.1103 6.10959 8.11111H6.38356C6.38356 7.19444 6.58448 6.36944 6.9863 5.63611C7.38813 4.90278 7.91781 4.32222 8.57534 3.89444V5.05556C8.57534 5.23889 8.62575 5.38678 8.72658 5.49922C8.8274 5.61167 8.95963 5.66748 9.12329 5.66667C9.28767 5.66667 9.42027 5.61044 9.5211 5.498C9.62192 5.38556 9.67196 5.23807 9.67123 5.05556V3.40556C9.83562 3.34444 10.0091 3.29841 10.1918 3.26744C10.3744 3.23648 10.5662 3.22141 10.7671 3.22222C10.968 3.22222 11.1598 3.2377 11.3425 3.26867C11.5251 3.29963 11.6986 3.34526 11.863 3.40556V5.05556C11.863 5.23889 11.9134 5.38678 12.0142 5.49922C12.1151 5.61167 12.2473 5.66748 12.411 5.66667C12.5753 5.66667 12.7079 5.61044 12.8088 5.498C12.9096 5.38556 12.9596 5.23807 12.9589 5.05556V3.89444C13.6164 4.32222 14.1461 4.90278 14.5479 5.63611C14.9498 6.36944 15.1507 7.19444 15.1507 8.11111H15.4247C15.589 8.11111 15.7216 8.16733 15.8225 8.27978C15.9233 8.39222 15.9733 8.5397 15.9726 8.72222C15.9726 8.90556 15.9222 9.05344 15.8214 9.16589C15.7205 9.27833 15.5883 9.33415 15.4247 9.33333H15.1507C15.1507 10.6778 14.7215 11.8287 13.863 12.7861C13.0046 13.7435 11.9726 14.2222 10.7671 14.2222ZM10.7671 11.7778C11.3699 11.7778 11.886 11.5382 12.3156 11.0591C12.7452 10.58 12.9596 10.0047 12.9589 9.33333H8.57534C8.57534 10.0056 8.79014 10.5812 9.21973 11.0603C9.64932 11.5394 10.1651 11.7786 10.7671 11.7778ZM18.9863 16.6667L18.8219 15.75C18.7123 15.7093 18.6075 15.6632 18.5074 15.6119C18.4073 15.5606 18.3112 15.4844 18.2192 15.3833L17.4521 15.6889L16.9041 14.5889L17.5068 13.9778V13.2444L16.9041 12.6333L17.4521 11.5333L18.2192 11.8389C18.2922 11.7574 18.3836 11.6861 18.4932 11.625C18.6027 11.5639 18.7123 11.513 18.8219 11.4722L18.9863 10.5556H20.0822L20.2466 11.4722C20.3562 11.513 20.4658 11.5639 20.5753 11.625C20.6849 11.6861 20.7763 11.7574 20.8493 11.8389L21.6164 11.5333L22.1644 12.6333L21.5616 13.2444V13.9778L22.1644 14.5889L21.6164 15.6889L20.8493 15.3833C20.758 15.4852 20.6619 15.5618 20.5611 15.6131C20.4603 15.6644 20.3554 15.7101 20.2466 15.75L20.0822 16.6667H18.9863ZM19.5342 14.5278C19.7534 14.5278 19.9452 14.4361 20.1096 14.2528C20.274 14.0694 20.3562 13.8556 20.3562 13.6111C20.3562 13.3667 20.274 13.1528 20.1096 12.9694C19.9452 12.7861 19.7534 12.6944 19.5342 12.6944C19.3151 12.6944 19.1233 12.7861 18.9589 12.9694C18.7945 13.1528 18.7123 13.3667 18.7123 13.6111C18.7123 13.8556 18.7945 14.0694 18.9589 14.2528C19.1233 14.4361 19.3151 14.5278 19.5342 14.5278ZM21.5068 10.5556L21.2877 9.27222C21.1233 9.21111 20.9728 9.13452 20.8362 9.04244C20.6995 8.95037 20.5761 8.84363 20.4658 8.72222L19.3151 9.15L18.5479 7.68333L19.4795 6.76667C19.4429 6.66481 19.4247 6.58333 19.4247 6.52222V6.03333C19.4247 5.97222 19.4429 5.89074 19.4795 5.78889L18.5479 4.87222L19.3151 3.40556L20.4658 3.83333C20.5753 3.71111 20.6988 3.60396 20.8362 3.51189C20.9735 3.41981 21.124 3.34363 21.2877 3.28333L21.5068 2H23.0411L23.2603 3.28333C23.4247 3.34444 23.5755 3.42104 23.7129 3.51311C23.8502 3.60519 23.9733 3.71193 24.0822 3.83333L25.2329 3.40556L26 4.87222L25.0685 5.78889C25.105 5.89074 25.1233 5.97222 25.1233 6.03333V6.52222C25.1233 6.58333 25.105 6.66481 25.0685 6.76667L26 7.68333L25.2329 9.15L24.0822 8.72222C23.9726 8.84444 23.8495 8.95159 23.7129 9.04367C23.5763 9.13574 23.4254 9.21193 23.2603 9.27222L23.0411 10.5556H21.5068ZM22.274 7.80556C22.6575 7.80556 22.9819 7.65767 23.2471 7.36189C23.5123 7.06611 23.6446 6.70474 23.6438 6.27778C23.6438 5.85 23.5112 5.48822 23.246 5.19244C22.9808 4.89667 22.6568 4.74919 22.274 4.75C21.8904 4.75 21.566 4.89789 21.3008 5.19367C21.0356 5.48944 20.9034 5.85081 20.9041 6.27778C20.9041 6.70556 21.0367 7.06733 21.3019 7.36311C21.5671 7.65889 21.8911 7.80637 22.274 7.80556Z"/>
</mask>
<path d="M2 24V20.5778C2 19.9056 2.15525 19.2741 2.46575 18.6833C2.77626 18.0926 3.20548 17.6444 3.75342 17.3389C4.68493 16.8093 5.73516 16.3611 6.90411 15.9944C8.07306 15.6278 9.36073 15.4444 10.7671 15.4444C12.1735 15.4444 13.4612 15.6278 14.6301 15.9944C15.7991 16.3611 16.8493 16.8093 17.7808 17.3389C18.3288 17.6444 18.758 18.0926 19.0685 18.6833C19.379 19.2741 19.5342 19.9056 19.5342 20.5778V24H2ZM4.19178 21.5556H17.3425V20.5778C17.3425 20.3537 17.2921 20.15 17.1912 19.9667C17.0904 19.7833 16.9582 19.6407 16.7945 19.5389C16.137 19.1722 15.2921 18.8056 14.2597 18.4389C13.2274 18.0722 12.0632 17.8889 10.7671 17.8889C9.47032 17.8889 8.30575 18.0722 7.27342 18.4389C6.2411 18.8056 5.39653 19.1722 4.73973 19.5389C4.57534 19.6407 4.44311 19.7833 4.34301 19.9667C4.24292 20.15 4.19251 20.3537 4.19178 20.5778V21.5556ZM10.7671 14.2222C9.56164 14.2222 8.52968 13.7435 7.67123 12.7861C6.81279 11.8287 6.38356 10.6778 6.38356 9.33333H6.10959C5.94521 9.33333 5.81297 9.27711 5.71288 9.16467C5.61279 9.05222 5.56237 8.90474 5.56164 8.72222C5.56164 8.53889 5.61206 8.391 5.71288 8.27856C5.8137 8.16611 5.94594 8.1103 6.10959 8.11111H6.38356C6.38356 7.19444 6.58448 6.36944 6.9863 5.63611C7.38813 4.90278 7.91781 4.32222 8.57534 3.89444V5.05556C8.57534 5.23889 8.62575 5.38678 8.72658 5.49922C8.8274 5.61167 8.95963 5.66748 9.12329 5.66667C9.28767 5.66667 9.42027 5.61044 9.5211 5.498C9.62192 5.38556 9.67196 5.23807 9.67123 5.05556V3.40556C9.83562 3.34444 10.0091 3.29841 10.1918 3.26744C10.3744 3.23648 10.5662 3.22141 10.7671 3.22222C10.968 3.22222 11.1598 3.2377 11.3425 3.26867C11.5251 3.29963 11.6986 3.34526 11.863 3.40556V5.05556C11.863 5.23889 11.9134 5.38678 12.0142 5.49922C12.1151 5.61167 12.2473 5.66748 12.411 5.66667C12.5753 5.66667 12.7079 5.61044 12.8088 5.498C12.9096 5.38556 12.9596 5.23807 12.9589 5.05556V3.89444C13.6164 4.32222 14.1461 4.90278 14.5479 5.63611C14.9498 6.36944 15.1507 7.19444 15.1507 8.11111H15.4247C15.589 8.11111 15.7216 8.16733 15.8225 8.27978C15.9233 8.39222 15.9733 8.5397 15.9726 8.72222C15.9726 8.90556 15.9222 9.05344 15.8214 9.16589C15.7205 9.27833 15.5883 9.33415 15.4247 9.33333H15.1507C15.1507 10.6778 14.7215 11.8287 13.863 12.7861C13.0046 13.7435 11.9726 14.2222 10.7671 14.2222ZM10.7671 11.7778C11.3699 11.7778 11.886 11.5382 12.3156 11.0591C12.7452 10.58 12.9596 10.0047 12.9589 9.33333H8.57534C8.57534 10.0056 8.79014 10.5812 9.21973 11.0603C9.64932 11.5394 10.1651 11.7786 10.7671 11.7778ZM18.9863 16.6667L18.8219 15.75C18.7123 15.7093 18.6075 15.6632 18.5074 15.6119C18.4073 15.5606 18.3112 15.4844 18.2192 15.3833L17.4521 15.6889L16.9041 14.5889L17.5068 13.9778V13.2444L16.9041 12.6333L17.4521 11.5333L18.2192 11.8389C18.2922 11.7574 18.3836 11.6861 18.4932 11.625C18.6027 11.5639 18.7123 11.513 18.8219 11.4722L18.9863 10.5556H20.0822L20.2466 11.4722C20.3562 11.513 20.4658 11.5639 20.5753 11.625C20.6849 11.6861 20.7763 11.7574 20.8493 11.8389L21.6164 11.5333L22.1644 12.6333L21.5616 13.2444V13.9778L22.1644 14.5889L21.6164 15.6889L20.8493 15.3833C20.758 15.4852 20.6619 15.5618 20.5611 15.6131C20.4603 15.6644 20.3554 15.7101 20.2466 15.75L20.0822 16.6667H18.9863ZM19.5342 14.5278C19.7534 14.5278 19.9452 14.4361 20.1096 14.2528C20.274 14.0694 20.3562 13.8556 20.3562 13.6111C20.3562 13.3667 20.274 13.1528 20.1096 12.9694C19.9452 12.7861 19.7534 12.6944 19.5342 12.6944C19.3151 12.6944 19.1233 12.7861 18.9589 12.9694C18.7945 13.1528 18.7123 13.3667 18.7123 13.6111C18.7123 13.8556 18.7945 14.0694 18.9589 14.2528C19.1233 14.4361 19.3151 14.5278 19.5342 14.5278ZM21.5068 10.5556L21.2877 9.27222C21.1233 9.21111 20.9728 9.13452 20.8362 9.04244C20.6995 8.95037 20.5761 8.84363 20.4658 8.72222L19.3151 9.15L18.5479 7.68333L19.4795 6.76667C19.4429 6.66481 19.4247 6.58333 19.4247 6.52222V6.03333C19.4247 5.97222 19.4429 5.89074 19.4795 5.78889L18.5479 4.87222L19.3151 3.40556L20.4658 3.83333C20.5753 3.71111 20.6988 3.60396 20.8362 3.51189C20.9735 3.41981 21.124 3.34363 21.2877 3.28333L21.5068 2H23.0411L23.2603 3.28333C23.4247 3.34444 23.5755 3.42104 23.7129 3.51311C23.8502 3.60519 23.9733 3.71193 24.0822 3.83333L25.2329 3.40556L26 4.87222L25.0685 5.78889C25.105 5.89074 25.1233 5.97222 25.1233 6.03333V6.52222C25.1233 6.58333 25.105 6.66481 25.0685 6.76667L26 7.68333L25.2329 9.15L24.0822 8.72222C23.9726 8.84444 23.8495 8.95159 23.7129 9.04367C23.5763 9.13574 23.4254 9.21193 23.2603 9.27222L23.0411 10.5556H21.5068ZM22.274 7.80556C22.6575 7.80556 22.9819 7.65767 23.2471 7.36189C23.5123 7.06611 23.6446 6.70474 23.6438 6.27778C23.6438 5.85 23.5112 5.48822 23.246 5.19244C22.9808 4.89667 22.6568 4.74919 22.274 4.75C21.8904 4.75 21.566 4.89789 21.3008 5.19367C21.0356 5.48944 20.9034 5.85081 20.9041 6.27778C20.9041 6.70556 21.0367 7.06733 21.3019 7.36311C21.5671 7.65889 21.8911 7.80637 22.274 7.80556Z" stroke="#2A7DB7" stroke-width="2.4" mask="url(#path-1-outside-1_1_55)"/>
</svg>
