<svg width="34" height="34" viewBox="0 0 34 34" fill="none" xmlns="http://www.w3.org/2000/svg">
<path d="M16.752 11.1563C16.9607 11.1534 17.164 11.0896 17.3369 10.9727C17.5098 10.8558 17.6448 10.6909 17.7252 10.4982C17.8056 10.3056 17.828 10.0937 17.7896 9.88857C17.7512 9.68341 17.6536 9.49395 17.509 9.3435C17.3084 9.1443 17.0372 9.0325 16.7545 9.0325C16.4718 9.0325 16.2005 9.1443 16 9.3435C15.9009 9.44207 15.8223 9.55925 15.7686 9.68831C15.715 9.81736 15.6873 9.95575 15.6873 10.0955C15.6873 10.2353 15.715 10.3737 15.7686 10.5027C15.8223 10.6318 15.9009 10.749 16 10.8475C16.0975 10.9467 16.2138 11.0254 16.342 11.0793C16.4703 11.1332 16.6079 11.161 16.747 11.1613L16.752 11.1563ZM18.256 11.5995C18.0591 11.797 17.8253 11.9539 17.5679 12.061C17.3104 12.1681 17.0344 12.2235 16.7555 12.224C16.4766 12.2244 16.2004 12.17 15.9426 12.0637C15.6848 11.9574 15.4504 11.8014 15.2529 11.6045C14.854 11.2069 14.6294 10.6672 14.6285 10.104C14.628 9.82515 14.6825 9.54893 14.7888 9.29112C14.8951 9.03331 15.0511 8.79896 15.2479 8.60144C15.6455 8.20255 16.1853 7.97793 16.7485 7.977C17.3116 7.97606 17.8521 8.19889 18.251 8.59646C18.6499 8.99404 18.8745 9.53378 18.8755 10.097C18.8764 10.6602 18.6536 11.2006 18.256 11.5995Z" fill="#2A7DB7"/>
<path d="M9.985 9.61722L14.7212 14.4879L14.8706 14.8564V19.1245L14.8557 19.2589L12.8138 27.0878C12.7142 27.4414 12.744 27.6755 12.8436 27.79C12.8705 27.8246 12.9068 27.8506 12.9482 27.8648C13.0115 27.8831 13.0784 27.8848 13.1425 27.8697C13.3715 27.8199 13.6206 27.6207 13.7899 27.2372L15.9662 20.7729L16.0858 20.4143H17.3657L17.4952 20.763L19.8508 27.2522C19.9803 27.6207 20.2293 27.8149 20.4684 27.8598C20.5343 27.8729 20.6024 27.8712 20.6676 27.8548C20.7152 27.842 20.7584 27.8161 20.7921 27.7801C20.8917 27.6755 20.9265 27.4514 20.812 27.0978V27.0829L18.6107 19.2639L18.5908 19.1245V14.8564L18.7402 14.4879L23.4914 9.60726L23.4963 9.60227C23.6457 9.45287 23.6955 9.2686 23.6507 9.13413C23.639 9.09118 23.6167 9.05182 23.586 9.01959C23.5585 8.99248 23.524 8.97352 23.4864 8.96481C23.3121 8.915 23.0232 9.01461 22.6447 9.36322L22.6397 9.37318L18.4215 13.1283L18.0679 13.2627H15.4035L15.0549 13.1283L10.8267 9.37318C10.478 9.07437 10.2091 8.98473 10.0298 9.02955C9.98835 9.04032 9.95062 9.06227 9.92076 9.09301C9.89091 9.12374 9.87006 9.16209 9.86049 9.20386C9.82563 9.32338 9.86049 9.47777 9.985 9.61722ZM13.8098 15.0706L9.21306 10.3443L9.19812 10.3344C9.01908 10.147 8.89223 9.91598 8.83019 9.66434C8.76815 9.4127 8.7731 9.1492 8.84453 8.90006C8.90985 8.68331 9.02982 8.48701 9.19291 8.33002C9.35601 8.17303 9.55675 8.06063 9.77583 8.00362C10.2589 7.87912 10.8814 8.00362 11.5289 8.58133L15.6027 12.202H17.8637L21.9325 8.58133C22.6198 7.94386 23.2722 7.80441 23.7703 7.93888C23.9902 7.99946 24.1897 8.11816 24.348 8.28252C24.4974 8.43192 24.6069 8.62615 24.6667 8.83034C24.7416 9.09646 24.7427 9.37794 24.6699 9.64464C24.5971 9.91133 24.4531 10.1532 24.2533 10.3443L19.6566 15.0706V19.0547L21.828 26.784C22.067 27.561 21.9076 28.1436 21.559 28.5122C21.3963 28.6851 21.1898 28.8107 20.9614 28.8757C20.7408 28.9369 20.5092 28.9472 20.2841 28.9056C19.9517 28.8377 19.6436 28.6817 19.3921 28.4539C19.1407 28.2261 18.9551 27.9349 18.8548 27.6108L16.7382 21.7939L14.7909 27.6008L14.771 27.6406C14.6538 27.9493 14.4641 28.2254 14.218 28.4455C13.9718 28.6656 13.6764 28.8234 13.3566 28.9056C13.1193 28.9584 12.8725 28.9499 12.6395 28.8807C12.3973 28.807 12.1823 28.6632 12.0219 28.4674C11.7231 28.0988 11.5936 27.5361 11.7928 26.8139L13.8098 19.0647V15.0706Z" fill="#2A7DB7"/>
<path d="M7.96875 6.37443H25.4991V7.43522H7.96875V6.37443Z" fill="#2A7DB7"/>
<path d="M6.22626 3.72047H7.61076C7.84719 3.72047 8.07394 3.81439 8.24112 3.98157C8.4083 4.14875 8.50222 4.3755 8.50222 4.61193V9.19373C8.50222 9.44274 8.40262 9.66187 8.23827 9.82124C8.15623 9.90442 8.05855 9.97055 7.95086 10.0159C7.84317 10.0612 7.72759 10.0847 7.61076 10.0852H6.22626C5.99081 10.084 5.76466 9.99317 5.59377 9.8312C5.50623 9.74961 5.43633 9.65096 5.38836 9.54133C5.3404 9.43169 5.31539 9.3134 5.31488 9.19373V4.61193C5.31488 4.36292 5.42445 4.13383 5.59377 3.97446C5.76466 3.81249 5.99081 3.72167 6.22626 3.72047ZM7.43645 4.78125H6.37567V9.0244H7.43645V4.78125ZM25.8832 3.72047H27.2627C27.4991 3.72047 27.7259 3.81439 27.8931 3.98157C28.0603 4.14875 28.1542 4.3755 28.1542 4.61193V9.19373C28.1548 9.31098 28.1322 9.4272 28.0877 9.53566C28.0431 9.64411 27.9775 9.74265 27.8945 9.82556C27.8116 9.90847 27.7131 9.97411 27.6046 10.0187C27.4962 10.0632 27.38 10.0859 27.2627 10.0852H25.8832C25.6477 10.084 25.4216 9.99317 25.2507 9.8312C25.1632 9.74961 25.0933 9.65096 25.0453 9.54133C24.9973 9.43169 24.9723 9.3134 24.9718 9.19373V4.61193C24.9718 4.36292 25.0814 4.13383 25.2507 3.97446C25.4216 3.81249 25.6477 3.72167 25.8832 3.72047ZM27.0934 4.78125H26.0326V9.0244H27.0934V4.78125Z" fill="#2A7DB7"/>
</svg>
