<svg width="24" height="26" viewBox="0 0 24 26" fill="none" xmlns="http://www.w3.org/2000/svg">
<path d="M8.41695 8.03775L8.43943 7.98277L8.41695 8.03775ZM10.6424 7.58864L10.6776 7.57162L10.6424 7.58864ZM11.6155 9.27249C11.6141 9.27249 11.6127 9.27248 11.6113 9.27244L11.9996 8.23306L12.3804 9.27242C12.3788 9.27247 12.3772 9.27249 12.3755 9.27249H11.6155Z" stroke="#2A7DB7"/>
<mask id="path-2-inside-1_1_44" fill="white">
<path d="M10.3325 7.87178C10.3319 7.80213 10.3107 7.73368 10.271 7.6724C10.2312 7.61112 10.1741 7.55889 10.1046 7.52025C10.0351 7.48161 9.95523 7.45775 9.87209 7.45075C9.78894 7.44374 9.705 7.45381 9.6276 7.48007C9.64511 7.49258 9.65916 7.50811 9.6688 7.52557C9.67843 7.54304 9.68343 7.56204 9.68343 7.58126C9.68343 7.60049 9.67845 7.61948 9.66882 7.63695C9.65919 7.65442 9.64515 7.66995 9.62765 7.68247C9.61014 7.69499 9.5896 7.70421 9.56742 7.7095C9.54525 7.71478 9.52196 7.71601 9.49916 7.71309C9.47637 7.71017 9.45459 7.70318 9.43534 7.69259C9.41609 7.68201 9.39981 7.66808 9.38762 7.65175C9.34118 7.71454 9.31536 7.78639 9.31272 7.86011C9.31009 7.93383 9.33075 8.00683 9.37262 8.0718H10.2725C10.3125 8.00513 10.3325 7.93846 10.3325 7.87178ZM13.9972 7.47257C14.0941 7.44399 14.1991 7.44038 14.2984 7.46219C14.3978 7.48401 14.487 7.53025 14.5544 7.59489C14.6218 7.65953 14.6644 7.73959 14.6764 7.82465C14.6885 7.9097 14.6696 7.99582 14.6222 8.0718H13.7223C13.6778 8.00301 13.6572 7.92528 13.6627 7.84728C13.6682 7.76929 13.6995 7.69409 13.7533 7.63008C13.7627 7.64905 13.7772 7.66594 13.7957 7.67946C13.8142 7.69299 13.8362 7.70276 13.86 7.70804C13.8838 7.71331 13.9087 7.71394 13.9328 7.70987C13.957 7.70581 13.9796 7.69715 13.9991 7.68459C14.0186 7.67203 14.0343 7.65589 14.045 7.63744C14.0558 7.61898 14.0613 7.59871 14.0611 7.5782C14.0609 7.55768 14.0551 7.53748 14.044 7.51916C14.0329 7.50083 14.0169 7.48489 13.9972 7.47257Z"/>
</mask>
<path d="M10.3325 7.87178H11.3326L11.3325 7.86188L10.3325 7.87178ZM9.6276 7.48007L9.30634 6.53308L7.45975 7.15953L9.04603 8.29356L9.6276 7.48007ZM9.38762 7.65175L10.1888 7.05339L9.38375 5.97536L8.58365 7.05709L9.38762 7.65175ZM9.37262 8.0718L8.53207 8.61354L8.82743 9.0718H9.37262V8.0718ZM10.2725 8.0718V9.0718H10.8388L11.1301 8.58622L10.2725 8.0718ZM13.9972 7.47257L13.7143 6.51342L11.5849 7.14152L13.4664 8.32004L13.9972 7.47257ZM14.6222 8.0718V9.0718H15.1768L15.4705 8.60136L14.6222 8.0718ZM13.7223 8.0718L12.8822 8.61434L13.1777 9.0718H13.7223V8.0718ZM13.7533 7.63008L14.6492 7.18599L13.9704 5.81646L12.9875 6.987L13.7533 7.63008ZM11.3325 7.86188C11.3298 7.59308 11.2477 7.34068 11.11 7.12831L9.43195 8.21649C9.37371 8.12667 9.33387 8.01118 9.33259 7.88168L11.3325 7.86188ZM11.11 7.12831C10.9735 6.91778 10.7898 6.75698 10.5903 6.64613L9.61887 8.39437C9.55846 8.3608 9.48901 8.30446 9.43195 8.21649L11.11 7.12831ZM10.5903 6.64613C10.391 6.53537 10.1732 6.47257 9.95603 6.45428L9.78814 8.44722C9.73726 8.44293 9.67913 8.42785 9.61887 8.39437L10.5903 6.64613ZM9.95603 6.45428C9.73879 6.43597 9.51673 6.4617 9.30634 6.53308L9.94887 8.42706C9.89327 8.44592 9.83909 8.45151 9.78814 8.44722L9.95603 6.45428ZM9.04603 8.29356C8.95184 8.22623 8.86126 8.13198 8.79321 8.00864L10.5444 7.04251C10.4571 6.88424 10.3384 6.75894 10.2092 6.66657L9.04603 8.29356ZM8.79321 8.00864C8.72447 7.88403 8.68346 7.73761 8.68343 7.58148L10.6834 7.58105C10.6834 7.38646 10.6324 7.20205 10.5444 7.04251L8.79321 8.00864ZM8.68343 7.58148C8.6834 7.42533 8.72434 7.27889 8.79304 7.15424L10.5446 8.11967C10.6326 7.96008 10.6835 7.77564 10.6834 7.58105L8.68343 7.58148ZM8.79304 7.15424C8.86105 7.03086 8.95161 6.93656 9.0458 6.86918L10.2095 8.49577C10.3387 8.40334 10.4573 8.27799 10.5446 8.11967L8.79304 7.15424ZM9.0458 6.86918C9.1397 6.80199 9.23946 6.75965 9.33561 6.73674L9.79924 8.68226C9.93974 8.64877 10.0806 8.58799 10.2095 8.49577L9.0458 6.86918ZM9.33561 6.73674C9.43186 6.7138 9.53015 6.7089 9.6261 6.72118L9.37222 8.705C9.51377 8.72312 9.65863 8.71576 9.79924 8.68226L9.33561 6.73674ZM9.6261 6.72118C9.72199 6.73345 9.82141 6.76367 9.91718 6.81634L8.9535 8.56885C9.08778 8.64269 9.23074 8.68689 9.37222 8.705L9.6261 6.72118ZM9.91718 6.81634C10.013 6.86905 10.1091 6.94658 10.1888 7.05339L8.5864 8.25012C8.69054 8.38957 8.81913 8.49497 8.9535 8.56885L9.91718 6.81634ZM8.58365 7.05709C8.42457 7.27216 8.32363 7.53679 8.31336 7.82442L10.3121 7.89579C10.3071 8.03598 10.2578 8.15691 10.1916 8.24642L8.58365 7.05709ZM8.31336 7.82442C8.30308 8.11244 8.38513 8.38555 8.53207 8.61354L10.2132 7.53007C10.2764 7.62811 10.3171 7.75522 10.3121 7.89579L8.31336 7.82442ZM9.37262 9.0718H10.2725V7.0718H9.37262V9.0718ZM11.1301 8.58622C11.2476 8.39031 11.3325 8.14792 11.3325 7.87178H9.33254C9.33254 7.72899 9.37748 7.61995 9.41501 7.55739L11.1301 8.58622ZM14.2802 8.43171C14.2141 8.45118 14.148 8.45298 14.084 8.43893L14.5129 6.48546C14.2502 6.42778 13.9741 6.4368 13.7143 6.51342L14.2802 8.43171ZM14.084 8.43893C14.0203 8.42496 13.9394 8.39061 13.8623 8.31669L15.2465 6.87309C15.0346 6.66989 14.7753 6.54307 14.5129 6.48546L14.084 8.43893ZM13.8623 8.31669C13.7832 8.24081 13.7086 8.1216 13.6864 7.96534L15.6665 7.68396C15.6201 7.35758 15.4605 7.07826 15.2465 6.87309L13.8623 8.31669ZM13.6864 7.96534C13.6638 7.80668 13.7024 7.65677 13.7739 7.54225L15.4705 8.60136C15.6368 8.33487 15.7132 8.01272 15.6665 7.68396L13.6864 7.96534ZM14.6222 7.0718H13.7223V9.0718H14.6222V7.0718ZM14.5623 7.52927C14.6293 7.63301 14.6707 7.76873 14.6602 7.91729L12.6651 7.77728C12.6438 8.08183 12.7264 8.37301 12.8822 8.61434L14.5623 7.52927ZM14.6602 7.91729C14.6499 8.06491 14.5912 8.18725 14.5191 8.27317L12.9875 6.987C12.8078 7.20093 12.6864 7.47367 12.6651 7.77728L14.6602 7.91729ZM12.8573 8.07418C12.9439 8.24891 13.0687 8.38678 13.2059 8.48703L14.3855 6.8719C14.4857 6.94511 14.5814 7.04918 14.6492 7.18599L12.8573 8.07418ZM13.2059 8.48703C13.3428 8.58699 13.4936 8.65108 13.6435 8.68433L14.0765 6.73175C14.1788 6.75444 14.2856 6.79898 14.3855 6.8719L13.2059 8.48703ZM13.6435 8.68433C13.7936 8.7176 13.9485 8.72134 14.0991 8.69596L13.7666 6.72378C13.869 6.70654 13.974 6.70902 14.0765 6.73175L13.6435 8.68433ZM14.0991 8.69596C14.2495 8.6706 14.4015 8.6151 14.5415 8.52471L13.4567 6.84447C13.5578 6.77921 13.6644 6.74101 13.7666 6.72378L14.0991 8.69596ZM14.5415 8.52471C14.6817 8.43418 14.8125 8.30662 14.909 8.14099L13.1811 7.13388C13.2561 7.00516 13.3554 6.90988 13.4567 6.84447L14.5415 8.52471ZM14.909 8.14099C15.0065 7.97378 15.0629 7.77742 15.0611 7.56944L13.0612 7.58695C13.0597 7.42001 13.1051 7.26419 13.1811 7.13388L14.909 8.14099ZM15.0611 7.56944C15.0593 7.36153 14.9994 7.16663 14.8997 7.00174L13.1883 8.03657C13.1107 7.90832 13.0626 7.75383 13.0612 7.58695L15.0611 7.56944ZM14.8997 7.00174C14.801 6.8384 14.669 6.71333 14.5281 6.62509L13.4664 8.32004C13.3649 8.25645 13.2649 8.16327 13.1883 8.03657L14.8997 7.00174Z" fill="#2A7DB7" mask="url(#path-2-inside-1_1_44)"/>
<mask id="path-4-inside-2_1_44" fill="white">
<path d="M22.9831 25.01H0.999919C0.734724 25.01 0.480391 24.9222 0.29287 24.7659C0.105349 24.6096 0 24.3976 0 24.1766C0 22.6764 0 19.5685 1.00692 17.4257C1.94894 15.2948 3.72782 13.4919 6.05451 12.3101C5.85167 11.9462 5.72292 11.5567 5.67354 11.1575L5.54355 9.73065C5.24345 9.52438 5.00151 9.26557 4.83492 8.97259C4.66833 8.67961 4.58117 8.35966 4.57963 8.03545C4.57738 7.53929 4.77845 7.05737 5.14958 6.66945L4.71562 4.68421C4.60113 4.16011 4.69396 3.61919 4.98015 3.14286C5.26634 2.66654 5.7304 2.28057 6.30249 2.04306L6.72246 1.86803C6.92644 1.78469 7.11242 1.67468 7.27241 1.54049L8.28533 0.707061C8.70126 0.357214 9.23681 0.123131 9.81859 0.0368911C10.4004 -0.0493493 10.9999 0.0164722 11.5351 0.225336C11.84 0.305345 12.168 0.300345 12.468 0.2095C13.0499 0.0379147 13.6783 0.00752545 14.2801 0.121866C14.882 0.236206 15.4325 0.490579 15.8677 0.855412L16.6866 1.53883C16.8506 1.66968 17.0366 1.78052 17.2376 1.86553L17.6576 2.04056C18.2274 2.28065 18.6879 2.669 18.9692 3.1468C19.2505 3.62459 19.3373 4.16578 19.2164 4.68837L18.7885 6.64444C19.0086 6.86765 19.1734 7.12495 19.2737 7.40152C19.3739 7.67809 19.4074 7.96846 19.3724 8.25589C19.3374 8.54331 19.2344 8.82212 19.0695 9.07623C18.9046 9.33035 18.681 9.55474 18.4115 9.73649L18.2845 11.1317C18.2292 11.5852 18.0747 12.0264 17.8286 12.4335C20.0736 13.6023 21.7904 15.3586 22.7102 17.4274C23.6694 19.5831 24.1012 21.8771 23.9801 24.1741C23.9805 24.2835 23.955 24.392 23.9051 24.4932C23.8552 24.5944 23.7819 24.6865 23.6893 24.7641C23.5967 24.8417 23.4867 24.9034 23.3656 24.9456C23.2444 24.9878 23.1145 25.0097 22.9831 25.01ZM12.249 23.3431H21.9792C22.0062 21.5291 21.6222 19.727 20.8473 18.0317C19.9758 16.0203 18.189 14.3759 15.8737 13.4544C15.9627 13.7378 16.0097 14.0337 16.0097 14.3395V19.2943C16.2784 19.3867 16.5005 19.5536 16.6384 19.7669C16.7763 19.9802 16.8215 20.2266 16.7664 20.4645C16.7112 20.7023 16.559 20.917 16.3357 21.072C16.1124 21.2271 15.8316 21.313 15.5409 21.3152C15.2503 21.3174 14.9676 21.2358 14.7409 21.0842C14.5142 20.9326 14.3574 20.7203 14.297 20.4833C14.2366 20.2464 14.2763 19.9993 14.4095 19.7839C14.5427 19.5686 14.7611 19.3983 15.0278 19.3018V14.3395C15.0278 14.0703 14.9808 13.8103 14.8928 13.5644C14.7052 13.6222 14.5122 13.667 14.3158 13.6986L12.279 17.6491L12.274 17.6649C12.2649 17.6893 12.2598 17.7145 12.259 17.74H12.249V23.3431ZM11.839 14.6396C12.621 14.6396 13.3029 14.2837 13.6639 13.7561H10.3942C10.2622 13.7561 10.1312 13.7503 10.0032 13.7395C10.1851 14.0123 10.4512 14.2397 10.774 14.3979C11.0968 14.5562 11.4645 14.6396 11.839 14.6396ZM13.5939 12.9227C14.0389 12.9227 14.4588 12.836 14.8298 12.6785L15.3158 12.4126C15.4318 12.3329 15.5395 12.245 15.6377 12.1501C16.0007 11.7984 16.2427 11.3425 16.3057 10.8208L16.6856 6.3094C16.6885 6.2584 16.6775 6.20752 16.6536 6.1605C16.6298 6.11348 16.5936 6.07152 16.5477 6.0377L16.3337 5.88519C16.1563 5.75397 16.0146 5.59272 15.9181 5.41219C15.8215 5.23167 15.7723 5.03604 15.7737 4.83839V4.12164C15.7737 4.10747 15.7687 4.10164 15.7667 4.09914C15.7655 4.09815 15.7642 4.09731 15.7627 4.09664C15.7597 4.0948 15.7563 4.09339 15.7527 4.09247C15.1448 3.96662 13.8259 3.74659 11.983 3.74659C10.1462 3.74659 8.82928 3.96495 8.22033 4.09164C8.21386 4.09429 8.20834 4.09831 8.20434 4.1033C8.19887 4.10844 8.19538 4.11483 8.19434 4.12164V4.84673C8.19434 5.23427 7.99835 5.62599 7.63438 5.89352L7.62638 5.89935L7.4444 6.02687C7.39652 6.06381 7.35906 6.10912 7.33468 6.15955C7.3103 6.20999 7.29962 6.26429 7.30341 6.31857L7.68338 10.8208C7.83137 12.0609 8.99027 12.9227 10.3942 12.9227H13.5939ZM9.36024 13.637C9.14529 13.5858 8.93644 13.5183 8.73629 13.4353C8.6163 13.7178 8.54931 14.022 8.54931 14.3395V15.643C9.16717 15.7388 9.72537 16.0117 10.1272 16.4145C10.5289 16.8172 10.749 17.3245 10.7491 17.8483V20.8737C10.7491 21.1745 10.4592 21.4154 10.0992 21.4154H9.16926C9.03931 21.4154 8.91469 21.3724 8.8228 21.2958C8.73092 21.2192 8.6793 21.1153 8.6793 21.007C8.6793 20.8987 8.73092 20.7948 8.8228 20.7182C8.91469 20.6417 9.03931 20.5986 9.16926 20.5986H9.76921V17.8483C9.76921 17.4703 9.58906 17.1078 9.2684 16.8406C8.94774 16.5733 8.51283 16.4231 8.05935 16.4231C7.60586 16.4231 7.17095 16.5733 6.85029 16.8406C6.52963 17.1078 6.34949 17.4703 6.34949 17.8483V20.5986H7.01943C7.14938 20.5986 7.274 20.6417 7.36589 20.7182C7.45777 20.7948 7.50939 20.8987 7.50939 21.007C7.50939 21.1153 7.45777 21.2192 7.36589 21.2958C7.274 21.3724 7.14938 21.4154 7.01943 21.4154H6.01951C5.93409 21.4156 5.84945 21.4018 5.77048 21.3746C5.6915 21.3475 5.61975 21.3076 5.55934 21.2572C5.49894 21.2069 5.45107 21.1471 5.4185 21.0812C5.38593 21.0154 5.3693 20.9449 5.36957 20.8737V17.8483C5.36957 16.7457 6.32149 15.8356 7.56939 15.643V14.3395C7.56939 14.0428 7.61238 13.7545 7.69638 13.4786C5.44319 14.4221 3.71383 16.054 2.86877 18.0342C2.24052 19.7536 1.9488 21.5463 2.00484 23.3431H11.4591V20.732H11.4491V17.74C11.4482 17.7087 11.4414 17.6778 11.4291 17.6483L9.35924 13.637H9.36024Z"/>
</mask>
<path d="M22.9831 25.01H0.999919C0.734724 25.01 0.480391 24.9222 0.29287 24.7659C0.105349 24.6096 0 24.3976 0 24.1766C0 22.6764 0 19.5685 1.00692 17.4257C1.94894 15.2948 3.72782 13.4919 6.05451 12.3101C5.85167 11.9462 5.72292 11.5567 5.67354 11.1575L5.54355 9.73065C5.24345 9.52438 5.00151 9.26557 4.83492 8.97259C4.66833 8.67961 4.58117 8.35966 4.57963 8.03545C4.57738 7.53929 4.77845 7.05737 5.14958 6.66945L4.71562 4.68421C4.60113 4.16011 4.69396 3.61919 4.98015 3.14286C5.26634 2.66654 5.7304 2.28057 6.30249 2.04306L6.72246 1.86803C6.92644 1.78469 7.11242 1.67468 7.27241 1.54049L8.28533 0.707061C8.70126 0.357214 9.23681 0.123131 9.81859 0.0368911C10.4004 -0.0493493 10.9999 0.0164722 11.5351 0.225336C11.84 0.305345 12.168 0.300345 12.468 0.2095C13.0499 0.0379147 13.6783 0.00752545 14.2801 0.121866C14.882 0.236206 15.4325 0.490579 15.8677 0.855412L16.6866 1.53883C16.8506 1.66968 17.0366 1.78052 17.2376 1.86553L17.6576 2.04056C18.2274 2.28065 18.6879 2.669 18.9692 3.1468C19.2505 3.62459 19.3373 4.16578 19.2164 4.68837L18.7885 6.64444C19.0086 6.86765 19.1734 7.12495 19.2737 7.40152C19.3739 7.67809 19.4074 7.96846 19.3724 8.25589C19.3374 8.54331 19.2344 8.82212 19.0695 9.07623C18.9046 9.33035 18.681 9.55474 18.4115 9.73649L18.2845 11.1317C18.2292 11.5852 18.0747 12.0264 17.8286 12.4335C20.0736 13.6023 21.7904 15.3586 22.7102 17.4274C23.6694 19.5831 24.1012 21.8771 23.9801 24.1741C23.9805 24.2835 23.955 24.392 23.9051 24.4932C23.8552 24.5944 23.7819 24.6865 23.6893 24.7641C23.5967 24.8417 23.4867 24.9034 23.3656 24.9456C23.2444 24.9878 23.1145 25.0097 22.9831 25.01ZM12.249 23.3431H21.9792C22.0062 21.5291 21.6222 19.727 20.8473 18.0317C19.9758 16.0203 18.189 14.3759 15.8737 13.4544C15.9627 13.7378 16.0097 14.0337 16.0097 14.3395V19.2943C16.2784 19.3867 16.5005 19.5536 16.6384 19.7669C16.7763 19.9802 16.8215 20.2266 16.7664 20.4645C16.7112 20.7023 16.559 20.917 16.3357 21.072C16.1124 21.2271 15.8316 21.313 15.5409 21.3152C15.2503 21.3174 14.9676 21.2358 14.7409 21.0842C14.5142 20.9326 14.3574 20.7203 14.297 20.4833C14.2366 20.2464 14.2763 19.9993 14.4095 19.7839C14.5427 19.5686 14.7611 19.3983 15.0278 19.3018V14.3395C15.0278 14.0703 14.9808 13.8103 14.8928 13.5644C14.7052 13.6222 14.5122 13.667 14.3158 13.6986L12.279 17.6491L12.274 17.6649C12.2649 17.6893 12.2598 17.7145 12.259 17.74H12.249V23.3431ZM11.839 14.6396C12.621 14.6396 13.3029 14.2837 13.6639 13.7561H10.3942C10.2622 13.7561 10.1312 13.7503 10.0032 13.7395C10.1851 14.0123 10.4512 14.2397 10.774 14.3979C11.0968 14.5562 11.4645 14.6396 11.839 14.6396ZM13.5939 12.9227C14.0389 12.9227 14.4588 12.836 14.8298 12.6785L15.3158 12.4126C15.4318 12.3329 15.5395 12.245 15.6377 12.1501C16.0007 11.7984 16.2427 11.3425 16.3057 10.8208L16.6856 6.3094C16.6885 6.2584 16.6775 6.20752 16.6536 6.1605C16.6298 6.11348 16.5936 6.07152 16.5477 6.0377L16.3337 5.88519C16.1563 5.75397 16.0146 5.59272 15.9181 5.41219C15.8215 5.23167 15.7723 5.03604 15.7737 4.83839V4.12164C15.7737 4.10747 15.7687 4.10164 15.7667 4.09914C15.7655 4.09815 15.7642 4.09731 15.7627 4.09664C15.7597 4.0948 15.7563 4.09339 15.7527 4.09247C15.1448 3.96662 13.8259 3.74659 11.983 3.74659C10.1462 3.74659 8.82928 3.96495 8.22033 4.09164C8.21386 4.09429 8.20834 4.09831 8.20434 4.1033C8.19887 4.10844 8.19538 4.11483 8.19434 4.12164V4.84673C8.19434 5.23427 7.99835 5.62599 7.63438 5.89352L7.62638 5.89935L7.4444 6.02687C7.39652 6.06381 7.35906 6.10912 7.33468 6.15955C7.3103 6.20999 7.29962 6.26429 7.30341 6.31857L7.68338 10.8208C7.83137 12.0609 8.99027 12.9227 10.3942 12.9227H13.5939ZM9.36024 13.637C9.14529 13.5858 8.93644 13.5183 8.73629 13.4353C8.6163 13.7178 8.54931 14.022 8.54931 14.3395V15.643C9.16717 15.7388 9.72537 16.0117 10.1272 16.4145C10.5289 16.8172 10.749 17.3245 10.7491 17.8483V20.8737C10.7491 21.1745 10.4592 21.4154 10.0992 21.4154H9.16926C9.03931 21.4154 8.91469 21.3724 8.8228 21.2958C8.73092 21.2192 8.6793 21.1153 8.6793 21.007C8.6793 20.8987 8.73092 20.7948 8.8228 20.7182C8.91469 20.6417 9.03931 20.5986 9.16926 20.5986H9.76921V17.8483C9.76921 17.4703 9.58906 17.1078 9.2684 16.8406C8.94774 16.5733 8.51283 16.4231 8.05935 16.4231C7.60586 16.4231 7.17095 16.5733 6.85029 16.8406C6.52963 17.1078 6.34949 17.4703 6.34949 17.8483V20.5986H7.01943C7.14938 20.5986 7.274 20.6417 7.36589 20.7182C7.45777 20.7948 7.50939 20.8987 7.50939 21.007C7.50939 21.1153 7.45777 21.2192 7.36589 21.2958C7.274 21.3724 7.14938 21.4154 7.01943 21.4154H6.01951C5.93409 21.4156 5.84945 21.4018 5.77048 21.3746C5.6915 21.3475 5.61975 21.3076 5.55934 21.2572C5.49894 21.2069 5.45107 21.1471 5.4185 21.0812C5.38593 21.0154 5.3693 20.9449 5.36957 20.8737V17.8483C5.36957 16.7457 6.32149 15.8356 7.56939 15.643V14.3395C7.56939 14.0428 7.61238 13.7545 7.69638 13.4786C5.44319 14.4221 3.71383 16.054 2.86877 18.0342C2.24052 19.7536 1.9488 21.5463 2.00484 23.3431H11.4591V20.732H11.4491V17.74C11.4482 17.7087 11.4414 17.6778 11.4291 17.6483L9.35924 13.637H9.36024Z" stroke="#2A7DB7" stroke-width="2" mask="url(#path-4-inside-2_1_44)"/>
</svg>
