<svg width="24" height="24" viewBox="0 0 24 24" fill="none" xmlns="http://www.w3.org/2000/svg">
<path fill-rule="evenodd" clip-rule="evenodd" d="M2.66667 0C2.66667 0 2.99 0.566682 3.41467 1.42537C3.99933 2.60541 4.77667 4.33812 5.17133 5.90616C5.23667 6.1655 5.29133 6.41951 5.33333 6.66619V16.6665H6.66667V13.1017C6.24 12.3077 6 11.363 6 10.2856C6 7.89555 8.11667 6.1595 9.89067 4.70546C10.2991 4.37744 10.6986 4.03842 11.0887 3.68877C11.1733 3.61077 11.2553 3.5341 11.3333 3.45743V1.33337H12.6667V3.45743C12.7447 3.5341 12.8267 3.61077 12.9113 3.68877C13.2667 4.01478 13.678 4.35212 14.1093 4.70546C15.8827 6.1595 18 7.89555 18 10.2856C18 11.363 17.76 12.3077 17.3333 13.1017V16.6671H18.6667V6.66685C18.7027 6.42418 18.754 6.17017 18.8187 5.90883C19.192 4.39346 19.9887 2.62874 20.5867 1.42471C21.01 0.57135 21.3333 0 21.3333 0C21.3333 0 21.6567 0.566682 22.0813 1.42537C22.666 2.60541 23.4433 4.33812 23.838 5.90616C23.9033 6.1655 23.958 6.41951 24 6.66619V24H0V6.66619C0.036 6.42418 0.0873334 6.17017 0.152 5.90883C0.525333 4.39346 1.322 2.62874 1.92 1.42471C2.34333 0.57135 2.66667 0 2.66667 0ZM14.6667 22.6673V22.3153C14.6667 22.0676 14.5977 21.8248 14.4674 21.6142C14.3372 21.4035 14.1509 21.2333 13.9293 21.1226L12 20.1579L10.0707 21.1226C9.84912 21.2333 9.66279 21.4035 9.53256 21.6142C9.40233 21.8248 9.33334 22.0676 9.33333 22.3153V22.6673H14.6667ZM16 22.6673H18.6667V18.0005H5.33333V22.6673H8V22.3153C7.99996 21.82 8.13783 21.3345 8.39817 20.9132C8.65851 20.4919 9.03104 20.1514 9.474 19.9299L12 18.6672L14.526 19.9299C14.969 20.1514 15.3415 20.4919 15.6018 20.9132C15.8622 21.3345 16 21.82 16 22.3153V22.6673ZM20 6.97886C20.5387 6.84886 20.936 6.78352 21.3333 6.78352C21.7307 6.78352 22.128 6.84886 22.6667 6.97886V22.6673H20V6.97886ZM1.33333 6.97886V22.6673H4V6.97886C3.46133 6.84886 3.064 6.78352 2.66667 6.78352C2.26933 6.78352 1.872 6.84886 1.33333 6.97886ZM1.63733 5.55082C1.90133 4.7108 2.27867 3.79544 2.666 2.95342C3.04133 3.77477 3.414 4.6848 3.68467 5.54882C3.34896 5.48564 3.00826 5.45261 2.66667 5.45015C2.328 5.45015 1.99333 5.48682 1.63733 5.55082ZM7.954 12.667C7.566 12.0363 7.33333 11.2456 7.33333 10.2856C7.33333 9.5116 7.67 8.77091 8.31067 7.99089C8.964 7.19553 9.82933 6.48018 10.736 5.73683L10.754 5.72149C11.176 5.37548 11.614 5.01681 12 4.66213C12.386 5.01681 12.824 5.37548 13.246 5.72216L13.264 5.73683C14.1707 6.48018 15.0367 7.19553 15.6893 7.99022C16.3293 8.77024 16.6667 9.5116 16.6667 10.2856C16.6667 11.2456 16.4333 12.0363 16.0467 12.667H7.954ZM8 14.0004V16.6671H8.66667V16.0004C8.66667 15.8236 8.7369 15.6541 8.86193 15.529C8.98695 15.404 9.15652 15.3338 9.33333 15.3338C9.51014 15.3338 9.67971 15.404 9.80474 15.529C9.92976 15.6541 10 15.8236 10 16.0004V16.6671H11.3333V16.0004C11.3333 15.8236 11.4036 15.6541 11.5286 15.529C11.6536 15.404 11.8232 15.3338 12 15.3338C12.1768 15.3338 12.3464 15.404 12.4714 15.529C12.5964 15.6541 12.6667 15.8236 12.6667 16.0004V16.6671H14V16.0004C14 15.8236 14.0702 15.6541 14.1953 15.529C14.3203 15.404 14.4899 15.3338 14.6667 15.3338C14.8435 15.3338 15.013 15.404 15.1381 15.529C15.2631 15.6541 15.3333 15.8236 15.3333 16.0004V16.6671H16V14.0004H8ZM21.3333 2.95342C20.9453 3.79544 20.568 4.7108 20.304 5.55082C20.6434 5.48638 20.9879 5.45269 21.3333 5.45015C21.668 5.45015 22 5.48549 22.3513 5.54815C22.0807 4.6848 21.7087 3.77477 21.3333 2.95342Z" fill="#2A7DB7"/>
</svg>
