<svg width="26" height="26" viewBox="0 0 26 26" fill="none" xmlns="http://www.w3.org/2000/svg">
<mask id="mask0_1_19" style="mask-type:luminance" maskUnits="userSpaceOnUse" x="0" y="0" width="27" height="26">
<path d="M12.6558 1H2.94263C2.42741 1 1.9333 1.20467 1.56898 1.56898C1.20467 1.9333 1 2.42741 1 2.94263V17.1886C1 17.7038 1.20467 18.1979 1.56898 18.5622C1.9333 18.9266 2.42741 19.1312 2.94263 19.1312H22.3689C22.8842 19.1312 23.3783 18.9266 23.7426 18.5622C24.1069 18.1979 24.3116 17.7038 24.3116 17.1886V13.9509M12.6558 19.1312V24.3116M6.18035 24.3116H19.1312" stroke="white" stroke-width="2" stroke-linecap="round" stroke-linejoin="round"/>
<path d="M21.0728 7.47566C22.1457 7.47566 23.0155 6.60591 23.0155 5.53302C23.0155 4.46014 22.1457 3.59039 21.0728 3.59039C19.9999 3.59039 19.1302 4.46014 19.1302 5.53302C19.1302 6.60591 19.9999 7.47566 21.0728 7.47566Z" fill="#555555" stroke="white" stroke-width="2"/>
<path d="M21.0746 10.0656V7.47544M21.0746 3.59018V1M17.1492 7.79921L19.3923 6.50412M22.7569 4.56149L25 3.2664M17.1492 3.2664L19.3923 4.56149M22.7569 6.50412L25 7.79921" stroke="white" stroke-width="2" stroke-linecap="round" stroke-linejoin="round"/>
</mask>
<g mask="url(#mask0_1_19)">
<path d="M-2.88556 -2.88495H28.1965V28.1972H-2.88556V-2.88495Z" fill="#2A7DB7"/>
</g>
</svg>
