<svg width="24" height="21" viewBox="0 0 24 21" fill="none" xmlns="http://www.w3.org/2000/svg">
<path d="M12.7818 0.7875V2.625H14.8429C15.2092 2.625 15.5672 2.7363 15.8698 2.94315L17.6408 4.15485C17.6836 4.18425 17.7348 4.2 17.787 4.2H22.0679C22.2755 4.2 22.4745 4.28297 22.6213 4.43065C22.7681 4.57834 22.8506 4.77864 22.8506 4.9875C22.8506 5.19636 22.7681 5.39666 22.6213 5.54435C22.4745 5.69203 22.2755 5.775 22.0679 5.775H20.421L23.9339 13.839C24.0043 14.0002 24.019 14.1806 23.9755 14.3511C23.9319 14.5217 23.8328 14.6727 23.6938 14.7798C23.5895 14.8575 23.482 14.9299 23.3703 14.9961C23.1056 15.155 22.8301 15.295 22.5459 15.415C21.6019 15.8122 20.5885 16.0154 19.5653 16.0125C18.5425 16.0157 17.5294 15.813 16.5857 15.4161C16.3013 15.296 16.0258 15.1557 15.7613 14.9961C15.6505 14.9316 15.5436 14.8608 15.4409 14.784L15.4357 14.7798C15.2967 14.6727 15.1976 14.5217 15.1541 14.3511C15.1105 14.1806 15.1252 14.0002 15.1956 13.839L18.7106 5.775H17.7859C17.4196 5.775 17.0616 5.6637 16.759 5.45685L14.988 4.24515C14.945 4.21552 14.894 4.19978 14.8419 4.2H12.7818V19.425H17.4645C17.6721 19.425 17.8711 19.508 18.0179 19.6557C18.1647 19.8033 18.2472 20.0036 18.2472 20.2125C18.2472 20.4214 18.1647 20.6217 18.0179 20.7693C17.8711 20.917 17.6721 21 17.4645 21H6.53362C6.32603 21 6.12694 20.917 5.98016 20.7693C5.83337 20.6217 5.7509 20.4214 5.7509 20.2125C5.7509 20.0036 5.83337 19.8033 5.98016 19.6557C6.12694 19.508 6.32603 19.425 6.53362 19.425H11.2163V4.2H9.15519C9.10309 4.19997 9.05218 4.2157 9.00908 4.24515L7.2391 5.45685C6.93645 5.6637 6.57849 5.775 6.21218 5.775H5.28754L8.80244 13.839C8.87047 13.9957 8.88599 14.1703 8.84664 14.3367C8.80729 14.503 8.71522 14.6519 8.58433 14.7609C8.50084 14.8292 8.41735 14.8932 8.26081 14.995C7.99687 15.167 7.7206 15.319 7.43426 15.4497C6.49168 15.8805 5.4681 16.1025 4.43281 16.1007C3.3975 16.1029 2.37383 15.8809 1.43137 15.4497C1.14503 15.319 0.868755 15.167 0.604823 14.995C0.493215 14.9237 0.385562 14.8462 0.282345 14.763C0.152496 14.6527 0.0611597 14.5035 0.0217203 14.3373C-0.0177191 14.171 -0.00318746 13.9964 0.0631855 13.839L3.57705 5.775H1.93126C1.72367 5.775 1.52459 5.69203 1.3778 5.54435C1.23101 5.39666 1.14855 5.19636 1.14855 4.9875C1.14855 4.77864 1.23101 4.57834 1.3778 4.43065C1.52459 4.28297 1.72367 4.2 1.93126 4.2H6.21218C6.26436 4.2 6.3155 4.18425 6.35933 4.15485L8.12827 2.94315C8.43092 2.73525 8.78992 2.625 9.15623 2.625H11.2163V0.7875C11.2163 0.578642 11.2988 0.378338 11.4456 0.230653C11.5924 0.0829684 11.7915 0 11.999 0C12.2066 0 12.4057 0.0829684 12.5525 0.230653C12.6993 0.378338 12.7818 0.578642 12.7818 0.7875ZM1.76428 13.8579C2.58565 14.2978 3.50231 14.5269 4.43281 14.5246C5.36332 14.5269 6.27998 14.2978 7.10135 13.8579L4.43281 7.7364L1.76428 13.8579ZM16.9072 13.8327C16.9928 13.8747 17.0888 13.9198 17.1942 13.965C17.7473 14.1991 18.5561 14.4375 19.5653 14.4375C20.4853 14.4401 21.394 14.2333 22.2234 13.8327L19.5653 7.73535L16.9072 13.8327Z" fill="#2A7DB7"/>
</svg>
