<svg width="24" height="27" viewBox="0 0 24 27" fill="none" xmlns="http://www.w3.org/2000/svg">
<path d="M6.31378 19.6906C6.31378 19.9777 6.19974 20.2531 5.99675 20.4561C5.79376 20.6591 5.51845 20.7731 5.23137 20.7731C4.9443 20.7731 4.66899 20.6591 4.466 20.4561C4.26301 20.2531 4.14897 19.9777 4.14897 19.6906C4.14897 19.4035 4.26301 19.1282 4.466 18.9252C4.66899 18.7222 4.9443 18.6081 5.23137 18.6081C5.51845 18.6081 5.79376 18.7222 5.99675 18.9252C6.19974 19.1282 6.31378 19.4035 6.31378 19.6906ZM7.72789 23.3921C8.01496 23.3921 8.29028 23.2781 8.49327 23.0751C8.69626 22.8721 8.81029 22.5967 8.81029 22.3096C8.81029 22.0225 8.69626 21.7472 8.49327 21.5442C8.29028 21.3412 8.01496 21.2271 7.72789 21.2271C7.44082 21.2271 7.1655 21.3412 6.96251 21.5442C6.75952 21.7472 6.64548 22.0225 6.64548 22.3096C6.64548 22.5967 6.75952 22.8721 6.96251 23.0751C7.1655 23.2781 7.44082 23.3921 7.72789 23.3921ZM5.44087 23.0866C5.44087 23.3737 5.32683 23.649 5.12384 23.8521C4.92085 24.0551 4.64554 24.1691 4.35847 24.1691C4.0714 24.1691 3.79608 24.0551 3.59309 23.8521C3.3901 23.649 3.27606 23.3737 3.27606 23.0866C3.27606 22.7995 3.3901 22.5241 3.59309 22.3211C3.79608 22.1181 4.0714 22.0041 4.35847 22.0041C4.64554 22.0041 4.92085 22.1181 5.12384 22.3211C5.32683 22.5241 5.44087 22.7995 5.44087 23.0866ZM9.87524 7.39442C9.74431 7.39442 9.60464 7.33331 9.52608 7.21982C9.45475 7.12704 9.42298 7.00983 9.43769 6.89372C9.45241 6.77762 9.51242 6.67204 9.60464 6.59999L9.60988 6.5965C9.67971 6.54674 10.3379 6.08056 11.2719 6.18968C11.5163 6.21587 11.6909 6.44285 11.656 6.67856C11.6298 6.923 11.4028 7.0976 11.1671 7.06268C10.6085 6.99022 10.2227 7.24776 10.1554 7.29228C10.0789 7.36144 9.97836 7.39807 9.87524 7.39442ZM15.4182 7.39442C15.321 7.39506 15.2261 7.36445 15.1476 7.30712L15.1441 7.30538C14.8429 7.11022 14.4825 7.02739 14.1263 7.07141C14.0106 7.08473 13.8944 7.05185 13.8029 6.97992C13.7113 6.90799 13.6519 6.80282 13.6375 6.68729C13.6113 6.44285 13.7859 6.2246 14.0216 6.19841C14.6064 6.13113 15.1959 6.27544 15.6836 6.60523L15.6888 6.60872C15.8808 6.75713 15.9158 7.03649 15.7674 7.22855C15.6801 7.34204 15.5491 7.39442 15.4182 7.39442ZM10.7132 7.7087C10.1808 7.7087 9.74431 8.07536 9.6221 8.56424C9.58718 8.70392 9.69193 8.83487 9.84032 8.83487H10.1808C10.1508 8.72732 10.1462 8.61431 10.1673 8.50468C10.1883 8.39505 10.2345 8.29179 10.3022 8.20299C10.3698 8.11419 10.4571 8.04227 10.5572 7.99286C10.6573 7.94346 10.7675 7.91791 10.8791 7.91822C11.2806 7.91822 11.6036 8.24123 11.5949 8.64281C11.5949 8.71265 11.5861 8.77376 11.5687 8.83487H11.6385C11.752 8.83487 11.848 8.73011 11.8218 8.61662C11.7171 8.09282 11.2632 7.7087 10.7132 7.7087ZM14.5802 7.7087C15.1127 7.7087 15.5491 8.07536 15.6713 8.56424C15.6794 8.59692 15.6799 8.63103 15.6726 8.6639C15.6653 8.69677 15.6505 8.72751 15.6294 8.75372C15.6083 8.77993 15.5813 8.80089 15.5508 8.81497C15.5202 8.82905 15.4868 8.83586 15.4531 8.83487H15.1127C15.1426 8.72732 15.1472 8.61431 15.1262 8.50468C15.1051 8.39505 15.0589 8.29179 14.9913 8.20299C14.9236 8.11419 14.8364 8.04227 14.7363 7.99286C14.6362 7.94346 14.526 7.91791 14.4144 7.91822C14.0128 7.91822 13.6898 8.24123 13.6986 8.64281C13.6986 8.71265 13.7073 8.77376 13.7248 8.83487H13.6549C13.5415 8.83487 13.4454 8.73011 13.4716 8.61662C13.5764 8.09282 14.0303 7.7087 14.5802 7.7087Z" fill="#2A7DB7"/>
<path d="M10.7655 8.35491C10.7655 8.38262 10.7566 8.40961 10.7403 8.43198C10.7239 8.45435 10.7009 8.47096 10.6745 8.4794C10.6481 8.48784 10.6197 8.48769 10.5934 8.47897C10.5671 8.47025 10.5442 8.4534 10.5281 8.43086C10.4893 8.49482 10.4688 8.56819 10.4688 8.643C10.4687 8.71284 10.4862 8.77395 10.5124 8.83506H11.2456C11.2718 8.77395 11.2893 8.71284 11.2893 8.643C11.2894 8.57585 11.273 8.5097 11.2416 8.45036C11.2102 8.39101 11.1647 8.34028 11.1091 8.30262C11.0536 8.26495 10.9896 8.24151 10.9228 8.23434C10.8561 8.22717 10.7886 8.2365 10.7263 8.2615C10.7387 8.27368 10.7486 8.28821 10.7553 8.30425C10.762 8.32029 10.7655 8.33751 10.7655 8.35491ZM14.3183 8.35491C14.3185 8.38497 14.3083 8.41419 14.2895 8.43764C14.2707 8.4611 14.2444 8.47737 14.215 8.48371C14.1856 8.49006 14.1549 8.4861 14.1281 8.47251C14.1013 8.45891 14.08 8.4365 14.0677 8.40903C14.0203 8.4778 13.995 8.55944 13.9953 8.643C13.9953 8.71284 14.0128 8.77395 14.0477 8.83506H14.7722C14.7984 8.77395 14.8158 8.71284 14.8158 8.643C14.8159 8.5776 14.8004 8.51313 14.7705 8.45496C14.7406 8.39679 14.6972 8.3466 14.644 8.30859C14.5908 8.27058 14.5293 8.24584 14.4646 8.23643C14.3999 8.22702 14.3338 8.23322 14.272 8.25451C14.2866 8.26686 14.2983 8.28225 14.3063 8.29959C14.3142 8.31693 14.3183 8.33581 14.3183 8.35491ZM12.3455 8.58189L11.9265 9.93504C11.8392 10.2144 12.0487 10.4938 12.3368 10.4938H12.9565C13.2446 10.4938 13.4541 10.2144 13.3668 9.93504L12.9478 8.58189C12.8605 8.28507 12.4328 8.28507 12.3455 8.58189ZM11.4551 11.0001C11.7956 11.1834 12.2058 11.2882 12.6423 11.2882C13.0787 11.2882 13.489 11.1834 13.8294 11.0001C13.9516 10.939 14.0739 11.0699 14.004 11.1834C13.716 11.6287 13.2184 11.9255 12.6423 11.9255C12.0662 11.9255 11.5686 11.6287 11.2806 11.1834C11.2107 11.0699 11.3417 10.939 11.4551 11.0001Z" fill="#2A7DB7"/>
<path d="M6.43187 2.28116C8.89328 0.78639 11.7183 -0.00275517 14.5979 7.2275e-06C15.2021 -0.000222216 15.8004 0.118622 16.3586 0.349748C16.9168 0.580874 17.4241 0.919751 17.8513 1.34701C18.2785 1.77427 18.6173 2.28154 18.8484 2.83983C19.0795 3.39812 19.1984 3.99648 19.1981 4.60072C19.1981 5.03285 19.0157 5.42046 18.7268 5.69458V7.41439C18.9328 7.6668 19.08 7.962 19.1575 8.27849C19.2351 8.59498 19.241 8.92478 19.1749 9.24387C19.1089 9.56295 18.9725 9.86327 18.7756 10.1229C18.5788 10.3826 18.3265 10.5951 18.0372 10.7449L17.9542 11.8099C17.9542 11.8178 17.9525 11.8248 17.9516 11.8318C17.908 12.2613 17.7866 12.6637 17.6042 13.0287C18.0337 13.26 18.4457 13.5202 18.8368 13.8056C18.7258 14.1919 18.724 14.6014 18.8315 14.9886C18.9391 15.3759 19.1518 15.7258 19.446 15.9995C19.391 16.2003 19.3422 16.4011 19.2976 16.6018C18.54 15.7124 17.6123 14.9835 16.5689 14.4578C16.5176 15.002 16.2862 15.5135 15.9116 15.9115C15.5369 16.3094 15.0402 16.5711 14.5002 16.6551C14.7751 17.0322 14.9383 17.4975 14.9383 18.0013V19.4592C14.3326 19.4585 13.7518 19.2178 13.3232 18.7897C12.8945 18.3617 12.6529 17.7812 12.6513 17.1754C12.6497 17.7812 12.4081 18.3617 11.9795 18.7897C11.5508 19.2178 10.9701 19.4585 10.3643 19.4592V18.0013C10.3643 17.4975 10.5275 17.0322 10.8034 16.6551C10.2632 16.5713 9.7663 16.3097 9.39144 15.9117C9.01658 15.5137 8.78514 15.0021 8.73372 14.4578C7.51006 15.0745 6.44787 15.9694 5.63228 17.0706C6.44396 17.1909 7.20815 17.528 7.8442 18.0464C8.48026 18.5648 8.9646 19.2453 9.24612 20.0161L10.861 24.444H18.3994C18.4225 24.3235 18.4653 24.2075 18.526 24.1009C18.4299 23.9361 18.3791 23.7489 18.3788 23.5581C18.3785 23.3674 18.4287 23.18 18.5243 23.0149C18.4287 22.8498 18.3785 22.6624 18.3788 22.4717C18.3791 22.2809 18.4299 22.0937 18.526 21.9289C18.4226 21.7536 18.3715 21.5525 18.3785 21.3492C18.3942 20.7791 18.8455 20.3479 19.3762 20.2938C19.4124 20.2844 19.4497 20.2797 19.4871 20.2798H19.941C19.8088 18.7749 19.9629 17.2585 20.3949 15.8109C20.0453 15.5706 19.7955 15.2109 19.6921 14.7995C19.5888 14.388 19.6391 13.953 19.8336 13.576C20.3844 12.421 21.4371 11.8335 22.64 11.7549H22.6688C22.8268 11.7549 22.9909 11.8047 23.1358 11.9295L23.1446 11.9365C23.2569 12.0384 23.3325 12.1744 23.3596 12.3235C23.3868 12.4727 23.3639 12.6267 23.2947 12.7615L23.2903 12.7711L23.2851 12.7799C23.0651 13.171 22.9962 13.5437 23.0957 14.0221L23.1053 14.0658V14.0771C23.1621 14.4028 23.1252 14.7379 22.9988 15.0434C22.8723 15.3488 22.6616 15.612 22.3912 15.8022C22.6543 16.6912 22.8151 17.6074 22.8705 18.5329C23.2021 18.6586 23.4877 18.8821 23.6894 19.1738C23.8912 19.4655 23.9995 19.8116 24 20.1663V24.54C23.9999 24.9612 23.8371 25.366 23.5456 25.6698C23.2541 25.9737 22.8565 26.1532 22.4358 26.1708C22.3761 26.1835 22.3152 26.19 22.2542 26.19H1.97567C1.79406 26.1899 1.61699 26.1332 1.46913 26.0277C1.32127 25.9223 1.20998 25.7733 1.15078 25.6016L0.295328 23.1223L0.294455 23.1214C-0.747796 20.079 1.08531 16.793 4.08287 16.2334C4.99943 14.9327 6.20404 13.8501 7.60505 13.0793C7.39711 12.6816 7.26704 12.2478 7.22185 11.8012L7.13194 10.6541C6.86332 10.4854 6.63459 10.2602 6.4616 9.99433C6.28861 9.72842 6.17548 9.42808 6.13006 9.11411C6.08465 8.80013 6.10802 8.48004 6.19857 8.176C6.28912 7.87196 6.44467 7.59124 6.65446 7.35328V6.02982C6.24291 5.90798 5.88187 5.65614 5.62539 5.31197C5.3689 4.9678 5.23075 4.54981 5.23162 4.12057C5.23162 3.42391 5.59126 2.77789 6.20142 2.41822L6.20229 2.41734L6.43187 2.28116ZM9.93135 24.444L8.42646 20.3165C8.15328 19.5678 7.64453 18.9279 6.97665 18.4931C6.30878 18.0583 5.51785 17.852 4.72271 17.9052C4.70678 17.9077 4.69076 17.9098 4.6747 17.9113C2.65218 18.1086 1.18831 20.3409 1.946 22.5548L2.59806 24.444H9.93135ZM22.2533 21.1528H19.5735C19.5448 21.1586 19.5155 21.1615 19.4862 21.1615C19.3491 21.1615 19.2531 21.268 19.2505 21.3728V21.378C19.2499 21.4156 19.2589 21.4527 19.2768 21.4857C19.2947 21.5188 19.3208 21.5466 19.3526 21.5666C19.4128 21.6066 19.462 21.661 19.496 21.7248C19.5299 21.7885 19.5475 21.8598 19.5472 21.932C19.5468 22.0043 19.5286 22.0753 19.494 22.1388C19.4594 22.2022 19.4097 22.2561 19.3491 22.2955C19.3196 22.3145 19.2951 22.3404 19.2779 22.371C19.2607 22.4016 19.2513 22.4359 19.2505 22.471C19.2505 22.5496 19.288 22.6081 19.3404 22.6413C19.4029 22.6799 19.4546 22.7337 19.4908 22.7977C19.5269 22.8617 19.5463 22.9338 19.5472 23.0073C19.548 23.0807 19.5304 23.1533 19.4957 23.2181C19.4611 23.2829 19.4107 23.3379 19.3491 23.3781C19.3196 23.397 19.2951 23.4229 19.2779 23.4535C19.2607 23.4841 19.2513 23.5184 19.2505 23.5535C19.2505 23.6321 19.288 23.6906 19.3404 23.7238C19.4008 23.7612 19.4512 23.8127 19.4871 23.874C19.5231 23.9353 19.5435 24.0044 19.5467 24.0754C19.5499 24.1463 19.5357 24.217 19.5054 24.2812C19.4751 24.3455 19.4295 24.4014 19.3727 24.444H22.0787C22.1346 24.4327 22.1931 24.4265 22.2533 24.4265V21.1528ZM21.9775 18.3016C21.9023 17.4256 21.7266 16.5612 21.4537 15.7254L21.3935 15.5403L21.3315 15.7323C21.0583 16.5657 20.882 17.4278 20.806 18.3016H21.9775ZM13.952 14.4045H11.3507C11.2919 14.4045 11.2331 14.4028 11.1744 14.3993C11.3222 14.6819 11.5444 14.9187 11.817 15.0843C12.0896 15.2498 12.4023 15.3378 12.7212 15.3386C13.3959 15.3386 13.9834 14.951 14.2749 14.3879C14.1677 14.3993 14.0599 14.4042 13.952 14.4045ZM17.2114 8.39041L17.1529 9.22849C17.2418 9.20405 17.321 9.15261 17.3794 9.08125C17.4378 9.0099 17.4726 8.92217 17.4791 8.83017C17.4855 8.73817 17.4632 8.64645 17.4152 8.56768C17.3673 8.4889 17.2961 8.42696 17.2114 8.39041ZM7.85471 8.80159C7.85471 8.99016 7.97342 9.15254 8.14102 9.21714L8.08428 8.41049C8.01462 8.44905 7.95657 8.5056 7.91619 8.57424C7.87581 8.64287 7.85458 8.72196 7.85471 8.80159ZM20.6184 13.9584L20.6149 13.9671L20.6105 13.9741C20.5539 14.083 20.521 14.2027 20.5139 14.3252C20.5068 14.4478 20.5257 14.5704 20.5693 14.6851C20.6129 14.7999 20.6802 14.9041 20.7669 14.991C20.8536 15.0779 20.9577 15.1455 21.0723 15.1893L21.3909 15.3115L21.7077 15.1858C21.8606 15.1249 21.9932 15.022 22.0901 14.889C22.034 14.902 21.9765 14.9078 21.919 14.9065C21.5349 14.9065 21.2381 14.5747 21.2381 14.1906C21.2381 13.9287 21.0286 13.7192 20.7668 13.7192H20.7475C20.7002 13.7965 20.657 13.8764 20.6184 13.9584ZM16.3097 8.77278L16.2914 8.77453L16.3359 8.17216C16.3611 7.8292 16.3843 7.48611 16.4057 7.14289V7.13591C16.4088 7.0869 16.4006 7.03783 16.3818 6.99245C16.3631 6.94707 16.3342 6.90656 16.2975 6.87401L16.2966 6.87313L16.1421 6.73607C15.9938 6.60577 15.8752 6.44528 15.794 6.26535C15.7129 6.08542 15.6711 5.89022 15.6716 5.69284V5.67451H9.59616V5.69197C9.59616 6.09704 9.42856 6.46632 9.13177 6.73869L9.12566 6.74393L8.97115 6.88012C8.93625 6.91481 8.90928 6.95665 8.8921 7.00277C8.87492 7.04889 8.86794 7.09818 8.87164 7.14726V7.15337L9.17541 11.5044C9.29675 12.7004 10.2229 13.5315 11.3507 13.5315H13.952C15.0745 13.5315 16.0059 12.7048 16.1185 11.5149L16.3097 8.77278Z" fill="#2A7DB7"/>
</svg>
