<svg width="26" height="26" viewBox="0 0 26 26" fill="none" xmlns="http://www.w3.org/2000/svg">
<path d="M6.62328 9.83658C7.4755 9.83658 8.29281 9.49804 8.89542 8.89543M6.62328 9.83658C5.77106 9.83658 4.95374 9.49804 4.35113 8.89543M6.62328 9.83658V12.2466M8.89542 8.89543C9.49804 8.29281 9.83658 7.4755 9.83658 6.62328M8.89542 8.89543L10.5992 10.5992M9.83658 6.62328C9.83658 5.77106 9.49804 4.95374 8.89542 4.35113M9.83658 6.62328H12.2466M8.89542 4.35113C8.29281 3.74852 7.4755 3.40998 6.62328 3.40998M8.89542 4.35113L10.5992 2.64735M6.62328 3.40998C5.77106 3.40998 4.95374 3.74852 4.35113 4.35113M6.62328 3.40998V1M4.35113 4.35113C3.74852 4.95374 3.40998 5.77106 3.40998 6.62328M4.35113 4.35113L2.64735 2.64735M3.40998 6.62328C3.40998 7.4755 3.74852 8.29281 4.35113 8.89543M3.40998 6.62328H1M4.35113 8.89543L2.64735 10.5992M6.08773 1H7.15883M10.2211 2.26818L10.9784 3.02545M12.2466 6.08773V7.15883M10.9784 10.2211L10.2211 10.9784M7.15883 12.2466H6.08773M3.02545 10.9784L2.26818 10.2211M1 7.15883V6.08773M2.26818 3.02545L3.02545 2.26818M19.5825 9.54203C20.2805 10.1339 20.8471 10.8651 21.2461 11.6887C21.645 12.5124 21.8675 13.4103 21.8993 14.3249C21.931 15.2395 21.7714 16.1506 21.4305 16.9999C21.0897 17.8493 20.5751 18.618 19.9199 19.2569C18.6394 20.5068 16.921 21.2065 15.1316 21.2065C13.3422 21.2065 11.6237 20.5068 10.3432 19.2569C9.57598 18.5061 9.00321 17.5796 8.67443 16.5577" stroke="#2A7DB7" stroke-width="1.5" stroke-linecap="round" stroke-linejoin="round"/>
<path d="M17.4473 11.6349C17.2645 11.8137 17.019 11.9138 16.7634 11.9138C16.5077 11.9138 16.2622 11.8137 16.0795 11.6349L14.7149 10.2918C14.6252 10.2044 14.5539 10.1 14.5052 9.98466C14.4565 9.86932 14.4314 9.74538 14.4314 9.62018C14.4314 9.49498 14.4565 9.37104 14.5052 9.2557C14.5539 9.14035 14.6252 9.03593 14.7149 8.9486L18.8193 4.91698C19.0024 4.73869 19.2477 4.63892 19.5032 4.63892C19.7587 4.63892 20.0041 4.73869 20.1871 4.91698L21.5549 6.26121C21.6447 6.34854 21.716 6.45296 21.7647 6.56831C21.8133 6.68365 21.8384 6.80759 21.8384 6.93279C21.8384 7.05799 21.8133 7.18193 21.7647 7.29727C21.716 7.41262 21.6447 7.51704 21.5549 7.60437L17.4473 11.6349Z" stroke="#2A7DB7" stroke-width="1.5" stroke-linecap="round" stroke-linejoin="round"/>
<path d="M20.6781 5.40352L23.4523 2.62722M23.4523 2.62722L21.9045 1.07948M23.4523 2.62722L25 4.17496M6.35645 16.558H11.7741M7.20047 24.2967H21.9045M14.9392 21.2012V24.2967" stroke="#2A7DB7" stroke-width="1.5" stroke-linecap="round" stroke-linejoin="round"/>
</svg>
