<svg width="26" height="26" viewBox="0 0 26 26" fill="none" xmlns="http://www.w3.org/2000/svg">
<path d="M19.5006 15.8084C19.5005 17.3503 19.1101 18.8674 18.3653 20.2201C17.6205 21.5727 16.5453 22.7175 15.2386 23.549C13.9318 24.3804 12.4356 24.8719 10.8877 24.9782C9.33969 25.0844 7.7897 24.802 6.38036 24.1569C4.97102 23.5118 3.74762 22.5248 2.82276 21.2867C1.89791 20.0487 1.30132 18.5993 1.08791 17.072C0.874502 15.5448 1.05113 13.9887 1.60154 12.5471C2.15195 11.1054 3.05846 9.82455 4.23761 8.82231" stroke="#2A7DB7" stroke-width="1.5" stroke-linecap="round" stroke-linejoin="round"/>
<path d="M9.84252 12.4072C9.64701 12.8083 9.54579 13.2484 9.54651 13.6941C9.54406 14.0642 9.61559 14.431 9.75697 14.7734C9.89835 15.1158 10.1068 15.4268 10.3701 15.6885C10.6334 15.9502 10.9465 16.1573 11.291 16.2978C11.6355 16.4383 12.0047 16.5094 12.3771 16.5069C12.7549 16.5069 13.1173 16.6561 13.3844 16.9216C13.6516 17.187 13.8017 17.5471 13.8017 17.9225V24.3019M1.12872 17.2239H4.55134C4.93167 17.2141 5.31013 17.2801 5.66438 17.418C6.01864 17.5558 6.34152 17.7628 6.61397 18.0267C6.88642 18.2906 7.10293 18.606 7.25071 18.9544C7.3985 19.3028 7.47457 19.6771 7.47444 20.0551V24.5593M24.606 3.61945L22.756 2.99438C22.6259 2.95049 22.485 2.95009 22.3547 2.99325C22.2245 3.0364 22.112 3.12074 22.0344 3.23338L20.6839 5.31082L13.2836 1.63394C12.6988 1.29141 12.0449 1.08158 11.3689 1.01945C10.6929 0.957327 10.0115 1.04444 9.37331 1.27457C8.73514 1.50469 8.15605 1.87213 7.67746 2.35061C7.19887 2.82908 6.83262 3.40675 6.60491 4.04229C6.54215 4.20717 6.51519 4.38337 6.5258 4.55933C6.5364 4.73528 6.58434 4.90703 6.66645 5.06328C6.74856 5.21953 6.863 5.35676 7.00225 5.46596C7.14151 5.57515 7.30242 5.65386 7.47444 5.69689L12.3031 7.24118L12.7841 7.40664L13.6907 10.4952C13.7198 10.6028 13.7757 10.7013 13.8533 10.7816C13.931 10.862 14.0277 10.9215 14.1347 10.9548L16.3177 11.6534C16.4292 11.6895 16.5481 11.6966 16.6631 11.6739C16.7781 11.6512 16.8852 11.5996 16.9744 11.5239C17.0635 11.4482 17.1316 11.3511 17.1721 11.2418C17.2126 11.1325 17.2242 11.0147 17.2058 10.8997L16.7248 8.60163H17.0393L21.7569 10.1275C22.0661 10.2334 22.4049 10.2136 22.6994 10.0725C22.994 9.93128 23.2204 9.68015 23.3295 9.37378L24.9945 4.28129C25.0129 4.14377 24.9846 4.0041 24.9143 3.88428C24.844 3.76446 24.7355 3.67129 24.606 3.61945Z" stroke="#2A7DB7" stroke-width="1.5" stroke-linecap="round" stroke-linejoin="round"/>
</svg>
