<svg width="26" height="28" viewBox="0 0 26 28" fill="none" xmlns="http://www.w3.org/2000/svg">
<path d="M13.0024 19.2494C16.0143 19.2494 18.4559 16.9798 18.4559 14.1802C18.4559 11.3805 16.0143 9.11092 13.0024 9.11092C9.99047 9.11092 7.54883 11.3805 7.54883 14.1802C7.54883 16.9798 9.99047 19.2494 13.0024 19.2494Z" stroke="#2A7DB7" stroke-linecap="round" stroke-linejoin="round"/>
<path d="M13.0022 9.11077V1M18.4557 27.36V24.3185H22.8186C23.3971 24.3185 23.952 24.1048 24.3611 23.7246C24.7702 23.3443 25 22.8285 25 22.2908V14.18C25.0004 12.1241 24.3894 10.1081 23.2345 8.35471C22.0797 6.60133 20.4258 5.17881 18.4557 4.24431M7.54863 4.24431C5.57773 5.17825 3.92301 6.60053 2.76732 8.35396C1.61164 10.1074 1 12.1237 1 14.18C1 16.2363 1.61164 18.2526 2.76732 20.006C3.92301 21.7595 5.57773 23.1817 7.54863 24.1157V27.36" stroke="#2A7DB7" stroke-linecap="round" stroke-linejoin="round"/>
</svg>
