<svg width="24" height="24" viewBox="0 0 24 24" fill="none" xmlns="http://www.w3.org/2000/svg">
<path d="M10 11.3333H12V12.6667H10V11.3333Z" fill="#2A7DB7"/>
<path d="M17.634 9.44686C16.4516 7.51206 14.8387 5.87627 12.9207 4.66686C12.0346 4.10529 11.0245 3.76916 9.97865 3.68781C8.93278 3.60646 7.88289 3.78238 6.92065 4.20019C6.07899 4.5972 5.34661 5.19311 4.78677 5.93647C4.22693 6.67983 3.85644 7.54829 3.70732 8.46686C3.65398 8.78019 3.61398 9.08019 3.57398 9.37353C2.94981 9.4747 2.3819 9.79437 1.97161 10.2755C1.56131 10.7566 1.33532 11.3679 1.33398 12.0002V16.0869C1.33398 16.4405 1.47446 16.7796 1.72451 17.0297C1.97456 17.2797 2.3137 17.4202 2.66732 17.4202V12.0002C2.66732 11.6466 2.80779 11.3074 3.05784 11.0574C3.30789 10.8073 3.64703 10.6669 4.00065 10.6669H16.4873C17.7722 10.6686 19.0039 11.1798 19.9125 12.0884C20.821 12.9969 21.3322 14.2287 21.334 15.5135V16.0002H20.0007C19.7191 15.3136 19.1946 14.7547 18.5272 14.4302C17.8599 14.1056 17.0964 14.0382 16.3825 14.2406C15.6686 14.4431 15.0542 14.9013 14.6566 15.5279C14.259 16.1545 14.106 16.9055 14.2268 17.6377C14.3476 18.3699 14.7337 19.032 15.3116 19.4976C15.8894 19.9632 16.6184 20.1998 17.3595 20.1622C18.1007 20.1246 18.802 19.8154 19.3297 19.2937C19.8574 18.7719 20.1746 18.0742 20.2207 17.3335H21.334C21.6876 17.3335 22.0267 17.193 22.2768 16.943C22.5268 16.693 22.6673 16.3538 22.6673 16.0002V15.5135C22.6646 14.0748 22.1606 12.682 21.242 11.5748C20.3233 10.4675 19.0475 9.71507 17.634 9.44686ZM7.33398 9.33353H4.62065C4.62065 9.12686 4.68065 8.91353 4.72065 8.66686C4.83583 7.9345 5.13642 7.24377 5.59383 6.66034C6.05124 6.0769 6.65027 5.62016 7.33398 5.33353V9.33353ZM8.66732 9.33353V5.05353C9.91195 4.8919 11.1742 5.16508 12.2407 5.82686C13.6965 6.73365 14.953 7.92664 15.934 9.33353H8.66732ZM17.2007 18.9202C16.871 18.9202 16.5488 18.8224 16.2747 18.6393C16.0006 18.4562 15.787 18.1959 15.6609 17.8913C15.5347 17.5868 15.5017 17.2517 15.566 16.9284C15.6303 16.6051 15.7891 16.3081 16.0221 16.075C16.2552 15.8419 16.5522 15.6832 16.8755 15.6189C17.1988 15.5546 17.5339 15.5876 17.8385 15.7137C18.143 15.8399 18.4033 16.0535 18.5864 16.3276C18.7696 16.6017 18.8673 16.9239 18.8673 17.2535C18.8673 17.6956 18.6917 18.1195 18.3792 18.432C18.0666 18.7446 17.6427 18.9202 17.2007 18.9202Z" fill="#2A7DB7"/>
<path d="M9.447 16.0001C9.16543 15.3135 8.64094 14.7546 7.97358 14.4301C7.30623 14.1056 6.54275 14.0381 5.82883 14.2406C5.1149 14.443 4.50052 14.9013 4.10291 15.5279C3.7053 16.1544 3.5523 16.9055 3.67311 17.6376C3.79392 18.3698 4.18008 19.0319 4.7579 19.4975C5.33572 19.9631 6.06475 20.1997 6.80588 20.1621C7.54701 20.1245 8.24834 19.8153 8.77606 19.2936C9.30378 18.7719 9.62093 18.0741 9.667 17.3335H13.2003V17.1668C13.1871 16.7735 13.2321 16.3803 13.3337 16.0001H9.447ZM6.667 18.9201C6.33736 18.9201 6.01513 18.8224 5.74105 18.6392C5.46696 18.4561 5.25334 18.1958 5.1272 17.8913C5.00105 17.5867 4.96804 17.2516 5.03235 16.9283C5.09666 16.605 5.2554 16.308 5.48848 16.0749C5.72157 15.8419 6.01854 15.6831 6.34185 15.6188C6.66515 15.5545 7.00026 15.5875 7.3048 15.7137C7.60935 15.8398 7.86964 16.0534 8.05278 16.3275C8.23591 16.6016 8.33366 16.9238 8.33366 17.2535C8.33366 17.6955 8.15807 18.1194 7.84551 18.432C7.53295 18.7445 7.10902 18.9201 6.667 18.9201Z" fill="#2A7DB7"/>
</svg>
