<svg width="29" height="29" viewBox="0 0 29 29" fill="none" xmlns="http://www.w3.org/2000/svg">
<path d="M21.75 3.625C22.0705 3.625 22.3778 3.75231 22.6044 3.97891C22.831 4.20552 22.9584 4.51286 22.9584 4.83333V6.04167H24.1667C24.8076 6.04167 25.4223 6.29628 25.8755 6.74949C26.3287 7.2027 26.5834 7.81739 26.5834 8.45833V22.9583C26.5834 23.5993 26.3287 24.214 25.8755 24.6672C25.4223 25.1204 24.8076 25.375 24.1667 25.375H4.83335C4.19241 25.375 3.57773 25.1204 3.12451 24.6672C2.6713 24.214 2.41669 23.5993 2.41669 22.9583V8.45833C2.41669 7.81739 2.6713 7.2027 3.12451 6.74949C3.57773 6.29628 4.19241 6.04167 4.83335 6.04167H6.04169V4.83333C6.04169 4.51286 6.16899 4.20552 6.3956 3.97891C6.62221 3.75231 6.92955 3.625 7.25002 3.625C7.57049 3.625 7.87783 3.75231 8.10444 3.97891C8.33105 4.20552 8.45835 4.51286 8.45835 4.83333V6.04167H20.5417V4.83333C20.5417 4.51286 20.669 4.20552 20.8956 3.97891C21.1222 3.75231 21.4295 3.625 21.75 3.625ZM24.1667 8.45833H4.83335V22.9583H24.1667V8.45833ZM19.3334 12.0833C19.6293 12.0834 19.915 12.192 20.1361 12.3887C20.3573 12.5854 20.4986 12.8564 20.5332 13.1503L20.5417 13.2917V14.5H21.75C22.058 14.5003 22.3542 14.6183 22.5782 14.8297C22.8021 15.0411 22.9369 15.3301 22.9549 15.6375C22.973 15.945 22.873 16.2477 22.6753 16.4839C22.4776 16.7201 22.1972 16.8718 21.8914 16.9082L21.75 16.9167H20.5417V18.125C20.5413 18.433 20.4234 18.7292 20.212 18.9532C20.0006 19.1771 19.7116 19.3119 19.4042 19.3299C19.0967 19.348 18.794 19.2479 18.5578 19.0503C18.3216 18.8526 18.1699 18.5722 18.1335 18.2664L18.125 18.125V16.9167H16.9167C16.6087 16.9163 16.3125 16.7984 16.0885 16.587C15.8646 16.3756 15.7298 16.0866 15.7118 15.7791C15.6937 15.4717 15.7938 15.169 15.9914 14.9328C16.1891 14.6966 16.4695 14.5448 16.7753 14.5085L16.9167 14.5H18.125V13.2917C18.125 12.9712 18.2523 12.6639 18.4789 12.4372C18.7055 12.2106 19.0129 12.0833 19.3334 12.0833ZM10.875 14.5C11.183 14.5003 11.4792 14.6183 11.7032 14.8297C11.9271 15.0411 12.0619 15.3301 12.0799 15.6375C12.098 15.945 11.998 16.2477 11.8003 16.4839C11.6026 16.7201 11.3222 16.8718 11.0164 16.9082L10.875 16.9167H7.25002C6.94204 16.9163 6.64581 16.7984 6.42187 16.587C6.19792 16.3756 6.06315 16.0866 6.0451 15.7791C6.02706 15.4717 6.12709 15.169 6.32476 14.9328C6.52243 14.6966 6.80282 14.5448 7.10864 14.5085L7.25002 14.5H10.875Z" fill="#2A7DB7"/>
</svg>
