<svg width="24" height="24" viewBox="0 0 24 24" fill="none" xmlns="http://www.w3.org/2000/svg">
<path d="M23.4343 12.4634C23.2687 12.4057 23.0888 12.3985 22.9189 12.4429C22.7489 12.4873 22.5973 12.5812 22.4846 12.7117L19.2514 16.4574L14.592 15.6397L11.5046 8.23117C11.3193 7.75911 10.99 7.35242 10.5603 7.06487C10.1306 6.77732 9.62056 6.62244 9.09771 6.62069H5.61771C5.15148 6.62082 4.69405 6.74325 4.29429 6.9749L0 9.46262V14.7592L4.28571 15.5123V24H6V15.8127L9.05571 16.349L10.2857 19.2V24H12V18.869L11.0649 16.7023L17.9914 17.9181L13.9131 22.6428C13.8089 22.7636 13.7425 22.9106 13.7216 23.0666C13.7008 23.2225 13.7264 23.381 13.7955 23.5234C13.8646 23.6658 13.9742 23.7863 14.1117 23.8707C14.2491 23.9551 14.4086 23.9999 14.5714 24H23.1429C23.3702 24 23.5882 23.9128 23.7489 23.7576C23.9097 23.6024 24 23.3919 24 23.1724V13.2414C23.9999 13.0713 23.9456 12.9054 23.8444 12.7662C23.7431 12.627 23.5999 12.5213 23.4343 12.4634ZM1.71429 13.3788V10.3994L4.28571 8.90979V13.8298L1.71429 13.3788ZM6 14.131V8.27586H9.09771C9.27522 8.27736 9.44799 8.3313 9.5928 8.43043C9.7376 8.52956 9.8475 8.66912 9.90771 8.83035L12.5991 15.2897L6 14.131ZM22.2857 22.3448H16.4014L22.2857 15.5272V22.3448ZM9 5.7931C8.40666 5.7931 7.82664 5.62322 7.33329 5.30495C6.83994 4.98667 6.45542 4.53429 6.22836 4.00502C6.0013 3.47574 5.94189 2.89334 6.05764 2.33146C6.1734 1.76959 6.45912 1.25347 6.87868 0.848382C7.29824 0.443292 7.83279 0.167422 8.41473 0.0556577C8.99667 -0.0561064 9.59987 0.00125503 10.1481 0.220488C10.6962 0.439721 11.1648 0.810979 11.4944 1.28732C11.8241 1.76365 12 2.32367 12 2.89655C11.9991 3.6645 11.6827 4.40074 11.1203 4.94376C10.5579 5.48678 9.79537 5.79223 9 5.7931ZM9 1.65517C8.74571 1.65517 8.49713 1.72798 8.2857 1.86438C8.07426 2.00079 7.90947 2.19467 7.81215 2.4215C7.71484 2.64833 7.68938 2.89793 7.73899 3.13873C7.7886 3.37954 7.91105 3.60073 8.09086 3.77434C8.27067 3.94795 8.49977 4.06618 8.74917 4.11408C8.99857 4.16198 9.25709 4.13739 9.49202 4.04344C9.72696 3.94948 9.92776 3.79037 10.069 3.58623C10.2103 3.38208 10.2857 3.14207 10.2857 2.89655C10.2853 2.56745 10.1497 2.25196 9.90864 2.01925C9.66762 1.78654 9.34085 1.65561 9 1.65517Z" fill="#2A7DB7"/>
</svg>
