<svg width="24" height="24" viewBox="0 0 24 24" fill="none" xmlns="http://www.w3.org/2000/svg">
<path d="M22.5 23.9999H21C21 22.5822 19.9905 21.4285 18.75 21.4285H15.75C14.5095 21.4285 13.5 22.5822 13.5 23.9999H12C12 21.6368 13.6823 19.7142 15.75 19.7142H18.75C20.8177 19.7142 22.5 21.6368 22.5 23.9999ZM11.25 11.9999C11.0511 11.9999 10.8603 12.0902 10.7197 12.251C10.579 12.4117 10.5 12.6298 10.5 12.8571V17.9999H12V12.8571C12 12.6298 11.921 12.4117 11.7803 12.251C11.6397 12.0902 11.4489 11.9999 11.25 11.9999Z" fill="#2A7DB7"/>
<path d="M24 8.57098H10.5V10.2853H13.5V14.571C13.5 16.9341 15.1823 18.8567 17.25 18.8567C19.3177 18.8567 21 16.9341 21 14.571V10.2853H24V8.57098ZM17.25 17.1424C16.0095 17.1424 15 15.9887 15 14.571V13.7138H19.5V14.571C19.5 15.9887 18.4905 17.1424 17.25 17.1424ZM19.5 11.9996H15V10.2853H19.5V11.9996Z" fill="#2A7DB7"/>
<path d="M19.3485 6.85716C18.6525 2.94944 15.6225 1.48469e-05 12 1.48469e-05C10.2542 -0.00370144 8.56217 0.690352 7.21689 1.96202C5.87161 3.23369 4.95774 5.00293 4.6335 6.96344C1.99125 7.50344 0 10.1563 0 13.2857C0 16.8309 2.52375 19.7143 5.625 19.7143H9V18H5.625C4.53135 17.9987 3.48283 17.5015 2.7095 16.6177C1.93617 15.7339 1.50119 14.5356 1.5 13.2857C1.50311 12.093 1.90097 10.9458 2.61369 10.0745C3.3264 9.20319 4.30118 8.67235 5.34225 8.58859L5.96925 8.53973L6.03675 7.82573C6.19429 6.14498 6.89081 4.59044 7.99197 3.46191C9.09314 2.33339 10.5209 1.71083 12 1.7143C14.79 1.7143 17.1338 3.9043 17.8028 6.85716H19.3485Z" fill="#2A7DB7"/>
</svg>
