<svg width="26" height="27" viewBox="0 0 26 27" fill="none" xmlns="http://www.w3.org/2000/svg">
<path d="M16.2 23.0238V26M9.8 23.0238V26M16.2 3.97619V1M9.8 3.97619V1M5 13.5H1M25 13.5H21M5 6.95238H1M25 6.95238H21M5 20.0476H1M25 20.0476H21M5 22.3095V4.69048C5 4.50104 5.10114 4.31935 5.28118 4.1854C5.46121 4.05145 5.70539 3.97619 5.96 3.97619H20.04C20.1661 3.97619 20.2909 3.99467 20.4074 4.03056C20.5238 4.06646 20.6297 4.11907 20.7188 4.1854C20.808 4.25173 20.8787 4.33047 20.9269 4.41713C20.9752 4.50379 21 4.59667 21 4.69048V22.3095C21 22.4033 20.9752 22.4962 20.9269 22.5829C20.8787 22.6695 20.808 22.7483 20.7188 22.8146C20.6297 22.8809 20.5238 22.9335 20.4074 22.9694C20.2909 23.0053 20.1661 23.0238 20.04 23.0238H5.96C5.70539 23.0238 5.46121 22.9486 5.28118 22.8146C5.10114 22.6806 5 22.499 5 22.3095Z" stroke="#2A7DB7" stroke-width="1.5" stroke-linecap="round" stroke-linejoin="round"/>
</svg>
