<svg width="26" height="26" viewBox="0 0 26 26" fill="none" xmlns="http://www.w3.org/2000/svg">
<path d="M15.7696 12.0771H10.2311C9.2115 12.0771 8.38495 12.9036 8.38495 13.9232V23.154C8.38495 24.1736 9.2115 25.0001 10.2311 25.0001H15.7696C16.7892 25.0001 17.6157 24.1736 17.6157 23.154V13.9232C17.6157 12.9036 16.7892 12.0771 15.7696 12.0771Z" stroke="#2A7DB7" stroke-linecap="round" stroke-linejoin="round"/>
<path d="M3.76923 13.9231V19.4615M22.2308 13.9231V19.4615M3.76923 15.7692H1.92308C1.67826 15.7692 1.44347 15.672 1.27036 15.4989C1.09725 15.3258 1 15.091 1 14.8462V13C1 9.8174 2.26428 6.76516 4.51472 4.51472C6.76516 2.26428 9.8174 1 13 1C14.5759 1 16.1363 1.31039 17.5922 1.91345C19.0481 2.5165 20.371 3.40042 21.4853 4.51472C22.5996 5.62902 23.4835 6.95189 24.0866 8.4078C24.6896 9.86371 25 11.4241 25 13V14.8462C25 15.091 24.9027 15.3258 24.7296 15.4989C24.5565 15.672 24.3217 15.7692 24.0769 15.7692H22.2308M13 16.6923V18.5385" stroke="#2A7DB7" stroke-linecap="round" stroke-linejoin="round"/>
</svg>
