<svg width="24" height="24" viewBox="0 0 24 24" fill="none" xmlns="http://www.w3.org/2000/svg">
<path fill-rule="evenodd" clip-rule="evenodd" d="M18.0518 0L17.0405 2.784L17.0982 2.178L12.0117 3.9246V1.5888L6.1613 2.874V5.046L4.68199 1.0842L0 4.2264L2.03928 9.6882C2.13539 9.7242 2.22482 9.7704 2.30422 9.825C2.99791 10.3068 3.66569 10.7442 4.31007 11.1384L1.87463 4.611L3.78855 3.327L6.1613 9.6786V12.1752C6.73213 12.4644 7.28876 12.7152 7.83285 12.9252V3.762L10.3402 3.2118V13.632C10.9753 13.7388 11.6022 13.7874 12.2307 13.7766L13.0715 4.8906L15.2361 4.1466L14.3494 13.521C15.0238 13.371 15.7083 13.1538 16.4104 12.8718L18.356 7.6596L20.7296 7.1484L19.0915 11.5356C19.8786 11.0717 20.6381 10.5843 21.3682 10.0746L23.1626 5.2662L21.6857 5.5374L24 0H18.0518ZM21.7534 1.2L19.7961 5.8848L17.4877 6.3084L19.3431 1.2H21.7534Z" fill="#2A7DB7"/>
<path fill-rule="evenodd" clip-rule="evenodd" d="M21.6953 11.5014C18.3931 13.6794 15.3434 14.9826 12.0488 14.979C8.75252 14.9754 5.67522 13.6626 2.3221 11.4822L4.29285 22.8H19.7279L21.6953 11.5014ZM1.53815 9.6C0.886249 9.6 0.380608 10.0104 0.461678 10.4748L2.63385 22.9488C2.68437 23.2391 2.88086 23.5061 3.18637 23.6997C3.49188 23.8933 3.88537 24.0001 4.29285 24H19.7279C20.1354 24.0001 20.5288 23.8933 20.8344 23.6997C21.1399 23.5061 21.3363 23.2391 21.3869 22.9488L23.5599 10.4718C23.5886 10.3107 23.5461 10.1473 23.4385 10.0045C23.331 9.86164 23.1637 9.74664 22.9603 9.67568C22.7568 9.60471 22.5275 9.58136 22.3046 9.6089C22.0817 9.63644 21.8765 9.71349 21.7178 9.8292C14.246 15.1068 9.88332 15.0852 2.30288 9.825C2.09787 9.68207 1.82392 9.60147 1.53815 9.6Z" fill="#2A7DB7"/>
</svg>
