<svg width="26" height="26" viewBox="0 0 26 26" fill="none" xmlns="http://www.w3.org/2000/svg">
<path d="M7.26087 7.26087H23.9565V7.52174L23.7812 7.97461C22.2943 11.8157 21.3583 16.4477 20.9972 20.8261L20.9868 20.9878M15.087 25H20.8261V24.8383C20.8261 24.377 20.8334 23.9096 20.848 23.4348M18.7391 7.26087V6.73913C18.7391 5.21702 19.3438 3.75725 20.4201 2.68095C21.4964 1.60466 22.9561 1 24.4783 1M1 1L20.9878 20.9878L25 25M2.04348 18.7391V17.6957C2.04348 16.8654 2.37329 16.0692 2.96036 15.4821C3.54743 14.895 4.34367 14.5652 5.17391 14.5652H9.34783C10.1781 14.5652 10.9743 14.895 11.5614 15.4821C12.1484 16.0692 12.4783 16.8654 12.4783 17.6957V18.7391H2.04348ZM2.56522 18.7391H11.9565C12.3716 18.7391 12.7698 18.904 13.0633 19.1976C13.3568 19.4911 13.5217 19.8892 13.5217 20.3043C13.5217 20.7195 13.3568 21.1176 13.0633 21.4111C12.7698 21.7047 12.3716 21.8696 11.9565 21.8696H2.56522C2.1501 21.8696 1.75198 21.7047 1.45844 21.4111C1.16491 21.1176 1 20.7195 1 20.3043C1 19.8892 1.16491 19.4911 1.45844 19.1976C1.75198 18.904 2.1501 18.7391 2.56522 18.7391ZM2.04348 21.8696V25H12.4783V21.8696H2.04348Z" stroke="#2A7DB7"/>
</svg>
