<svg width="24" height="24" viewBox="0 0 24 24" fill="none" xmlns="http://www.w3.org/2000/svg">
<path d="M23.7612 19.1512C23.7356 19.1592 23.5504 19.214 23.3736 19.3404C23.2861 19.2782 23.1911 19.2273 23.0908 19.1888V18.596L22.852 18.664C22.7134 18.7057 22.5825 18.7696 22.4644 18.8532C22.3467 18.7696 22.2162 18.7057 22.078 18.664L21.8392 18.596V19.0408L21.622 19.1016C21.5968 19.11 21.4112 19.1644 21.2344 19.2912C21.1876 19.2586 21.1387 19.229 21.088 19.2028V13.8176C21.118 13.838 21.1428 13.8508 21.1748 13.8732C22.93 15.092 23.176 13.0308 22.984 12.3032C22.6184 10.9128 23.6272 10.574 23.9052 9.41682C24.3984 7.35842 22.758 6.23602 23.2648 4.27123C23.7732 2.30683 22.098 -2.01077 19.9381 1.08363C19.2245 2.10643 18.3489 0.270031 17.2205 1.85003C16.0917 3.42923 16.6773 4.79402 17.0245 5.82522C17.7161 7.87482 16.3309 8.53922 17.2393 10.2552C18.1477 11.9704 16.8425 12.7972 18.5533 13.754C19.1113 14.0656 19.3961 14.0552 19.5893 13.9444V15.6208L15.0065 14.3532V8.25002H16.1301L12.7582 6.10202V3.75003H13.1334V3.00003H10.5102V3.75003H10.8854V4.90842L7.88827 3.00003L0.394393 8.25002H1.51797V14.5536L0 15.782H1.51797V22.5H0.0195997V24H23.9588V22.5H23.4464V20.6888H23.5204C23.6476 20.6887 23.7695 20.6381 23.8594 20.5482C23.9493 20.4583 23.9999 20.3364 24 20.2092V19.084L23.7612 19.1512ZM22.3368 7.21522C22.5367 7.21522 22.7284 7.29462 22.8697 7.43595C23.011 7.57727 23.0904 7.76895 23.0904 7.96882C23.0904 8.16869 23.011 8.36037 22.8697 8.5017C22.7284 8.64302 22.5367 8.72242 22.3368 8.72242C21.92 8.72242 22.574 8.38442 22.574 7.96882C22.574 7.55242 21.92 7.21522 22.3368 7.21522ZM21.6848 3.16963C21.7515 3.16963 21.8176 3.18277 21.8792 3.2083C21.9409 3.23383 21.9969 3.27124 22.044 3.31842C22.0912 3.36559 22.1286 3.42159 22.1542 3.48322C22.1797 3.54486 22.1928 3.61092 22.1928 3.67763C22.1928 3.74434 22.1797 3.8104 22.1542 3.87203C22.1286 3.93366 22.0912 3.98966 22.044 4.03684C21.9969 4.08401 21.9409 4.12143 21.8792 4.14696C21.8176 4.17249 21.7515 4.18563 21.6848 4.18563C21.4048 4.18563 21.822 3.95843 21.822 3.67763C21.822 3.39683 21.4048 3.16963 21.6848 3.16963ZM21.6784 11.4376C21.8276 11.4376 21.9706 11.4969 22.0761 11.6023C22.1816 11.7078 22.2408 11.8509 22.2408 12C22.2408 12.1492 22.1816 12.2922 22.0761 12.3977C21.9706 12.5032 21.8276 12.5624 21.6784 12.5624C21.3672 12.5624 21.6784 12.3116 21.6784 12C21.6784 11.6892 21.3672 11.4376 21.6784 11.4376ZM10.511 8.25002H14.257V14.25H10.511V8.25002ZM2.26796 8.25002H9.76104V14.25H2.26796V8.25002ZM6.96548 20.3764C6.90719 20.3764 6.85128 20.3532 6.81006 20.312C6.76884 20.2708 6.74569 20.2149 6.74569 20.1566C6.74569 20.0983 6.76884 20.0424 6.81006 20.0012C6.85128 19.96 6.90719 19.9368 6.96548 19.9368C7.02378 19.9368 7.07968 19.96 7.1209 20.0012C7.16212 20.0424 7.18528 20.0983 7.18528 20.1566C7.18528 20.2149 7.16212 20.2708 7.1209 20.312C7.07968 20.3532 7.02378 20.3764 6.96548 20.3764ZM14.5802 22.5H7.47748V18.3984H7.77067V17.8124H4.25793V18.3984H4.54992V22.5H2.26796V15.782H14.5802V22.5ZM17.2209 20.3412H16.8529V19.2916H17.1841V20.16C17.1841 20.2244 17.1977 20.2852 17.2209 20.3412ZM16.8529 18.9916V17.9412H17.4525V18.9916H16.8529ZM17.3717 19.2824C17.3717 19.2824 17.6369 19.358 17.8097 19.5376C17.9833 19.3584 18.2485 19.2824 18.2485 19.2824V20.16C18.2485 20.1985 18.241 20.2365 18.2264 20.2721C18.2117 20.3076 18.1902 20.3399 18.163 20.3672C18.1359 20.3944 18.1036 20.416 18.0681 20.4308C18.0326 20.4455 17.9946 20.4532 17.9561 20.4532H17.6641C17.6257 20.4532 17.5877 20.4455 17.5522 20.4307C17.5168 20.416 17.4846 20.3944 17.4575 20.3671C17.4304 20.3399 17.4089 20.3076 17.3944 20.272C17.3798 20.2365 17.3724 20.1984 17.3725 20.16V19.2824H17.3717ZM17.7365 22.5H15.3301V15.782H18.0749V19.1464C17.9812 19.1842 17.8922 19.2328 17.8097 19.2912C17.7905 19.2776 17.7709 19.2668 17.7513 19.2552V17.6408H15.6533V20.6412H17.7365V22.5ZM15.9533 18.9916V17.9412H16.5525V18.9916H15.9533ZM16.5525 19.2916V20.3412H15.9533V19.2916H16.5525ZM18.0749 22.5H17.8829V21.3164C17.9277 21.3968 17.9933 21.462 18.0749 21.506V22.5ZM18.5229 22.5H18.3773V21.5668H18.5229V22.5ZM18.5885 21.3792H18.2957C18.2573 21.3793 18.2193 21.3717 18.1838 21.3571C18.1484 21.3424 18.1161 21.3209 18.089 21.2938C18.0618 21.2667 18.0403 21.2345 18.0256 21.199C18.0109 21.1636 18.0033 21.1256 18.0033 21.0872V20.6308C18.077 20.6235 18.1479 20.5988 18.2102 20.5588C18.2725 20.5187 18.3244 20.4644 18.3617 20.4004C18.3889 20.4216 18.4177 20.4388 18.4421 20.464C18.6149 20.2848 18.8805 20.21 18.8805 20.21V21.0868C18.8805 21.1252 18.873 21.1632 18.8584 21.1987C18.8437 21.2341 18.8222 21.2664 18.7951 21.2935C18.768 21.3207 18.7358 21.3422 18.7003 21.3569C18.6649 21.3716 18.6269 21.3792 18.5885 21.3792ZM18.9665 22.5H18.8249V21.4948C18.8817 21.462 18.9281 21.4196 18.9665 21.3684V22.5ZM18.8865 20.0128C18.8103 20.0111 18.7378 19.9797 18.6844 19.9253C18.6311 19.8709 18.6011 19.7978 18.6009 19.7216V18.8436C18.6009 18.8436 18.8665 18.9188 19.0397 19.0988C19.2129 18.9192 19.4785 18.8436 19.4785 18.8436V19.7216C19.4785 19.76 19.4709 19.798 19.4562 19.8335C19.4415 19.869 19.42 19.9012 19.3928 19.9284C19.3657 19.9555 19.3335 19.9771 19.298 19.9917C19.2625 20.0064 19.2245 20.014 19.1861 20.014H19.0685V19.9612L18.8865 20.0128ZM19.5901 22.5H19.1125V20.202H19.1861C19.3057 20.202 19.4117 20.1536 19.4961 20.0808V20.2088C19.4961 20.3116 19.5353 20.4012 19.5901 20.4792V22.5ZM19.5901 18.618L19.4269 18.664C19.2884 18.7056 19.1576 18.7695 19.0397 18.8532C18.9722 18.8056 18.9003 18.7646 18.8249 18.7308V15.782H19.5901V18.618ZM21.8612 20.16V19.828C21.8888 19.9472 21.9576 20.0464 22.056 20.1124C21.993 20.1425 21.9326 20.178 21.8756 20.2184C21.8676 20.2132 21.86 20.2092 21.852 20.2036C21.854 20.1892 21.8612 20.1756 21.8612 20.16ZM19.7241 6.61082C19.7241 6.92202 20.0341 7.17322 19.7241 7.17322C19.5749 7.17322 19.4319 7.11397 19.3264 7.0085C19.2209 6.90303 19.1617 6.75998 19.1617 6.61082C19.1617 6.46167 19.2209 6.31862 19.3264 6.21315C19.4319 6.10768 19.5749 6.04842 19.7241 6.04842C20.0341 6.04842 19.7241 6.30042 19.7241 6.61082ZM19.7085 2.40763C20.1285 2.40763 19.5037 2.74923 19.5037 3.16963C19.5037 3.59003 20.1285 3.93123 19.7085 3.93123C19.607 3.93355 19.506 3.91557 19.4116 3.87833C19.3171 3.84109 19.231 3.78535 19.1584 3.71438C19.0858 3.64341 19.0281 3.55864 18.9887 3.46506C18.9493 3.37148 18.929 3.27096 18.929 3.16943C18.929 3.06789 18.9493 2.96738 18.9887 2.8738C19.0281 2.78021 19.0858 2.69545 19.1584 2.62448C19.231 2.55351 19.3171 2.49776 19.4116 2.46053C19.506 2.42329 19.607 2.4053 19.7085 2.40763ZM17.9385 5.10082C17.9385 4.79042 18.1909 4.53842 18.5009 4.53842C18.8105 4.53842 18.4073 4.79042 18.4073 5.10082C18.4073 5.41242 18.8109 5.66362 18.5009 5.66362C18.427 5.66362 18.3538 5.64906 18.2856 5.62078C18.2173 5.59249 18.1553 5.55103 18.1031 5.49876C18.0509 5.44649 18.0094 5.38445 17.9812 5.31617C17.953 5.24789 17.9384 5.17471 17.9385 5.10082ZM19.3737 10.3636C19.0753 10.3636 18.7891 10.2451 18.5781 10.0341C18.367 9.82304 18.2485 9.53684 18.2485 9.23842C18.2485 8.94 18.367 8.6538 18.5781 8.44278C18.7891 8.23177 19.0753 8.11322 19.3737 8.11322C19.9949 8.11322 19.1285 8.61722 19.1285 9.23842C19.1285 9.85962 19.9945 10.3636 19.3737 10.3636ZM20.1677 22.5H20.0221V20.6888H20.1677V22.5ZM20.5601 20.2088C20.5601 20.3708 20.4293 20.5008 20.2681 20.5008H19.9761C19.9377 20.5009 19.8997 20.4933 19.8642 20.4787C19.8287 20.464 19.7965 20.4425 19.7693 20.4154C19.7422 20.3883 19.7206 20.3561 19.7059 20.3206C19.6912 20.2852 19.6837 20.2472 19.6837 20.2088V19.332C19.6837 19.332 19.9489 19.4068 20.1225 19.5864C20.2953 19.4068 20.5609 19.332 20.5609 19.332V20.2088H20.5601ZM20.7969 20.16V19.2824C20.7969 19.2824 21.062 19.358 21.2352 19.538C21.4084 19.3584 21.674 19.2824 21.674 19.2824V20.16C21.6741 20.1985 21.6666 20.2365 21.6519 20.2721C21.6372 20.3076 21.6157 20.3399 21.5886 20.3672C21.5614 20.3944 21.5292 20.416 21.4937 20.4308C21.4582 20.4455 21.4201 20.4532 21.3816 20.4532H21.09C21.0515 20.4533 21.0134 20.4457 20.9778 20.431C20.9422 20.4163 20.9098 20.3947 20.8826 20.3674C20.8554 20.3402 20.8338 20.3079 20.8191 20.2723C20.8043 20.2367 20.7968 20.1985 20.7969 20.16ZM21.1628 22.5H21.0884V20.6412H21.1628V22.5ZM21.8024 22.5H21.3088V21.3052C21.3481 21.3834 21.4082 21.4493 21.4825 21.4956C21.5569 21.5419 21.6425 21.5668 21.73 21.5676H21.8028L21.8024 22.5ZM21.7296 21.38C21.6519 21.3799 21.5775 21.349 21.5226 21.294C21.4677 21.239 21.4368 21.1645 21.4368 21.0868V20.6292C21.5892 20.6112 21.716 20.5236 21.79 20.3976C21.8188 20.42 21.8496 20.4368 21.876 20.464C22.0492 20.2848 22.3148 20.2088 22.3148 20.2088V21.0864C22.3149 21.1249 22.3074 21.1629 22.2927 21.1985C22.278 21.234 22.2565 21.2663 22.2294 21.2936C22.2022 21.3208 22.17 21.3424 22.1344 21.3572C22.0989 21.3719 22.0609 21.3796 22.0224 21.3796L21.7296 21.38ZM22.392 22.5H21.9484V21.5676H22.022C22.1744 21.5676 22.3044 21.4912 22.3924 21.38L22.392 22.5ZM22.3188 20.0144C22.2805 20.0144 22.2425 20.0068 22.2071 19.9921C22.1716 19.9774 22.1394 19.9559 22.1124 19.9287C22.0853 19.9016 22.0638 19.8693 22.0492 19.8338C22.0346 19.7984 22.0271 19.7604 22.0272 19.722V18.844C22.0272 18.844 22.2916 18.9192 22.4648 19.0988C22.638 18.9196 22.9036 18.844 22.9036 18.844V19.722C22.9037 19.7604 22.8961 19.7985 22.8815 19.834C22.8668 19.8695 22.8453 19.9017 22.8181 19.9289C22.7909 19.956 22.7587 19.9776 22.7232 19.9923C22.6877 20.0069 22.6496 20.0145 22.6112 20.0144H22.3188ZM23.3004 22.5H22.538V20.202H22.6112C22.6596 20.202 22.7036 20.1884 22.748 20.1748V20.2092C22.7481 20.3364 22.7987 20.4584 22.8887 20.5484C22.9788 20.6383 23.1008 20.6888 23.228 20.6888H23.3008L23.3004 22.5ZM23.812 20.2088C23.812 20.3708 23.6812 20.5008 23.52 20.5008H23.2276C23.1892 20.5009 23.1512 20.4933 23.1157 20.4787C23.0803 20.464 23.048 20.4425 23.0209 20.4154C22.9937 20.3883 22.9722 20.3561 22.9575 20.3206C22.9428 20.2852 22.9352 20.2472 22.9352 20.2088V20.0712C23.0296 19.9828 23.0912 19.8604 23.0912 19.7216V19.3936C23.1962 19.4403 23.292 19.5055 23.374 19.586C23.5468 19.4064 23.8124 19.3316 23.8124 19.3316V20.2088H23.812Z" fill="#2A7DB7"/>
</svg>
