<svg width="24" height="18" viewBox="0 0 24 18" fill="none" xmlns="http://www.w3.org/2000/svg">
<path d="M23.5556 13.5H22.2222V2.25C22.2222 1.65326 21.9881 1.08097 21.5713 0.65901C21.1546 0.237053 20.5894 0 20 0H4C3.41063 0 2.8454 0.237053 2.42865 0.65901C2.0119 1.08097 1.77778 1.65326 1.77778 2.25V13.5H0.444444C0.32657 13.5 0.213524 13.5474 0.130175 13.6318C0.0468253 13.7162 0 13.8307 0 13.95V15.75C0 16.3467 0.234126 16.919 0.650874 17.341C1.06762 17.7629 1.63285 18 2.22222 18H21.7778C22.3671 18 22.9324 17.7629 23.3491 17.341C23.7659 16.919 24 16.3467 24 15.75V13.95C24 13.8307 23.9532 13.7162 23.8698 13.6318C23.7865 13.5474 23.6734 13.5 23.5556 13.5ZM2.66667 2.25C2.66667 1.89196 2.80714 1.54858 3.05719 1.29541C3.30724 1.04223 3.64638 0.9 4 0.9H20C20.3536 0.9 20.6928 1.04223 20.9428 1.29541C21.1929 1.54858 21.3333 1.89196 21.3333 2.25V13.5H2.66667V2.25ZM23.1111 15.75C23.1111 16.108 22.9706 16.4514 22.7206 16.7046C22.4705 16.9578 22.1314 17.1 21.7778 17.1H2.22222C1.8686 17.1 1.52946 16.9578 1.27941 16.7046C1.02936 16.4514 0.888889 16.108 0.888889 15.75V14.4H23.1111V15.75ZM14.2222 4.05C14.2222 4.16935 14.1754 4.28381 14.092 4.3682C14.0087 4.45259 13.8957 4.5 13.7778 4.5H10.2222C10.1043 4.5 9.9913 4.45259 9.90795 4.3682C9.8246 4.28381 9.77778 4.16935 9.77778 4.05C9.77778 3.93065 9.8246 3.81619 9.90795 3.7318C9.9913 3.64741 10.1043 3.6 10.2222 3.6H13.7778C13.8957 3.6 14.0087 3.64741 14.092 3.7318C14.1754 3.81619 14.2222 3.93065 14.2222 4.05Z" fill="#2A7DB7"/>
</svg>
