<svg width="24" height="24" viewBox="0 0 24 24" fill="none" xmlns="http://www.w3.org/2000/svg">
<path d="M20.7233 6.49128C20.8091 6.51219 20.8982 6.51586 20.9854 6.50206C21.0726 6.48826 21.1561 6.45728 21.2313 6.41091C21.3064 6.36454 21.3716 6.3037 21.423 6.23193C21.4745 6.16016 21.5111 6.07889 21.5309 5.99283C21.5507 5.90677 21.5532 5.81763 21.5382 5.7306C21.5233 5.64357 21.4912 5.56038 21.4439 5.48585C21.3965 5.41132 21.3348 5.34693 21.2624 5.29644C21.19 5.24594 21.1083 5.21034 21.022 5.19169L16.6114 4.17816C16.525 4.15517 16.4348 4.14981 16.3462 4.1624C16.2577 4.17499 16.1726 4.20528 16.096 4.25147C16.0194 4.29765 15.9528 4.35878 15.9003 4.43122C15.8478 4.50366 15.8104 4.58592 15.7904 4.67311C15.7703 4.7603 15.768 4.85063 15.7836 4.93873C15.7992 5.02683 15.8324 5.11089 15.8811 5.18591C15.9299 5.26092 15.9932 5.32536 16.0673 5.37539C16.1415 5.42541 16.225 5.45999 16.3128 5.47708L20.7233 6.49128Z" fill="#2A7DB7"/>
<path fill-rule="evenodd" clip-rule="evenodd" d="M18.6668 10.6687C20.0813 10.6687 21.4378 10.1067 22.4379 9.10633C23.4381 8.10594 24 6.74912 24 5.33436C24 3.9196 23.4381 2.56279 22.4379 1.5624C21.4378 0.562011 20.0813 0 18.6668 0C17.2524 0 15.8959 0.562011 14.8957 1.5624C13.8955 2.56279 13.3336 3.9196 13.3336 5.33436C13.3336 6.74912 13.8955 8.10594 14.8957 9.10633C15.8959 10.1067 17.2524 10.6687 18.6668 10.6687ZM18.6668 9.33514C19.1921 9.33514 19.7122 9.23165 20.1975 9.03059C20.6828 8.82954 21.1237 8.53484 21.4952 8.16334C21.8666 7.79183 22.1612 7.35079 22.3622 6.86539C22.5632 6.38 22.6667 5.85975 22.6667 5.33436C22.6667 4.80897 22.5632 4.28873 22.3622 3.80333C22.1612 3.31794 21.8666 2.8769 21.4952 2.50539C21.1237 2.13388 20.6828 1.83919 20.1975 1.63813C19.7122 1.43707 19.1921 1.33359 18.6668 1.33359C17.606 1.33359 16.5886 1.7551 15.8385 2.50539C15.0883 3.25568 14.6669 4.27329 14.6669 5.33436C14.6669 6.39543 15.0883 7.41305 15.8385 8.16334C16.5886 8.91363 17.606 9.33514 18.6668 9.33514ZM7.18581 2.16375C6.75449 1.14222 5.31053 1.03953 4.73122 1.98838L0.195347 9.41182C-0.327971 10.268 0.256679 11.3615 1.27732 11.4342L9.18776 11.9983C10.2077 12.0717 10.9504 11.0728 10.5611 10.1513L7.18581 2.16375ZM5.87452 2.67585C5.87232 2.67836 5.87031 2.68104 5.86852 2.68385L1.34065 10.0953L1.34198 10.0966C1.34408 10.0978 1.34632 10.0987 1.34865 10.0993C1.35641 10.1019 1.36448 10.1035 1.37265 10.104L9.28375 10.6681C9.29709 10.6694 9.30509 10.6681 9.30909 10.6681C9.31638 10.6667 9.32311 10.6632 9.32842 10.6581L5.95785 2.68318L5.95518 2.67652C5.944 2.67084 5.93172 2.66765 5.91918 2.66718C5.90512 2.66584 5.89095 2.66789 5.87785 2.67318L5.87585 2.67385L5.87452 2.67585ZM19.5901 20.2439C20.5517 19.7955 21.2958 18.9834 21.6587 17.9863C22.0216 16.9892 21.9737 15.8887 21.5254 14.9269C21.3034 14.4507 20.9899 14.0228 20.6026 13.6678C20.2153 13.3128 19.7619 13.0376 19.2683 12.8578C18.2714 12.4948 17.1711 12.5428 16.2096 12.9912L8.9591 16.3732C8.48302 16.5952 8.05534 16.9088 7.70045 17.2962C7.34556 17.6835 7.07042 18.137 6.89075 18.6307C6.71107 19.1244 6.63037 19.6486 6.65326 20.1735C6.67615 20.6984 6.80218 21.2137 7.02415 21.6899C7.24612 22.166 7.55969 22.5938 7.94695 22.9488C8.33421 23.3038 8.78758 23.5789 9.28117 23.7587C9.77476 23.9384 10.2989 24.0191 10.8237 23.9962C11.3485 23.9733 11.8636 23.8472 12.3397 23.6252L19.5901 20.2439ZM9.52241 17.5821C9.20156 17.7279 8.91277 17.9358 8.67276 18.1939C8.43275 18.452 8.24627 18.7552 8.1241 19.0858C8.00193 19.4164 7.94649 19.768 7.961 20.1202C7.97551 20.4724 8.05967 20.8182 8.20861 21.1377C8.35756 21.4571 8.56834 21.7439 8.82876 21.9814C9.08919 22.2189 9.3941 22.4024 9.72586 22.5213C10.0576 22.6402 10.4097 22.6921 10.7616 22.6741C11.1136 22.6561 11.4585 22.5685 11.7764 22.4163L14.7536 21.0274L12.5003 16.1931L9.52241 17.5821ZM15.9622 20.4639L13.7083 15.6297L16.7729 14.2001C17.091 14.0461 17.4365 13.957 17.7894 13.9378C18.1423 13.9187 18.4954 13.9698 18.8284 14.0884C19.1613 14.2069 19.4673 14.3905 19.7287 14.6283C19.9901 14.8662 20.2016 15.1537 20.3509 15.4741C20.5003 15.7944 20.5844 16.1413 20.5985 16.4945C20.6127 16.8477 20.5565 17.2002 20.4332 17.5314C20.3099 17.8627 20.1221 18.1662 19.8805 18.4242C19.639 18.6822 19.3485 18.8896 19.0261 19.0343L15.9622 20.4639Z" fill="#2A7DB7"/>
</svg>
