<svg width="24" height="22" viewBox="0 0 24 22" fill="none" xmlns="http://www.w3.org/2000/svg">
<path d="M7.99844 15.7143C8.35214 15.7143 8.69135 15.5487 8.94145 15.254C9.19155 14.9593 9.33206 14.5596 9.33206 14.1429C9.33206 13.7261 9.19155 13.3264 8.94145 13.0317C8.69135 12.737 8.35214 12.5714 7.99844 12.5714C7.64474 12.5714 7.30553 12.737 7.05543 13.0317C6.80533 13.3264 6.66482 13.7261 6.66482 14.1429C6.66482 14.5596 6.80533 14.9593 7.05543 15.254C7.30553 15.5487 7.64474 15.7143 7.99844 15.7143ZM13.3329 14.1429C13.3329 14.5596 13.1924 14.9593 12.9423 15.254C12.6922 15.5487 12.353 15.7143 11.9993 15.7143C11.6456 15.7143 11.3064 15.5487 11.0563 15.254C10.8062 14.9593 10.6657 14.5596 10.6657 14.1429C10.6657 13.7261 10.8062 13.3264 11.0563 13.0317C11.3064 12.737 11.6456 12.5714 11.9993 12.5714C12.353 12.5714 12.6922 12.737 12.9423 13.0317C13.1924 13.3264 13.3329 13.7261 13.3329 14.1429ZM16.0001 15.7143C16.3538 15.7143 16.6931 15.5487 16.9432 15.254C17.1933 14.9593 17.3338 14.5596 17.3338 14.1429C17.3338 13.7261 17.1933 13.3264 16.9432 13.0317C16.6931 12.737 16.3538 12.5714 16.0001 12.5714C15.6464 12.5714 15.3072 12.737 15.0571 13.0317C14.807 13.3264 14.6665 13.7261 14.6665 14.1429C14.6665 14.5596 14.807 14.9593 15.0571 15.254C15.3072 15.5487 15.6464 15.7143 16.0001 15.7143ZM3.99759 0.460429C4.24763 0.165708 4.58678 8.90016e-05 4.94045 0H19.0581C19.4118 8.90016e-05 19.7509 0.165708 20.001 0.460429L23.5244 4.61057C24.5406 5.80957 23.8205 7.85714 22.3828 7.85714H21.3346V18.8571C21.3346 19.6907 21.0536 20.4901 20.5534 21.0795C20.0532 21.6689 19.3748 22 18.6674 22H5.3312C4.62381 22 3.94539 21.6689 3.44518 21.0795C2.94498 20.4901 2.66397 19.6907 2.66397 18.8571V7.85714H1.61575C0.178106 7.85714 -0.540713 5.80957 0.476837 4.61057L3.99759 0.460429ZM20.001 18.8571V7.85714H3.99759V18.8571C3.99759 19.2739 4.13809 19.6736 4.38819 19.9683C4.6383 20.263 4.97751 20.4286 5.3312 20.4286H18.6674C19.0211 20.4286 19.3603 20.263 19.6104 19.9683C19.8605 19.6736 20.001 19.2739 20.001 18.8571ZM22.3828 6.28571C22.4381 6.28572 22.4922 6.26642 22.5382 6.23026C22.5843 6.1941 22.6202 6.14269 22.6414 6.08252C22.6627 6.02234 22.6683 5.9561 22.6577 5.89214C22.647 5.82819 22.6205 5.76938 22.5815 5.72314L19.0581 1.57143H4.94045L1.41837 5.72314C1.37947 5.76929 1.353 5.82795 1.3423 5.89176C1.33161 5.95557 1.33715 6.02168 1.35824 6.08179C1.37933 6.1419 1.41502 6.19333 1.46084 6.22961C1.50665 6.26589 1.56055 6.28541 1.61575 6.28571H22.3828Z" fill="#2A7DB7"/>
</svg>
