<svg width="26" height="26" viewBox="0 0 26 26" fill="none" xmlns="http://www.w3.org/2000/svg">
<path d="M11.3 10.2273V9.72727C11.3 9.58677 11.239 9.44116 11.1122 9.32585C10.9838 9.20911 10.8002 9.13636 10.6 9.13636C10.3998 9.13636 10.2162 9.20911 10.0878 9.32585C9.96097 9.44116 9.9 9.58677 9.9 9.72727V10.2273H9.4H7H6.35759L6.5153 9.60452C6.7144 8.81837 7.08185 8.07865 7.59396 7.42732C8.02442 6.87985 8.54976 6.40406 9.1468 6.01752C8.97234 5.38817 8.88908 4.73953 8.9 4.08839C8.90045 3.19057 9.04113 2.35497 9.28546 1.72527C9.4072 1.41152 9.56445 1.12345 9.76451 0.905247C9.96487 0.686725 10.2466 0.5 10.6 0.5C10.9534 0.5 11.2351 0.686725 11.4355 0.905247C11.6356 1.12345 11.7928 1.41152 11.9145 1.72527C12.1592 2.35584 12.2999 3.19287 12.3 4.0921M11.3 10.2273L11.7445 4.98384C11.7818 4.68817 11.8004 4.39064 11.8 4.09273H12.3C12.3 4.09252 12.3 4.09231 12.3 4.0921M11.3 10.2273H11.8H14.2H14.7V9.72727C14.7 9.58677 14.761 9.44116 14.8878 9.32585C15.0162 9.20911 15.1998 9.13636 15.4 9.13636C15.6002 9.13636 15.7838 9.20911 15.9122 9.32585C16.039 9.44116 16.1 9.58677 16.1 9.72727V10.2273H16.6H19H19.6424L19.4847 9.60454C19.2855 8.81767 18.9175 8.0773 18.4047 7.42554C17.9738 6.87785 17.4479 6.40196 16.8503 6.01547C17.0256 5.38706 17.1098 4.73925 17.1 4.08879M11.3 10.2273L13.7406 4.90489M12.3 4.0921C12.3003 4.36378 12.286 4.63513 12.257 4.90516C12.7497 4.84933 13.248 4.84924 13.7406 4.90489M12.3 4.0921L13.7406 4.90489M13.7406 4.90489C13.7125 4.63474 13.6989 4.36331 13.7 4.09159M13.7 4.09159C13.7001 3.19255 13.8408 2.35572 14.0855 1.72527C14.2072 1.41152 14.3644 1.12345 14.5645 0.905247C14.7649 0.686725 15.0466 0.5 15.4 0.5C15.7534 0.5 16.0351 0.686725 16.2355 0.905247C16.4356 1.12345 16.5928 1.41152 16.7145 1.72527C16.9589 2.35507 17.0996 3.19082 17.1 4.08879M13.7 4.09159C13.7 4.09128 13.7 4.09097 13.7 4.09067L14.2 4.09273H13.7C13.7 4.09235 13.7 4.09197 13.7 4.09159ZM17.1 4.08879C17.1 4.09011 17.1 4.09142 17.1 4.09273H16.6L17.0999 4.08489C17.1 4.08619 17.1 4.08749 17.1 4.08879ZM20.6821 13.9583L20.5811 13.5909H20.2H5.8H5.41894L5.3179 13.9583L2.9179 22.6856L2.89392 22.7728L2.902 22.8629C2.9644 23.5578 3.29573 24.2004 3.82294 24.6797C4.34914 25.1581 5.03752 25.4448 5.763 25.4986L5.78147 25.5H5.8H20.2H20.2161L20.2322 25.499C20.9616 25.452 21.6555 25.1671 22.1843 24.6863C22.7142 24.2046 23.044 23.5564 23.0985 22.8571L23.1053 22.7699L23.0821 22.6856L20.6821 13.9583ZM25.5 10.8182V10.3182H25H1H0.5V10.8182V13V13.5H1H25H25.5V13V10.8182ZM8.13978 16.7727H17.8602L19.5276 22.3182H6.47244L8.13978 16.7727Z" stroke="#2A7DB7"/>
</svg>
