<svg width="24" height="31" viewBox="0 0 24 31" fill="none" xmlns="http://www.w3.org/2000/svg">
<path d="M20.14 0H3.85996C2.78028 0.0572778 1.76979 0.488476 1.048 1.19993C0.326217 1.91138 -0.0485705 2.84562 0.00505434 3.7997V26.4003C-0.0485705 27.3544 0.326217 28.2886 1.048 29.0001C1.76979 29.7115 2.78028 30.1427 3.85996 30.2H20.14C21.2197 30.1427 22.2302 29.7115 22.952 29.0001C23.6738 28.2886 24.0486 27.3544 23.9949 26.4003V3.7997C24.0486 2.84562 23.6738 1.91138 22.952 1.19993C22.2302 0.488476 21.2197 0.0572778 20.14 0ZM22.274 26.4003C22.3265 26.9513 22.1325 27.4985 21.7336 27.9247C21.3347 28.3509 20.7627 28.622 20.14 28.6801H3.85996C3.23734 28.622 2.66526 28.3509 2.26636 27.9247C1.86745 27.4985 1.67347 26.9513 1.72599 26.4003V3.7997C1.67347 3.24871 1.86745 2.70148 2.26636 2.27531C2.66526 1.84914 3.23734 1.57795 3.85996 1.51988H6.493V2.29502C6.493 2.69811 6.67431 3.0847 6.99705 3.36973C7.31979 3.65477 7.75751 3.8149 8.21393 3.8149H15.7861C16.2425 3.8149 16.6802 3.65477 17.003 3.36973C17.3257 3.0847 17.507 2.69811 17.507 2.29502V1.51988H20.14C20.7627 1.57795 21.3347 1.84914 21.7336 2.27531C22.1325 2.70148 22.3265 3.24871 22.274 3.7997V26.4003Z" fill="#2A7DB7"/>
<path d="M8.55774 25.6383H15.4415C15.6697 25.6383 15.8886 25.5583 16.0499 25.4157C16.2113 25.2732 16.302 25.0799 16.302 24.8784C16.302 24.6768 16.2113 24.4835 16.0499 24.341C15.8886 24.1985 15.6697 24.1184 15.4415 24.1184H8.55774C8.32952 24.1184 8.11066 24.1985 7.94929 24.341C7.78792 24.4835 7.69727 24.6768 7.69727 24.8784C7.69727 25.0799 7.78792 25.2732 7.94929 25.4157C8.11066 25.5583 8.32952 25.6383 8.55774 25.6383Z" fill="#2A7DB7"/>
</svg>
