<svg width="24" height="17" viewBox="0 0 24 17" fill="none" xmlns="http://www.w3.org/2000/svg">
<path fill-rule="evenodd" clip-rule="evenodd" d="M14.3989 0C14.5133 6.07147e-05 14.6254 0.03325 14.7218 0.0956523C14.8182 0.158055 14.895 0.247066 14.9431 0.352185L15.894 2.42886H18.9735C19.0591 2.42879 19.1436 2.44723 19.2216 2.48294C19.2995 2.51865 19.3689 2.57081 19.4253 2.63592L22.0501 5.672C22.1261 5.7598 22.1755 5.86792 22.1924 5.9834C22.2092 6.09888 22.1928 6.21683 22.1452 6.32312C22.0975 6.42942 22.0206 6.51956 21.9236 6.58274C21.8266 6.64592 21.7137 6.67947 21.5983 6.67937H17.8402L19.0221 9.26004C19.966 8.9852 20.9776 9.08098 21.8548 9.52822C22.732 9.97546 23.4101 10.7412 23.7536 11.6725C24.0972 12.6038 24.0809 13.632 23.708 14.5516C23.3351 15.4712 22.6331 16.2146 21.7422 16.6331C20.8513 17.0517 19.8372 17.1145 18.9024 16.8092C17.9677 16.5038 17.1813 15.8528 16.7003 14.9861C16.2193 14.1194 16.0791 13.1009 16.3078 12.1341C16.5365 11.1674 17.1172 10.3236 17.9338 9.77131L17.0381 7.81608L15.0972 9.56182C15.067 9.58924 15.034 9.61345 14.9988 9.63408V12.1443C14.9988 12.6274 14.8092 13.0908 14.4717 13.4324C14.1341 13.774 13.6763 13.966 13.199 13.966H10.7992C10.445 13.9665 10.0987 13.8609 9.80385 13.6624H7.75381C7.60045 14.6428 7.08783 15.5288 6.31804 16.1438C5.54825 16.7589 4.57779 17.0579 3.59996 16.9814C2.62212 16.9048 1.70866 16.4582 1.04152 15.7306C0.374381 15.003 0.00252024 14.0478 3.71598e-06 13.0551C-0.00135267 12.0601 0.368663 11.1013 1.03598 10.3706C1.7033 9.63994 2.61867 9.19131 3.59886 9.11455C4.57904 9.03779 5.55171 9.33856 6.32214 9.95665C7.09257 10.5747 7.60391 11.4645 7.75381 12.4479H9.02391C9.0074 12.3476 8.99917 12.246 8.99931 12.1443V10.3227C8.99931 9.97898 9.0935 9.65777 9.25669 9.38391L9.04671 9.08516L0.538162 8.19438C0.3905 8.1789 0.25375 8.10857 0.154349 7.99697C0.0549487 7.88537 -4.35865e-05 7.74044 3.71598e-06 7.5902V5.46494C3.71598e-06 5.3039 0.0632131 5.14945 0.175726 5.03557C0.288239 4.9217 0.44084 4.85773 0.599957 4.85773H6.95947C6.97521 4.8508 6.99122 4.84452 7.00746 4.8389L9.65926 3.93111C10.2163 3.74053 10.8003 3.64331 11.3883 3.64329H14.9988V3.36155L14.0155 1.21443H11.3991V0H14.3989ZM16.4507 3.64329L17.2847 5.46494H20.276L18.7012 3.64329H16.4507ZM10.1992 10.3227C10.1992 10.1616 10.2624 10.0072 10.3749 9.8933C10.4875 9.77942 10.6401 9.71545 10.7992 9.71545H13.7989V12.1443C13.7989 12.3054 13.7357 12.4598 13.6232 12.5737C13.5107 12.6876 13.3581 12.7515 13.199 12.7515H10.7992C10.6401 12.7515 10.4875 12.6876 10.3749 12.5737C10.2624 12.4598 10.1992 12.3054 10.1992 12.1443V10.3227ZM16.5113 6.66541L14.4709 8.50102H10.1086L8.15637 5.72787L10.0432 5.08179C10.4767 4.93339 10.9313 4.85771 11.3889 4.85773H15.684L16.5113 6.66541ZM8.11858 7.76629L6.92587 6.07216H1.19991V7.04249L8.11858 7.76629ZM18.4474 10.8922C17.9223 11.3031 17.5651 11.8955 17.4441 12.556C17.3232 13.2166 17.4469 13.8991 17.7917 14.4732C18.1364 15.0473 18.678 15.4727 19.3131 15.6682C19.9481 15.8637 20.6321 15.8155 21.2343 15.533C21.8365 15.2504 22.3147 14.7532 22.5777 14.1363C22.8406 13.5195 22.8698 12.8262 22.6597 12.189C22.4495 11.5517 22.0148 11.0151 21.4386 10.6817C20.8623 10.3483 20.1849 10.2415 19.5357 10.3816L20.6426 12.7995C20.7037 12.9447 20.7066 13.1082 20.6507 13.2555C20.5947 13.4028 20.4843 13.5222 20.3428 13.5885C20.2013 13.6549 20.0399 13.6628 19.8927 13.6107C19.7455 13.5587 19.6241 13.4506 19.5543 13.3096L18.4474 10.8922ZM3.8997 15.7876C3.39151 15.7874 2.89368 15.6421 2.46348 15.3683C2.03327 15.0945 1.68815 14.7034 1.4678 14.2399C1.24745 13.7764 1.16083 13.2594 1.2179 12.7483C1.27496 12.2372 1.47339 11.7528 1.79037 11.3508C2.10735 10.9488 2.53001 10.6454 3.00974 10.4757C3.48947 10.306 4.00678 10.2768 4.5022 10.3914C4.99762 10.506 5.45101 10.7598 5.81025 11.1236C6.16948 11.4874 6.41997 11.9464 6.5329 12.4479H3.8997C3.74059 12.4479 3.58799 12.5119 3.47547 12.6258C3.36296 12.7396 3.29975 12.8941 3.29975 13.0551C3.29975 13.2162 3.36296 13.3706 3.47547 13.4845C3.58799 13.5984 3.74059 13.6624 3.8997 13.6624H6.5329C6.39672 14.2661 6.06204 14.8051 5.58367 15.1912C5.10529 15.5773 4.51156 15.7876 3.8997 15.7876Z" fill="#2A7DB7"/>
</svg>
