<svg width="26" height="26" viewBox="0 0 26 26" fill="none" xmlns="http://www.w3.org/2000/svg">
<path d="M15.3114 4.96292C18.8034 5.96697 21.3611 9.18717 21.3611 13M15.7736 20.8892C14.8825 21.2025 13.9446 21.3621 13 21.3611M10.9198 21.1C7.31034 20.174 4.63886 16.8965 4.63886 13M4.84457 11.1509C5.68684 7.42498 9.02075 4.63886 13 4.63886M13 18.8644V22M7.38615 18.6138L8.10314 17.8969M7.1356 13H4M7.38615 7.38615L8.10314 8.10314M13 4V7.1356M17.8969 8.10314L18.6138 7.38615M22 13H18.8644" stroke="#2A7DB7" stroke-miterlimit="2" stroke-linecap="round" stroke-linejoin="round"/>
<path d="M17.9615 23.9278C16.4036 24.6366 14.7116 25.0022 13 25C6.37692 25 1 19.6231 1 13C1 6.37692 6.37692 1 13 1C19.6231 1 25 6.37692 25 13C25 13.8709 24.9072 14.7201 24.7305 15.5385" stroke="#2A7DB7" stroke-miterlimit="2" stroke-linecap="round" stroke-linejoin="round"/>
<path d="M9.40039 12.3778V11.9685C9.40039 11.6056 9.54844 11.2575 9.81197 11.0008C10.0755 10.7442 10.4329 10.6 10.8056 10.6H10.8061C11.194 10.6 11.5659 10.75 11.8402 11.0171C12.1145 11.2842 12.2685 11.6465 12.2685 12.0242V12.1114C12.2685 12.7759 12.0296 13.4188 11.5927 13.9292L9.66105 16.1869H12.5296M15.1773 11.0776L13.9667 13.0419C13.9313 13.0995 13.9123 13.1653 13.9115 13.2324C13.9107 13.2996 13.9281 13.3658 13.9621 13.4242C13.9961 13.4826 14.0454 13.5313 14.105 13.5651C14.1645 13.599 14.2322 13.6169 14.3012 13.617H16.7417V16.1564M23.2004 17.6606C23.2004 17.3031 23.0546 16.9603 22.795 16.7075C22.5355 16.4547 22.1834 16.3127 21.8164 16.3127H17.203C16.8359 16.3127 16.4839 16.4547 16.2244 16.7075C15.9648 16.9603 15.819 17.3031 15.819 17.6606V20.6232C15.819 21.2785 16.0151 21.9196 16.3834 22.4679C16.7517 23.0163 17.2762 23.4482 17.8927 23.7108L19.5097 24.4L21.1267 23.7108C21.7432 23.4482 22.2676 23.0163 22.636 22.4679C23.0043 21.9196 23.2004 21.2785 23.2004 20.6232V17.6606Z" stroke="#2A7DB7" stroke-miterlimit="2" stroke-linecap="round" stroke-linejoin="round"/>
<path d="M17.8008 20.1143L18.9546 20.8L20.8008 19.6" stroke="#2A7DB7" stroke-miterlimit="2" stroke-linecap="round" stroke-linejoin="round"/>
</svg>
