<svg width="24" height="24" viewBox="0 0 24 24" fill="none" xmlns="http://www.w3.org/2000/svg">
<path d="M14.4 3.6V2.4C14.4 1.08 13.32 0 12 0H7.2C5.88 0 4.8 1.08 4.8 2.4V3.6C2.16 3.6 0 5.76 0 8.4V21.6C0 22.92 1.08 24 2.4 24H15.84L13.44 21.6H2.4V16.8H4.8V19.2H6V16.8H12V15.6H2.4V8.4C2.4 7.08 3.48 6 4.8 6H14.4C15.72 6 16.8 7.08 16.8 8.4V12H19.2V8.4C19.2 5.76 17.04 3.6 14.4 3.6ZM12 3.6H7.2V2.4H12V3.6ZM9.6 8.4L7.2 10.8L9.6 13.2L12 10.8L9.6 8.4ZM23.76 18.96L19.44 14.64C19.2 14.52 18.96 14.4 18.72 14.4H15.36C14.88 14.4 14.4 14.88 14.4 15.36V18.72C14.4 18.96 14.52 19.2 14.64 19.44L18.96 23.76C19.08 23.88 19.32 24 19.68 24C19.92 24 20.16 23.88 20.4 23.76L23.76 20.4C23.88 20.28 24 20.04 24 19.68C24 19.44 23.88 19.2 23.76 18.96ZM16.08 16.8C15.72 16.8 15.36 16.44 15.36 16.08C15.36 15.72 15.72 15.36 16.08 15.36C16.44 15.36 16.8 15.72 16.8 16.08C16.8 16.44 16.44 16.8 16.08 16.8Z" fill="#2A7DB7"/>
</svg>
