<svg width="24" height="24" viewBox="0 0 24 24" fill="none" xmlns="http://www.w3.org/2000/svg">
<path d="M22.2096 8.81957C22.2588 8.94214 22.3546 9.04016 22.476 9.09208C22.5975 9.14399 22.7345 9.14554 22.8571 9.09639C22.9797 9.04724 23.0777 8.95141 23.1296 8.82998C23.1815 8.70855 23.1831 8.57148 23.1339 8.44891C22.829 7.68413 21.717 7.43076 20.2906 7.10233C17.6632 6.50646 13.7689 5.61969 13.3372 1.0967C13.327 0.994252 13.2901 0.897443 13.223 0.81939C13.1559 0.741337 13.0663 0.685815 12.9666 0.660349C12.5162 0.519592 6.96094 -1.20234 4.94811 1.55181C4.90601 1.60912 4.87668 1.67479 4.86211 1.7444C4.84754 1.81401 4.84807 1.88593 4.86366 1.95531C4.90589 2.18991 5.32347 4.70946 4.96688 6.9475C5.30284 6.92981 5.63941 6.92668 5.97564 6.93812C6.16543 5.29134 6.13387 3.62656 5.8818 1.98816C7.40198 0.252153 11.2728 1.2093 12.3848 1.52835C13.0323 6.47362 17.2221 7.43077 20.0701 8.07825C21.2103 8.3363 22.097 8.53805 22.2096 8.81957Z" fill="#2A7DB7"/>
<path d="M12.5809 11.6537L12.7076 11.6913C12.723 11.6967 12.7386 11.7014 12.7545 11.7054C13.4723 11.8883 23.94 14.497 23.1658 8.57116C23.1524 8.47493 23.1114 8.38464 23.0478 8.31125C22.9841 8.23786 22.9005 8.18452 22.8071 8.15769C22.7138 8.13087 22.6146 8.13172 22.5217 8.16014C22.4288 8.18856 22.3461 8.24333 22.2837 8.3178C20.0926 10.7388 16.7567 9.90366 13.8711 9.18111C13.1651 8.99509 12.4531 8.83235 11.7363 8.69315L11.7504 8.85737C11.7832 9.16234 11.8349 9.45793 11.8912 9.74414C12.4401 9.85674 13.0266 10.0022 13.6272 10.1523C16.4188 10.8514 19.5906 11.6444 22.082 9.84267C21.0404 12.7516 13.6084 10.8937 13.0078 10.7341C12.9985 10.7323 12.9891 10.7307 12.9797 10.7294L12.0882 10.4761C12.2196 10.8937 12.3838 11.2831 12.5809 11.6537Z" fill="#2A7DB7"/>
<path d="M22.9932 18.6444C23.0178 18.7051 23.0542 18.7603 23.1002 18.807C23.1462 18.8536 23.2009 18.8907 23.2612 18.9162C23.3216 18.9417 23.3863 18.9551 23.4518 18.9555C23.5173 18.956 23.5823 18.9435 23.643 18.9189C23.7037 18.8942 23.7589 18.8579 23.8056 18.8119C23.8522 18.7659 23.8893 18.7112 23.9148 18.6508C23.9403 18.5905 23.9537 18.5257 23.9541 18.4602C23.9546 18.3947 23.9421 18.3297 23.9175 18.2691C23.5468 17.3494 22.1486 17.0304 20.3422 16.6175C16.9031 15.834 11.803 14.6751 11.2353 8.72104C11.225 8.61859 11.1835 8.52178 11.1163 8.44373C11.0492 8.36568 10.9597 8.31016 10.8599 8.28469C10.3485 8.11578 3.19333 5.88244 0.645625 9.3826C0.604174 9.43933 0.575216 9.50421 0.560659 9.57295C0.546102 9.64169 0.546276 9.71274 0.56117 9.78141C0.617473 10.1098 1.40571 14.8111 0.274964 17.9922C0.236117 18.1155 0.246753 18.249 0.30462 18.3645C0.362488 18.48 0.463044 18.5685 0.584998 18.6112C0.706953 18.6539 0.840732 18.6474 0.958012 18.5932C1.07529 18.539 1.16687 18.4412 1.21335 18.3207C2.32063 15.2099 1.73884 10.8371 1.57931 9.80956C3.61091 7.36977 8.9456 8.75388 10.2781 9.15269C11.0617 15.5337 16.462 16.7583 20.1217 17.5934C21.6372 17.9359 22.8149 18.2034 22.9932 18.6444Z" fill="#2A7DB7"/>
<path d="M15.9269 13.9992C15.9272 13.9336 15.9146 13.8685 15.8898 13.8078C15.865 13.747 15.8284 13.6918 15.7822 13.6452C15.7361 13.5985 15.6811 13.5615 15.6206 13.5361C15.5601 13.5107 15.4952 13.4975 15.4296 13.4972C15.2971 13.4965 15.1697 13.5486 15.0756 13.6418C14.9814 13.7351 14.9282 13.862 14.9276 13.9945C14.9276 13.9945 14.9276 15.6367 13.7687 16.0261C13.6478 16.0711 13.5492 16.1612 13.4936 16.2775C13.4379 16.3938 13.4296 16.5271 13.4704 16.6494C13.5111 16.7718 13.5978 16.8734 13.7121 16.9331C13.8264 16.9927 13.9594 17.0057 14.083 16.9692C15.9269 16.3592 15.9269 14.0039 15.9269 13.9992ZM13.9235 12.4978C13.9238 12.4322 13.9112 12.3671 13.8864 12.3064C13.8615 12.2456 13.825 12.1904 13.7788 12.1438C13.7326 12.0971 13.6777 12.0601 13.6172 12.0347C13.5567 12.0093 13.4918 11.9961 13.4261 11.9957C13.3605 11.9954 13.2955 12.0081 13.2347 12.0329C13.174 12.0577 13.1187 12.0943 13.0721 12.1404C13.0255 12.1866 12.9884 12.2415 12.963 12.302C12.9377 12.3625 12.9244 12.4275 12.9241 12.4931C12.9241 12.4931 12.9241 14.1353 11.7652 14.5247C11.6444 14.5697 11.5458 14.6598 11.4901 14.7761C11.4345 14.8924 11.4262 15.0257 11.4669 15.148C11.5077 15.2703 11.5944 15.372 11.7087 15.4317C11.8229 15.4913 11.9559 15.5043 12.0796 15.4678C13.9235 14.8578 13.9235 12.5025 13.9235 12.4978ZM16.9638 5.19249C16.9651 5.06058 16.9139 4.93359 16.8215 4.83944C16.7291 4.74529 16.6031 4.6917 16.4712 4.69045C16.3393 4.68921 16.2123 4.74041 16.1181 4.8328C16.024 4.92519 15.9704 5.0512 15.9692 5.1831C15.9692 5.1831 15.9692 6.37485 15.1481 6.64698C15.0224 6.68866 14.9184 6.77857 14.859 6.89692C14.7996 7.01526 14.7897 7.15236 14.8314 7.27804C14.8731 7.40372 14.963 7.50769 15.0813 7.56709C15.1997 7.62648 15.3368 7.63643 15.4624 7.59474C16.9638 7.09271 16.9638 5.19718 16.9638 5.19249ZM15.4202 4.02889C15.4208 3.89637 15.3688 3.76902 15.2755 3.67487C15.1822 3.58072 15.0554 3.52748 14.9229 3.52686C14.7903 3.52624 14.663 3.57829 14.5688 3.67156C14.4747 3.76483 14.4215 3.89168 14.4208 4.0242C14.4208 4.0242 14.4208 5.21595 13.6044 5.48808C13.4788 5.52914 13.3745 5.61845 13.3147 5.73636C13.2549 5.85426 13.2443 5.99111 13.2854 6.11679C13.3265 6.24247 13.4158 6.34669 13.5337 6.40653C13.6516 6.46636 13.7884 6.4769 13.9141 6.43584C15.4155 5.93381 15.4202 4.03828 15.4202 4.02889Z" fill="#2A7DB7"/>
<path d="M22.9501 19.6343C19.7268 22.2617 15.4947 21.2061 11.7881 20.2771C9.77054 19.7703 7.92662 19.3105 6.60351 19.5498L6.58943 19.5545C6.20939 19.6483 2.79368 20.4131 1.07644 19.2777C0.968531 20.0988 0.865309 21.1685 1.02014 21.5955L7.65918 21.7128L7.98762 20.948C8.03847 20.8314 8.13165 20.7338 8.24835 20.6833C8.36504 20.6328 8.49656 20.6285 8.61633 20.6712L10.8684 21.3093H10.8731L10.9013 21.314C11.6332 21.5016 22.1525 24.1479 22.9501 19.6343ZM12.032 19.3058C15.809 20.2536 20.1725 21.3468 23.0674 18.1375C23.1287 18.061 23.2114 18.0043 23.3048 17.9746C23.3983 17.9449 23.4985 17.9435 23.5928 17.9706C23.6871 17.9976 23.7712 18.052 23.8347 18.1268C23.8982 18.2016 23.9381 18.2935 23.9495 18.3909C24.9254 25.8792 11.4502 22.4869 10.6526 22.2852C10.6352 22.2814 10.618 22.2767 10.601 22.2711L8.73363 21.7409L8.4615 22.3837C8.42608 22.4829 8.36035 22.5685 8.27362 22.6283C8.18689 22.688 8.08355 22.719 7.97823 22.7168L0.780854 22.5902C0.709293 22.5954 0.637436 22.5852 0.570215 22.5601C0.502994 22.535 0.442002 22.4956 0.391426 22.4447C-0.349895 21.7034 0.175599 18.527 0.250669 18.1141C0.263589 18.0059 0.31135 17.9049 0.386743 17.8262C0.462136 17.7476 0.561069 17.6956 0.668606 17.6781C0.776144 17.6606 0.88645 17.6786 0.982874 17.7293C1.0793 17.78 1.1566 17.8607 1.20313 17.9593C1.90691 19.6014 5.94664 18.6818 6.34545 18.588C6.36537 18.5804 6.38574 18.5742 6.40645 18.5692C7.94539 18.2783 9.90192 18.771 12.032 19.3058Z" fill="#2A7DB7"/>
</svg>
