<svg width="24" height="25" viewBox="0 0 24 25" fill="none" xmlns="http://www.w3.org/2000/svg">
<path fill-rule="evenodd" clip-rule="evenodd" d="M6.66653 6.97631C6.66659 7.73071 6.41074 8.46282 5.94081 9.05298C5.47088 9.64313 4.81466 10.0564 4.07941 10.2253C3.34417 10.3942 2.57338 10.3086 1.89304 9.98267C1.2127 9.65671 0.663057 9.1096 0.333941 8.43078C0.00482418 7.75196 -0.0842945 6.98157 0.0811519 6.24553C0.246598 5.50949 0.656824 4.85135 1.24478 4.37867C1.83273 3.90599 2.56363 3.64674 3.31801 3.64329C4.07239 3.63983 4.80564 3.89238 5.39789 4.35966L7.44785 2.30967H5.99988C5.82307 2.30967 5.65351 2.23944 5.52848 2.11441C5.40346 1.98939 5.33323 1.81982 5.33323 1.64301C5.33323 1.4662 5.40346 1.29663 5.52848 1.17161C5.65351 1.04659 5.82307 0.976349 5.99988 0.976349H8.99982C9.17662 0.976349 9.34619 1.04659 9.47121 1.17161C9.59623 1.29663 9.66647 1.4662 9.66647 1.64301V4.97632C9.66647 5.15313 9.59623 5.3227 9.47121 5.44773C9.34619 5.57275 9.17662 5.64299 8.99982 5.64299C8.82301 5.64299 8.65344 5.57275 8.52842 5.44773C8.4034 5.3227 8.33316 5.15313 8.33316 4.97632V3.30967L6.26121 5.38165C6.51987 5.85499 6.66653 6.39898 6.66653 6.97631ZM5.33323 6.97631C5.33323 7.23895 5.2815 7.49902 5.18099 7.74167C5.08048 7.98432 4.93317 8.2048 4.74745 8.39052C4.56174 8.57623 4.34126 8.72355 4.09862 8.82406C3.85597 8.92457 3.59591 8.9763 3.33327 8.9763C3.07063 8.9763 2.81056 8.92457 2.56792 8.82406C2.32527 8.72355 2.1048 8.57623 1.91908 8.39052C1.73337 8.2048 1.58605 7.98432 1.48555 7.74167C1.38504 7.49902 1.33331 7.23895 1.33331 6.97631C1.33331 6.44588 1.54402 5.93718 1.91908 5.56211C2.29415 5.18704 2.80285 4.97632 3.33327 4.97632C3.86369 4.97632 4.37239 5.18704 4.74745 5.56211C5.12252 5.93718 5.33323 6.44588 5.33323 6.97631ZM15.9997 8.30964C16.9721 8.30964 17.9047 7.92333 18.5923 7.2357C19.28 6.54807 19.6663 5.61545 19.6663 4.64299C19.6663 3.67054 19.28 2.73791 18.5923 2.05028C17.9047 1.36265 16.9721 0.976349 15.9997 0.976349C15.0272 0.976349 14.0946 1.36265 13.407 2.05028C12.7194 2.73791 12.3331 3.67054 12.3331 4.64299C12.3331 5.61545 12.7194 6.54807 13.407 7.2357C14.0946 7.92333 15.0272 8.30964 15.9997 8.30964ZM15.9997 6.97631C16.6185 6.97631 17.212 6.73048 17.6496 6.2929C18.0871 5.85532 18.333 5.26183 18.333 4.64299C18.333 4.02416 18.0871 3.43067 17.6496 2.99309C17.212 2.55551 16.6185 2.30967 15.9997 2.30967C15.3808 2.30967 14.7874 2.55551 14.3498 2.99309C13.9122 3.43067 13.6664 4.02416 13.6664 4.64299C13.6664 5.26183 13.9122 5.85532 14.3498 6.2929C14.7874 6.73048 15.3808 6.97631 15.9997 6.97631Z" fill="#2A7DB7"/>
<path fill-rule="evenodd" clip-rule="evenodd" d="M12.0003 16.2697C12.0003 16.3511 12.0077 16.4391 12.0223 16.5317C10.7863 17.5917 10.0004 19.145 10.0004 20.881C10.0004 21.519 10.127 22.4737 10.4917 23.2944C10.8523 24.1077 11.5463 24.9763 12.7403 24.9763C13.9036 24.9763 14.8883 24.061 14.8883 22.881C14.8883 22.379 14.6869 21.945 14.5503 21.6517L14.5303 21.609C14.3729 21.269 14.2956 21.077 14.2956 20.881C14.2956 20.6884 14.4063 20.367 14.6469 19.9984C14.7869 19.785 14.9456 19.593 15.0963 19.4417C15.4082 19.5624 15.7156 19.643 15.9996 19.643C16.2842 19.643 16.5909 19.563 16.9029 19.4417C17.0535 19.593 17.2129 19.7844 17.3522 19.9984C17.5922 20.367 17.7035 20.6884 17.7035 20.881C17.7035 21.0717 17.6255 21.2677 17.4675 21.6144L17.4469 21.659C17.3115 21.9537 17.1109 22.3897 17.1109 22.881C17.1109 24.061 18.0955 24.9763 19.2588 24.9763C20.4495 24.9763 21.1368 24.0504 21.4921 23.2497C21.8581 22.4237 21.9994 21.4724 21.9994 20.881C21.9994 19.145 21.2128 17.5924 19.9775 16.5317C19.9917 16.4451 19.999 16.3575 19.9995 16.2697V12.8438C20.2635 12.7918 20.5315 12.7351 20.8035 12.6738C21.3823 12.5418 21.9579 12.3967 22.5301 12.2384C23.0416 12.0978 23.4763 11.7597 23.7385 11.2985C24.0008 10.8374 24.0691 10.291 23.9284 9.77944C23.7878 9.26793 23.4497 8.83324 22.9885 8.57101C22.5274 8.30877 21.981 8.24046 21.4695 8.38112C19.2268 8.99778 17.5902 9.25911 16.0082 9.25244C14.4189 9.24578 12.7743 8.96844 10.5057 8.37512C10.2501 8.30387 9.98287 8.28419 9.7196 8.31724C9.45633 8.35028 9.20227 8.43538 8.97221 8.56758C8.74215 8.69979 8.5407 8.87645 8.37959 9.08728C8.21847 9.29811 8.10093 9.53889 8.03379 9.79559C7.96665 10.0523 7.95126 10.3198 7.98852 10.5825C8.02578 10.8452 8.11495 11.0979 8.25082 11.3258C8.3867 11.5537 8.56656 11.7523 8.77995 11.91C8.99333 12.0677 9.23596 12.1814 9.49371 12.2444C10.3757 12.4751 11.2037 12.6711 12.0003 12.8264V16.2697ZM22.0188 10.9964L22.1768 10.9524C22.3438 10.9026 22.4846 10.7893 22.5691 10.6369C22.6536 10.4844 22.675 10.305 22.6289 10.1369C22.5827 9.96888 22.4725 9.8256 22.3219 9.73779C22.1714 9.64997 21.9925 9.6246 21.8235 9.66711C19.5135 10.3018 17.7495 10.5938 16.0029 10.5858C14.2543 10.5791 12.487 10.2711 10.1697 9.66511C10.0004 9.62532 9.82234 9.65322 9.67337 9.74288C9.5244 9.83253 9.41635 9.97684 9.37226 10.145C9.32817 10.3132 9.35153 10.492 9.43736 10.6432C9.52319 10.7944 9.66469 10.9061 9.8317 10.9544C10.8963 11.2338 11.865 11.4544 12.7816 11.6151C12.9362 11.6421 13.0763 11.7227 13.1773 11.8428C13.2782 11.963 13.3336 12.1148 13.3336 12.2718V14.3097H18.6668V12.2898C18.6669 12.1327 18.7224 11.9808 18.8235 11.8607C18.9246 11.7405 19.0648 11.6599 19.2195 11.6331C20.1619 11.4639 21.096 11.2512 22.0188 10.9958V10.9964ZM12.5903 17.8244C11.8077 18.6284 11.3337 19.7037 11.3337 20.881C11.3337 21.3864 11.4403 22.1457 11.7097 22.753C11.9837 23.3697 12.327 23.643 12.741 23.643C13.2143 23.643 13.5556 23.279 13.5556 22.881C13.5556 22.6984 13.4816 22.5157 13.3216 22.1697L13.307 22.1384C13.1676 21.8384 12.963 21.3984 12.963 20.881C12.963 20.3057 13.2363 19.7204 13.531 19.2697C13.6243 19.1277 13.7263 18.9877 13.8343 18.8544C13.3423 18.6172 12.9154 18.2639 12.5903 17.8251V17.8244ZM18.1662 18.8537C18.2742 18.9871 18.3769 19.127 18.4695 19.269C18.7635 19.7197 19.0375 20.305 19.0375 20.8804C19.0375 21.3904 18.8335 21.8344 18.6948 22.1364L18.6802 22.1677C18.5189 22.521 18.4449 22.7064 18.4449 22.881C18.4449 23.2784 18.7862 23.6424 19.2595 23.6424C19.6322 23.6424 19.9822 23.3664 20.2728 22.709C20.5528 22.0777 20.6668 21.315 20.6668 20.8804C20.6668 19.703 20.1928 18.6271 19.4102 17.8244C19.0851 18.2633 18.6582 18.6166 18.1662 18.8537ZM18.6668 16.2697C18.6668 16.3297 18.6222 16.5864 18.4309 16.8951C18.2509 17.1864 17.9602 17.4884 17.5155 17.6871C17.3629 17.7551 17.2142 17.8291 17.0649 17.9031L16.9922 17.9391C16.8289 18.0197 16.6836 18.0904 16.5402 18.1511C16.2296 18.2824 16.0642 18.3097 16.0002 18.3097C15.9362 18.3097 15.7709 18.2824 15.4602 18.1511C15.3071 18.0848 15.156 18.0141 15.0069 17.9391L14.9223 17.8971C14.7779 17.8241 14.6321 17.7541 14.4849 17.6871C14.1066 17.5219 13.7874 17.2457 13.5696 16.8951C13.3783 16.5864 13.3336 16.3297 13.3336 16.2697V15.6431H18.6548L18.6668 16.2697Z" fill="#2A7DB7"/>
</svg>
