<svg width="24" height="25" viewBox="0 0 24 25" fill="none" xmlns="http://www.w3.org/2000/svg">
<path d="M2.24841 13.6306L1.3986 14.8173H2.85818H13.5055H14.965L14.1152 13.6306C13.3849 12.6107 12.277 11.994 11.2068 11.6318C10.1307 11.2677 9.01973 11.1354 8.18182 11.1354C7.3439 11.1354 6.23295 11.2677 5.15687 11.6318C4.08661 11.994 2.97878 12.6107 2.24841 13.6306ZM17.7955 5.33999V6.08999H18.5455H23.1714L21.4546 23.2891C21.3858 23.8247 20.9361 24.2263 20.4218 24.2263H19.2955V23.5445H20.0618H20.7406L20.8081 22.8692L22.3354 7.59643L22.4178 6.7718H21.5891H11.8287L11.7503 6.08999H16.3636H17.1136V5.33999V1.72635H17.7955V5.33999ZM1.09091 24.2263C0.909973 24.2263 0.75 24.0652 0.75 23.8854V23.5445H15.6136V23.8854C15.6136 24.0701 15.4597 24.2263 15.2727 24.2263H1.09091ZM0.797555 15.4991C0.997795 13.9605 1.81662 12.7866 2.99146 11.9512C4.37264 10.969 6.25693 10.4536 8.18182 10.4536C10.1067 10.4536 11.991 10.969 13.3722 11.9512C14.547 12.7866 15.3658 13.9605 15.5661 15.4991H0.797555ZM15.6136 19.1809V19.8627H0.75V19.1809H15.6136Z" stroke="#2A7DB7" stroke-width="1.5"/>
</svg>
