<svg width="26" height="26" viewBox="0 0 26 26" fill="none" xmlns="http://www.w3.org/2000/svg">
<path d="M8.87864 0.976349C13.2273 0.976349 16.7579 4.50698 16.7579 8.85492V16.7341H1V8.85557C1 4.50633 4.53066 0.976349 8.87864 0.976349Z" stroke="#2A7DB7" stroke-width="1.5" stroke-linecap="round" stroke-linejoin="round"/>
<path d="M8.51494 16.7339C8.51494 21.2861 12.2052 24.9763 16.7575 24.9763C21.3098 24.9763 25 21.2855 25 16.7339C25 12.1823 21.3098 8.49141 16.7575 8.49141" stroke="#2A7DB7" stroke-width="1.5" stroke-linecap="round" stroke-linejoin="round"/>
<path d="M4.1919 24.0469C5.41925 24.0469 6.41421 23.0519 6.41421 21.8246C6.41421 20.5972 5.41925 19.6023 4.1919 19.6023C2.96455 19.6023 1.96959 20.5972 1.96959 21.8246C1.96959 23.0519 2.96455 24.0469 4.1919 24.0469Z" stroke="#2A7DB7" stroke-width="1.5" stroke-linecap="round" stroke-linejoin="round"/>
<path d="M5.43644 9.37387C6.23246 9.37387 6.87777 8.72857 6.87777 7.93255C6.87777 7.13654 6.23246 6.49124 5.43644 6.49124C4.64042 6.49124 3.99512 7.13654 3.99512 7.93255C3.99512 8.72857 4.64042 9.37387 5.43644 9.37387Z" stroke="#2A7DB7" stroke-width="1.5" stroke-linecap="round" stroke-linejoin="round"/>
<path d="M11.8757 9.37387C12.6717 9.37387 13.317 8.72857 13.317 7.93255C13.317 7.13654 12.6717 6.49124 11.8757 6.49124C11.0797 6.49124 10.4344 7.13654 10.4344 7.93255C10.4344 8.72857 11.0797 9.37387 11.8757 9.37387Z" stroke="#2A7DB7" stroke-width="1.5" stroke-linecap="round" stroke-linejoin="round"/>
<path d="M20.2837 16.7342C21.0798 16.7342 21.7251 16.0889 21.7251 15.2929C21.7251 14.4969 21.0798 13.8516 20.2837 13.8516C19.4877 13.8516 18.8424 14.4969 18.8424 15.2929C18.8424 16.0889 19.4877 16.7342 20.2837 16.7342Z" stroke="#2A7DB7" stroke-width="1.5" stroke-linecap="round" stroke-linejoin="round"/>
</svg>
