<svg width="26" height="24" viewBox="0 0 26 24" fill="none" xmlns="http://www.w3.org/2000/svg">
<path d="M16.693 20.6883C17.7428 20.991 18.8305 21.1441 19.9236 21.143C21.6816 21.1455 23.4167 20.7475 24.9955 19.9794C25.0421 18.884 24.7279 17.8032 24.1005 16.9011C23.473 15.9989 22.5665 15.3244 21.5183 14.98C20.4701 14.6355 19.3374 14.6397 18.2919 14.992C17.2464 15.3444 16.345 16.0256 15.7244 16.9324M16.693 20.6883V20.6847C16.693 19.3243 16.341 18.0447 15.7244 16.9324M16.693 20.6883V20.8179C14.3244 22.2346 11.6108 22.981 8.84588 22.9763C5.97705 22.9763 3.29284 22.188 1.00123 20.8179L1 20.6847C0.999057 18.9546 1.57797 17.2734 2.64546 15.9061C3.71295 14.5388 5.20831 13.5633 6.89578 13.1333C8.58325 12.7033 10.3668 12.8432 11.9654 13.5311C13.5639 14.219 14.8864 15.4157 15.7244 16.9324M13.0008 5.10134C13.0008 6.19536 12.5632 7.24457 11.7842 8.01816C11.0052 8.79174 9.94874 9.22634 8.84711 9.22634C7.74548 9.22634 6.68897 8.79174 5.91 8.01816C5.13103 7.24457 4.69341 6.19536 4.69341 5.10134C4.69341 4.00733 5.13103 2.95812 5.91 2.18453C6.68897 1.41095 7.74548 0.976349 8.84711 0.976349C9.94874 0.976349 11.0052 1.41095 11.7842 2.18453C12.5632 2.95812 13.0008 4.00733 13.0008 5.10134ZM23.1543 7.85134C23.1543 8.70224 22.8139 9.5183 22.2081 10.12C21.6022 10.7217 20.7805 11.0597 19.9236 11.0597C19.0668 11.0597 18.2451 10.7217 17.6392 10.12C17.0334 9.5183 16.693 8.70224 16.693 7.85134C16.693 7.00044 17.0334 6.18439 17.6392 5.58271C18.2451 4.98103 19.0668 4.64301 19.9236 4.64301C20.7805 4.64301 21.6022 4.98103 22.2081 5.58271C22.8139 6.18439 23.1543 7.00044 23.1543 7.85134Z" stroke="#2A7DB7" stroke-width="1.5" stroke-linecap="round" stroke-linejoin="round"/>
</svg>
