<svg width="24" height="25" viewBox="0 0 24 25" fill="none" xmlns="http://www.w3.org/2000/svg">
<path d="M17.3675 0.976349H23.1196L23.2459 0.993149L23.371 1.02675L23.4468 1.05795C23.5478 1.09875 23.64 1.15995 23.7234 1.23795L23.7739 1.29075L23.8295 1.35915L23.8977 1.46715L23.9469 1.57515L23.9709 1.65195L23.9886 1.72875L24 1.84275V7.28115C23.9999 7.50918 23.9087 7.72868 23.7449 7.8953C23.581 8.06192 23.3567 8.16324 23.1173 8.17878C22.8778 8.19432 22.6411 8.12293 22.4549 7.97903C22.2687 7.83513 22.1469 7.62945 22.1142 7.40355L22.1054 7.28115V4.04715L13.9711 11.7751C13.8107 11.9276 13.598 12.0202 13.3718 12.0363C13.1456 12.0524 12.9208 11.9908 12.7383 11.8627L12.6322 11.7763L8.80506 8.28435L1.61809 15.1111C1.44906 15.2722 1.22212 15.3664 0.982916 15.375C0.743708 15.3835 0.509963 15.3057 0.328678 15.1572C0.147393 15.0087 0.0320108 14.8005 0.00572934 14.5744C-0.0205521 14.3484 0.0442164 14.1213 0.187012 13.9387L0.279218 13.8379L8.13562 6.37395C8.29618 6.22171 8.5089 6.12926 8.73513 6.1134C8.96136 6.09754 9.18606 6.15934 9.36839 6.28755L9.47449 6.37395L13.3016 9.86595L20.764 2.77635H17.3663C17.1376 2.77605 16.9167 2.69716 16.7444 2.55423C16.5722 2.41131 16.4602 2.21401 16.4291 1.99875L16.4202 1.87635C16.4202 1.65886 16.5031 1.44874 16.6536 1.28483C16.8041 1.12093 17.0119 1.01433 17.2387 0.984749L17.3675 0.976349ZM0.948654 18.9763C1.1999 18.9763 1.44085 19.0712 1.61851 19.24C1.79616 19.4087 1.89597 19.6377 1.89597 19.8764V24.0763C1.89597 24.315 1.79616 24.544 1.61851 24.7127C1.44085 24.8815 1.1999 24.9763 0.948654 24.9763C0.69741 24.9763 0.456457 24.8815 0.278801 24.7127C0.101144 24.544 0.00133837 24.315 0.00133837 24.0763V19.8764C0.00133837 19.6377 0.101144 19.4087 0.278801 19.24C0.456457 19.0712 0.69741 18.9763 0.948654 18.9763ZM8.21141 15.0763C8.21141 14.8377 8.1116 14.6087 7.93394 14.44C7.75629 14.2712 7.51533 14.1763 7.26409 14.1763C7.01285 14.1763 6.77189 14.2712 6.59424 14.44C6.41658 14.6087 6.31678 14.8377 6.31678 15.0763V24.0763C6.31678 24.315 6.41658 24.544 6.59424 24.7127C6.77189 24.8815 7.01285 24.9763 7.26409 24.9763C7.51533 24.9763 7.75629 24.8815 7.93394 24.7127C8.1116 24.544 8.21141 24.315 8.21141 24.0763V15.0763ZM13.5795 16.5763C13.8308 16.5763 14.0717 16.6712 14.2494 16.84C14.427 17.0087 14.5268 17.2377 14.5268 17.4763V24.0763C14.5268 24.315 14.427 24.544 14.2494 24.7127C14.0717 24.8815 13.8308 24.9763 13.5795 24.9763C13.3283 24.9763 13.0873 24.8815 12.9097 24.7127C12.732 24.544 12.6322 24.315 12.6322 24.0763V17.4763C12.6322 17.2377 12.732 17.0087 12.9097 16.84C13.0873 16.6712 13.3283 16.5763 13.5795 16.5763ZM20.8423 11.4763C20.8423 11.2377 20.7425 11.0087 20.5648 10.84C20.3872 10.6712 20.1462 10.5763 19.895 10.5763C19.6437 10.5763 19.4028 10.6712 19.2251 10.84C19.0475 11.0087 18.9476 11.2377 18.9476 11.4763V24.0763C18.9476 24.315 19.0475 24.544 19.2251 24.7127C19.4028 24.8815 19.6437 24.9763 19.895 24.9763C20.1462 24.9763 20.3872 24.8815 20.5648 24.7127C20.7425 24.544 20.8423 24.315 20.8423 24.0763V11.4763Z" fill="#2A7DB7"/>
</svg>
