<svg width="24" height="26" viewBox="0 0 24 26" fill="none" xmlns="http://www.w3.org/2000/svg">
<path d="M12 8.42462L18.4 11.735V24.9763H5.6V11.735L12 8.42462ZM12 8.42462V0.976349M0 24.9763H24M2.4 24.9763V15.0453H5.6M21.6 24.9763V15.0453H18.4M10.4 24.9763V20.0108H13.6V24.9763M12 1.80394H16.8V5.11428H12M12 16.7005C11.5757 16.7005 11.1687 16.5261 10.8686 16.2157C10.5686 15.9053 10.4 15.4843 10.4 15.0453C10.4 14.6063 10.5686 14.1853 10.8686 13.8749C11.1687 13.5645 11.5757 13.3901 12 13.3901C12.4243 13.3901 12.8313 13.5645 13.1314 13.8749C13.4314 14.1853 13.6 14.6063 13.6 15.0453C13.6 15.4843 13.4314 15.9053 13.1314 16.2157C12.8313 16.5261 12.4243 16.7005 12 16.7005Z" stroke="#2A7DB7" stroke-width="1.5"/>
</svg>
