<svg width="24" height="25" viewBox="0 0 24 25" fill="none" xmlns="http://www.w3.org/2000/svg">
<mask id="path-1-inside-1_1_106" fill="white">
<path fill-rule="evenodd" clip-rule="evenodd" d="M2.66695 12.3099C2.66695 11.9563 2.80742 11.6171 3.05748 11.3671C3.30753 11.117 3.64667 10.9765 4.0003 10.9765H5.33365C5.68727 10.9765 6.02642 11.117 6.27647 11.3671C6.52652 11.6171 6.667 11.9563 6.667 12.3099V13.6432C6.667 13.9968 6.52652 14.336 6.27647 14.586C6.02642 14.8361 5.68727 14.9765 5.33365 14.9765H4.0003C3.64667 14.9765 3.30753 14.8361 3.05748 14.586C2.80742 14.336 2.66695 13.9968 2.66695 13.6432V12.3099ZM5.33365 12.3099V13.6432H4.0003V12.3099H5.33365ZM9.3337 10.9765C8.98007 10.9765 8.64093 11.117 8.39088 11.3671C8.14083 11.6171 8.00035 11.9563 8.00035 12.3099V13.6432C8.00035 13.9968 8.14083 14.336 8.39088 14.586C8.64093 14.8361 8.98007 14.9765 9.3337 14.9765H10.667C11.0207 14.9765 11.3598 14.8361 11.6099 14.586C11.8599 14.336 12.0004 13.9968 12.0004 13.6432V12.3099C12.0004 11.9563 11.8599 11.6171 11.6099 11.3671C11.3598 11.117 11.0207 10.9765 10.667 10.9765H9.3337ZM10.667 12.3099H9.3337V13.6432H10.667V12.3099ZM13.3337 12.3099C13.3337 11.9563 13.4742 11.6171 13.7243 11.3671C13.9743 11.117 14.3135 10.9765 14.6671 10.9765H16.0005C16.3541 10.9765 16.6932 11.117 16.9433 11.3671C17.1933 11.6171 17.3338 11.9563 17.3338 12.3099V13.6432C17.3338 13.9968 17.1933 14.336 16.9433 14.586C16.6932 14.8361 16.3541 14.9765 16.0005 14.9765H14.6671C14.3135 14.9765 13.9743 14.8361 13.7243 14.586C13.4742 14.336 13.3337 13.9968 13.3337 13.6432V12.3099ZM14.6671 12.3099H16.0005V13.6432H14.6671V12.3099ZM4.0003 16.3099C3.64667 16.3099 3.30753 16.4504 3.05748 16.7004C2.80742 16.9505 2.66695 17.2896 2.66695 17.6432V18.9765C2.66695 19.3302 2.80742 19.6693 3.05748 19.9194C3.30753 20.1694 3.64667 20.3099 4.0003 20.3099H5.33365C5.68727 20.3099 6.02642 20.1694 6.27647 19.9194C6.52652 19.6693 6.667 19.3302 6.667 18.9765V17.6432C6.667 17.2896 6.52652 16.9505 6.27647 16.7004C6.02642 16.4504 5.68727 16.3099 5.33365 16.3099H4.0003ZM4.0003 17.6432V18.9765H5.33365V17.6432H4.0003ZM8.00035 17.6432C8.00035 17.2896 8.14083 16.9505 8.39088 16.7004C8.64093 16.4504 8.98007 16.3099 9.3337 16.3099H10.667C11.0207 16.3099 11.3598 16.4504 11.6099 16.7004C11.8599 16.9505 12.0004 17.2896 12.0004 17.6432V18.9765C12.0004 19.3302 11.8599 19.6693 11.6099 19.9194C11.3598 20.1694 11.0207 20.3099 10.667 20.3099H9.3337C8.98007 20.3099 8.64093 20.1694 8.39088 19.9194C8.14083 19.6693 8.00035 19.3302 8.00035 18.9765V17.6432ZM9.3337 17.6432H10.667V18.9765H9.3337V17.6432Z"/>
</mask>
<path fill-rule="evenodd" clip-rule="evenodd" d="M2.66695 12.3099C2.66695 11.9563 2.80742 11.6171 3.05748 11.3671C3.30753 11.117 3.64667 10.9765 4.0003 10.9765H5.33365C5.68727 10.9765 6.02642 11.117 6.27647 11.3671C6.52652 11.6171 6.667 11.9563 6.667 12.3099V13.6432C6.667 13.9968 6.52652 14.336 6.27647 14.586C6.02642 14.8361 5.68727 14.9765 5.33365 14.9765H4.0003C3.64667 14.9765 3.30753 14.8361 3.05748 14.586C2.80742 14.336 2.66695 13.9968 2.66695 13.6432V12.3099ZM5.33365 12.3099V13.6432H4.0003V12.3099H5.33365ZM9.3337 10.9765C8.98007 10.9765 8.64093 11.117 8.39088 11.3671C8.14083 11.6171 8.00035 11.9563 8.00035 12.3099V13.6432C8.00035 13.9968 8.14083 14.336 8.39088 14.586C8.64093 14.8361 8.98007 14.9765 9.3337 14.9765H10.667C11.0207 14.9765 11.3598 14.8361 11.6099 14.586C11.8599 14.336 12.0004 13.9968 12.0004 13.6432V12.3099C12.0004 11.9563 11.8599 11.6171 11.6099 11.3671C11.3598 11.117 11.0207 10.9765 10.667 10.9765H9.3337ZM10.667 12.3099H9.3337V13.6432H10.667V12.3099ZM13.3337 12.3099C13.3337 11.9563 13.4742 11.6171 13.7243 11.3671C13.9743 11.117 14.3135 10.9765 14.6671 10.9765H16.0005C16.3541 10.9765 16.6932 11.117 16.9433 11.3671C17.1933 11.6171 17.3338 11.9563 17.3338 12.3099V13.6432C17.3338 13.9968 17.1933 14.336 16.9433 14.586C16.6932 14.8361 16.3541 14.9765 16.0005 14.9765H14.6671C14.3135 14.9765 13.9743 14.8361 13.7243 14.586C13.4742 14.336 13.3337 13.9968 13.3337 13.6432V12.3099ZM14.6671 12.3099H16.0005V13.6432H14.6671V12.3099ZM4.0003 16.3099C3.64667 16.3099 3.30753 16.4504 3.05748 16.7004C2.80742 16.9505 2.66695 17.2896 2.66695 17.6432V18.9765C2.66695 19.3302 2.80742 19.6693 3.05748 19.9194C3.30753 20.1694 3.64667 20.3099 4.0003 20.3099H5.33365C5.68727 20.3099 6.02642 20.1694 6.27647 19.9194C6.52652 19.6693 6.667 19.3302 6.667 18.9765V17.6432C6.667 17.2896 6.52652 16.9505 6.27647 16.7004C6.02642 16.4504 5.68727 16.3099 5.33365 16.3099H4.0003ZM4.0003 17.6432V18.9765H5.33365V17.6432H4.0003ZM8.00035 17.6432C8.00035 17.2896 8.14083 16.9505 8.39088 16.7004C8.64093 16.4504 8.98007 16.3099 9.3337 16.3099H10.667C11.0207 16.3099 11.3598 16.4504 11.6099 16.7004C11.8599 16.9505 12.0004 17.2896 12.0004 17.6432V18.9765C12.0004 19.3302 11.8599 19.6693 11.6099 19.9194C11.3598 20.1694 11.0207 20.3099 10.667 20.3099H9.3337C8.98007 20.3099 8.64093 20.1694 8.39088 19.9194C8.14083 19.6693 8.00035 19.3302 8.00035 18.9765V17.6432ZM9.3337 17.6432H10.667V18.9765H9.3337V17.6432Z" fill="#2A7DB7"/>
<path d="M5.33365 12.3099H6.83365V10.8099H5.33365V12.3099ZM5.33365 13.6432V15.1432H6.83365V13.6432H5.33365ZM4.0003 13.6432H2.5003V15.1432H4.0003V13.6432ZM4.0003 12.3099V10.8099H2.5003V12.3099H4.0003ZM10.667 12.3099H12.167V10.8099H10.667V12.3099ZM9.3337 12.3099V10.8099H7.8337V12.3099H9.3337ZM9.3337 13.6432H7.8337V15.1432H9.3337V13.6432ZM10.667 13.6432V15.1432H12.167V13.6432H10.667ZM14.6671 12.3099V10.8099H13.1671V12.3099H14.6671ZM16.0005 12.3099H17.5005V10.8099H16.0005V12.3099ZM16.0005 13.6432V15.1432H17.5005V13.6432H16.0005ZM14.6671 13.6432H13.1671V15.1432H14.6671V13.6432ZM4.0003 17.6432V16.1432H2.5003V17.6432H4.0003ZM4.0003 18.9765H2.5003V20.4765H4.0003V18.9765ZM5.33365 18.9765V20.4765H6.83365V18.9765H5.33365ZM5.33365 17.6432H6.83365V16.1432H5.33365V17.6432ZM9.3337 17.6432V16.1432H7.8337V17.6432H9.3337ZM10.667 17.6432H12.167V16.1432H10.667V17.6432ZM10.667 18.9765V20.4765H12.167V18.9765H10.667ZM9.3337 18.9765H7.8337V20.4765H9.3337V18.9765ZM4.16695 12.3099C4.16695 12.3541 4.14938 12.3965 4.11813 12.4277L1.99682 10.3064C1.46546 10.8378 1.16695 11.5584 1.16695 12.3099H4.16695ZM4.11813 12.4277C4.08688 12.459 4.04449 12.4765 4.0003 12.4765V9.47655C3.24885 9.47655 2.52818 9.77505 1.99682 10.3064L4.11813 12.4277ZM4.0003 12.4765H5.33365V9.47655H4.0003V12.4765ZM5.33365 12.4765C5.28945 12.4765 5.24707 12.459 5.21581 12.4277L7.33712 10.3064C6.80576 9.77505 6.08509 9.47655 5.33365 9.47655V12.4765ZM5.21581 12.4277C5.18456 12.3965 5.167 12.3541 5.167 12.3099H8.167C8.167 11.5584 7.86848 10.8378 7.33712 10.3064L5.21581 12.4277ZM5.167 12.3099V13.6432H8.167V12.3099H5.167ZM5.167 13.6432C5.167 13.599 5.18456 13.5566 5.21581 13.5254L7.33712 15.6467C7.86848 15.1153 8.167 14.3947 8.167 13.6432H5.167ZM5.21581 13.5254C5.24707 13.4941 5.28945 13.4765 5.33365 13.4765V16.4765C6.08509 16.4765 6.80576 16.178 7.33712 15.6467L5.21581 13.5254ZM5.33365 13.4765H4.0003V16.4765H5.33365V13.4765ZM4.0003 13.4765C4.04449 13.4765 4.08688 13.4941 4.11813 13.5254L1.99682 15.6467C2.52818 16.178 3.24885 16.4765 4.0003 16.4765V13.4765ZM4.11813 13.5254C4.14938 13.5566 4.16695 13.599 4.16695 13.6432H1.16695C1.16695 14.3947 1.46546 15.1153 1.99682 15.6467L4.11813 13.5254ZM4.16695 13.6432V12.3099H1.16695V13.6432H4.16695ZM3.83365 12.3099V13.6432H6.83365V12.3099H3.83365ZM5.33365 12.1432H4.0003V15.1432H5.33365V12.1432ZM5.5003 13.6432V12.3099H2.5003V13.6432H5.5003ZM4.0003 13.8099H5.33365V10.8099H4.0003V13.8099ZM9.3337 9.47655C8.58225 9.47655 7.86158 9.77505 7.33022 10.3064L9.45153 12.4277C9.42028 12.459 9.37789 12.4765 9.3337 12.4765V9.47655ZM7.33022 10.3064C6.79887 10.8378 6.50035 11.5584 6.50035 12.3099H9.50035C9.50035 12.3541 9.48279 12.3965 9.45153 12.4277L7.33022 10.3064ZM6.50035 12.3099V13.6432H9.50035V12.3099H6.50035ZM6.50035 13.6432C6.50035 14.3947 6.79887 15.1153 7.33022 15.6467L9.45153 13.5254C9.48279 13.5566 9.50035 13.599 9.50035 13.6432H6.50035ZM7.33022 15.6467C7.86158 16.178 8.58225 16.4765 9.3337 16.4765V13.4765C9.37789 13.4765 9.42028 13.4941 9.45153 13.5254L7.33022 15.6467ZM9.3337 16.4765H10.667V13.4765H9.3337V16.4765ZM10.667 16.4765C11.4185 16.4765 12.1392 16.178 12.6705 15.6467L10.5492 13.5254C10.5805 13.4941 10.6229 13.4765 10.667 13.4765V16.4765ZM12.6705 15.6467C13.2019 15.1153 13.5004 14.3947 13.5004 13.6432H10.5004C10.5004 13.599 10.518 13.5566 10.5492 13.5254L12.6705 15.6467ZM13.5004 13.6432V12.3099H10.5004V13.6432H13.5004ZM13.5004 12.3099C13.5004 11.5584 13.2019 10.8378 12.6705 10.3064L10.5492 12.4277C10.518 12.3965 10.5004 12.3541 10.5004 12.3099H13.5004ZM12.6705 10.3064C12.1392 9.77505 11.4185 9.47655 10.667 9.47655V12.4765C10.6229 12.4765 10.5805 12.459 10.5492 12.4277L12.6705 10.3064ZM10.667 9.47655H9.3337V12.4765H10.667V9.47655ZM10.667 10.8099H9.3337V13.8099H10.667V10.8099ZM7.8337 12.3099V13.6432H10.8337V12.3099H7.8337ZM9.3337 15.1432H10.667V12.1432H9.3337V15.1432ZM12.167 13.6432V12.3099H9.16705V13.6432H12.167ZM14.8337 12.3099C14.8337 12.3541 14.8162 12.3965 14.7849 12.4277L12.6636 10.3064C12.1323 10.8378 11.8337 11.5584 11.8337 12.3099H14.8337ZM14.7849 12.4277C14.7537 12.459 14.7113 12.4765 14.6671 12.4765V9.47655C13.9157 9.47655 13.195 9.77505 12.6636 10.3064L14.7849 12.4277ZM14.6671 12.4765H16.0005V9.47655H14.6671V12.4765ZM16.0005 12.4765C15.9563 12.4765 15.9139 12.459 15.8826 12.4277L18.0039 10.3064C17.4726 9.77505 16.7519 9.47655 16.0005 9.47655V12.4765ZM15.8826 12.4277C15.8514 12.3965 15.8338 12.3541 15.8338 12.3099H18.8338C18.8338 11.5584 18.5353 10.8378 18.0039 10.3064L15.8826 12.4277ZM15.8338 12.3099V13.6432H18.8338V12.3099H15.8338ZM15.8338 13.6432C15.8338 13.599 15.8514 13.5566 15.8826 13.5254L18.0039 15.6467C18.5353 15.1153 18.8338 14.3947 18.8338 13.6432H15.8338ZM15.8826 13.5254C15.9139 13.4941 15.9563 13.4765 16.0005 13.4765V16.4765C16.7519 16.4765 17.4726 16.178 18.0039 15.6467L15.8826 13.5254ZM16.0005 13.4765H14.6671V16.4765H16.0005V13.4765ZM14.6671 13.4765C14.7113 13.4765 14.7537 13.4941 14.7849 13.5254L12.6636 15.6467C13.195 16.178 13.9157 16.4765 14.6671 16.4765V13.4765ZM14.7849 13.5254C14.8162 13.5566 14.8337 13.599 14.8337 13.6432H11.8337C11.8337 14.3947 12.1323 15.1153 12.6636 15.6467L14.7849 13.5254ZM14.8337 13.6432V12.3099H11.8337V13.6432H14.8337ZM14.6671 13.8099H16.0005V10.8099H14.6671V13.8099ZM14.5005 12.3099V13.6432H17.5005V12.3099H14.5005ZM16.0005 12.1432H14.6671V15.1432H16.0005V12.1432ZM16.1671 13.6432V12.3099H13.1671V13.6432H16.1671ZM4.0003 14.8099C3.24885 14.8099 2.52818 15.1084 1.99682 15.6397L4.11813 17.7611C4.08688 17.7923 4.04449 17.8099 4.0003 17.8099V14.8099ZM1.99682 15.6397C1.46546 16.1711 1.16695 16.8918 1.16695 17.6432H4.16695C4.16695 17.6874 4.14938 17.7298 4.11813 17.7611L1.99682 15.6397ZM1.16695 17.6432V18.9765H4.16695V17.6432H1.16695ZM1.16695 18.9765C1.16695 19.728 1.46546 20.4487 1.99682 20.98L4.11813 18.8587C4.14938 18.8899 4.16695 18.9323 4.16695 18.9765H1.16695ZM1.99682 20.98C2.52818 21.5114 3.24885 21.8099 4.0003 21.8099V18.8099C4.04449 18.8099 4.08687 18.8274 4.11813 18.8587L1.99682 20.98ZM4.0003 21.8099H5.33365V18.8099H4.0003V21.8099ZM5.33365 21.8099C6.08509 21.8099 6.80576 21.5114 7.33712 20.98L5.21581 18.8587C5.24707 18.8274 5.28946 18.8099 5.33365 18.8099V21.8099ZM7.33712 20.98C7.86848 20.4487 8.167 19.728 8.167 18.9765H5.167C5.167 18.9323 5.18456 18.8899 5.21581 18.8587L7.33712 20.98ZM8.167 18.9765V17.6432H5.167V18.9765H8.167ZM8.167 17.6432C8.167 16.8918 7.86848 16.1711 7.33712 15.6397L5.21581 17.7611C5.18456 17.7298 5.167 17.6874 5.167 17.6432H8.167ZM7.33712 15.6397C6.80576 15.1084 6.08509 14.8099 5.33365 14.8099V17.8099C5.28945 17.8099 5.24707 17.7923 5.21581 17.7611L7.33712 15.6397ZM5.33365 14.8099H4.0003V17.8099H5.33365V14.8099ZM2.5003 17.6432V18.9765H5.5003V17.6432H2.5003ZM4.0003 20.4765H5.33365V17.4765H4.0003V20.4765ZM6.83365 18.9765V17.6432H3.83365V18.9765H6.83365ZM5.33365 16.1432H4.0003V19.1432H5.33365V16.1432ZM9.50035 17.6432C9.50035 17.6874 9.48279 17.7298 9.45153 17.7611L7.33022 15.6397C6.79887 16.1711 6.50035 16.8918 6.50035 17.6432H9.50035ZM9.45153 17.7611C9.42028 17.7923 9.37789 17.8099 9.3337 17.8099V14.8099C8.58225 14.8099 7.86158 15.1084 7.33022 15.6397L9.45153 17.7611ZM9.3337 17.8099H10.667V14.8099H9.3337V17.8099ZM10.667 17.8099C10.6229 17.8099 10.5805 17.7923 10.5492 17.7611L12.6705 15.6397C12.1392 15.1084 11.4185 14.8099 10.667 14.8099V17.8099ZM10.5492 17.7611C10.518 17.7298 10.5004 17.6874 10.5004 17.6432H13.5004C13.5004 16.8918 13.2019 16.1711 12.6705 15.6397L10.5492 17.7611ZM10.5004 17.6432V18.9765H13.5004V17.6432H10.5004ZM10.5004 18.9765C10.5004 18.9323 10.518 18.8899 10.5492 18.8587L12.6705 20.98C13.2019 20.4487 13.5004 19.728 13.5004 18.9765H10.5004ZM10.5492 18.8587C10.5805 18.8274 10.6229 18.8099 10.667 18.8099V21.8099C11.4185 21.8099 12.1392 21.5114 12.6705 20.98L10.5492 18.8587ZM10.667 18.8099H9.3337V21.8099H10.667V18.8099ZM9.3337 18.8099C9.37789 18.8099 9.42027 18.8274 9.45153 18.8587L7.33022 20.98C7.86158 21.5114 8.58226 21.8099 9.3337 21.8099V18.8099ZM9.45153 18.8587C9.48279 18.8899 9.50035 18.9323 9.50035 18.9765H6.50035C6.50035 19.728 6.79887 20.4487 7.33022 20.98L9.45153 18.8587ZM9.50035 18.9765V17.6432H6.50035V18.9765H9.50035ZM9.3337 19.1432H10.667V16.1432H9.3337V19.1432ZM9.16705 17.6432V18.9765H12.167V17.6432H9.16705ZM10.667 17.4765H9.3337V20.4765H10.667V17.4765ZM10.8337 18.9765V17.6432H7.8337V18.9765H10.8337Z" fill="#2A7DB7" mask="url(#path-1-inside-1_1_106)"/>
<mask id="path-3-inside-2_1_106" fill="white">
<path d="M19.3353 17.9762C19.5121 17.9762 19.6816 18.0464 19.8067 18.1714C19.9317 18.2964 20.0019 18.466 20.0019 18.6428V20.0335L20.4733 20.5048C20.5947 20.6306 20.6619 20.799 20.6604 20.9738C20.6589 21.1486 20.5888 21.3158 20.4651 21.4394C20.3415 21.563 20.1743 21.6331 19.9995 21.6346C19.8247 21.6361 19.6563 21.5689 19.5306 21.4475L18.6686 20.5855V18.6428C18.6686 18.466 18.7388 18.2964 18.8638 18.1714C18.9889 18.0464 19.1584 17.9762 19.3353 17.9762Z"/>
</mask>
<path d="M19.3353 17.9762C19.5121 17.9762 19.6816 18.0464 19.8067 18.1714C19.9317 18.2964 20.0019 18.466 20.0019 18.6428V20.0335L20.4733 20.5048C20.5947 20.6306 20.6619 20.799 20.6604 20.9738C20.6589 21.1486 20.5888 21.3158 20.4651 21.4394C20.3415 21.563 20.1743 21.6331 19.9995 21.6346C19.8247 21.6361 19.6563 21.5689 19.5306 21.4475L18.6686 20.5855V18.6428C18.6686 18.466 18.7388 18.2964 18.8638 18.1714C18.9889 18.0464 19.1584 17.9762 19.3353 17.9762Z" fill="#2A7DB7"/>
<path d="M20.0019 20.0335H18.5019V20.6548L18.9413 21.0941L20.0019 20.0335ZM20.4733 20.5048L21.5522 19.4627L21.5431 19.4534L21.5339 19.4441L20.4733 20.5048ZM19.5306 21.4475L18.4699 22.5082L18.4792 22.5174L18.4885 22.5264L19.5306 21.4475ZM18.6686 20.5855H17.1686V21.2068L17.6079 21.6462L18.6686 20.5855ZM19.3353 19.4762C19.1143 19.4762 18.9023 19.3884 18.746 19.2321L20.8673 17.1107C20.461 16.7044 19.9099 16.4762 19.3353 16.4762V19.4762ZM18.746 19.2321C18.5897 19.0758 18.5019 18.8638 18.5019 18.6428H21.5019C21.5019 18.0682 21.2737 17.5171 20.8673 17.1107L18.746 19.2321ZM18.5019 18.6428V20.0335H21.5019V18.6428H18.5019ZM18.9413 21.0941L19.4126 21.5655L21.5339 19.4441L21.0626 18.9728L18.9413 21.0941ZM19.3943 21.5469C19.2425 21.3897 19.1585 21.1792 19.1604 20.9607L22.1603 20.9868C22.1653 20.4187 21.9469 19.8714 21.5522 19.4627L19.3943 21.5469ZM19.1604 20.9607C19.1623 20.7422 19.25 20.5332 19.4045 20.3787L21.5258 22.5C21.9275 22.0983 22.1554 21.5549 22.1603 20.9868L19.1604 20.9607ZM19.4045 20.3787C19.559 20.2242 19.768 20.1366 19.9865 20.1347L20.0126 23.1345C20.5806 23.1296 21.1241 22.9018 21.5258 22.5L19.4045 20.3787ZM19.9865 20.1347C20.205 20.1328 20.4155 20.2167 20.5727 20.3685L18.4885 22.5264C18.8972 22.9211 19.4445 23.1395 20.0126 23.1345L19.9865 20.1347ZM20.5912 20.3868L19.7292 19.5248L17.6079 21.6462L18.4699 22.5082L20.5912 20.3868ZM20.1686 20.5855V18.6428H17.1686V20.5855H20.1686ZM20.1686 18.6428C20.1686 18.8638 20.0808 19.0758 19.9245 19.2321L17.8032 17.1107C17.3969 17.5171 17.1686 18.0682 17.1686 18.6428H20.1686ZM19.9245 19.2321C19.7682 19.3884 19.5563 19.4762 19.3353 19.4762V16.4762C18.7606 16.4762 18.2095 16.7044 17.8032 17.1107L19.9245 19.2321Z" fill="#2A7DB7" mask="url(#path-3-inside-2_1_106)"/>
<mask id="path-5-inside-3_1_106" fill="white">
<path fill-rule="evenodd" clip-rule="evenodd" d="M4.00005 1.64302C4.00005 1.4662 4.07029 1.29664 4.19532 1.17161C4.32034 1.04659 4.48991 0.976349 4.66673 0.976349C4.84354 0.976349 5.01311 1.04659 5.13814 1.17161C5.26316 1.29664 5.3334 1.4662 5.3334 1.64302V4.97635C5.3334 5.15316 5.26316 5.32273 5.13814 5.44775C5.01311 5.57278 4.84354 5.64302 4.66673 5.64302C4.48991 5.64302 4.32034 5.57278 4.19532 5.44775C4.07029 5.32273 4.00005 5.15316 4.00005 4.97635V4.30968H2.00003C1.82321 4.30968 1.65364 4.37992 1.52862 4.50494C1.40359 4.62997 1.33335 4.79954 1.33335 4.97635V7.64302H18.6669V4.97635C18.6669 4.79954 18.5967 4.62997 18.4716 4.50494C18.3466 4.37992 18.177 4.30968 18.0002 4.30968H16.0002V2.97635H18.0002C18.5307 2.97635 19.0394 3.18706 19.4145 3.56214C19.7895 3.93721 20.0003 4.44592 20.0003 4.97635V15.6897C21.168 15.8585 22.2284 16.4632 22.9683 17.3822C23.7082 18.3013 24.0725 19.4664 23.988 20.6432C23.9035 21.82 23.3765 22.9212 22.513 23.7251C21.6494 24.529 20.5134 24.9761 19.3336 24.9763C18.5812 24.9768 17.8398 24.7952 17.1728 24.4469C16.5059 24.0986 15.9331 23.5941 15.5035 22.9763H2.00003C1.46959 22.9763 0.960872 22.7656 0.585794 22.3906C0.210716 22.0155 0 21.5068 0 20.9763V4.97635C0 4.44592 0.210716 3.93721 0.585794 3.56214C0.960872 3.18706 1.46959 2.97635 2.00003 2.97635H4.00005V1.64302ZM14.6669 20.3097C14.6667 19.1873 15.071 18.1025 15.8056 17.254C16.5403 16.4055 17.5561 15.8502 18.6669 15.6897V8.97635H1.33335V20.9763C1.33335 21.1532 1.40359 21.3227 1.52862 21.4478C1.65364 21.5728 1.82321 21.643 2.00003 21.643H14.8602C14.7316 21.2103 14.6665 20.7611 14.6669 20.3097ZM19.3336 23.643C20.2176 23.643 21.0655 23.2918 21.6906 22.6667C22.3158 22.0416 22.667 21.1937 22.667 20.3097C22.667 19.4256 22.3158 18.5778 21.6906 17.9527C21.0655 17.3275 20.2176 16.9763 19.3336 16.9763C18.4495 16.9763 17.6017 17.3275 16.9765 17.9527C16.3514 18.5778 16.0002 19.4256 16.0002 20.3097C16.0002 21.1937 16.3514 22.0416 16.9765 22.6667C17.6017 23.2918 18.4495 23.643 19.3336 23.643Z"/>
</mask>
<path fill-rule="evenodd" clip-rule="evenodd" d="M4.00005 1.64302C4.00005 1.4662 4.07029 1.29664 4.19532 1.17161C4.32034 1.04659 4.48991 0.976349 4.66673 0.976349C4.84354 0.976349 5.01311 1.04659 5.13814 1.17161C5.26316 1.29664 5.3334 1.4662 5.3334 1.64302V4.97635C5.3334 5.15316 5.26316 5.32273 5.13814 5.44775C5.01311 5.57278 4.84354 5.64302 4.66673 5.64302C4.48991 5.64302 4.32034 5.57278 4.19532 5.44775C4.07029 5.32273 4.00005 5.15316 4.00005 4.97635V4.30968H2.00003C1.82321 4.30968 1.65364 4.37992 1.52862 4.50494C1.40359 4.62997 1.33335 4.79954 1.33335 4.97635V7.64302H18.6669V4.97635C18.6669 4.79954 18.5967 4.62997 18.4716 4.50494C18.3466 4.37992 18.177 4.30968 18.0002 4.30968H16.0002V2.97635H18.0002C18.5307 2.97635 19.0394 3.18706 19.4145 3.56214C19.7895 3.93721 20.0003 4.44592 20.0003 4.97635V15.6897C21.168 15.8585 22.2284 16.4632 22.9683 17.3822C23.7082 18.3013 24.0725 19.4664 23.988 20.6432C23.9035 21.82 23.3765 22.9212 22.513 23.7251C21.6494 24.529 20.5134 24.9761 19.3336 24.9763C18.5812 24.9768 17.8398 24.7952 17.1728 24.4469C16.5059 24.0986 15.9331 23.5941 15.5035 22.9763H2.00003C1.46959 22.9763 0.960872 22.7656 0.585794 22.3906C0.210716 22.0155 0 21.5068 0 20.9763V4.97635C0 4.44592 0.210716 3.93721 0.585794 3.56214C0.960872 3.18706 1.46959 2.97635 2.00003 2.97635H4.00005V1.64302ZM14.6669 20.3097C14.6667 19.1873 15.071 18.1025 15.8056 17.254C16.5403 16.4055 17.5561 15.8502 18.6669 15.6897V8.97635H1.33335V20.9763C1.33335 21.1532 1.40359 21.3227 1.52862 21.4478C1.65364 21.5728 1.82321 21.643 2.00003 21.643H14.8602C14.7316 21.2103 14.6665 20.7611 14.6669 20.3097ZM19.3336 23.643C20.2176 23.643 21.0655 23.2918 21.6906 22.6667C22.3158 22.0416 22.667 21.1937 22.667 20.3097C22.667 19.4256 22.3158 18.5778 21.6906 17.9527C21.0655 17.3275 20.2176 16.9763 19.3336 16.9763C18.4495 16.9763 17.6017 17.3275 16.9765 17.9527C16.3514 18.5778 16.0002 19.4256 16.0002 20.3097C16.0002 21.1937 16.3514 22.0416 16.9765 22.6667C17.6017 23.2918 18.4495 23.643 19.3336 23.643Z" fill="#2A7DB7"/>
<path d="M4.66673 0.976349V2.47635V0.976349ZM4.00005 4.30968H5.50005V2.80968H4.00005V4.30968ZM1.33335 4.97635H2.83335H1.33335ZM1.33335 7.64302H-0.166649V9.14302H1.33335V7.64302ZM18.6669 7.64302V9.14302H20.1669V7.64302H18.6669ZM16.0002 4.30968H14.5002V5.80968H16.0002V4.30968ZM16.0002 2.97635V1.47635H14.5002V2.97635H16.0002ZM20.0003 15.6897H18.5003V16.9885L19.7857 17.1743L20.0003 15.6897ZM19.3336 24.9763L19.3333 23.4763L19.3326 23.4764L19.3336 24.9763ZM15.5035 22.9763L16.735 22.1199L16.2874 21.4763H15.5035V22.9763ZM2.00003 2.97635V1.47635V2.97635ZM4.00005 2.97635V4.47635H5.50005V2.97635H4.00005ZM14.6669 20.3097L16.1669 20.3109V20.3095L14.6669 20.3097ZM18.6669 15.6897L18.8814 17.1743L20.1669 16.9886V15.6897H18.6669ZM18.6669 8.97635H20.1669V7.47635H18.6669V8.97635ZM1.33335 8.97635V7.47635H-0.166649V8.97635H1.33335ZM1.33335 20.9763H2.83335H1.33335ZM14.8602 21.643V23.143H16.8707L16.2981 21.2158L14.8602 21.643ZM19.3336 23.643V25.143V23.643ZM5.50005 1.64302C5.50005 1.86404 5.41225 2.076 5.25597 2.23228L3.13466 0.110944C2.72833 0.517271 2.50005 1.06837 2.50005 1.64302H5.50005ZM5.25597 2.23228C5.09969 2.38856 4.88773 2.47635 4.66673 2.47635V-0.523651C4.09209 -0.523651 3.54099 -0.295382 3.13466 0.110944L5.25597 2.23228ZM4.66673 2.47635C4.44572 2.47635 4.23376 2.38856 4.07748 2.23228L6.19879 0.110944C5.79246 -0.295382 5.24136 -0.523651 4.66673 -0.523651V2.47635ZM4.07748 2.23228C3.9212 2.076 3.8334 1.86404 3.8334 1.64302H6.8334C6.8334 1.06837 6.60512 0.517271 6.19879 0.110944L4.07748 2.23228ZM3.8334 1.64302V4.97635H6.8334V1.64302H3.8334ZM3.8334 4.97635C3.8334 4.75533 3.9212 4.54336 4.07748 4.38709L6.19879 6.50842C6.60512 6.10209 6.8334 5.55099 6.8334 4.97635H3.8334ZM4.07748 4.38709C4.23376 4.23081 4.44572 4.14302 4.66673 4.14302V7.14302C5.24136 7.14302 5.79246 6.91475 6.19879 6.50842L4.07748 4.38709ZM4.66673 4.14302C4.88773 4.14302 5.09969 4.23081 5.25597 4.38709L3.13466 6.50842C3.54099 6.91475 4.09209 7.14302 4.66673 7.14302V4.14302ZM5.25597 4.38709C5.41225 4.54336 5.50005 4.75533 5.50005 4.97635H2.50005C2.50005 5.55099 2.72833 6.10209 3.13466 6.50842L5.25597 4.38709ZM5.50005 4.97635V4.30968H2.50005V4.97635H5.50005ZM4.00005 2.80968H2.00003V5.80968H4.00005V2.80968ZM2.00003 2.80968C1.42539 2.80968 0.874293 3.03795 0.467962 3.44428L2.58927 5.56561C2.43299 5.72189 2.22103 5.80968 2.00003 5.80968V2.80968ZM0.467962 3.44428C0.0616302 3.8506 -0.166649 4.40171 -0.166649 4.97635H2.83335C2.83335 5.19737 2.74555 5.40933 2.58927 5.56561L0.467962 3.44428ZM-0.166649 4.97635V7.64302H2.83335V4.97635H-0.166649ZM1.33335 9.14302H18.6669V6.14302H1.33335V9.14302ZM20.1669 7.64302V4.97635H17.1669V7.64302H20.1669ZM20.1669 4.97635C20.1669 4.40171 19.9386 3.85061 19.5323 3.44428L17.411 5.56561C17.2547 5.40933 17.1669 5.19737 17.1669 4.97635H20.1669ZM19.5323 3.44428C19.126 3.03795 18.5749 2.80968 18.0002 2.80968V5.80968C17.7792 5.80968 17.5673 5.72189 17.411 5.56561L19.5323 3.44428ZM18.0002 2.80968H16.0002V5.80968H18.0002V2.80968ZM17.5002 4.30968V2.97635H14.5002V4.30968H17.5002ZM16.0002 4.47635H18.0002V1.47635H16.0002V4.47635ZM18.0002 4.47635C18.1329 4.47635 18.26 4.52903 18.3538 4.6228L20.4751 2.50147C19.8187 1.84509 18.9285 1.47635 18.0002 1.47635V4.47635ZM18.3538 4.6228C18.4476 4.71657 18.5003 4.84375 18.5003 4.97635H21.5003C21.5003 4.04808 21.1315 3.15784 20.4751 2.50147L18.3538 4.6228ZM18.5003 4.97635V15.6897H21.5003V4.97635H18.5003ZM19.7857 17.1743C20.5781 17.2888 21.2978 17.6992 21.7999 18.3229L24.1367 16.4416C23.1591 15.2272 21.7578 14.4281 20.2148 14.2051L19.7857 17.1743ZM21.7999 18.3229C22.3019 18.9465 22.5492 19.7372 22.4919 20.5358L25.4842 20.7506C25.5958 19.1956 25.1144 17.656 24.1367 16.4416L21.7999 18.3229ZM22.4919 20.5358C22.4345 21.3344 22.0769 22.0817 21.4909 22.6272L23.535 24.823C24.6761 23.7607 25.3725 22.3056 25.4842 20.7506L22.4919 20.5358ZM21.4909 22.6272C20.9048 23.1728 20.1339 23.4762 19.3333 23.4763L19.3339 26.4763C20.8929 26.476 22.394 25.8853 23.535 24.823L21.4909 22.6272ZM19.3326 23.4764C18.8223 23.4767 18.3195 23.3535 17.8671 23.1173L16.4785 25.7765C17.3601 26.2369 18.34 26.477 19.3346 26.4763L19.3326 23.4764ZM17.8671 23.1173C17.4148 22.8811 17.0264 22.5389 16.735 22.1199L14.272 23.8328C14.8399 24.6493 15.5969 25.3162 16.4785 25.7765L17.8671 23.1173ZM15.5035 21.4763H2.00003V24.4763H15.5035V21.4763ZM2.00003 21.4763C1.86741 21.4763 1.74022 21.4237 1.64645 21.3299L-0.474859 23.4512C0.181523 24.1076 1.07177 24.4763 2.00003 24.4763V21.4763ZM1.64645 21.3299C1.55268 21.2361 1.5 21.1089 1.5 20.9763H-1.5C-1.5 21.9046 -1.13124 22.7949 -0.474859 23.4512L1.64645 21.3299ZM1.5 20.9763V4.97635H-1.5V20.9763H1.5ZM1.5 4.97635C1.5 4.84375 1.55268 4.71657 1.64645 4.6228L-0.474859 2.50147C-1.13124 3.15784 -1.5 4.04809 -1.5 4.97635H1.5ZM1.64645 4.6228C1.74022 4.52903 1.8674 4.47635 2.00003 4.47635V1.47635C1.07177 1.47635 0.181525 1.84509 -0.474859 2.50147L1.64645 4.6228ZM2.00003 4.47635H4.00005V1.47635H2.00003V4.47635ZM5.50005 2.97635V1.64302H2.50005V2.97635H5.50005ZM16.1669 20.3095C16.1668 19.5478 16.4411 18.8117 16.9397 18.2359L14.6716 16.2722C13.7009 17.3934 13.1667 18.8268 13.1669 20.3099L16.1669 20.3095ZM16.9397 18.2359C17.4382 17.6601 18.1275 17.2832 18.8814 17.1743L18.4524 14.2051C16.9846 14.4171 15.6424 15.151 14.6716 16.2722L16.9397 18.2359ZM20.1669 15.6897V8.97635H17.1669V15.6897H20.1669ZM18.6669 7.47635H1.33335V10.4763H18.6669V7.47635ZM-0.166649 8.97635V20.9763H2.83335V8.97635H-0.166649ZM-0.166649 20.9763C-0.166649 21.551 0.0616291 22.1021 0.467962 22.5084L2.58927 20.3871C2.74555 20.5434 2.83335 20.7553 2.83335 20.9763H-0.166649ZM0.467962 22.5084C0.874296 22.9147 1.4254 23.143 2.00003 23.143V20.143C2.22103 20.143 2.43299 20.2308 2.58927 20.3871L0.467962 22.5084ZM2.00003 23.143H14.8602V20.143H2.00003V23.143ZM16.2981 21.2158C16.2108 20.9221 16.1666 20.6173 16.1669 20.3109L13.1669 20.3084C13.1664 20.905 13.2524 21.4984 13.4223 22.0703L16.2981 21.2158ZM19.3336 25.143C20.6155 25.143 21.8449 24.6338 22.7513 23.7274L20.63 21.606C20.2862 21.9499 19.8198 22.143 19.3336 22.143V25.143ZM22.7513 23.7274C23.6577 22.8209 24.167 21.5916 24.167 20.3097H21.167C21.167 20.7959 20.9738 21.2622 20.63 21.606L22.7513 23.7274ZM24.167 20.3097C24.167 19.0278 23.6577 17.7984 22.7513 16.892L20.63 19.0133C20.9738 19.3571 21.167 19.8235 21.167 20.3097H24.167ZM22.7513 16.892C21.8449 15.9856 20.6155 15.4763 19.3336 15.4763V18.4763C19.8198 18.4763 20.2862 18.6695 20.63 19.0133L22.7513 16.892ZM19.3336 15.4763C18.0517 15.4763 16.8223 15.9856 15.9159 16.892L18.0372 19.0133C18.381 18.6695 18.8473 18.4763 19.3336 18.4763V15.4763ZM15.9159 16.892C15.0094 17.7984 14.5002 19.0278 14.5002 20.3097H17.5002C17.5002 19.8235 17.6934 19.3571 18.0372 19.0133L15.9159 16.892ZM14.5002 20.3097C14.5002 21.5916 15.0094 22.8209 15.9159 23.7274L18.0372 21.606C17.6934 21.2622 17.5002 20.7959 17.5002 20.3097H14.5002ZM15.9159 23.7274C16.8223 24.6338 18.0517 25.143 19.3336 25.143V22.143C18.8473 22.143 18.381 21.9499 18.0372 21.606L15.9159 23.7274Z" fill="#2A7DB7" mask="url(#path-5-inside-3_1_106)"/>
<mask id="path-7-inside-4_1_106" fill="white">
<path d="M14.002 5.64302C13.8252 5.64302 13.6556 5.57278 13.5306 5.44775C13.4056 5.32273 13.3353 5.15316 13.3353 4.97635V4.30968H6.66858V2.97635H13.3353V1.64302C13.3353 1.4662 13.4056 1.29664 13.5306 1.17161C13.6556 1.04659 13.8252 0.976349 14.002 0.976349C14.1788 0.976349 14.3484 1.04659 14.4734 1.17161C14.5984 1.29664 14.6687 1.4662 14.6687 1.64302V4.97635C14.6687 5.15316 14.5984 5.32273 14.4734 5.44775C14.3484 5.57278 14.1788 5.64302 14.002 5.64302Z"/>
</mask>
<path d="M14.002 5.64302C13.8252 5.64302 13.6556 5.57278 13.5306 5.44775C13.4056 5.32273 13.3353 5.15316 13.3353 4.97635V4.30968H6.66858V2.97635H13.3353V1.64302C13.3353 1.4662 13.4056 1.29664 13.5306 1.17161C13.6556 1.04659 13.8252 0.976349 14.002 0.976349C14.1788 0.976349 14.3484 1.04659 14.4734 1.17161C14.5984 1.29664 14.6687 1.4662 14.6687 1.64302V4.97635C14.6687 5.15316 14.5984 5.32273 14.4734 5.44775C14.3484 5.57278 14.1788 5.64302 14.002 5.64302Z" fill="#2A7DB7"/>
<path d="M13.3353 4.30968H14.8353V2.80968H13.3353V4.30968ZM6.66858 4.30968H5.16858V5.80968H6.66858V4.30968ZM6.66858 2.97635V1.47635H5.16858V2.97635H6.66858ZM13.3353 2.97635V4.47635H14.8353V2.97635H13.3353ZM14.002 0.976349V2.47635V0.976349ZM14.002 4.14302C14.223 4.14302 14.435 4.23081 14.5912 4.38709L12.4699 6.50842C12.8763 6.91475 13.4274 7.14302 14.002 7.14302V4.14302ZM14.5912 4.38709C14.7475 4.54337 14.8353 4.75533 14.8353 4.97635H11.8353C11.8353 5.55099 12.0636 6.10209 12.4699 6.50842L14.5912 4.38709ZM14.8353 4.97635V4.30968H11.8353V4.97635H14.8353ZM13.3353 2.80968H6.66858V5.80968H13.3353V2.80968ZM8.16858 4.30968V2.97635H5.16858V4.30968H8.16858ZM6.66858 4.47635H13.3353V1.47635H6.66858V4.47635ZM14.8353 2.97635V1.64302H11.8353V2.97635H14.8353ZM14.8353 1.64302C14.8353 1.86403 14.7475 2.076 14.5912 2.23228L12.4699 0.110944C12.0636 0.517273 11.8353 1.06838 11.8353 1.64302H14.8353ZM14.5912 2.23228C14.435 2.38856 14.223 2.47635 14.002 2.47635V-0.523651C13.4274 -0.523651 12.8763 -0.295383 12.4699 0.110944L14.5912 2.23228ZM14.002 2.47635C13.781 2.47635 13.569 2.38856 13.4128 2.23228L15.5341 0.110944C15.1277 -0.295383 14.5766 -0.523651 14.002 -0.523651V2.47635ZM13.4128 2.23228C13.2565 2.076 13.1687 1.86403 13.1687 1.64302H16.1687C16.1687 1.06838 15.9404 0.517273 15.5341 0.110944L13.4128 2.23228ZM13.1687 1.64302V4.97635H16.1687V1.64302H13.1687ZM13.1687 4.97635C13.1687 4.75533 13.2565 4.54337 13.4128 4.38709L15.5341 6.50842C15.9404 6.10209 16.1687 5.55099 16.1687 4.97635H13.1687ZM13.4128 4.38709C13.569 4.23081 13.781 4.14302 14.002 4.14302V7.14302C14.5766 7.14302 15.1277 6.91475 15.5341 6.50842L13.4128 4.38709Z" fill="#2A7DB7" mask="url(#path-7-inside-4_1_106)"/>
</svg>
