<svg width="24" height="19" viewBox="0 0 24 19" fill="none" xmlns="http://www.w3.org/2000/svg">
<path fill-rule="evenodd" clip-rule="evenodd" d="M6.07497 5.45879C6.79105 5.45879 7.4778 5.17432 7.98414 4.66798C8.49049 4.16164 8.77495 3.47489 8.77495 2.75881C8.77495 2.04273 8.49049 1.35598 7.98414 0.849642C7.4778 0.343298 6.79105 0.0588379 6.07497 0.0588379C5.3589 0.0588379 4.67215 0.343298 4.1658 0.849642C3.65946 1.35598 3.375 2.04273 3.375 2.75881C3.375 3.47489 3.65946 4.16164 4.1658 4.66798C4.67215 5.17432 5.3589 5.45879 6.07497 5.45879ZM6.07497 4.1088C6.43301 4.1088 6.77639 3.96657 7.02956 3.7134C7.28273 3.46022 7.42496 3.11685 7.42496 2.75881C7.42496 2.40077 7.28273 2.0574 7.02956 1.80423C6.77639 1.55106 6.43301 1.40882 6.07497 1.40882C5.71693 1.40882 5.37356 1.55106 5.12039 1.80423C4.86722 2.0574 4.72499 2.40077 4.72499 2.75881C4.72499 3.11685 4.86722 3.46022 5.12039 3.7134C5.37356 3.96657 5.71693 4.1088 6.07497 4.1088Z" fill="#2A7DB7"/>
<path d="M8.28086 9.10492L4.4334 7.48358L8.28086 9.10627V9.10492ZM8.28086 9.10492L8.39696 9.15419L8.28086 8.97869V9.10492Z" fill="#2A7DB7"/>
<path fill-rule="evenodd" clip-rule="evenodd" d="M2.57844 6.80202C2.95846 6.5138 3.59903 6.13378 4.434 6.13378H7.80626C8.72628 6.13378 9.41275 6.61842 9.74687 6.88842C10.1384 7.20499 10.4772 7.58569 10.7391 7.91104C11.1569 8.42808 11.5424 9.01465 11.7624 9.34742L11.7671 9.35417C11.8204 9.43517 11.8609 9.49727 11.8913 9.54182C12.031 9.74769 12.1276 9.97112 12.1836 10.1993C12.2329 9.93737 12.3361 9.68154 12.4975 9.44732C12.5643 9.3508 12.6446 9.22997 12.7384 9.08957L12.7459 9.07743C13.0024 8.69133 13.3486 8.17091 13.6909 7.74499C13.9339 7.44192 14.2524 7.08552 14.6379 6.79055C15.0044 6.50975 15.6288 6.13378 16.4455 6.13378H19.705C20.6048 6.13378 21.2737 6.61302 21.595 6.8756C21.9744 7.18542 22.3011 7.55734 22.5542 7.87459C22.9572 8.37948 23.3304 8.95255 23.5417 9.27722L23.5444 9.28195L23.5464 9.28465L23.5505 9.29072C23.6004 9.367 23.6382 9.42572 23.6666 9.46757C23.8697 9.77054 23.9847 10.124 23.9986 10.4885C24.0125 10.8531 23.9247 11.2143 23.7452 11.5318C23.5657 11.8494 23.3014 12.1107 22.9819 12.2868C22.6624 12.4628 22.3002 12.5466 21.9359 12.5287C22.1303 13.2327 22.3173 13.8726 22.4523 14.3235C22.6642 15.0342 22.2383 15.8024 21.4857 15.9597C19.049 16.4693 17.325 16.4531 14.706 15.9529C14.5271 15.9182 14.3575 15.8461 14.2083 15.7414C14.0591 15.6366 13.9337 15.5015 13.8403 15.345C13.7469 15.1885 13.6876 15.014 13.6663 14.8329C13.645 14.6519 13.6621 14.4684 13.7165 14.2944C13.8556 13.8469 14.0459 13.2199 14.2403 12.5273C13.8003 12.5555 13.3637 12.4344 13.001 12.1837C12.6056 11.912 12.3237 11.5047 12.2086 11.039C12.1609 11.3043 12.0606 11.5573 11.9136 11.7833C11.7667 12.0092 11.5759 12.2034 11.3527 12.3545C11.1075 12.5213 10.8286 12.632 10.5358 12.6789C10.243 12.7258 9.94346 12.7077 9.65844 12.6259L9.66249 12.6596L10.1127 16.7096C10.1718 17.2343 10.0237 17.7613 9.69982 18.1784C9.37596 18.5954 8.902 18.8694 8.379 18.9421C7.85599 19.0147 7.32531 18.8802 6.90006 18.5672C6.47482 18.2541 6.18866 17.7874 6.10258 17.2664L6.0749 17.1011L6.0479 17.2664C5.96534 17.7906 5.68031 18.2615 5.25414 18.5776C4.82797 18.8938 4.29471 19.0301 3.7691 18.9571C3.24349 18.8841 2.76753 18.6078 2.44362 18.1874C2.11971 17.7671 1.97373 17.2364 2.03709 16.7096L2.38674 13.5675L2.41982 12.665C2.02368 12.7438 1.61305 12.7023 1.24068 12.5458C0.868322 12.3894 0.551244 12.1252 0.330198 11.7872C0.109152 11.4491 -0.00576274 11.0527 0.000222449 10.6489C0.00620764 10.2451 0.132819 9.85222 0.363785 9.5209C0.429934 9.42505 0.509584 9.3076 0.602058 9.1699L0.620958 9.14222C0.885555 8.74735 1.24398 8.21411 1.59835 7.77874C1.8508 7.46824 2.18087 7.10307 2.57844 6.80202ZM4.43467 7.48377C4.01752 7.48377 3.66248 7.67479 3.39383 7.87796C3.11978 8.08586 2.86869 8.35721 2.64661 8.6299C2.33747 9.0106 2.01279 9.49187 1.74077 9.89687L1.73132 9.91037C1.6375 10.0501 1.5484 10.1831 1.47212 10.2931C1.41811 10.3656 1.37923 10.4483 1.35777 10.5361C1.33631 10.6239 1.33273 10.7152 1.34723 10.8045C1.36172 10.8937 1.394 10.9792 1.44216 11.0557C1.49031 11.1322 1.55335 11.1983 1.62754 11.25C1.70173 11.3017 1.78555 11.338 1.87402 11.3567C1.9625 11.3754 2.05383 11.3761 2.14258 11.3588C2.23134 11.3415 2.31572 11.3065 2.39071 11.256C2.4657 11.2055 2.52977 11.1404 2.57911 11.0646L3.8994 9.16787L3.7347 13.6667L3.37966 16.8594C3.3615 17.0336 3.41173 17.208 3.51972 17.3458C3.62772 17.4836 3.78505 17.574 3.95848 17.598C4.13192 17.622 4.3079 17.5777 4.44926 17.4744C4.59063 17.3711 4.68632 17.2169 4.71614 17.0444L5.38709 13.0201L6.07963 12.8662L6.76542 13.0268L7.43502 17.0444C7.4646 17.2172 7.56027 17.3717 7.70178 17.4753C7.84328 17.5788 8.01952 17.6232 8.19319 17.5991C8.36686 17.5749 8.52432 17.4842 8.63226 17.346C8.7402 17.2078 8.79014 17.0331 8.7715 16.8587L8.32128 12.8088C8.31756 12.776 8.31147 12.7435 8.30306 12.7116L8.28146 12.6272V9.10645L8.39823 9.15572L9.51872 10.85L9.65777 11.0579C9.75829 11.206 9.91354 11.3081 10.0894 11.3418C10.2652 11.3755 10.4472 11.3379 10.5953 11.2374C10.7435 11.1369 10.8456 10.9816 10.8793 10.8058C10.913 10.63 10.8754 10.448 10.7749 10.2998L10.6439 10.1027L8.39823 9.15572L8.39756 9.15437L10.6426 10.1007L10.6399 10.0973C10.4178 9.75984 10.0628 9.2212 9.68949 8.75815C9.45392 8.46656 9.1846 8.16888 8.89975 7.93871C8.6338 7.72406 8.25311 7.48377 7.80694 7.48377H4.43467ZM15.4263 7.81924C15.6868 7.62011 16.0351 7.42977 16.4462 7.42977H19.7057C20.1458 7.42977 20.5191 7.66939 20.7763 7.87931C21.053 8.10543 21.3142 8.39703 21.5417 8.68255C21.9035 9.13547 22.2471 9.66264 22.4617 9.99204L22.4637 9.99542C22.5123 10.0697 22.5569 10.1378 22.592 10.1898C22.6916 10.3375 22.7285 10.5187 22.6945 10.6936C22.6605 10.8685 22.5584 11.0227 22.4108 11.1223C22.2631 11.2219 22.0819 11.2588 21.907 11.2248C21.7321 11.1908 21.5779 11.0888 21.4783 10.9411C21.3927 10.8153 21.2655 10.7236 21.1191 10.6821C20.9727 10.6407 20.8164 10.6521 20.6775 10.7143C20.5387 10.7765 20.4261 10.8856 20.3597 11.0225C20.2932 11.1593 20.277 11.3152 20.3139 11.4629C20.6224 12.6886 20.9889 13.9502 21.211 14.6934C18.9666 15.1618 17.4195 15.151 14.9538 14.6812L14.9544 14.6792C15.2939 13.5933 15.6036 12.4982 15.8832 11.3954C15.9197 11.2479 15.9033 11.0924 15.8368 10.9559C15.7703 10.8193 15.6579 10.7105 15.5193 10.6484C15.3808 10.5863 15.2248 10.5748 15.0786 10.6159C14.9324 10.6571 14.8053 10.7483 14.7195 10.8736L14.6709 10.9451C14.5693 11.0905 14.4143 11.1898 14.2397 11.2213C14.0651 11.2527 13.8852 11.2139 13.7391 11.1131C13.5931 11.0124 13.4929 10.858 13.4603 10.6836C13.4277 10.5092 13.4655 10.329 13.5653 10.1824C13.6389 10.0757 13.7253 9.94614 13.8157 9.80979L13.8191 9.80507C14.083 9.4075 14.3996 8.9323 14.7013 8.557C14.916 8.28971 15.1596 8.02376 15.4263 7.81924ZM18.2248 5.45879C18.9409 5.45879 19.6276 5.17432 20.134 4.66798C20.6403 4.16164 20.9248 3.47489 20.9248 2.75881C20.9248 2.04273 20.6403 1.35598 20.134 0.849642C19.6276 0.343298 18.9409 0.0588379 18.2248 0.0588379C17.5087 0.0588379 16.822 0.343298 16.3156 0.849642C15.8093 1.35598 15.5248 2.04273 15.5248 2.75881C15.5248 3.47489 15.8093 4.16164 16.3156 4.66798C16.822 5.17432 17.5087 5.45879 18.2248 5.45879ZM18.2248 4.1088C18.5828 4.1088 18.9262 3.96657 19.1794 3.7134C19.4325 3.46022 19.5748 3.11685 19.5748 2.75881C19.5748 2.40077 19.4325 2.0574 19.1794 1.80423C18.9262 1.55106 18.5828 1.40882 18.2248 1.40882C17.8667 1.40882 17.5234 1.55106 17.2702 1.80423C17.017 2.0574 16.8748 2.40077 16.8748 2.75881C16.8748 3.11685 17.017 3.46022 17.2702 3.7134C17.5234 3.96657 17.8667 4.1088 18.2248 4.1088Z" fill="#2A7DB7"/>
<path d="M16.065 18.9501C15.822 18.9174 15.5991 18.7976 15.4377 18.613C15.2763 18.4284 15.1874 18.1915 15.1875 17.9463V17.112C15.9306 17.2079 16.6777 17.2696 17.4265 17.297L17.1767 18.213C17.1122 18.4495 16.964 18.6546 16.7596 18.7902C16.5553 18.9258 16.3087 18.9826 16.0657 18.9501H16.065ZM19.2732 18.213L19.0221 17.2936C19.7714 17.263 20.5188 17.1992 21.2624 17.1026V17.9463C21.2624 18.1915 21.1734 18.4284 21.0119 18.6129C20.8504 18.7975 20.6275 18.9171 20.3845 18.9497C20.1414 18.9823 19.8948 18.9256 19.6905 18.7901C19.4861 18.6546 19.3378 18.4495 19.2732 18.213Z" fill="#2A7DB7"/>
</svg>
